<mxfile host="app.diagrams.net" agent="Mozilla/5.0 (Windows NT 10.0; Win64; x64) AppleWebKit/537.36 (KHTML, like Gecko) Chrome/134.0.0.0 Safari/537.36" version="26.1.1">
  <diagram name="Page-1" id="k6LMEh1D0qDT1HhZ9cNr">
    <mxGraphModel dx="2327" dy="1700" grid="1" gridSize="10" guides="1" tooltips="1" connect="1" arrows="1" fold="1" page="1" pageScale="1" pageWidth="850" pageHeight="1100" math="0" shadow="0">
      <root>
        <mxCell id="0" />
        <mxCell id="1" parent="0" />
        <mxCell id="fo2ytR6l5RoMsaps6pNZ-15" value="" style="rounded=0;whiteSpace=wrap;html=1;" parent="1" vertex="1">
          <mxGeometry x="296.62" y="70" width="277" height="350" as="geometry" />
        </mxCell>
        <mxCell id="fo2ytR6l5RoMsaps6pNZ-13" value="" style="rounded=0;whiteSpace=wrap;html=1;" parent="1" vertex="1">
          <mxGeometry x="941" y="28" width="210" height="240" as="geometry" />
        </mxCell>
        <mxCell id="0gMe88-RUzZ61mWNXkSE-29" value="" style="rounded=0;whiteSpace=wrap;html=1;" parent="1" vertex="1">
          <mxGeometry x="580" y="30" width="347" height="240" as="geometry" />
        </mxCell>
        <mxCell id="GpLrsReoWp_d38bWohTq-3" value="" style="rounded=0;whiteSpace=wrap;html=1;" parent="1" vertex="1">
          <mxGeometry x="581" y="290" width="277" height="240" as="geometry" />
        </mxCell>
        <mxCell id="fo2ytR6l5RoMsaps6pNZ-11" style="edgeStyle=orthogonalEdgeStyle;rounded=0;orthogonalLoop=1;jettySize=auto;html=1;" parent="1" source="0gMe88-RUzZ61mWNXkSE-3" target="0gMe88-RUzZ61mWNXkSE-15" edge="1">
          <mxGeometry relative="1" as="geometry" />
        </mxCell>
        <mxCell id="0gMe88-RUzZ61mWNXkSE-3" value="" style="sketch=0;outlineConnect=0;fontColor=#232F3E;gradientColor=none;fillColor=#232F3D;strokeColor=none;dashed=0;verticalLabelPosition=bottom;verticalAlign=top;align=center;html=1;fontSize=12;fontStyle=0;aspect=fixed;pointerEvents=1;shape=mxgraph.aws4.document;" parent="1" vertex="1">
          <mxGeometry x="529" y="80" width="29.23" height="40" as="geometry" />
        </mxCell>
        <mxCell id="0gMe88-RUzZ61mWNXkSE-2" value="" style="outlineConnect=0;dashed=0;verticalLabelPosition=bottom;verticalAlign=top;align=center;html=1;shape=mxgraph.aws3.lambda_function;fillColor=#F58534;gradientColor=none;" parent="1" vertex="1">
          <mxGeometry x="847" y="105" width="40" height="40" as="geometry" />
        </mxCell>
        <mxCell id="0gMe88-RUzZ61mWNXkSE-10" value="Upload" style="text;html=1;align=center;verticalAlign=middle;whiteSpace=wrap;rounded=0;" parent="1" vertex="1">
          <mxGeometry x="581" y="70" width="60" height="30" as="geometry" />
        </mxCell>
        <mxCell id="0gMe88-RUzZ61mWNXkSE-13" value="Event Trigger" style="text;html=1;align=center;verticalAlign=middle;whiteSpace=wrap;rounded=0;" parent="1" vertex="1">
          <mxGeometry x="696" y="53" width="60" height="30" as="geometry" />
        </mxCell>
        <mxCell id="0gMe88-RUzZ61mWNXkSE-14" value="Extract Metadata" style="text;html=1;align=center;verticalAlign=middle;whiteSpace=wrap;rounded=0;" parent="1" vertex="1">
          <mxGeometry x="837" y="149" width="60" height="30" as="geometry" />
        </mxCell>
        <mxCell id="0gMe88-RUzZ61mWNXkSE-15" value="" style="sketch=0;pointerEvents=1;shadow=0;dashed=0;html=1;strokeColor=none;fillColor=#DF8C42;labelPosition=center;verticalLabelPosition=bottom;verticalAlign=top;align=center;outlineConnect=0;shape=mxgraph.veeam2.aws_s3;" parent="1" vertex="1">
          <mxGeometry x="671" y="83" width="34" height="34" as="geometry" />
        </mxCell>
        <mxCell id="0gMe88-RUzZ61mWNXkSE-17" value="" style="outlineConnect=0;dashed=0;verticalLabelPosition=bottom;verticalAlign=top;align=center;html=1;shape=mxgraph.aws3.lambda_function;fillColor=#F58534;gradientColor=none;" parent="1" vertex="1">
          <mxGeometry x="845" y="184" width="40" height="40" as="geometry" />
        </mxCell>
        <mxCell id="0gMe88-RUzZ61mWNXkSE-18" value="Extract Insights" style="text;html=1;align=center;verticalAlign=middle;whiteSpace=wrap;rounded=0;" parent="1" vertex="1">
          <mxGeometry x="835" y="228" width="60" height="30" as="geometry" />
        </mxCell>
        <mxCell id="0gMe88-RUzZ61mWNXkSE-21" value="Metadata DB" style="sketch=0;outlineConnect=0;fontColor=#232F3E;gradientColor=none;strokeColor=#ffffff;fillColor=#232F3E;dashed=0;verticalLabelPosition=middle;verticalAlign=bottom;align=center;html=1;whiteSpace=wrap;fontSize=10;fontStyle=1;spacing=3;shape=mxgraph.aws4.productIcon;prIcon=mxgraph.aws4.dynamodb;" parent="1" vertex="1">
          <mxGeometry x="965" y="81" width="50" height="82" as="geometry" />
        </mxCell>
        <mxCell id="0gMe88-RUzZ61mWNXkSE-24" value="" style="sketch=0;points=[[0,0,0],[0.25,0,0],[0.5,0,0],[0.75,0,0],[1,0,0],[0,1,0],[0.25,1,0],[0.5,1,0],[0.75,1,0],[1,1,0],[0,0.25,0],[0,0.5,0],[0,0.75,0],[1,0.25,0],[1,0.5,0],[1,0.75,0]];outlineConnect=0;fontColor=#232F3E;fillColor=#C925D1;strokeColor=#ffffff;dashed=0;verticalLabelPosition=bottom;verticalAlign=top;align=center;html=1;fontSize=12;fontStyle=0;aspect=fixed;shape=mxgraph.aws4.resourceIcon;resIcon=mxgraph.aws4.documentdb_with_mongodb_compatibility;" parent="1" vertex="1">
          <mxGeometry x="969" y="173" width="35" height="35" as="geometry" />
        </mxCell>
        <mxCell id="0gMe88-RUzZ61mWNXkSE-25" value="Client Master" style="text;html=1;align=center;verticalAlign=middle;whiteSpace=wrap;rounded=0;" parent="1" vertex="1">
          <mxGeometry x="1036" y="175.5" width="72.5" height="30" as="geometry" />
        </mxCell>
        <mxCell id="0gMe88-RUzZ61mWNXkSE-30" value="" style="outlineConnect=0;dashed=0;verticalLabelPosition=bottom;verticalAlign=top;align=center;html=1;shape=mxgraph.aws3.lambda_function;fillColor=#F58534;gradientColor=none;" parent="1" vertex="1">
          <mxGeometry x="667.62" y="338" width="40" height="40" as="geometry" />
        </mxCell>
        <mxCell id="0gMe88-RUzZ61mWNXkSE-31" value="Extract new AR from EDGAR" style="text;html=1;align=center;verticalAlign=middle;whiteSpace=wrap;rounded=0;" parent="1" vertex="1">
          <mxGeometry x="645.62" y="381" width="90.38" height="30" as="geometry" />
        </mxCell>
        <mxCell id="N1ExESrbAP3tb2hnobks-1" value="Stack 2- Document Processing&amp;nbsp;" style="text;html=1;align=left;verticalAlign=middle;whiteSpace=wrap;rounded=0;fontStyle=1" parent="1" vertex="1">
          <mxGeometry x="583" y="30" width="224" height="30" as="geometry" />
        </mxCell>
        <mxCell id="QwIwqJ6ydblgDalMbVSR-1" value="" style="shape=actor;whiteSpace=wrap;html=1;" parent="1" vertex="1">
          <mxGeometry x="8" y="133" width="40" height="60" as="geometry" />
        </mxCell>
        <mxCell id="QwIwqJ6ydblgDalMbVSR-2" value="" style="shape=image;imageAspect=0;aspect=fixed;verticalLabelPosition=bottom;verticalAlign=top;image=data:image/png,iVBORw0KGgoAAAANSUhEUgAABLAAAAKjCAYAAAANs/bAAAAAAXNSR0IArs4c6QAAIABJREFUeF7s3QlYVGX7+PEvMwzDNrLIgKKCue+79qZZaVL5upRbLpWva6apaeaWuaa5lJlZlpZl5pJbprmLWm5p+svUNLdQURREEJyBYWaY4f8/Z0RRUUEQs26vy6vep7M85z7Pds575nO7VatWJuPixWgSEoqg10ej1VbCbD6C0QgJCWHodNE4nZWw24/gdIK7u5RJDKQdKP1Drw8jISEEozFF7TNabUGWFcFoND+A8z6o65XzPri2JrGX2D/IsU7an7Q/aX8Pdr0hfVD6oPRB6YMF+YwjY87DM+bEotWa0euLkJAQitFoxWw+k03Z/nx9TnZr0KBExp498Tidabi5RQCb1BdVGRmg0SBlEgNpBzf1BaMxBJ0umZSUMFJSwtHpkvD1jS7QMrM5HA+Pgj/vg7peOe+Da2sSe4n9gxzrpP1J+5P292DXG9IHpQ9KH5Q++KCfe2QceljGIRO+vqdueibOrixvz7BulStXyrhw4TgWSwBeXvFAGCZTNA6H8qbVmG2ZXh+PwxFGWtr17aTMiMTg3xMDgwG8vIxqvzEY0jCZLgMWvLwCpExiIO1A+oKMBzImyrwgc6OsD2SNJGtCWRPKmlDWhLImzOc1oVv58v/J+OuvPfj6ajEY3LHZlIdxLVarE4MhA4PBM5sysNm4aTspU15qSFz+HTFwOJz4+Gjx8XHHbndiNjvUfxZUma+v0lcL/rwP6nrlvA+urUnsJfYFNa5JW5O2Jm2t4NYR0t+kv0l/k/5WkM8uMub8+8YcPx93LPfhOdmtSpWaGUePHsTLyxtvb2/s9jhSUz2x2+14ezvw9g7Jpgzsdm7aTsq8vSUG/5YYuLvb8fDwVv86HHZstlT1n1ImMZB2IH1BxgMZE2VekLlR1geyRpI1oawJZU0oa8J/85rQz8Mb8314TnYTxF2AekH6c5+oQBD3gkbrBXR8eEBHaRsFn9RB+of0D0GWBVkWZLlgk+nIuCvjroy7Mu7+e8bdaHMsRq0Zm74ItoRQtEYrHmYXzm7Th91S5moboRi1VsweNyHu2hTMHjc9L+SiTBB3QesF7s918oIQihd/sKDjPw1xNxqjgWSSkx8WpDBv+GBBo/+CX0q7EoT3wY7Z0gelD0oflD4oEHbBJjyScVfGXRl37+e4eyPOHpgSTobOhNP3FOiScUsJQ5MSTqzOhPFqWXKWBGhG32h1u3spyzfEPTsA3oWaQ1oaKD6UxfLvQb4zEXyB3f+Z91xpz2AE8g9xV44F8RgMSiKFB4XCKy+S7gTU50f9bjwHpAH3cr23r8v585cxGHKO6rtin3/3UjD/nMdeYiWxkgQY9zL+yXglSVQkaYzMHzJ/yPwh88eDe2aS2J8/H62+41ESm3lZ4sGgGOngAPRX/zqulqnPlxixXHvWvfo8eA9l+Yi4u7B3m02HXu/LU09VJjy8EmfOQFTUWU6f3gNcQa934dMmkyMLFP/vgL+vw/hyvQ87eJ8fiLufn7vaB65cuQ7AK2UWy91x9rwg7nc6R0qKQ+2ft4c9fbHbDZjN52+L1gcFeeLvrychIfUG3D7zvFnPkV1d7h6Dxvj4bM03QF+Jt59fwcCKd782AUUFFC3YhBCCqhZM35c4S5wFzJb5TeY3md8KOumTzD0y9+R17skOYlfKrI40/MxavLROShfXEh7ujtXmJM7k4PRJJ3qNlgse6VhskJyivfbceLvj3Yy932m7fEPc/fxK0KzZczRv/gply5YmPNyATmdQv75yOBJJTbXz008b+PHHpaxfv4vU1NQsULzg5/8W/Px6coCH+57nB+JuNPrz2GM1CAqqRVCQjcuXfTh+/Df27j2IyXTuvqHwfn7emM3ZI8vlytWkbt0aJCYG8Pvvu7lwYdc1oD48vDwNGlRDo9GzaNHi29bv66+XotPF07Pn8Btw+8zz6nSe1K/fkdKlAwgM9CYtzc7evefYvv1LtFp3lO10ujLUrduEwoVtJCUl4OlZAY3mAPHxhTh8+AAXL+6nTJlmPP54TfUcGo0NLy8fLl/2Jigo89psbNy4koSEhNtC+3XqPK2e6+LFlZw+ffvt8gtgvFPs8+scAgcLHCxwsMDBAgcLHCxziiSTkGQSkkxC1oSyJszrmjA7iD3Q05vSVQvTPrQowVXtBHp5E+jvTaD9IMdSwzHb7VjN3kRtTWDjob38kup57bkxu+PltuwGxF2nyx1mnZZ2RP25UdWqoQwcuIQ2bSri4xMLVAKUz8LC1P8OynauMputCOPGfcPs2cPw8EgkISGM3J7Xbj+C0wnu7rLvwxiDjAxQXtg9zHj8vSLuFy/GYjCYKVWqJtOnT8VgCCEw0ITdXg2dLoa0tCLs2bOXSZO6EBNjwmbTY7OFoFVgO/MRlPPabGFqPzIazZjNsWi1ZvT6IiiYZtbtlN99Z2SEYjRasdvP4HSa0emU7VxlZvOZa/vGx4fidFqZMOE/NG/eGXf3UDZt2sj48TOxWl3wXo0a7fjyy6mkp1upW/fRG85rNLrqFxwcwtatv3LiRAL//e/LeHi46qfUNyAglOLFSzB8+PP85z+lsdlC0ev1eHqGqPsePpzC6NH92LvXjS5d6vLGG13VeirbKdesXLvZvJ9Ll6wMGjSSOnVa8+qrEej1NvW6lTjZbG5otT5qXIzGSgwd+hYLFmwjs35ZgdfKlYswf/4k9b/NnbuNd95ZhlZrxeNmaPDqteUVh3XdN9c9Mhhis9wPgWAFghUIViDYfw8EK0kOXPNlXucU6TPSZ6QNST+SsUTG0+yecfJUdhtMXWs+QogRPHTwWPVQ2jSpSCHtfoxGHxIS3NDrQ9XnKOX50lWmfMxUiEuXfmfCQm8OXUrEagN3W12c2Z0jF89beULcHY4QSpRI5ocfzlO9egDKiwk3N+WF1SYg4urLq1v/kZ4Oc+dOZvLkMZw5k4ZbrhFt1HNpNMr5lPNsUl9o5W9ZCBkZyWg0Sv1c15D/58jvOv+9j6e8gIiNhZIlywHhnD17P+5bQcTg3hH3tLRoihZNZu7cWZQq9SJabTzjxo1j//7NPPPM67z66usoyOe2bQsZNWociYnBBAaGExvrQsNLlUomLS2MK1dcZZn4uZtbGBpNOBkZScTGRhMcnMzly2lYLBEUL27C6TylIumlSoXh5qZsZyIqylWWCafXrm1izpzJuLlZ1XOePKkjIqITBsMptU6VK7dgxozZOBwmmjatewu6rtTllVca0rfvBLZs+YkePb68Vj/lHBrNRVau/D8qV1bqvoUxY5YRFZVM0aJpTJkyguLF67J27TwGD55PtWrVeP/9tmo9Bwx4T71e5domTx6GUs+NGy/RvftiSpe2odHEUr9+XYYPH0R8vB9jx47i6NG9ap1TUw1ERQWj011H12NiwihbthyjRg2lWTO9Gsf1639l6NCf0eluBAkzAdD8ROaLF3fdt7i4ZJT7FhMTfkP9BJy8n+Ck4PtZ+4K0NWlrgkoLKi1JRWRekHlB1mEC3gt4n3VNmAmsZ0LsGbok3Hz3gg6G/rc5DSu6kaE8V7odgwwrbpokNG4RxLIFozPoapkZjVsjMjCx1z2GyR/FczY+jSspEcRmeS67l7Woirj/+edx9PoAbg+xh6E8eN8Mk3t5pfPjj99TqVIpFe9S/phMCuYVhsUSf8eyxEQT06bNZNasqTid17H3nODnypdcChCmgmFe8eqXXq7zKlC88v/IKD9bzL7O2V3H7cpuPp5O58LaFDhUOa9ynQpelpM65+a8D+PxlFhVrVqJypUr3xB75aXfrl0HsFrTqF27HK1bd8Pd/TKHD0excOFS9WVLfl6v0g4yEfJMQD+7srzej3tH3KNp1ao5o0Z9hUbjyaBBA9izZzcm03EUjLR580GMGtUHmy2adu0aU736kwwePAKTKY0LFy5Tr14TNJodbN9+galTv+Lo0Uj1heDw4W/QoEEDEhLSVAB+//4DTJu2HotlD4sXLyAoqBxbt66mUaPm6otf5f+1e//9j/n++6/Q6cpx4UI6gwfXpmvXEZw+fZz09ABKlgxg0qSxLF68Qu1b9eq1Y968hZhMx6hb9zG1L2SF59PSLvP11x+pL7rGjZtMZOTSGzD6ypVL8fXX3xMbe5YhQ97g6NEodZxQ+lGtWuV48sluHDq0gq1bD1C9em1mzZqEArw3b96KkyfTMRjSCAyszapVo0lJuUz9+r3UMgVsb9myCR9++C5OZyhdujTl0CHlq8/scVOlzj17vkH//l3544+DVK3ahCVLZjNu3HT1fHcC5YsVK0dKSjpJSWko44HDYcHfP4BChQKuxf7W82ZtkwEEB6fRv/9HDBr0Elar798A7heEUgBQ17ghGK7EQNqB9AVlXpV2IDGQdiCJMiRRhiTK8CLgGrruTIum0xPQtcFTaPwDKOE4hkn5NZ6CuFuMWJR3I1ffySiKu5f+elmiqSiHEtL4aOl5jsfE44LdlYxoFvAKAEsAGNIgh2vRLIh7BgaDC2I3mbQ5AtabNRvIzJnv4e6u/K4RrFZITLRgNltVBDo42Jf0dBfaqPyx25X/pjw8e1CokJazZ2H06E5s3bqCs2fT1J+VKcdQHpazQ779/DQUKmTk4sU0Ll26gsORgUajoUIFI8eOXUKBtf39levIO5Kenu6DTuehevlubhmkpaVhtV5W6/fJJ99z4MBCZs1ahpdXzmJls3mpLyF8ffOnfjm9RwWzHeqLkXbtOqPRpGKxZKgP+co/09P/YsuWjwkMbEDz5r0JCXHidGZgNqcycuRILlw4n6O2dqfr8PPLoHBhLxwOD/W8dnvGVYRcAeOUc91adulSstoWlXZbokTu20teEPd33vmMLl268uefC+jY8VWyouaFC/vy9deRPPJIbV5+uRfFipmYNWsB587tITbWn19+2c6zz9aiXLkE5sw5xttvD2Tu3M944omeHD78DQsX7uHpp1vStu1TDB7ci3XrNrJw4V5CQoIxmZxs3ryQwEADTzzRmjNnDtK79xhiYtZSqJCB8eMnUatWU0aMGEy9es/Qt29XVq36kJ49h6rwXqNGbVm+vCdnzxqoU+fxWxB3JefEypUnMBhSadaszi0Y/eTJb9Ku3WRWrPiB116bqULsCmquxFKB7BU83ttbi7+/L02bjqJv37ZotQY6dWpAfHyU2k5q1qzHRx/9iN0ec8M5GjT4LzNmTMTf/y9eeOE9Dh3ad1uMPiKiFsuWTeToUTdGj/6BCRPGExm5junTu90W0PfyclCyZGMmTOjJ5MmDOXLEqbZdp9PJiBHvUq+ekc6d+6nJKW6HtBoMWgwGd4KCavPuu1N58cXGeHjY1LKbMX9BNwXdzCu6KW1I2pC0IUHDBQ0XNFzQ8LsnRpL5UuZLmS9vnC9TzA5sdleZCrbb06jmG0rf3rUpZ/yLcJ8oLDYn5hQHdosTn8xkWEqZyYHFmiVB1rWyxmzYG8Py7Uc4ZoEr5jvD7nfql1kQdwfe3iHY7XGkpnrmCFjfsuUElSuXUX9ip7wI+OWX5XzwwUpOndqKXu9N5cqV6NGjExUrtiMwEFauXMonn0xj2rQvqFKlsvpSa9y4scya9dnV87pgb+VFVnaouZdXCH/8cZo1a7bz6qvP4+lpwccnhIMHT/Pcc/U5cOAg3t7KdeQdCF+8+A/q1AnA0zMUNzcH0dFxvPdef779djmHD//BuXM76dKlF5cu5SxWkydvZOjQdtjtyflSv5zeo4LZDt55Zxznzyewbt1314BwBQr39vamVauWPPfcswQH+6vtKj7ewZYtG1i/fgVJSXnH/P38HPTt+xElSwaqyQEUxFvBvD09vdFq7Vy5cmvZkiUrWbdu+W3b2t3aUF4Q908/nUGjRu3ZsmULb77ZDYfDFQOdrrz68mf69HHUr/8KixbN4bffdjF9+mzi4w/SocNgjh//iSefbMQHH7yLt3cNWrRozqJFnxAUVIFGjYqo11u4cEW++moRcXHnad++A99+u4xHHvHj44+/ZN68mYSGFmPx4s3ql1gdO3YjOnoXlSu3Z/78GaSnn6N16/6qmbVkyRx0uhRq1myuwnuPP96aRYuU4x7k0Ufr34K4+/t7smjRZs6cOc1bb3W5BYrfvPkKYWHw5ZdjGD9+PDqdN3XqNON//6uJyVRTvW+pqfsZN24GTZrUY8SIuWg0drZt24DdbiIgQI+v71OULWsgMnKl+lPBTIz+iSee5aOPJqDXl+TFF5uqPyF0xfRWvPHjj9fTrl0DevV6nnPnwpk5cxSRkZuYPv3t2+L2SrtS6tKvX1969BjHa69FqOPNoEFfUL26Xn0JduLEObX93Q5Pnjz5KwoVMlGsmB5///9y5MhBnE5Pjh/fzty5H2EyCTos6LCgw4IOCzos6LCgw3lFh6UNSRuSNiTJTCSZyb0/VzhsqdgddnQe3ijAut0Rx6tNQ2lXtwyF/fbjp/NWoXabIxyHWY+H3xU8dCYcdj22VANmux4/tSwBh7Jdaqq6/RX38nz4zRH2/AXxtjvD7ncax+8Zce/WbSiTJnXG07MSdns0W7eepGvXUbi7/0GbNg1wOkuyadNyjh0rzJo1Y2jSpASLF+9k0KDRREbuoXJlBZaqxJkz0VStGp4D0Fv5UiaUP/+MUfHLt94axPz566+VNWv2OIcO7SQoqAkNGzZBp4MdO77n999/pUWLziQlJbJtWxQtW5amTBkPZszYi8FwgebN+/DXX2v466+TKihfqNAFvvtuM2XLujN//kYWLfqKGjVeomfPNvj6xtK+/UusWbOTK1cymDr1S4oUSeLYsb/YvHmH+jXWs8/2oGZNL/WF3JIlx4mJOUj//jPo2bMhEyZMYefOo/z1154cXO/DBdQrptO6dcdZuHCq2iYMBhesWL58Nzp3fo6QkEoYjUeIjlZeZEayY8d+YmNTyC+Q//HHS6gvTNPTXTi2u3sRFflXfsKYnq6g/zeWLV48mUuX7j0RwL0i7tHRR1i+fBbPPvsc69cn0b17F7RaF6auQOdFi5ZmxIgZtGzpxhdffMfRo0cZOXIJ6emJ1K1bWI1p6dLPsXjxShVxf/bZZ5g27UMKFSqJ06knLEwB0RV03UpKioEaNR5lyZI9VKtmY+zYmaxcuZG0tNL8/PMM0tJsdOrUVIXiX3ihI337DiEubj9//fU7EMoTTzyugugfffQm3367hQYN/sO0abdH3CtVKsY336xj/vyPmDFjMU6nAiteR+ZHjBjFM8+0Ytu2Lxk2bKQKyr/wQi9Gj35NjQFYuXQplOrV2/L88zUYM6Y3YWHVSE6OUXF25avIixd/4cCBaObMWcAffziuYvT7efrp5kydOgmzWcdrr73JiRO/ZIukDx3anVatRvH998f47rvJlCyZxKxZH7J48V7Gjl2Gj4+CD7rQ+tsBuR07dub553uzfft4qlVTXiZOZ/duFyTv4XF7ULR166GEhdVVv+xs1iyIxYs3otEYOXfuKBs37rjreQU6F+hc0GZBmwVtFrRZ0GZBm/MENOcCSpa2Jm1N2pokWkpIiKZ48Ur8+LrNlVwrwQ2bXkkI5oM9vAye4U9hTzqGxewNFg98fOJUesrHpyzno91JjdqK0b4frdGMLaEMi9YfYd42iPZwkTbX1ra5gN3vEXGHESOWMWJEG/XEiYnHeeWVQfz+exxbtoyhdGkdGk0Ely5F0ajRGwQFJbBx43CWL0+jb98ubN++g8qVa16F0Y/TpElfdu5Mwunce0eIvVixUKKiYjhw4FNKl+5O7drVsdvNatmjj7ahbFkbU6YsxGLRYbMlExLiR8+eJZkyZTO7dm2mW7c3+OWXHdSq1YBOnVpw9qw3GzdOY9iwQXz++Q8q2F64cAC///4Ha9asZPz4QZjNJVRAunTpDLTaA6SkXGLPnkOYTMW4fDmVokVj8POrSqtW7ahevSXjxzfl5MkLeHgk4eUVTNWqo1i+fAyPPlqT8+c38dZbX7BuXdJ9gucLAjDP7hwhfPPNZNavX6O6VlptXRWpVsDxwYMVY6mper2KT7ZnzybmzdtJQkKxhzgG9464K1hqnz4RdOgwkitXDLRr1xvYfQ1E9/CowebN0yhfPoaIiP9RsWJrBg9+R8Xemzevy+XLyTRo0JT33luktrEOHZrx8cej8fUtz5w5v6ovri5cWExwcAWSklJYuvQSq1aNoUoVK716fcWmTT9TokQFli4do76sadasNe7uBubPP4Cvryc+Prvx8HiUs2dPUKZMMBkZVr7/fiGdO4+jVasIJk6cjVZr4sknb0Xcu3VrxsSJ9Rkx4ldWr/75BmReQdybNXtM/bmd07mddu1ex2IJ5uLFvyhc+BlCQmJYseIddLrqlCjRl1atqjB2rILcm9TsgNHRyaSnp5Ge/idJSRdJSsrE7V3o+jPPNGTKlEXExl6iT5/XuXBh5y3IvBL7RYsmU7nyY0RHG/DwSMZqjaJSJR2JiY9z6tRpevUazuXLu1UA/naoYOHCJenb93Hq1KnGwIEDVew+N/hlWFgqixe/SadO3bl4Mfjqvtnj8YLrCq4ruK7gurkZX6S9SHuR9iIY872gyLLekPWGzB8yf1xLXuUbDbpkFMQ9Jjmc5tWTeG9ILBmxJgI1wSS7hasfHjhLRVOyZEOSz5Qm8dz/UaRWFSwWK4mJ8YSElMbfN5TzuzdRKGUbuoxkUgJLsWlrMcbN24TNGHLtHJqUcBV2z8Tjk1PuPI7fE+KuAOafffYpzzzTXAWYT56M5z//CaZ//6EMHNhHRbwVQFuvNzJ//iLefPMt1q//nuPHo+nd+3/s2rWdsDDjNex92rTJvP/+0myh+KzYdkCAjujoGBo1as3atQuYM2cKU6bMJDr6JI8/3pS+fTtTp04rXn75KfUnjQsWrOPw4YMo6Ptjj71AgwaPsXfvdhVqXrhwOnFxpRg1ahClSoVjsURjtRopViyd3bv/4LPPPkapl8ViVK/FyyuMS5eiVS9p7do/0GpDefVV5cWMF4sWbWL8+De4ciWYxx4rweefj+S//23A229/StWqjxMRUZsxY0bQqFFjzp7NUI+XH8h8fuLneUXNv/56FmvXHuC772bi7x9G/frl6N69G+npRa+C97BoUaSKhteq9Ti7d/+k3iMF478ZXc9tXfz9jdSv34SSJb2UNAKAkuXwOKD8TFUBtG8t27o1kj//jFbb6L3cj3tF3BX0v2rV5qxYMQm9vjxbtnzFhAnTuXDhuNpW3n67PzVrluPQoQsMGNCaevWeY+JEF5w+fPhbbNkSSZ8+r/LOO9P59ddIOnZ8kaVL11K0aHkVTl+xYilVqxp58slWJCaeZ8WKb1m7dh96vZ3Roz9kx44fCQwMY/HihepP3Vq1aky9em356qvpnD5tYcCA7lfvBwQGetGnTx/Cw3157rnXKFGiKLNmLVETJtStW+UWxH3ixFk0blyC3r1n8vPPkSqwnhWCDQ4O44cfFuLlZVdB+alT56k4u5KFsEKFckyZMkn19GrWrELz5h2ZOFHB62HAgL78+utP6nhxO1i2UaNMxD2MLl1ac+jQnmxA6mjGjp3FI48EXG0jabi7p6svtGNiDhMVlcbUqcM4ejS7fe+GO7sw+rvBt65kGWlMnPgRvXq9hEbji9Uar/aZxMS7nUNAUQFFBRRVkl1IO5AYSDvIPkmJxEXiIsk4ZC11t7WozKEyh95trkgzRSsOO3ovI1ZLPC8/2ZHXmkThbziIxuILXko/K4dJZ6BE1SZcOH0cS2I6RcsZ8Qh5FNOFSAIDy5Nuf4SEk6vRnV+qUMmgr0TUxXT6TzvOSdcrALwwXoPic9p27xlxnz59FS1btlBP/Ntvh6lXrw7Tpr3Biy+OU/FkBYRXQPXlyyfRt+9I1q07y9GjOxg79n/Mm7edunVrq4i78kLo3Xfb8fnny+6Ixytge+3aoWzdGkNoqDsffDCRtm0HMmxYXT7/fB9PP92Y996bS926JbBYbCrwHheXjtWawaJFH/DWWyP49tuNNG8epgLPPj5B6PW+hId7U6XK4yrO7uen1OcR1q07wezZIxgzZjIajbv6NzjYSUoKmM1PcvjwJ+pPmV58sYuKbUdGbkf5aZKfX3H695+IXm/m9OkMqlTxJyLCizJl3mDmzIGUKlUJkykx11h+wUDsOcPob1eXL774jDVrNrF9+1IyMjwYO3Y+NpsST3eKFtUyf/4mpk37DHDyySeL+eCDzpw+rcD9eTuvgl8riPugQS8TEvJ0jhH3OXNmsWfPHgyGe0P17xVxdzptKh7/0kvNmTx5CW5uCjx/HrvdgI+Pr4rlHTu2malTV7Fs2Se0adOWr79ezOnTe9Bqi7Ft2x6aN6+It/c5vvtuLwMGjFH7QsuWffH1hc2bN1Kv3vNYLGnMmdOZtWu3s3y58mWjjv/9T8n8t5zQ0CAVdtfrdXTq9AZPPaVn3Li5LF48iTfeGInN1hiDYSshIYWZPPkTatZ8lC+/3MMvvyxh+fLFnDvnpHZt/S1Y+Y8/bsHfvzbPPmsgI8P9FhBdAdvbtu3Na6+NU1/c+Pik4+e3FYulMWazVq3zb78t4a23evHMM28wdqzylZaBV155ipiYY+r5smKkyvEsFleZC3Ffhb//Klq0eI/Dh/fdUr9MLN+FqSsvjgxUqKC8lNvAzp3rGDlSeflu4MoV5X7cH/w3a52Vuvtlooc3XZuAogKKCih6f/qg9C3pW9K3pG/drzlexhcZX2R8kfHlnzC+3Iy4N25Sm9ENgrCqzy7r1GdWu83AldRahD7ajMSoTSTaN1E0+DkyvGqpHwxVLVGNgIblOP3Tanziv1exdy+/ikQ5ohgyPI0DZu0NULwlF89C94S4K19FfPbZZNq0GaLi7ImJJp5+uiwGg4EffthDYKAdCCEtzULTps8TE3Oeffv2sGHDWnr0cH2BVbRobXVf5VhvvtmTlSu/vCsebzCEql9guTLO2dmyZTXh4REULmzPkiItAAAgAElEQVQnIqI5/fp1oHr1x+jZ8xVMJhsmU0ns9gN4eBRj166dKur8229/sWDBeEaMmE2RIgZmzvyCceNeVfF45QWWgmFv2LCZqKhTvPDCc+h0bvj5edOmTUsqV25B//6d2Lv3MPHx+2nd+gUqVqzNunXKC6y+vPrqbPT6g7Rv34aWLV9l4MBhtG7dkjJlFKx+FQ0aFCM+/nyusfyCgdhzhtHfri5ffjmDtWuVjHdLefFFJePgG+r9VXJr7tixi6VL5xATk6jegy1bdjJkiIJer77rPb8bpq4cT0HcrdYQAgLsOJ05A+uUn3+6kPl7Q//vHXFPJChIeREKxYs/xuDBA9UXmpUq1eDYscPs37+fNWuWc+TIYa5csdO9e2s+/ngR0dEH2bhxI5Url8Xd3ZujR/fx8cffcebMXwQF1aBZs0d5+eXWeHsrEHpNVq2awsKF3+Lt7cHMmeNwdy/F0KETOHx4B0WKFGb06HEULlyKtm1f4LPPhlG4cF0mTx7P/v3bryZw8MbX11vtA+3bv6OC4198MYUvv5xCfLxdxeNvxhFXrtyjmm+9enVR+0wmsJ65XWCgtzo2+PhUpE2bd2nY0Iqfnz9ms55jx86xZs1W/u//FpOR4eCRR+qpX4yZTIohN4W4uNPq+bIi39fPEc4TT4QxdOhgkpLMDB06iHPn/rqlfplYvpJYQPmrtJ3Q0BCmTRvFli3H+PTTz1Du6/3E1LPGRYmP8r8Fm5UYCDYr2KxgszmbuyXRgyR6kEQPkuhB1k2ybpJ10/1dN92MuFerXobJHTzBvItAP3c8dP4q2G4inGK1nuXyib0kRu+maN3GuPuU5Ny5rRQpUhdPXTWiD63G1/YjDrMdN7/yRJ9O4M0ZcRyzed4AxZtves67K+J+6FC0il7rdNE5wsX1esXxmcaoUc+o2yv7LV/+B/36daJIESNDhvTBaCzJDz9sVh9K+/V7kl69OrNmzVnefPN/bNiwnfLlvVTs++zZw1St2k1FrBUsUEG3FXw7u7qUKJGuIu7e3m4oiHaTJq+i4OHKHwVxDwsL4OOPJ9Gv3/cq4DxpUgc++WQmX3yxkWXLfuXRR0PUh/UJEyZz7Ngf6HSlaNKkF3v2fKseT0HclWt7661p9OtXl+hoD+bMmUvx4mXo2/d/bN36PX37DmTv3t1s3GijR4+X1evYvn07/fqNZOTIwcTHJzBz5hTeeON/VK5ch88+287+/Vv56KOufPzxFBYvPkp09D8XcV+//mMmTFhKaOgV9YXV6tVLOXbMxqVLLghRub8//ribDh36qej13e55Ttuk0eikaNFGpKX9RkiIB3FxJdFqo3E4inD06Job7q9WWynP571XxD3nIKYLP3/++X6MHPnBVcS9rFqm1xchIaGIirjn/Hg5hW+vo+uChgsaLmi4oOGChud07JTt8n8+kphKTAXRFkRbEG1Zj8t6/MGux6MxGiuxopcb4eEp2BOdBOhDcWqtRJvPYKz8FLZzR7HZCmEs50OaTxlINUNaEUxpO9Fe8sHDvBmtE2zulfhq/5H/bzFfR9xt+jBsCSFojSl4mHM2798T4u7uHkGpUqls2jSN4OAk3NwicHOz8NFH3/Htt904csQTNzc3dLqn+eST1+nY8Uk0Gk82bFjG8OHfsmDBaPXLJWVhPGvWZPr335wj0DskpD3btk2nXLnqZGQkExyczgcfrKB+/bq0b9+HAwe20LNna4YM+VRFmDduXEn//sNwd7/MwIFLeemlhgwZ0pHvv9/KokWTqFSpF61aVeXUqXM34PEazc+0aPE47747EKOxHFeuhBEZGcmgQQNISYnh118XsmlTPCNGfEmVKk6++240n3/+LSdOBPDpp+MICopm+vRleHoG0qxZLzp37q1mcqtdO4mePb9g8eJ/LuK+fr2V0aMjWL58BhcuXOTUqSQyMiKAJBV2j41NZvXqeTz//ItXEf+8w/PKl14jRsyjdGlPXD+w1QBKlssILlxYQ58+L98xOYDSfhVkXnm5lpEBGg1qm759Wd4Q9zsB4dfwPKNidyXz2GODmDfvHc6fj78BTjebw1XEXdBNiYGgm4JuCtosaLOgzbdPvCH9Q/qH9A/pHzlZe8uaWtbUsqa+/Zr6nbbxtGiRhDEmmBS3cHSY8DWeQqdTMt+HkpJSTP13n7RoPNKTMGnCCXILJgMrKcZt6GIhRtOKgZ+v4GQ0JBtD0JFMSnLu56gbEPfcYtbDhvVh8OChKkLs5WVUX0jExR3m0CFITz9CvXrVMRjKqV9TQZgKJR8+fJx69Zqg1V4mIUHBjN9h+fKlOULNLRYXlHw35NsrExYzHVGh8HuBuhWoWvkTGFgJp1M5jgI0u8qUa71drBTsXfG0kpKuA+FJSa4vyhT4OxOF/6ch7h9+OItjxw6wcGGkiuQrscq8XgX9V+6/Ula1ajkGDHiD/v1fz9E9z2mbVOByV9sAh0OJfWUslsPqeffvX3+tHWSty722DaX93SvinlOcLnO7evVa0bfvCBWl79xZAdYFKJUYCFCa2350N6xSjndjwgUBXgV4lT4jc63MtTLXytwoc+PNCZlkffBvWR9cf+eR+f6lVuF0xvRtgNP+E8W8lIRYaaC8GzEoj6dGFXY3KLC76Yha5mWphMXryNV3AJdxGCwc+LUckxcewUEYfxDt2tXLiJclHgxhYMrZuOtWtux/MqKi7g2z9vcPZcGCfdSoUfSqI6+8wOIq3q28SEB9maM4Vy7Q+9pm6pcuM2fOZ+zYV/Dxcf33hwErV9Dwe4W//7n7Qtu2k9UMdAEB7lfvufYq5q8g6Z5YrcokoJSlEh19lPnzp2KzucoexrjcK+KeFSHPDfapnM9kcqgxVYDIrBj4PwELvNe43Ay75yamsq/7LTC+xE8AWgFoBaCVOcVx3xJ5yBgrY6yMsTLGyhgrY+zD+NwTnOGgfcvGtGroT7jPj+ozaYrJgd3qxMegxcfgjv1qmU15X+KnxcvHXYXaTWYHx8yNWTZ/E3/GwUk7XDFrr8+1fu4q8p7TuLhVqFAz48SJg/eMWTdu3JkFC2Zd/SJFAd2Vr5auv6jK+m/KiyzXlyuwc+dJ2ratjcNx5do+DwNWrsDP9wp//3P3VdwyqFKlHEajQQXxb7yXIdjtcVfLzhEXZ0fJCHe97OGL6b0j7vcG1SrnS01NVeFxnc4bf39vTCbBXAVzFcxVMFfBXAVzvb+Yq8DpMtfKXCtzrcy1MtfKXPvvnmv9HKkU1tkZ92YdwsOMBNp34UhNxWG34+Htrf5V/l0pU995+HmDh7cKtSeawvlyyUH2H3YQ5QZ2B5hsntcTbvl5q8h7TtcbbtWqlcnILeJ+M6z99NMdeffdYdSqVQ27/YiKs9/4R/l8rBJ2ezQaTTE2btzFiBEvcOmSmfj4nOPxOQW9ZbvsEfz7GZesCH4mkp7TsjvB/fezznk5b0Eh7i6wPRSj0YrZfKYAEPec4XkCywosK7CswLICywos+2BhWemD0gelD0oflGQrkmxFnl0K8rmsrD6MV9u147EKvgRYZqA1mtXkYnp9CEY1QVssWqMPtgQD1vQgrqTrmLkvjR9/3oubzkZCAioKn1lnF+IejdZY6f4i7jcD18oXV+7u7RkwIIJBg6qh1da96QXWXqAuUVHHWbt2D2PHzkKv30lsbCaY7do854h2TrFt2e7BxTREhfY1mrQsIHp2ZQ/jPSo4xD05OYzAwHBiY00YjadU2F0pE8Q99+Cf4JyCcwrOKeC9gN4ydgroLaC3gN7RarIr6QsSA2kH0hdy+nxk9I0GXTLalDB8UsN58UUrDWuXJbh4MpqYg7i5hatJ25zGaDJirWg0jdh83MyuVVvYm+7AqgW3FNCkRBCry/pMkkZKSgS5WaPnCXHPiqln4tj+/r4880x5wsOr4+NTDn9/C2fOXObkyYNERkZjsfx0DfTORLQzcbCcIOn/NPw8L5D433HfrEh6doh7dmV/x+u4Gx5fUIi7QLoC6QqkmzPQUbBZwWYFmw1AYiAxEGT534Isy9wo877M+zLn3a8571bE/VqCOyVx39XEelpnNPUqliPIJ5TAohcxOMI4YzpCUpInZy8dJ+YkKs5+RknudhVsv/m9D1ePV2CI+90Bbs9rSLDFkhP83IW+Ky8HlL8Cuz+MMfDMBmfPadnDc70Fibhngu2KG/awIO6CzAtUK1CtQLUC1QpUm1OQVbbLOV4rsZJYSRIaSUIjCSFknV3Q6+wUs0MF2dVkYj7uWK/i7EpZMR8t4X7u2CxpmMxa9b85fDJw+HlisaRhzgK2K/ta7Hkbx/OMuN8JJvfxCVFxLgXkMptvD3UruLvyM8TUVFQA3Nvb9fdWDFzK/v5xyQq2Z97znJY9PPe3IBF3Pz9vtf84HA8P4p5Z55xifLJdzuFCiZXESkBlAZUFVBZQWUDlfzeoLGsBWQvIWkDWAgW5FnDYUlWQXefhjd9VnD01a5mfN3ZzHKk2TwIddkweDrz9QjCb47BlAduVfc1X3w8pbfhe5rJ8Qdzd3QseDc8LwC37HlG9sft93zIR96wQe3ZlBVGX/D5HfiDuly+HUqGCD4mJsXh7XyYuzp2UlOxQ2uwQ9+zKbtzXZgvDZnOVXbwYi5+fGZ2uCIUL18HPz8off/yiovA2WxECAkK5dMlKUFAcISEl0OsN7N0biQLye3jcHkcMCKhEkSJlOXs2mrS0MzidrnNkD88LuCvgroC7Au4KuCvgroC7BQnuypgjY46MOTLmyJgjyZf+ScmX3Bo0KJGxZ088TmdWbPthhLWlzg8ObP+3xT7viHtMTBivvtpX9UqKFIklPT2effsus3+/ldjYJIxG5bfHCtieRlpaBC+8UIFfflmSBXEviYfHFXx9T90CcV7f9zrWm1nm5hZG1ao18PfXsGHDVnVfnS6MmBgFdzZRubKV1q3rsHLlb1y8GHhTXW7Ff728mtKtWyOmTVtIo0ZB7NsXidMZhkZzKzwveLLgyQLGChgrYKyAsTkFY2U7SbyRG9RX2ou0F2kvkqhFnjX+Hc8a+Ya43w29fhihbqlzNBKD7GOQV8S9WLFydO36DitXfsWhQ5GULFmO8PBQtm8/T716Rvz9Q4HjnDxpx8vLi1atWrB8+W7+/DOSlBQF7DPy2GNh+PsbSEg4ztGjdtzdoWpV5WtIA0lJxzl+/DyJiS7cLzn5Ms880wSDoShOZyjFinnyzTdjqVixBEFBlUlPT+fQoWNUqPAfnnyyCQsXziYoyEiJEmGcOROtHu/s2fPUr/8o+/cfxOlMp1w5IwoW26FDV5YtW02DBpXZv/9Hdu5UXr7dL1RQ0FJBSwUtFbRUxheBugXqliQvkuRFkrzImlDWhLIm/DeuCd3Klv1PRlTUHgyGDIHTJQbSDqw5STagJT8Q97fe6oiHx3/Zvn02u3YZ0Gg2UauWHw0bTuOrr6ZTsqSB+vUbsHLl53TtOo0ZM17m3DkFz8ugSJEQ2radxJIlPdTtLZY4kpKieeQRI99++xktW47ljz/mEh8fpSZSKFIkmMcfH8XChX1o374jGo0fJ0+ep2LF51i0qA/t2nXEbDbyf/+3hO7dR/HJJx/RuXMtNmw4itHYgHLlarNlyyRatarF3Lk/43Rm0Lv3KJYt+5Q+fQYyduxQunUbwuTJP+PuvhZB3AWXLGhcUmDjvIGYEj+Jn8DQAkMLDC1zt8zdkoBFErBIApa/+5rwviLuf39w/OFBw++E5UucHQWO/ucdcS9PYGAShQoFEBpaiwoVamCz7ebo0QO8/PI7REbupVgxD/VrqpUrF9K1axumT19PfPxBPDwcqlP17LOd8Pb2xNs7gBMndnL48F4iIp7l0qWKmM2r2bVrD1arCzhs2rQZyclu/P77CmrUaEnJkr789Vcq9evXIzb2EH5+lfDxiWPu3O/o0aMvn38+h3r1qlGypB6b7TH0ejtr135Ghw6DWbhwAlarQ90uMnIJ7du/xqRJg2jR4i2++WYCDocGQdwFGL4XlFFQWkFpBaUVlLYgUVoZc2TMkTFHxhwZc2TNKmvWe8PUH9QcKoi7sxJ2e8Gg5vkNicvxHtx9yyviruDnoaEViI29gNV6DPChV6/ufPvtz7Ro0Z5t295Wy9zdQzlyxJshQ9ozbdrbpKcnkpAQRu3aj/Hoo9XZuvUDHn20PRqNld27E0hLiyYszESDBhHs3n2JHTtOq4h7tWpu6PXP8ttvy3jyyacICqrPqVMLCA2ty88/LwNC0el8SE+PZeDAd5gx413ath3K4sXzCAiw8dRTdVm1aj1t2nRh4cINeHjE8vzzz7Ju3XpefHEoX3wxj+eeK8P3388jKcmIzXZ3ZF5gWYFlBZYVWFZgWYFl/0mwrLRnac/SniVhjyTskYQ98oxzf59xBHFnk5qRLyMDNBpwc4sAKZMY3LEd5B1xt1pL8fbbA7BYEnA6TwJW4uIczJmTwIAB9YAL6PUK6G7l55+tdOoUQULCVlatWktiYhglS9agY8dHsViOkJDgho9PcQ4fPqy+1Dp1KobSpe388MNe9u8PRkEtq1dPp2XLOqSnF8LHpzy//76FEydO0bJlNS5dKkRQUDiRkdu5cuUkb745jH79xjJ8+FBOnTqLl9cB/Pw8+eknM02bNsViuUhwcDTJyRksXXqJtm2bMm/eV3TtWp8jR86yefMBQdxT/h2IoqC5guYKmitorqC5Mt5Lgg5J0CEJOiRBh6wJZU1YUGtCQdwdYepXK4KVSwxy0w7yirgr+Krd7oLYzebLaLVpREXZSUpKp2JFIx4e6ZhMaVgsdi5cgHr1wlCgxj//PIhe75tlXwNnzx6nVKkAoqICqFjRwoULCmqZRmLidcRd2bdmzRLodMEkJQXg72/h1193UrJkCcLDKxMTo5zvGImJSVStauTPP+2UKFEZf384e/YwRYqAyRTMlSsXKVkyjMRE1zmU+un15UlKOkZgoEEti4k5r+Lu/0ZUUDBNwTSl3Uvfl/FPgHUB1gVYF2BdgHVZE8qaUNaE92dNKIi7TXkw12LNId4t20mslPaSH4h7XrBUX193bLa/LzosiLtAsALBCgQrEKxAsH93CFbq9/ddR+RljST7yhpE1iCyBpE1yD93DSKIux1SUz0RJF1ikJt2kHfE/Z8NJgri/s++vwKeyv0V8PThAk8fFLQq5xUkXZB0QdJlzSBrBlkzyJpBmQvyqx0I4i6IO06JQa5jkFfEPe+4XxGMRjMCxgoYK2CsgLECxgoYm/c5RfqR9CPpR9KP7i+8LGtWWbPKmlXm2vyYawVxF7BdwPZcw/15R9zzCp6azeF4eAgWWFBYoMCU0takrQlWLli5YOV5nbulDUkbkjYk4L2A9wLey3NF3p4r8g1xr1kzlKpVm2AyRZOUdJytW8/j4xNPvXoN8PcPRflz6NBhYmKOAApIfR0N9/KKz3WZgmhbLEb0+ngcDtfxlD9eXtfLcoNyC+IuiHtu2kt+IO4C/Qr0K9CvQL8C/Qr0K9CvQL8C/d4f6Ff6lvQt6VvSt+R565/3vJUviHvTptV4//0pGAwNMJli8PAIZsCAJlSt2pju3ceSlHQWKMSff/7C8OGtsdk8MJkcWeB0T2w2ZZDNCoR74u7uzuXLOpKTk/Hz01CokA4PDw/OnbOQlmZDo3GndGkd4EFMjDlHEHuhQuHUrfsUa9cuwGBQIOybzws2gd0lBoY7twNB3P+5MKCgvoL6KvCntAOJgbQDdyQGEgMB0QVEFxBdQHQB0eW55++0Ls4XxL137wF07DiYfv2exun05MMPB/J//3eSRo2eZcOGvXz77TQVSZ8+fT3du1fBbg8kNTU1C5wegt0edxOmHsLAgV0oW/YVundviMORjlZblA0b3mH58u1MnfoFfn4GBgyYTPXqYbRv3zZHEHtERA/GjBlFvXqV8fb2zua8YBfYXWLgfed2IIh7KvmJ8Qn0K9CvQL8C/Qr0K9BvfgGvMqfInCJziswpMqfInCJzSv7B6X+neTVfEPfXXx9D9+6tePrpLqSnn+Hzz6dy9OgZOnXqxpQpn/DNN1Pw9Axh9eq5jB8/in379mI2gwJhJySEodNFX0O0M8v0+mi6dOlJjx696dSpKSdO6GnV6n9MmTKAffvW8NJLvXA6jZw69St79vzKa6+1pHDhaupXWhoNXLpUhJMn16g/K2zYsBXJyXsJC2tEyZI23n13AKVLtyc9/QL16nXgzJlfMJtNFClSn4CAaNLTK5GYuIbDhxMpW7YJev1lvL0rkZFxBJstjsOHNXh4xBAW1hovryiKF4eDBwO4eDESpxMMBk+qVq2I2awhJeUCFy6EkJy8n1q1quHmVhovr2hiYhI5deqUur27+40xkLIjf/u4COJ+BK1WsE+JgbQDQWkFpRWUVlDa/EBpZSyRsUTGEhlLZCyRZBKSTOLuz5f5gri//HJH3nprKqNG9cZoDOLVVyNYsOAoNWpURqtNZ926BXh5eTJ06BiaNx/IqVOb1BcUGRmoL5vcboNoh4Wlsm7dB3z66WcsWDCPrVsvs3z5JPr3b8Ezz7RVf5a4ePEeJk4ch8PxB/36vY6nZ0kgnLS0i3TtOohDhyI5dGg3bm4heHml8cknA+nVqw/16z9D586z6d49gokThxMWls5LL72DThdOenoSv/++mO7dx/Ddd1/xyCNN0WiS0GiiSU2No0OHd/Dzq86nn07CYDiHRpNMWloobdoM5+zZJGbNeo66deug1YaTkuLHsGEDcDpPMXHi2xQqVEEtt1gu0qVLeQ4evHMMEGT+b4jMC+Iu+GDe8EGJn8RPUHhB4QX0FtBbQG8BvQX0FtBb1oSyJpQ1Ye7WhPmCuBctWonXXuvEE080IS3tMidPWvj8848pVaoonTo1wd09FC8vC1u3RvL++zMxGMLICmZnh7hn4uyzZk0iMNDAqFFT+eqrjxgxYiyTJ7/L119/SEqKJ4MHT6J9+9a8/fYgPDws9O37MSVKmJgxYxIrVkQyevRkYmP/4Ouv/4+tW1cTHu7FwIFD+OSTmbz22qt8800k3303lqVL13L27AWWLl2E1WqkTJlQZs6cytKlq9DrqzN8eFOKFQtlwoTRTJs2m337vqV//49YuHA9Wu1xJk9ewOrVO7lwIUr9Gu29997g+HEvJk/uz4ED8Vit0XTo0JHOnfvi5VWUd9/tptZv2rTJ6ldi/v6oGH1uIHGB5x8cPC+Iu8DLgsMKDis4rOCwgsP+83BYGdtlbJexXcZ2GdtlbJdES/mfaAkCUP7mdYzNF8S9cGEt5cuXpVeviXh7n2fatD2cPLkET88MLl7045VXmrJ792Wio9fg45OeDRCePeKuAOsVK9bm888jmTXrU955pyoNG45h+PAhnDjhTpkyGZQokUqHDl3YuzeaL7/8mY8/foUiRYqwcOFeDh3aR7durTl82MZ777Viw4bVPPPM64wYMR6I4fLlw3TuPJSYmLO0bTuRwYP7otHs4OxZAyNGjOHAgU2sWvUbly79TufOXahUqbh63GXLZrF69SzGjh2DwRCA1RpBzZq+rFv3FadPR9G4cStatGiMu3sqvr4KBu7B7NmLqFixMXFxW/H3dyck5L/MmTOSESMm4XAo1yF4vPJS6GEB9PMTcU9JcWCzNaZEia04HL5YrQZMpvN3KfPBai2Ug+1yejzZLuexl1hJrHLTV6W9SHuR9pK7+U36jPQZ6TPSZ3K7LpZxQ8YNGTf+3uOGE4NBqybRs1jyligoXxD35s0jGDt2OEuXHiA19RwdOrzK9u2rGTx4AEFBsGTJKoYO/YyTJ3eg05myAcKzR9wV2L1Mmdp89dUyTpyIIzj4Ii+++CItW/anZ8++nDlzHpMplgEDXmD16gQOHFjBkCE9CAkpx/LlH/Lbb2Z69HiJw4cP0Lv3MA4cWE3Xrj3o2XMUP/+8jlatutK3bztWrdqAgnLXrFmDkiVL8MornQgKqkRERENmz55FSoqHeo6wsNrMm7eMRYvepXLlltSpE0bnzj0JCYH33/+Gn3/eic0WRZ06r9C0aUM0mst4eChfVgUyd+4q/PwuM3r0VLy9TcTFBeLm5s+ePd9jMDjwvgsariD43t6y3d8lBvmJuDsc4djtB9WkAq7EAvYsSQ6yL/Px8cZmu/t2OT2ebJfz2EusJFa56avSXqS9SHtR1i/SDiQG0g5ca3npCxIDaQfSFzKT2f07xwOzOW+JRvIFcR8wYAyvvNKTRo0iSE+PZeXK+ezf/yvnziVTtWojHn+8OIcO7SAuTs+sWV8SHe2CGnOClRuNNlas+JyAgLJs2XKEt94aRJkybqxbNwOTqTSDBk1h69ZPmTRpjJr1sGfPKYSFlWPkyCHMnj2MhQu/YOfOM/To8Tq//BJFr15VGTt2AKVKtWfSpGHUqdOeESNeoF+/sezYsZkffviTGjV8GDJkoIrHT5kyg9Klq9Cnz4dUqWKiT58+DBu2gNGj3wF86NHjGXr3bkHDhl356afN/PTTDt59ty+zZ3/I8eMapkwZz+LFyzh1ah1Tp47j7bdXc+RIKv37NyIy8gt++OFHEhJAp+MaZJ+TuNjtOYufbFeJ+xGDvCLuvr5hZGSE4nRaMZvPoNWa0euLkHO8sQhGo1ntR7mBxG36MGwJIWiNKXhc3bcgygQkvDtImNt7KTGVmOam70t7kfYi7SV386X0Gekz0mekz8jaTJIrSHKF/E6uEIrRaMVuP0N6em6ff111yRfEfdSojjRr9gFPP10MozGEb76Zzr59R4mLK03p0laeeKIyu3Z9j8VSmDff3Ex6es4QdwUwV6D3+fPnUqfOY/TrN4jIyNUYjaGsWjUNqEHDhn1R4LMSJdxZsGA4Ol0YGk0427bt4M0322Cx2Dh+/Bi9eg1i2zYFYC/GyJEK4t4Xd/earFz5NnFxv3P27F5q134Nb+/C6HRpLFgwgQ8+WMj3389Fr4+gUCETPqE69S8AACAASURBVD6n+PXX1QwbtoZKlR5n+vRxaDTH2Lt3NVZrCE891Z3evd+mbt2KvPJKBTSaUI4fD6J//744HLsZOrQp7dq9weXLxThyZAfDhnUkKsp8R8heEPeIfyTiriyMlWQDsbEmjMZTQDLJyTkHbc3mcDw8BD0U9DB36KFAodJnpM9InxE8PudzrcRKYiXQvkD7Au0LtC/r5/xeP5soUuQUDkfunn8z5+R8Qdyff74dn3zyDdu2rSYxMVrF3EeNms3PP88Ewli+fBYTJ05g+/Zj3Alszw4wN5miVeTcy8uIxRKvAvBZy24+nr9/JeCIel5lO8VVslgq4eV1vSwTP89u38BAMJkgMfGIuu+8eUtISrrMiBET1PKkpGj0eqN6Ha66KLWLxmIxUrRoAElJCn4ZTYkS5bBald943lgXqIS/f7q6nRKrzGvLROsFcX84IPt7RdyVJAcGgwUFh3wQQCReAWAJAEMamFwQe0GUCYSY/xCixFRiqvRfaQcSA2kHklRE4HmB5/OKIksbkjYkbSjvuLj0o9z1I39/C1Zr7p+J8wVxNxgyaNeuLXXqRHDlioafftrIzp1LMRhcOHvDhs+zYcNGtFrLtTKTSYvVqmBeGeqLotvj3WC1om5zfbvsyrIe7/Yo/I3nvf12KSkQFBTBxx+/z6VLexg+vBc53ffetnt4APOc3bec3t+Hc7t7RdxdYLsTHx8tPj7u2O05QOz83LHfhN35+rqrxzGbHeox1ONls13WMovdid9N2xVE2R3rl9MYyHY5by8SK4lVbsYXaS/SXqS95G5Olj4jfUb6jPSZzLW3jAcyHsh4kIfxoDEGw9Zcw+75grgrsLaPj4KVK18veaoItQvbvj3OnpqadTuygd0zy1z/VJBz5Wsn5QupxET1wyX1hVb2+HlOz3v77ZRrMZuhfv3aXLxoJz7+IDfWOe/nyHkMchor2a6gYnqviHsm2K7TeePh4Y3DkQPEzs8bR06wu+y2y1Jmdtjx8/DGo4DLlGtUrjXrea+V5TQGsl3O24vESmKl9DdpBxIDaQeuuUf6gsRA2oH0hcy1qIwHMh7IePC3Gg98fMrj7Z1AbmD3fEHc3d3D0OmiBSGXGPxr2sG9I+6xOQLbo81HMPqCybMSGl0hdE4rhez70TpD8HAvTGLiUbTG6njYz6B16rC5F8aWeAytsdotZXbjU6Tbz2B0WklwN6BPLITd6EO6fT9Gp44E98LodcewO6td3S7/y2LdC1+9Dh+s9jMEO60kZ7hhi81vGFCOl/NEABIriVVYLhJHZLaXG8cwrTYFDw+BfgX6FehXoF+ZU2ROuZc5ReYPmT9k/vg3zx9KYrPYXD4P5gvirtGAm9vfEdtGReClfhKD/G0HIRQvnnvUsnjxJJxOxT3LAVhnjEZXMhl9SilIKQY6E26+p8jQWdGkhOJmLg4eV3D6xpChM7nKrm53c5lDZ7267/Xtsi9TznHj8RzqefNeRkro1euwgu8piDXhJJgYwtHF5jcM+M8+ntGYwzbkK+imoJv53xek/SUhMcj/diV9VWIqCSYkwYQkTZCkCZI0IffPlw/72GmxhOHvryQ2y/k8mC+Iu4KaZyLk2QHr+Y2VZz2H4OfXYy8AfMEB8LlH3DPR/5xhs2nevupPZPFyOevKvyeeB60BfCxg8QLlP6s5BNQkB0qyAleZ8gtbLeCTTZlG2dgfSLq6o7ozJFmghHIOk2vfzO0Mys+Czyu/13Ud3+p103aZ+yrnVfY1uPZVDq8c77zJVSelvl4W13GUnwIrZcp1JaakY3DkBvzLmtQhE1t0lYERuBFgVP63v39mcgUXoJ8VvVZQfYfDgl6vAIKue5RZ5nQG3HK8rPsajemkpBiJi1MCdOO+ruO56pL1eJl1gbu1g3g1EYWSIOJO13bz9WbWD9K40zmU/TLrnB04WaaML4cOHSc9/XYxuN6eS5YsobbPQ4fS1es9fz5rnK9fR1IS+PtnvUc3Xtvd6lymTDlKlCjFvn0Hyaxz5nVkjZWS8KNq1ce5cOEYgYEGjh49iEbje+1+eHmlExho5OhR5b7dCnY2aPA4hw4dIzr6LF5eFu7WDpS6NGrURM12GxPjisGN9bu1TWYf+5yNEUrbcuSoz2TG/mqyhiz3PPMeueKXd7T0xn7kOt7N7cCV9OTWdp91O+XalAQn2bfd2/cFpd3fOS63jhsVKxZl//6DuLsrbcMVK6v1cpZ7fmPSGNf4cuM9Uvq4j0889eo1UK/tzz+PXx1Lbn/Pz593JZfJbrwSkF9AfgH57zY35n28EmQ5N2suuR/SXqS9CG5/v8fdcuj16Tlc27rqkm+Ie/YQe3ZIumDld0brH07U/N8Gu98L4q7sc+VKFnT9NvCjsp13cC2wK2+rYsDnvPrvcebzhBb7Ly1bNqBLl5pYrU9zeMtsPpryM8ZaGqZO7sqIIfuI3DkSu70xc+b0JCzMSYcOg/Hy8qRPn1E0a1YThzWKLz/bw9zl20m9oqdChStMmPAuRYo0Jj7+PB98MJ7zR/bQ7KUnaNSoEz6+57HbGuPj48vZs9/z3ntDecT7KXqMmERgYGF08et4e+Z2du/6EHf31owfX5unnqqF1dqYNV/NZvLcDXh6rMHg44vVbsBkLkaIRcnKEIMjIQrLTUB9Jm5vtWZQoUIrVq4chadnKeLiDvDmm2PYtGkT3t4aFY1UYmUyuWB8g0F7RwQwO0D/kUdq8PXXG2jV6inS0s7w3/+Op1WrhrRp8xharY3evXsTEdGWFi0aX8P3/fyU7KJOPvtsPfv3JzBzZke8vFwgf5UqNRg6dAO9ezfA4XBd2/Tpi5g+fQlO51FWrHibZ58dSlTU2ev4fjbtwM/PF52uKNOnf0OZMlXx8clg6dI3+OKLzZw+febavpl1yYr5Z1eW04QByr7ly9dm5Mgvef75UTidS/HxUWy97JMNKDEdOHAaTz5Zjx49nrrlXt6pLq770ZgqVfaRmKhk5nRypyQHgwePpnv3njz22CPXkhd4eWkJCFDuRxpms1atp9IONmxYzsSJc+jc+X+8/npPUlKuXENG69WrwQsvDGbIkOv3TafTULTo8wQFHWXRol9o1+5pdu369YZ7dL3/Kn1h6w1o6ebNJ/j22xGsWbPinmJQrNg+7HaL2p6zjhFK/JSx9eay2/WZG5I63NQ/bpc4IvMeZY199u1KedFjwGw+f0P7U+qXtQ9m9oW7HS801Mh33+1j06ZPGDZsknrfunfvTbdunahd+/HbtHFX7O/U7nOSKKNy5dpMmvQVzz03kvT076+NG5n7litXCze3S1y8qLTJ8zck3sh6j5Q6lytXgrVrT/DLLzvo1Kkpbm52tX43x8VgcI0b+dVXc9qnZbtcJEwRjFkwZsGY84Ax5zJBkfQ36W/S36S/XU2GkNtnl3xD3HOOqd8JbBeEvKAQ8uvQvtyP7NvuneNyL4i7so/JlKrC7XeCZYOD7aTqwsGhx+RxBYOHSf33RNs5unR9h7YvvsC2bas4d85G+/a12LPnHHsO72PMWz0ZNeojIiOP43Do+e67j/Dz+3/s3Qd0FGX3x/FveheIhCISQCAKSFFBkaIgHUFKABUQkd57lSpIl957kReQLlU6UhVQCL1JCSABEkhISFs2+f9n1lAUJaFoIL+c8x49887szN65z/PcHXc/NzstWzZg4MCeODhcZOPPv5LltTS8k60Aq7cGM3/GBEaPHEpsmhi2Lw4gbc6svONXgNWrR5MhQ3Hee8+X+QsPEnw1ACdHd+ztXbl8+SAdOgzk2LGDbPv1e+rXa46n+y16dhrEF1/UI1OmdMyeuZ9C+XNQsNAbzJw7l9UrFuHuHI7F6kJkrBfeES7gfhNreAgR0RZiHxCXsmU/Y9CgLgwd2p3AwCP4+hajc+cu9O8/nd27F5A582ukSWPBas3KoUPTuH7dkdSpU/PmmwWIjc3KkSMBXL26n6JFyxAaanyojMTLy8KuXfuJibEB+tmy5WLevPn07t2RX375iXHj5lOkSFFKlarKyZObWbPmW86cCWTgwO957TXjXO5cvuzIb7/tYtKkWYSEXGXjxj1ERAQTHHyQF1/MxciRU6lUKae5rwESrl69glGjhnH9ehDTp2+iatUKnDy59x/zwIjh5MkrCQzcw4oVE7h+3crAgeMID79ArVrtKFYsB5cuBVOo0GsEBlrYunXDnddLlcodJ6ccFCrkitVagHPn1nLuXMh9DQMKFy6Dm5s7L75o4eDBi/j6uvDCC/k4efJ3IiN38cEHrZk7dyjp0/vwyisFsbe37Wc0s3j99Vfx8XnN3HbkyEWyZvUlUyZntm3bRvr0Ocie3TivhUOH3Ll9+whZsxr3I5K0aQtw48YRDh/eb/7/VmskuXIVYMyYUUyfPpT16w+SKlUWsmcvgMVyhN27bfsZxxr/bN26F02atOTLLxuY93fz5mncvu1I6dJl2Lt3qzm2SpYswOHDRyhf/nN27drCuHGTqVu3FlZravLls13za6/lonTp4tStWxs7O1setGs3gkKFXmTJkjmMGDGb3r27ExQUx++/BxAQsB9X19TkzVuAtGmzmtvOnLmbQ8b1bdnyM2vXLiMg4CAxMcb9uEjatAfx8Xn1L/coS5ZXKVz4NYKDbfHLm9eFdu1G8fXXX3Ps2K47c4SxX548+fD2dmHPnoOcPHmQMmXKcOOGO1mzWjh58iJHjhzEwcGdHDnKkDu3heDgSLZv30Xq1NnIles14uMtpE+flYsXAzhwYP99cKtxP/Lly8fLLwdz4IBxLRvMBizvvFOGXLnc7+RVnjwFiIu7SXBwCC+/nANHx0jOnj1Itmy2/XbtOsiNG1koWLAAcIRt22z3zdf3jTv30jj3n3HOli2/oUWLQly/HkfJkqWws4ujYsU2fPmlPwULFrmTz+nTpzZz5+BBW44bufvbb/v/lGvBREaGmHlfuLCtjjh4MJibN8PJnbsAoaGRZMtmYf16WwyMObZs2Q+ZPXsphQoVJzLSFtOjRy+a89rQoVN47bWMNG7chsjISIoUyWGO599+c+T69V3kzfsG0dEWfHzcyZ//ZWrVakH//oP4+ecr5M7tzssvu5vf/Pvll4t4e1vw83uV7NnvH6tlyjS8E/uE9yZw/J/XxkQ1PRHQLKBZQHOyApo1r2lee9jnHs3tiWzq9Ryvb8ZnFyHuwtRTDKYeFwf/RROBR0fcH4RV/hV2d8gQBA4e4GJHfMhLxPnE4BBxnka1u/Dex5X47rvx7NgRgY9PKCGRTuR8ORtNmrRl4sR+bN68FAcHD0aOnIKLy0vs2rWU6tWr0L//BH4+ugtraFo++ugTrl5dS8H3XubDj1rSqelkLl/egYPDefz9u/DLL1spVqwxpWqW4JsvqxIcHIujoxdnznvw6uu+9OhYhcDAo0ycuIUXXnAkPj4DZwP/x5cjh5MqKgOzZq0gIsJ2fb/9doDgYDtCQl7CxyEGi/N54hw8cA/xIj72BYLjYnCOOP8X3H758kV8++2XLFq034SmDSx62rR6vPTSByxevIZ27bpz+fIB85pTp85M9ertmD17LFZrPDdv7iZTpoLUrduRUaO+5+WXndi3bxpvvdWGhQvH079/JxwccnP7dhA//XSC5ctnM2HCanbtGktIyBn2799Lv35L2LlzH927N6VIkRd5771ShIRc5623qlO2bH26di3HBx8U4Ndfj/HCCyXZuPEA+/aNZcqUfhQs2JCgoBfw8Ynhu+/GMmrUHIyfUi9YsIBq1epw+PBqHBzABhcG4uOTmwTEMzbWlzfeyMPSpWMoVCgnN29CSIgvb76Ziw0bZlClSlkWLtxOYOBJTp++QdGiJfjyy2Zs3Dif6OgMQHbmzRtLtmzHCQ7OjKenBeNncfee4+DBw5w/nwoXFwuenr9z44YL9vZWrl7NyvTpAxgypArVqrViyZJpXL7shIODBTu736lUqRsBASs4cuQ8OXLkYvv2FVitaXjttXR07vwt8+d/xenTW3FyyseFCwfo3HkpP/00g99+282NG5kpWDADuXLVwIZVBvHZZ13o0+dTVq26xPffr2TgwJocO7aXXLkq8dtvv9CyZR/CwvabsWrSpC89evRk375duLsbeRXI0KETWL9+FyVK1CE0dDebNp2gW7fP+Pbb72nQoCXt2tWnSZNaVKrUgXbtPmb//mNkzOhOXNwNSpRoSWxsIH5+uZk7dzAvvvg2ixZNo2nTzpw9e4Dr1/eTJk1+OnUawRtvvELduo04cWIp+fO3YcSIbkybtsvMSeO+nTt3idu3b/DTT+cpX74oo0Z9xbZt25kxYxanTp0hR44c7Nixj8mTxzN9+k8EBq40HwYdO7Yee/tYihdvxoIFSxk+fKj5ep6e6Rk9egmZMhnfYjYMw1CaNWvF/PkjcXF5nT17jlGsmDs9e37NtWsvMW7cJM6c2YqbWyi//hrEnj0HmDx5IuvXbyZduvPm+yhduiE3bnhw+/YtvLyCmDRpLvnzOxEYeJvs2UvQsGFBWrYczquvpiYg4AZvv12Ctm3fp3Xrvhw8uIevvlpN9+4tefddC4MGreV//xtJcPAlevSYTefOxYmOzo2vbyxnzlxl+vRv6devPSdOrCd37qLs3h1Fx459CAnZjzF3xsfnZt++I8ycOZu6dXPQuvXX7N59lGrVytOr12QKFbIz77mLiy85crxBhw6dqV//Izw9PVi7di2lShVh9epfuHZtKe7uJcxx2bTpN6xaNYnIyK3Ex+cjMtLC55/34scfx5oP4AICDpjf9DLmoXLlCjFy5BeUL1+BpUs3cft2Ki5ePEbevO6ULduU779fT6pUcfTsOYH3389Dxoy5iY09RObMxriow+jRVciRowABARdJnTo7mTK9zNatQylYsAzR0amxWK6TM2cZqlTJSYYMqRk5chy//GKLadeu71OnTl9y5vTm6tUbZuwbNcrLoUOnzfcrBFoxUB7Yxr7GgmKgPNBYSKgFNB88v/OB8VkoPj49cXGJx/yFuLMB4yHIk0W+9XrPd0wfHXG/devhsLaBvdtlDASnGLiVDm5lMaF2A3F38IxhZL8ZZHujJBcuhOLsfIwFi5dy83p6evfuxFdf9WTLT4txIoaJY2cQEWF8AyeAUqUy0KxZbW7ccOO8fSbSxYcTYXeJzr37UzBHQVrUa88FA1b3OUs8Mbxi9xKfdP6KsrmK4+h4lCvO4XjfysS2bbsYMWIxDRp8RP36+QglHdfPpOPcudUMGdqTF/PD1N4TCXuhJPaXQrntfIwubZsTFeGC/SXb+4gzEHenGBwuvQRxmQiKD8cz7ixOhHEr7C5gGRKyh/fey8SpU54kwJ6ffupL165NGTNmF716taVixZZ4e59l/vxNjBgxgC5dOlGzZmMuX97FunUjGTv2IKVLd+Lcuc3079+Cr78ejZeXPW3aTDXjZ6D6TZtW5tNPy9Kt22IWLhzJoEFt+Oij+ixbtoNBg7pRuXJDVq/uQOXKjTlxwo7Fi48wZ05/Gjb8gFOnVvD116t4773SNG48jFGjqtGnTzsqVWoHZCIoKJzNm79h1Kh6nDmTn3XrZlCsWEOuXduJk1MYBlwYGZmFd98NNb/plQD8ly//LrVrN6Z1a39zm52dsXC9xvbtfZk/fxDt29dgyJDVTJsWyo4dfVm5citTp37J+fPRuLmV5cMPXTh+/CgxMSFs3258cC5rvl8DnzbOu2nTPjp1+ordu29w6tQGKlfObv5sq1evUTRp0pSxY0dRuXJB1q79na5dx7B790Jy5AjnxIkLHDq0nQoV2nPjRjzp0wfy/vvvUKJENcaN+55OnYZQtWohnJ3DWbVqB1279mPChJG0bt2RvXt/YOnSn+nSpRV79yZAjTHs3fsz77/fia5dG2Bnd5W+fbtRoEBlZswYRcGCXxAV9ZN5zdWqdaNnz6YUKFCDIkXsmDGjKzVqzGD+/Bm8/XZDYCdbt46mcePvWL58HpUqdWLgwE9p3boWPXqs4eRJ4yHMDLp0qUXhwjkpV64jTk42NHfIEH/8/PIwfPgMliyZxxdffMnvv29j2bI+9OnzM+3b92T06ImsXj3EzJciRcpSsuRUU3tzdQ3k1KmjzJw5lf79NzFzZjvSpDmLi4vxk7sXaNNmIlWrvmk+gBo3rh/dunXi009bERx8m0yZLnH69FXmzJlB7doTzXvk6xtI8eLFGTp0gBmX8+fDOHBgCD161GbAgJWsXbuL3r1nMG9eLeztc3LlSjh58pSgTJnqVK6cgSlTWtC160yGDJlBmTKdsLf/yXwfLVvO5Nq1CM6eDcXOLpBt20Zz5kwcjRrNMr/llSbNVf73vy9p334Je/YEMXiwcY+PkT37S+zbd5wJE3bSqNGbFCxYnSFDyjF+/M/UqNGJYsX8qFGjDs2alSJjRj/eeqsFGTK8QMGCmWnUqDh581Zl9uzxVK/+BUeP2u5l+fJtGTiwG+XKNaZz5yK89lpO/P07UrTouwwYMIS3385v7mdgrnnyvEvnzo1p29YfB4cYM6/q1evP//43muHDG7Flyw5SpXodB4dMjBs3mrp1CxEXF87KlT/Tpk1n82fHK1eOZdWqZYSFhXLrVhkKF45h3rwhfPhhdRYsCKR795nmw+GtW8cwePAnVKrUgJw5azNixHjGjh1C5co5uXjRzXwIaXxbs337Ohw/voLOnddRtuw7tGpVj9q1/cmf35UTJ1Lj6voaK1eOZtCgFnTo8BFz515kzpxtvPqqi/kfFyZOHE+PHu2ZPz+IIUPa88orx2jT5kvCwqLN63vWQVYhvCkP4dU91z1PmLMFsQti13yg+SAp80GyQNwFif97kLjVajyZF+L+X8Tg6SG818iY0ZdgD0+8OEmUm99d/Px3sHqdJLW3H35+1UidOhp//9JkzBhl/vStVas+TJ06lLnf7zOR9EWLFhIVdYP9+8/w3ntv0aHDCM4G/YS3G7z5ZjFOnQqkRo38FC78GY0bVzfxvODgG1SsWJrjx2/wySfGgxw/84FVVNQJPDzScO6cG6dPLyLa6TZeqX3Im7koBd/25aNqlRg2bAyHA3bgaA9p01YjVy7j+r5g//6T5k8YTWT+D8TdcOTtH4K479ixnaZNPycg4MgdgLtVqxbmw5KVK43325zChUuSOvVt84HMwoXfUq/eF6xZs4rQ0EAcHKJZsCCA9u3rceJEOH37NuWrr0aRLdsr1KvXFAMNN3DOvHkzs2zZVhYunEPOnIXp168BS5bsY/v2bylYsAadOn3O1KlrWbFiODExbiYK//33G/n889KcOrWVQYOWUbhwHr75ZjbdurViypQVlCmTjkuXbODzihXzGDRoDpcv32D58ulUrVqdQ4d+NhX72rWrUbfup2TOXJqyZQtz+fJJE9U27u+KFT3Im/f1O8h8hgyvsHLlUpo2rc6IEWvp0qU6P/10gxUrpvP991OYNGmGCUgb30hcvnww58/f4MyZk/j7NzEfThn5ktBQY9euw9Su3Y2QkINs2LDQ/CZKyZKfMmTI17RpM4Avv+xAsWKvm9eWK1dpKlb0Y/fuk3TsWAd//65UrlyDN96AuXOX4+aWET+/V1iyZD7+/sYH+QrmNf/yywF69x5Kr16DqFLlXaKiApk7dyHDh89hy5aDJlCfOjUsWXKYzp170bVrG44cOUq/fsZDydzmTzr9/avz66+2WLVq1ZMmTRqbDzkyZvRh3brtdOjwOUOHTqdEieqEhv7M3r2nad78Y+bP30CDBg1p164J9evXYtq09SxZMpPFixdRtmwlatWqwMcfdwWOmvfIyKsCBYwHWHNYsmQ2tWvX4cyZIyxfvo/Zs0dQr14fzp/fyfHjP5l45OnTt5k7d96dMXPq1GkGDvyKefMmMHToeLJk8cRiuU3q1O9w+rTxXqMIDb3AkCHDqV27I6VK5SNvXj/mzh3DokU7GDNmPJUq2XLSiMsXX3Skbt0vKFXqdfP6ZsyYZ17bgAFtWLNmJzNnDqBpU9s1X74cSP78n7Fv36I/kHTj+n5nwIDBZvyuXAlk69Z9tG7dkDZt+pA5s3HffmHfvuWULl2a999vApxg0iTjAdwgatb8nH37ljFlynRiYrxInfolDhz4gWHD5tG+fVvy5PFkwoTl9OvXhkqVStK793gyZvSkefOGZoMEIwcHDWpL4cJvmePEQPBv3/Zk9uwJXLr0s3nPjfdbunQTzp07QVxcKOnSFcXfPw958hSje/ce5M//uhkz4/Xy589D375fU758MbJm9WP69KWUK1eA6tUb8Prrb5n/XLlyGbNnt+O77y6xZMlwM9djYtKwcuUOBgzoS9Om1Th50ja2jP+9//5bjBjRgzJlPmDVqs13xoItzj355JOa5MiRmzVrfqBhwx6sWTPB/Aaq8d6+/34G3bv35ccf5zBq1DKKF69mXnPFiu+yfPlSrlyJ4sKFG9SuXZpevb6iVaseTJ3ak+nTN5q58+KLrn/MLz8QGmrkSBS//nqUuXMnEBfn+Y/NFYQJCxMWJvy0MeG7DVg03jTeNN403hIaMmk+eHrzAfiZn+US16DoX0HcBbYLbI83H1oYP4MJD39+gPqnibinTRtHeLyVC/8PsWf22IL1D/zcarUyZtQ+vNL8xJQpyzlxYh0tWkwgR44P6NGjAdOmfcHVqz706tWPTEWr06nGuxw+vJPJk9cxdOgoLvAzE7qPJlfZN2hcvhS//nqOVas20btvf9xcTtKhw9e89XYFSpfsxrFjK3Bz20fhwiNp3qIyF3kBj+vGzwXdKVq8HR9WyMyCBevYtu2o+UChbdvqzJy5nZIl6xIb+xNDFnYkTWgpvvqqN4cO/Ujv3l+Q6h7EPdbiRWaPS1ivnSEqJo6IB+D2xrdgGjfuTePG73Llynk8PNKyZMkhRo2ai6vrb7Rt25bKld/FzS0tEyeu5PvvB9O8eR8aN67Anj37qFVrIqtWJLu2GAAAIABJREFUDWfhwmGsWbOPr77qRc+eE8mXLzUtW9a7AyobeP3y5SPND6zduw9m6tRerFt3ivTpM7Nu3QQmT17Id9/Np2rVr4mMnE/t2p+wa9cmunSZw82bN+jSpTZNmjQzH4x069aOSZM2MWpUJ3buXMrrrxdh2LAZ1KrVllSpjjNv3i4qVvyAw4cNtNsGnj4ILsycOS0rV+5l+fI59O07AC8vF2bN+s78pky1ap+yd+9h6tRpyunTG5gzZyOLFy9h/Ph9JnCdLVtmNm8+hZ9fKnx9P2Tnzu9o2rQm69at+AMD/4BDh0bSqFFBTp+OY9++sxQo8Dq1apU3H0Z07tyUQYNGUbVqd0qWzM2qVaPw8yvF2LHD6du3Nw4OR9mx4zT16/fm3XcLs3//Yd56K5/500zDWytWrDQWi4GgL6F9+8yMG7eX8uVrEhj4M1u2HGLSpG6sX7/qDrp+6FAcbdrUon792tjbe9C4cVVq1KhB//4jKV26AIGBNjTcQNwT7nnatGn55puVtGr1GUuXLjQfmkVFWVmxYgM1a9Zj6dLvqF+/Oh06dMLfvxZjx36D1epAnz696NhxBi+/fIOPP658B6hv3rwf772XhxEj+rJgwXZq1y7F4cMXWLJkL9OmdaBJk0/58ceT9OvXh+LFPyQ+/jz7958wUfPIyN/Nb6YtWzaHiRNHMWbMKi5cuIDV+ioeHsfp08d40FKEDBkqcO7cdvLmfZN9+4yYdqNhw5o0atSeSZN68+WXxTh8ONSMS6FCHzBx4jjatTMegMWzZUsotWrVZ+TIzpw58wu9erVh7NjVXLp0mbAwC3XqOFCmTC88PePJmbMIISGRzJ07y8y1a9eMhzqH+PLLJhw7tsG8Zju7eD77bCCbNo0HrjJr1g42bPgfH3xQl9Gju/HrrxuYMmU1v/12CgcHw6k6wJgxLRk+fDVOTpcZMmQU/foNo3btwhQv/hb9+o3ivfe+oXx5Fxo1qshvv/1OunSlqF17IHnynKNKlXyMG7eaoKArxMV9wIEDI/nqq76cO2cD6idNmsiBAzP4/fcrNGs2kly5XO6Mj/fey0znzvPMh/WdO4/kww+L8MknZahXr4F5HYUKlWLatCXmw/b1609RooQPgYHFqVkzLTt2LGXevI20atWBPXu238FS8+Z9i5Ej51OiRAG2bNlG8+YFOXYsjhUrNtOx41SqVStHoUIWZs2aTv/+cylSpBfx8cY3rmowY8YmJk2aw6pVlxk37lMaN25A8+aN+OKL5qxdu51y5YqTKdN1Ro7cQadO4+jfvzHz5y80vzFm/AwWzlGjRmOGD+/L6tXrqVChgplrO3duwoDtY2JisVjux/IFsQti/7smDMoN5YZyQ3h8Qj2p+UDzwbM4H2TK5EB8/F8b3fxTPj9lxF1A+KMA4QLWkz/m/7QR94tOWfC+g7iHgNXCdeOnZm8XokGraqZTc/OmC9eve7F+/TTmzl1J1aof8vnn5bC3f4MIq4Vjv37P9OlfExbmwgcfVOezz97AwyMvqVKFEBAQwPjx2zl4cCkVqrSiT/dPiIhwITzWi192HWTRoqFUbliaKu/6Ex6ZBavFgrNTMFbrVXoPHE2Fku/y4Ye1CQ6+iaur8TO1ACZP/p733stOrVptSOsbDpEuXL3qRdeuVbl4MZ5U9yLuVhdwvon1WggRlgcj7t7eqejXbwrFi3sRHJyJrFm9GDt2OSNGNOPTT7sxdGgXjhw5g5OTCwcOHKdfv6507NiMkiX9CQ29gYtLOPXr+/PNN0vYv38dgwYNpk+fseTJk4pmzVrfhwX26zeBxo0/45NPqmB882vmzLEUKvQxJUvmNLHmcuW60LdvbS5fjsLRMT1t2pSiZ8/RpE9/g1u3/MicOTMTJgxl5szB1KpVj1at2uDomAqr9QLr15+kT59m5s+i5s3bRLly9yPuf4ULX8XVNZTq1SvTpEkbPDxuEx+flvj4o3zzzVA2bzaA88PUrVuBo0evsGDBYtOPmjDha5ycDJg9E6tXbyIk5Ib5bbHz58/i6Zmatm2rcvr0RRPCNu5/nTqluHjRwrp1hyhX7nVKlarGsGHf0K5dU3r0GEW1aqWYPHkkmTK9TlychePHrXz77QQGDGhITEwqUqXyYurUBaRL50yhQrlp3rw2U6YMJi4uNy++GMuKFXuZMmU469b9QIUK/ly8eJAlSwIYMqQbhw6tIjbWhr0HBBjdGm8zZkwH6tUbSEzMbYwHeHPnjjdtJwN7T0Dce/Wy3XM3NxcTXJ8woT9r1+42LbELFy7yzjsFaNKkLjNmzKdOnTo0btyali1rUbRoeaZOncSpU8b7/920h4wHWM7O6c3X/uSTRvTv34pVqzaYDwhr167CiROnWbbsB8aPH8KFC78xaNB4LBZwdk7DN9+0YtOmXdy8aQEiOXz4HOfOBePpmcrMU+ObYmfO7GTq1PVAQqwmsGXLPtOps1pT4e5uAP/r6d+/Nb/8sp/AQPjss/dMxD1tWgtduvxIyZJZzNifPn2Yhg3r8uuvuzh5MhQvr5dwdbXSu3dVgoKMbpV9cXN7CWfna8ydu9T81uXs2TPNXAsPv8jOnfupX7+ceZ0GkunoaGXYsJF88EE5rl411ukrdOzYmTJlslOmTAM8PDKTJs0VPv64M6++mp3+/b8xf6ro4nKFw4eDmTq1t/nQyoiTgdYPGzaYokXfAdKydu14li1bSIsW35Mjx23s7Ixtk8xGBhER0K1bY954oyL169cnobFFs2ZjqVs3LwsWrKRZM3/zgV8C+po+fSY2btzEpUs3iI4+jZubYWbVMDtyOjndMA2xffv2mj89/OqrwbzySlEiI69w5MhexowZxLx5i2nVqisHDhg2m7uJG+fPn4Px42dRqtS7rFu3lRYtjJzcxbffruCbb4ZRpMgbtG79JXPm9MHVNRXlypUiPPwlnJyO8tln3Zg8eTTr1x9nxIj2fP75p7Ro0ZYKFSrx/ff7iY29grMzuLlZOHMmmilT5pnf6oyOToOn5xWaNBlErlxpaNu2AbduZcLd/QLNmxue2AX+979plClT6r7mBQKQBSALQH548xsh0EKgjblSeaAYKA9sdc6zNRZeNT+bCnEX4i7E3dH3qcbgySLuf4XdLRmCTOjcycUOxz8Qd0uEDT83tjk7voRDXAwRCdti7QiJ/QNJ9zpPXJwHTk5/wOk+MSQcm+ZFO6KjXyIuOIYIZwNO98Al1g5n41ifGAItfxx7zY4QF9vr3dkv5O42yz3ncHR8ibi4u+d44PW5/BVxdzJeLzY9DnG3cI54EG5/d1vmzOk5deoWwcFHTQTa+CZDzZrNzIc4xrdhgoMjcHLKcAd9tViCiIuLMFHzWOMcDrdwdv7nc9wFIv+K6hvguINDBC4uGcwHWMHBNoTcx8cDF/O9pb8Dkxv7xcZmIE2aBJDwQa+XuGu5ejUIPz/b60VH/9Pr/fUcBtRtxMUWA9v9NfIl4X0kFsQ0HvIY8QsJuXsOZ+eXTI/IzL974mzg7AmxT7gfD4r9n7cZMU3AGzNmhLCwe7HKBzQ5cAgiMtL23l580Rb7U6ds+xmxMu55AhSf8H5DQy+RMWM+QkIeFIN/vucJsUp4b9euZcDF5f68MvD9F1+0xcXAyhPgUWN8BAfH4Ox8d5vxwDM4GCIijpnxM2KVkFcJeWrA/e7uxoOqGOLibNe8deuvLF68lKVLF2DkRsKxBkzu5xfD1au2+3HvWEhoDvB3GO7dfLaNLWO/e+/HP70PszGDMW8Env/LWPhzHvz5fvzzePvr+EjI5z+Pcx+fCM6fv5vjYWHGtzUjsLc35oN/yvuHjXPbvGZ7b7axn9BM4p/mkhdfNBgB2xzh7Gw7R0hIBgoVeonLl+8fg5kyJWyz5YaRQ0mfrxI3lzwsDxI7H2i/5xfSFZgtMFtgtuZTrRWJh8QVqycXqz/XwA9bj4S4C3EHxSCJMXi6iLsB+PoYiPvLMdjdSof9H4h7An5ubgvLSjw3TXTdANFt27IQjw1iv7PtQcc+8PWyEEQ4Pvce652F+D9gd4jBLiwd9gnbDIg9KIYw73R4J/Ycf97vUjouxWXBKSgUTwMX/xPi7ul5P3hv4PYJCL4Ben/+eRMaNKjOzZtn7+DnCXiogZUngOhPCxS1nSPmDgxt3rd/7bxh5kMeb+8sBAUl9rzheHqevYNjP35cHvx6jxODBx37oG0vvGAYZzYkMyEGf86XP0PYYWFZ4I8cTwwu+aDzGvn38st/j3ParuVBcXlY7B+Md//5mqdOncfy5ReYO3cu975f23k34+OTNkl5f+lSNE5OSUHD/5gjsOWfLYcS3lsMt26lu9Nw4WH3I6n590+xd3Ly5dKle68lDGObvb3tfpjz2n3X/OAx89d7bntvQUFheHsnFlj/634Pur5btxL2e1huCAQWCCwQODFz9pOec/R6Cc1WlH/Kv4c3oFLzEVtTIM0bjxaDxNbyCbWjXZ48ueOPHTtp4qQuLtewWoWQKwbKg4eNhaeHuKcBr2jCowPJ7AX2brnBBbBCeLQNQScK4txuYyWa6HBPE3Z3ifLD5Z5txn4Gmu7mhvkXHm479s/bEo592H6Jfb2E/RJ1LdevEXXdBp0nFUc0wD+4baLIDz/20c5hANIPxhsf9Hp/3RYT42N+q8JiuXAHpH48DPJx3sf9x9ow68RvA18TF7f9+ZgQdtJif++x1/jr6z3Oe3v4tXh7+3H9+v35kgB6J+59PPwcf58vT+JYA/c+aaLmf84h433Y26f5A+m/kaRcuz8Gj3J/739v//R6NqDedn0Pyr+Hx+/vY2A79unm0MOvL2mx1+vZkP7HmxOfxNjSfXv4Gqo4K081VjVfac5OaC6j+eDJzgdC3GPi8PJ6PtHwGL03klMMkoq4G1C3cf3h4VZiYx8BnLRGExHuQFRsHKkyx+NpdSU2xrbNYryeVzweXq5YHrgtjohwq20/Dwc8UjliMeD0hG3/eGxiz5HY/e6/lgcB5s8aQunl5YCbm6OJTkdEWO/g08/a+/gv4ccH5YG2PRj4/zfi8qDcTex5E3vs4+ynsSWo9r+cr5R/yj/l3yPUsaqRVCd6qFbW+vHX9SNzZges1mSEuBvf+vD2hsjI5I9yC07XPUpKniYVcTegbiPHIiOzYLEcvIMJJxrZc7xCbKSrCZ6ncrfi7JEea6xtmwmsG9vc02O1PGibhdjIyD8gdnecU7mb/35n2z8em9hzJHa/+6/lr4D5s4cPeni4Y2f3rIGJySvOD8oDbXPnv4rBgwDQxF5LYo99nP2ePaA0eY03xU/3Q80B1BxAzQHUHCA2VjFQDCz81zEwPke5u7snD8Q9TRoDIw3k9u3cWCxHiYsDx6cMaz/OOQy81kBznQTAKwaJyNNHRdxtsHECsJ4ATT8KGpnBhIXvxcWTiiI/GB9MHGad+PM+OmAuHPHJ4YiPCy8nDcF/lHx+nLGgYx/3/tqA9ce5bxrnjxe/x4m9jlXsH3f8KoeUQ8qhx18HNY40jjSOkjaOjNrxz82wEjeOnijini5dKK6ugWTOHMbFi76cP58Fq3UDdnYQHw/29mBnVyaJYPa/cexdlNuG5m4wH7gl72vW9f139+jREPe7yHcMdnbp/kCHHw27i4jIgrPzox2bVDxZIKHiLJhSOKfmDWHqwtSFWQuzFmatmlA1oWpC1YRPoia82wwr6Q2Angjinjq1DxkzvkTTpl/g4/MSVutJUqf2IybGl3nzhrNkySKT/nVz80kUFG+8np+fD7ly+RIT40Vo6EkuXLBw4cLR+5B5Y7+4OBs4Hh5uA2iNc7i52ZBgi8XoVGU8OLu7X3R04B+Y9d39rl8PpH37jhw7FshPPy3CaoXoaMx/urgk7pq1X8qK1eMj7n64uNzGak0MQi5AVWDikwUThZEKIxVGKrxbeLfW32ejiYXGqsaqxqrGqj4LPT+fhRKa7jysOc/f33O7nDkLx5858/Nj4ec5c+Zi8eJBrF+/mjFjDnLhws9kzpyLVq2KUr7853z88ZccP7490eeoUOET6tevwvHjUYSGxpI2Lbi7p2HMmHqEhxutpx1MCM9qdSBjRkcuXIjG3d0AwAzE3QEvLwMCi+bmTdu2BGzR+PfQUKuJaadKFU+qVK5/7AdTp05m7dqNbNu2ksuX43BxsRIVZZwjnsyZITbW6OTmkKwg8eSEmqe0a0kq4v5gsNgTBwcvrlz5/Q7snlgoWfv9d8C1Yq/YG2uK8kAxUB7Y6iuNBcVAeaCxYHwuUx4oBsqDu82ctDbeXRtv3bI1MTOe06RO7YnV6sW1a78/cuMru9deeyP+1KmDuLtbcXc3Wr4nHV1v2bIhuXNXon//WoSEGK9hMTGudOm8+Pjjynh4lKRv3y9wdY1K1Dm6dPmcbNneoXfv7oSGXsfRET7+uC27dy8gKOgKefPWpEKFHEREeHDmzE/88MMqE4p/880CvP12PtKle43AwC3MmrUBA9uuV68hly7d5M0336BPnz7kzVuAihXfx9s7Pdu3b2HVqpXMmTOZPXtO4u2dCWdnC1u3HmTLlgWPFZfHiamONXLo0XPyaR+bVMT979Bc43UiIyPx9i7A9es38fYOITragpNTFuztXbhxQ9sUA+WBxoLmA82JWhe0Nqo+UI2kmlA1oWpC1YTPXk3o6moQTQcJD0862P4gZN4uX74c8YcOBeLomOGR8e5589Yybdp49u07Y0Kw92Lqrq65mT27G59+2pqIiDDzAVZc3D/D7jVq1KRUqers2rWfw4dXc+rUDaKjHc3r8/MrSqNG73H48F4iI30oVuxDZs1aR2DgJgYMGMT+/Tu5etWLChUys3LlJvMbVUOHLuTq1XOcO3eBlStXMXx4fzZvXk1ERHaqVPmErl3fo3PnQTg6XmbDhjDSpo3g3Xcz0azZaIyv7SbmmpMzUP84uL2OfXADgkdF3BMLHNqw9wicnDKQADTfv82GuD98Pxtwrf0UA+WBxsKD5xLFRXH5u3VGuaHcUG78fR2m8aHxofGh8fFPn9U0RzyZBmN/hd2fCOK+atVShg+fwbZtq/6EnxuOVCG2bu1AlSrNCQsLxcHh4Yh7+vRu1K8/hbfeCsfB4TViYubzyy8vMGrUcBo0aI+fXxYmTOiOnV1mPvnkaxwdYxk1qgvZssVx6VIwBQtWoGbNUpw9G8fXX3/JnDlz+N//vmXjxmvUr2+hWrU3qVfvRyIjs/L++3YcPbqFfv3GEhCwlYkTg3Fy2sCCBQvp0aMpAQE3EnXNyReoF/b+5LH3R0fcE4tf2mC7MMLC7sLB925LQNwftl8Csqf9QlEMFIO7jRT+fmxpzDx4zlFcFJe/W4+UG8oN5YbWlH+qWTVHaI7QHJGy54jEfv5N7H5PBHEfMGA8p0+fYdmyRSamnoCfR0Vd4/33i9K9e0caNqzD9eued4D1e/dzcfkrxG7bBj4+7/D2275UrFiTlSt/pmBBR+zt3QgPh6ioq3h4pCMqKpA1a3bQrl1fzp8/aWLufn6ZOXToJMOGDWHWrIXMnj2H/fsPUqtWNV5/3YfOnXsSEwMODr5AICNGTGb37o388IMBzvvStWsbFixYxPHjZxIFzwtxF+IuFFnQqqBVQauCVgWtPj/Qqu6l7qUaiKjpiZqeqL5Xfa/6PnnV908Eca9a9UN69GjCZ58N5/z5HSZ+biDpL72UhgEDBnPixEl69RqBh0c8Hh6uxMYaQfh7EL116884fnwFBw5EEhQUaz6QGjPma4KDD3D7dnYsFidGjRqIh0ccGTOmITo6lnLlGvH6628xalQDHB09admyL2fOXGbMmCGMHLmQZcvmcPToKgoXbk758iXp0aO2iYj5+3/Inj0XaNKkLqtXb2D79kUm2N6//1x69FiBxbLQ7FooxF0xuDcPngTi/iDYPbHbPD0dTQwvIuIuFpjYY7WfA4qBYpDQ3MMARzWOFAPlgaOJqWosKAbKA40F1UiqkVQj3W0Cpzkx+c2JTwRxT5XKSvXqtWjatAbr1x8hMDCW1KnjKFz4ZbJly8XSpdsZOnQo7u5RODmlx2K5YqLrNuz9r1B3p06teP31t9m58yLh4dfx9ISiRd9i7NiviYqKpGPHgfzyy0GCgy2ULfsW27dP5eJFaNz4I9atO4SfX24yZvTmypXLTJjQi6++msvMmXMICFhF5szZ6Nu3Pxs2nCM+3pMSJbwZNGg2nTp9wpo169m0aZEJ2Q8cOIkpU7qb/taj4vZPGxL/u/jpvE8fgH9SiLvVauFBOJ22KS7KDXcUA8Xg7xpgKDeUG8oNdxQDxcDIAeWBYqA8sJjjQGMhZcTgiSDuCYD5m2/6U7VqcbJlcyYoyIMNG/YQELCFyZP7cuBAkPlQ6PZtA+LKbWLvBoQdEuJ7Hx6fsK1mzU/Jkwdzf4slN8uW7eD8+Z3msZkzx/LRR/64uQXyyy/ebNmyhdu3g/D3z0XOnL7mNqML4dtvZzfP/8YblVm37jTBwbfM8+bJU8jsYhgV5cu2bUc5dGglbdu2ZNeuAxw8uNNE5uvXz8769Vu4cMH7kXF7we7wvMbgaSPuD8febYj7w/ezAYLaTzFQHmgs3MU0/wpiao7QHKE5QnOE5gjfO41zNCdqTtScqDlRc2LynBOfCOJ+L2AeH/8STk6ReHlFcONGSWADuXK9wqRJg+nXbz6bNkWY2x4Oaxs/HCyEnd1ebt+Ge8/h45OeoKAw7O2jsbN7EApv/urwIefww84uC1brBuzs0hMff//rGQ8ogoLuP+/Dr/nhQL2w9+chpk8fcX8YYpeAuD9svwQ4U/uFohgoBgbirjxQDJQHWVAMFAPVB3dhba0LWhc0J2pO1Jz47MyJTwRx/zvA3EDcvbx8Tdg9dWo/7O0NBO6aiaTfi7i7uf1129/D7r5ER98PxSecw3ho5ebm84/ounHeP+/3oG33niPhWrTt/tin5LgYHhb4AEJuhdwKuRVyK+RWyK2QWyG3yQu51f3Q/VBTEdXoqtFVoz+PNfoTQdy9vOKTAJ0/CHF/OOyetHMIHBc8n5ScTHq+CHEXHi/sWNixYM/kB3tqXGpcalxqXAohF0IuhFwIubEWKA+ezxg8EcQ9aWj4gxD3h8PuSTsHJsT+T1C8Xu/pQ+fPMzIvxD3SBLYFJioGygONBTWdUNMJofpC9YUnpww8WfO95nvN95rv/+v5/oki7gZ+brEcNe2pxODd/4S4OzkFmph6Ul4vsefVfom/R4rVg2MlxF0ItIBXAa8CXgW8CnhNnsCr5mfNz5qfNT9rftb87OKiGDyPMXjiiLug88QA9cLeH4zvPytxEeIu8FTgqcBTgacCT58d8FRztuZszdmaszVna86+dUsxUAzCeNZj8FQR9wch3w8C2/8JcRecLjjdak1+MRDiLrBYQK6AXAG5AnIF5ArIfR6BXK1vWt+0vml90/qm9S25rm9C3GMhPNyBmJg4BMUrBonNAyHuQtyFRQuLFhYtLFpYtLBoIcHPJxKsNV5rvNZ4rfFa45PnGi/EXdi7wHv3pKP/QtwFVwsyFWQqyFSQ6X8NmWoe0jykeUjzkOYhAfpqqqSmSimpqdJ/irgLCBem/qwi/ULchbgLCRYSLCRYSLCQYAG5zyOQq/VN65vWN61vWt+0viXX9U2IO0LXUQxIWgyEuAsEFggsEFggsEBgYbjPOgSrtUxrmdYyrWVay7SWaS17tmD3fx1xfxDsrm0+KAbPVgyEuAtxF3KbEpHbQIw/NzcfoqKu4eXli/IgJeaB5j/lvfJeyLeQbyHfQr6TK/KtNer5XqP+A8QdYgWnKwZez3YeCHEX4i7gNeUBr7duWYmNFVhswLaCqxUD5YHWQa2DKW8d1D3XPRduL9z+v8bt/wPEPelgtsViwd3divsjYNs61hXF4MnHQIi7EHfhySkPT7ZaI6lVqzELF85CaK7QXKG5QnNTEpqrNS/lrXm657rnahKhJhHJsd4V4h6Xm2cVEheC/98h+ELchbgLuU2ZyO3OnZeYNWsCY8asx4bcBuHgEIGLSwYEngo8Ta7gqearlDlfOTiAclIxUB6oZtUaoDXgeWrMIMRdgHkSAXOIjwd7e7CzK5NCjxXiLvhW8G1KhG9v3QrkzJnR7N59jiNH7Bg9ejE+PoaLFUZYmBBUIajPFoKqeVzzeEqcx5X3ynvlveB+wf3Pds0qxN3qS3R0IFar8V9oni1IXNf83903Ie5CjAVEPt9A5N/d34MHT1OiREnGjFlIQMB8hg0bA0QhyFQxUB5oXdC6kDLXBY19jX2NfY19Nbb49xpbCHEXKC9Q/hFAeSHuwmsFmaZMyHTTpgu8885LvPpqaqZN28PatXMYMWIgnp72eHk5EhWVMuMi0FtzouZEjX3hzsKd/2vcWfOQ5iHNQ8//PCTE3QKRkU8e+Rac/nzHVIi7EHfhpikTNz169ByZMmUgfXpIkyYHHTq04dy5UKZPH4a7uzsRESkzLsKsNSdqTtTYF/gs8Dk5gs+amzQ3aW56vuYmIe5C3IlTDJIcAyHuAjEFYqZMENNA3P38MpHw5+ubg3HjZnLkyFEGDJj2B+yu8aHxkTLHh7BojX2NfY395wmLVj4rn5XP6ZNdbSvEXYh7CoXYHwejF+IuBFUIakpFUHfvHk22bJ/ceYAF6XFwiOHbb2dw/Pgpli1bzLVrgTg5CfRWDJQHWiu0VqTUtULzn+Y/zX+a/zT/PZ2GAULchbhjVQySHAMh7gI7BXamPLDz999vcPbsGl5+uTpwDS8vX3LmdKVYsbdInfpVvvyyB+PG9WXgQMHuGh8pb3zonuueCzH+9xBjjTeNN403jbeoqJQZAyHuQtyFuAtxR+img2LgoRh4PCQGrq6xfPfdJYoWzULHji1YvvxXvLyi+PbbjQQGrsDNzYWoqBeYNKkfa9b8zMNeT9issFlhs88/NqtxrnGuca5xrjpbNaZqwrgnVhcLcRcCH/jTAAAgAElEQVTijkUxSHIMhLgLLBYKmvJQUEfHDOzbt4GJE2fy2Wdl2bs3iNatP+PHH3fQv38/9u3bZiLuVmskRiMPJyd3BNoqBkYOKA8UA+WBxRwHGguKgfJAY0GNX/Q56nE+RwlxF2CeZMA8Lg4cHX1xcgpMsccKcRdUK9gz5cGegYFBHDt2gjNnDlC/fg0WLNhEo0ZlyZOnCGXLFmTEiB+Ii4shIuI8Dg4RuLhkICQk+eGXyt2Ul7u657rngog1F2s98tWa7KIYuCgGPOsxEOIuxF2Iu12ZJMZAiLtgSsGUKRWmHD58NE2aDCMmxpumTQuSPXs0Y8dOZMWKGVSuPJMLF8Lx8TkrxN1TgK/mSc2TKXWeFGCu+U/zn+Y/zX9PBzDX2ApFiLsA8yQD5lYruLj44OJyLcUeK8RdiLsA1ZQJqGbNmpljx67h5naNN98syqhRw/n110Dy5s3NmDHdWLx4FU5OXkAUbm5pSKnApsZHyhwfynutjRr7GvvCxVMmrK2xr7H/b419Ie5C3IW4C3EXYC7A/InBiikNLG7Roj7799/gwoUjBAf/DniZ/zTQXoGdioHywKqxEKEYpLR1Qe9XcL/gfsH9gvufHtwvxF2AeZIBcwMndne34u5Oij1WiLvwwcfBB3Xs8wPAR0ZGAhYyZnQnPNzdxNsNxF1AqWKgcf78jHPdS91LY05XHigGygN3s77RWFAM/ss8EOIuxD3FQuyPg9ELcRfiLhRZKLJQZKHIQpEFAj/rGK7WMq1lWsu0lmkt01r2LK1lQtyFuCcRMIf4eLC3B7sk4+fPy7FC3AUICucUzimc89YtxUAx8EUxUAxu3VIMFIMwFAPFQA0c1MDh3/iMKMRdiHuKhdgfB6MX4i6oVlilsMp/C6tUrinXlGtCkdUQQk0x1BhEzVHUKEOfP1QTRiPEXYi7EHch7kLchbgLHBe6Lmxb2DbCp4VPC58WPi18+unh05pjNcdqjn38OVaIuxD3FAuxPw5GL8RdQLMASwGW/yVgqfxT/in/hAk7OysGioE7ioFiYOSA8kAxSCl5IMRdiLsQd6fAJMdAiLsQd8G3gm8F3wq+FXwr+PZZgm+1bmnd0rqldUvrltatZ33dEuIuxF2Ie5IxeiHu/wbQp3MIihcULyRdQLhwbMHQgqEFQwuGVk2omlA1oWrChJpQiLsQdyHuLteSHAMh7kIUhSgK1hasLVhbsLZgbcHagrUFa6smVE2omlA14b9XEwpxF+IuxF2IuxB3Ie5C3IW4C3EX4i7E3SJgWMDw4wPDgro1jjSONI7UDOHpNUMQ4i7EXYi7O0mOgRB3Ie5CtIVoC9EWIC00V2huSkFzteZpzdOapzVPa57WvOSw5glxF+KeZMA8Lg4cHX1xegT8/Hk5Voi7EHdhuMJwheEKwxWGKwz3WcdwtZZpLdNaprVMa5nWsmdpLRPiLsRdiLsQdwQlC0oWlCwoWVCyoGRByYKSBSULSlZNqJpQNaFqwuRcEwpxF+KeZMDcagUXFx9cHgE/f16OFeIusFNgp8BOgZ3/Htip8abxpvGm8aamCWqaoKYJapqgpgn6DCbEXYi7EHch7kLchbgLcRfiLsRdiLsQdyHu5jwghFwxUB4IIRdC/vQQcs2xjzfHCnEX4p5kwNxiseDubsX9EfDz5+VYIe5C3AXaCrQVaCvQVqCtQNvkANpqPdJ6pPVI65HWI61HKWU9EuIuxF2I+yNg9ELchbgLvhV8K/hW8K3gW8G3zxJ8q3VL65bWLa1bWre0bj3r65YQdyHuQtyFuAtxvyWwU2CnwM7kDHYKFxcuLlxcuLhwcdUqqlVUq6hWUcMZIe5C3IW4PwJGL8RdgKBQaaHSQqWFSguVFiotVFqotFBp1YSqCVUTqib892pCIe5C3IW4C3EX4i7EXYi7EHch7kLchXcLMBfi7iG8W3i38G4P1cWqi5NxXSzEXYi7EPdHwOiFuAtxF5orNFdortBcoblCc1MKmqs1T2ue1jyteVrztOYlhzVPiLsQdyHuQtwR6CjQ8VkHHYUTCycWTiycWGuZ1jKtZaAYKAYODoqBYvD8NtwS4i7EXYi7EHch7kLcEYwqGFUwqmBUYfnC8oXlC8sXli8sXzWhasLkXBMKcRfiLsRdiDuCiAURCyIWRCyIWBCxIGJBxIKI/z2IWONN403jTeNNn8GS/hlMiLsQdyHuQtyFuAurFFaZjLHKCOHiwsWFiwsXFy6uWkW1imoV1SpqOKOaECHuQtyFuAtxRyijUMbkgDIKCRYSLCRYSLDWI61HWo8sZl2msaAYKA80Foy6SHlwfwyEuAtxF+IuxF2Iu4vgW6GvAk8Fnj6/4KmaHKjJgZocqMmBmhyo1lOtp1rveaj1hLgLcRfiLsRdiLsQdyHuTgI7kzPYKVxcuLhwceHiwsWFiwsXV62iWkUNZ4S4C3EX4i7EXYi7W9IBQeGrwleFrwpfFb6quVMNMNQAQw0w1ABDNaFqQtWE/15NKMRdiLsQdyHuglEFowpGFYwqGFUwqrB8YfnC8oXlqyZUTaiaUDVhsq4JhbgLcRfiLsRdUKiwVAGRQjIRFBqpGMQqBmomoWYSaiahZhIC9AXoC05Pvni8EHch7kLchbgLcRfijmBPwZ7PA+wprFxYubByYeXCyoWVq6ZRTaOa5vltTCPEXYi7EHch7kLchbgLcRfijmBUwajC8oXlC8sXli8sX1i+sHxh+cm5JhTiLsRdiLsQdyHuQtwRRCyIWBCxIGJBxIKIBRH/exCxxpvGm8abxpuawSS9GYwQdyHuQtyFuAvsFNgpsFNgZ7IGOyMErAtYF7AuYF3Auuo11Wuq11Svpfh6TYi7EHch7kLchbgLcRfiLsRdgLkAcwSYCzAXYC7AXIC5AHMB5skXMNc6bUGIuxB3Ie5C3IW4C3EX4u4g8FTg6fMLngq3F24v3F64vXB74fbC7VXrPQ+1nhB3Ie5C3IW4C3EX4i7EXYi7EHdPIe5C3IW4C3EX4i7EXYi7EHch7kLcowOxWo0nnj64PAKYrWMVv+hklkNeXgA+gPBB4YNJxwcFtwpuFdyquVNzp+ZONc9Q8ww1z1DzDNWEqglVEyatJhTiLsRdiLsQd6GgQkGFggoFTfEoqKD4OEHxguIFxQuKV02omlA1oWrCZF0TCnEX4i7EXYi7EHch7kLchbgLcRfiLsTdKsRdiLsQdyHuQtyFuAtxN9aC5JoHQtyFuAtxF+IuxF2IuxB3Ie48D7CnsHJh5cLKhZULKxdWLqxcWLlqmue3MY0QdyHuQtyFuAtxF+IuxF2IuxB3Ie4IcRfiLsRdiLsQdyHuQtyFuAtxT2YAt1B4ofCPi8ILcRe6KXRT6KbQzaShmxozGjMaMxozal6g5gVqXqDmBWpeoM9Rj1MTCnEX4i7EXYi7wE6BnQI7BXYma7BTwLqAdYuAdQHrAtZVr6leU72mei3F12tC3IW4C3EX4i7EXYh7soUaYwVrC9YWrG0C+xoLioHyQMC6gHUB68kV1tYapTXq31qjhLgLcRfiLsRdiLsQdyHuQtyFuEc8v+CpcHvh9sLthdsLtxduL9xeuP3zgNsLcRfiLsRdiLsQdyHuQtyFuAtxF+IuxN1JiLsQdyHuQtyFuAtxF+IuxF2IO4+LhgueT17wvBB34YOPgw/qWGHWwqyFWQuzFmYtzFqYtTBr1ZOqCVUTqiZMWk0oxF2IuxB3Ie5CQYWCCgUVCpriUVBB8YLiBcU7CooXFK+aUDWhakLVhMm6JhTiLsRdiLsQdyHuQtyFuFstioFiYGLpAnIVA+VBpMaCGoiocYSaZ6iBiLMaRyTHxhFC3IW4C3EX4i7EXYi7EHch7kLchbgj7F3Yu7B3Ye/C3oW9C3sX9p6csXch7kLchbgLcRfiLsRdiLsQdyHuQtyFuAtxR4i7EHch7kLchbgLcRfiLsRdiLvV97mKgRB3oZtCN4VuCt1MGrqpMaMxozGjMaPmBWpeoOYFal6g5gX6HPU4NaEQdyHuQtyFuAvsFNgpsFNgZ7IGOwWsC1gXsC5g3UPAuuo11Wuq11Svpfh6TYi7EHch7kLchbgLcRdcLbxbaLPQZqHNQpuFNgttVk2omlA1oWrCZF0TCnEX4i7EXYi7EHch7kLchbgLcRfiLsTdR4i7EHch7kLchbgLcRfiLsQ9DuLjwd4e7JIMZuvYOMWP5BWD9Lz88n+L+0VEZMHZOVTgrsBdgbu3BO4K3BW4K3D3v12TNQY1BjUGNQaTM3rtqSYl+sz0HH1mssuTJ3f8sWMncXFJg4vLNazPGbZttRpPUH303hSDJ5oHQtyFDz4OPqhjhVkLsxZmLcxamLUwa2HWwqxVT6omVE2omjBpNaEQdyHuQtyFuAsFFQoqFFQoaIpHQQXFC4oXFC8oXlC8g2pC1YSqCVUTJuuaUIi7EHch7kLcBXYK7BTYKbAzWYOdsQLWBawLWBewLmBd9ZrqNdVrqtdSfL0mxF2IuxB3Ie5C3IW4C3EX4i7EXYi7EHch7ghxF+IuxF2IuxB3Ie5C3IWQJzOEXDD+46HwQtyFQQrQd3qOMEjls/JZ+axmCILYBbELYhfELog9EMVAMUjudbEQd6H1gvsfoXmBEHehm+HhgRh/bm4+REVdw8vLlwSIE9IA928T1iusV1iv5g1hvcJ6hfUmDevVmNGY0ZjRmFHTEzU9ufdzlBB3Ie5C3IW4C+x8DLDT29sVT0/McRQZaU9kZDyenrG4uzsSExPHzZvWZA0hCq4WXC24WnC14GrB1R6PsQ7q2Dih10KvVetFqN5VTf3v1NRC3IW4C3EX4i4U9BFQ0CZNWuPnV4A0aeLx9vY1fyZstboSFhaLm1sY58//zKJFO9mzZ0OKxxYFcFsEcAvgFsAtgFtr7SOstVo/tH5YtX5o/dD6ofXjnvVDiLsQdyHuQtyFuP8N4u7omJ64uFtYLEG4unpQvHg9/P0rULx4LhwcjG25AeOnhL7mzwnhKHD/tl27dvLDD+NZv/4ax4+HCcgNEZArIFdAroBcAbnJGciNUEMDNTRQQwPVa6rX9PkomTa5sitaNHP8zz9fIy4uGju7MsAGgeOKgfLgH8eCEPfkjvs9ieu7dMkXJycbbFyhQgwtWnSgcOE6ODk5Eh+POU8aH0AS82e1wsGDv7B8+SYWLFjMrVsCIp/EPRK4K3BX2KzmEs0lasKgJgxqwqAmDGrCoJow5dSEQtyFuAtxF+KOcMR7cUQbzg4+pEvnQ6tWtalV6zPzW1ZubtdMtN34MxB3A243sHZjX9s2sAH/9267u9/t22lYv34jw4Z15Nixk7i4CGUUbi/cXri9cHtB3YK6BXUL6lYtqppQNaFqwsTUhELchbgLcRfiLsT9Hrz21i0rUVFx5Mr1JmPGDOKttz4gPNzBHCeZM9/9vtXFi1GEhcXg4hKLh8cWYmJKcfu2E1mzOuPo6PaPX8w6evQK1ar1JixsBm5uAqQFSAuQFgItBNpoJqA8UAyUB4KwBWH/OxC24qw4P6tNfIS4C3EX4i7EXTDgPTCg1RqJq2sBJkzoT6VKJQEL16+74u197zesoHnzemzZYjy4CsPR0R2LxUKqVKkoXbo8TZt2w88vwcWyPcu6++0suH4dgoKu0K1bfX79db9wTuGcGoPCnc0cMP4nsFgxUB5oLGg+sGhOtCoGxnqosaAY/DkPhLgLcRfiLsRdSOE9SKGTkx1Dhw7n/fdz/fETwftx9mvXblOnTjfOnVtPnjxFqVatLmnT+nLuHOzb1515836jRIlsNGvWiYsXD5A1a3Zy5y7JK6+8fM+3smzY+5EjO6lSZRh2doFEROw3TS3hzoqB8uCoxoIQbSHaQrSFaAvRVn2aTBFtNXq4pTXqP1yjhLgLbBfYnuTmBULcn0c019s7C0FBofTv/xHNm3+Jo6P9X34GGBp6kgYNerJmzVImTOhFkSJFSJeuDN7e0cTHhxEU5E3z5n6sWXMO40GY1WqPvb0zrq4uVKpUgDlztnDlCqRPb3tpA4LfufMsH3/cHnv7nxBILZD6eRxbwnWF6wrXTTm4ruYwofpC9YXqa93Xuv80130h7kLchbgLcRfi7maDM/38fFi0aAgZMxYlKuou2H79ugG7RzNvXgADB9ZmwIDp1KhRwvyGlrHfzZuefPfdBL79dgzh4a68/35p/P1LkyuXH3v2HGXevFWcObOPtGm9GDt2KZky3b5zrJNTGgYP7suYMQPMh1oGEi/IVJCpIFNBpomBTIWfCz8Xfi78XDWDagbVDKoZUlLNIMRdiLsQdyHuQtw9HEid2pNp0zby3ntv3fPNq3is1jh27DjC6NFfc/DgIjw9M7Js2T58fdMa36Fi8+Z99O8/hMDA9RQqlNP0rz744BPs7R3vvM6FC9GcPBlImzbvkCVLHqZM2czLLzvf+f+vXNlL6dKdOHPGxQThhZoLNRdmLcxamLUwayHLQpafVWRZuavcVe6qSdPT+jwjxF2IuxB3Ie6Cg53dSZcuIxs2/ICLSzYTbDf+oqOj+PbbaXTr1oU0aQoQE/MTadPmY9Omn7FYLtK37zR++GECdnapad++NnXqdCE21oYt/vbbQXx9c+Hk5I239xUslvQsXTqFTp26M3z4YGrVanwf7N67dxvGjp2Ak5PwWoGdAjsFt0aamLvGgmKgPNBYiI1VDBQDC4qBYqAmL7YmL0LchbgLcRfinuKRzNhYXxo1+pz+/fvh4GAD1i0W2LRpMw0b9iZ37mj69RvMgAHDOX58HwEBJ7h+PZo33nidsmXrMWJEd3x80hMdvZ8TJ/YyaNAcNmzYSYEC/vj7F6du3RY4Ol7G3j4V/v518PGJZcyYtaRJ43DnW1iHDy+iWrUviIt7McXfD0H2guwF2QuyFxIsJNjnP0SClX/KP+VfejVSUCOFZPmZRIi7EHch7kLcSenYopOTL2vWBJA9uyt2drZnStevnyR79o5kz36FhQsH8sorpahUyZ+AAGeOHx9NcLCVN998nZUrJ1OkSBmCgmLo0qUny5YtoWLFBjRr1pDu3buwf/+v5M/vzOTJY8mbtxT163fk8OE9bNvWhxdeqHznAdbVqz9RoUJ1Lly4zK1bZRCCKgQ1pY/LpwmACpoWNK05VnOs5lhB01pn1GBCDZSevQZKQtyFuAtxF+Ke4tHwt98uxqpVW8yHSeHhgSawPm/eIho2rM2cOdMpX76EOU78/Uty+fJR9u49zYkTRylVqgL9+39NTEwg8+ZNICAgnJIlKzFx4mBeeSUPFy4EmrD7d99t5OZNC6VL5+fmTTdOngxgzZrtZMoUAfj88cAskHr1PmfPnq2AH4J5BfMK5hXMK5hXMG9KgnnVlEBNCVT7qPZR7aPa52G1jxB3Ie5C3IW4p3g0vGbNT5g1a949eDuMGzefyZNbsHDhIby90xEbG0fz5oW5du0mmzef4vDhfVSs+AEvvpiViIgbZifB3buDmT+/N2XKfESXLp/y6qvViYpy4LffYP78IWzY0JeIiGhKlmxJv37fkC2b633nHDCgLaNHT0jx90OAuQBzAeYCzIVAC4EWAi0E+mkh0JpfNL9ofnl25xch7kLchbgLcU/xiHv9+r0YNarPH9+EwkTcx42bwYQJHVi3bj8eHqnw9rZQqVIVLl2KYseOnzlx4jfKlClOlSo16d27DxkyeBMa6sr+/Rvo2LEdcJN69fypXLkJr72Wm7CwcA4dCmDw4C+4etWJhQv3kC6dJ15eCT9ZhICAVTRqVJuYGBtSKLBTMVAeaCwYkLvyQDFQHqjBiZo6qKmDmjqooYE+GwhxF2D+CIB5XBw4OvrilIKP9fH5r5HlDPj4RCBk9Mkgo02a9DUfQtn+bIj7vHnD6dChF+vXb8fPzw1X19x8/HEtzp69wbffDiY+Pohq1eowcuQCypcvf+fYc+du0bv3MI4f/50XXkhNcPAJBgxoQYkSjXB392Lt2qM0a1acVq3a0aVLr3u+gXWUyMhb5M1bI1mCicq1J5NrAur/67lTKG2IUFrNsS6+ioFigNYjrUdqmKKGKc9ifS/EXYi7EHch7ikecf/iixn07v3pfT/nO3YsgIIFO9O2bVH696+Ig0MhfvxxDo0azcXJKZ4qVQoyYcIk1q3bQeHCee4ce+7cBtq0mYqnpx3du/dnyZLvWLBgBA0bdqNz567Ex0OzZv78+ONmfvjhBlmz3j2tcWzZsq24dEm4rnBd4brCdYXrCtd99nBdNUhQgwQ1SFANpxpONdzTrOGEuAtxF+IuxD3FI+6tWvW88w2sBMQ9Kuoa7doNYePG4bRuPZlWrYpy82Y6rl79naVLN7Js2QwuXDjJgAE98ffvQ+rURudCOHfuJJ07NyV37lcYMWIUJ09upGLFOubDq1atbN/yGj58AD169GXv3g3kzVviDh4fEhLN++8XS/H342F4o6BfQb+CfgX9CvoV9Ku1Qk0O1OTgBoqBYpDS6mIh7kLchbgLcU/xaPgXX9Rg3LiF930DKzQU4uK+p1Kl3hw+fIQaNQYxdmwrHB1dsVrjOHr0CJ9/PoLAwIW8/74LAwfuISjod2rXHs7Nm2vp0OELeveeyNmzBylSpBjjx8/i009rEBMTx4QJvejRYzA7dx6iYMG7397auHExdet+ipvbswsrCkYVjCoYVeNX8LJDil9X1YxDzTjUjEPNOFQTqiZ8GjWhEHch7kLchbineMS9WLHqrFp1/wOs8HAICwumXLlXCQoyugXeIFeu3NSp8zm1azcmVSpj2xXWrLlIz54FiYvLwc2bkVSo4E9AwCbefrsIAweOZe/e36hU6R0GDPiK5s3bYbFY6NZtMOPGfc2lSwGkT297gGV8e+vrr5vy3XfzsbMTWCywWGCxwGKBxQKLBRYLLFYzEzWxUE2omlA14b01oV2+fDniDx0KxNExQ4pGuQWTH0UxSHwMhLg/X+hhxoy5WbXqCOnT30XcjX87duwgFSvWp3r1fPj7t+SrrwZx6NBF8uXzpV694hQo4M///jeO/2PvTsBjvNr/gX+TyWSZyWSdZLLIxNbYd6mtXhrUThOlxFJr1a4/WqXW1t7X9tqKotRWkdhLCWkUbVAqiAqJmJBFFomZSTJr/v9zHpNFxFLVFrfr6vXG41nOuc99ljzvzOfs3n2Sf2Vw4MDuaNlSiTFjvgL7asOqVWvwxx/fITh4OCZM2IQPP+yJK1duoEePN9CgQV3s2HGx6FNf2dkX0KXLQNy4kQO9nqBpgqYJWSZgmIBhAoZfrbmW+jT1aerT1KdfRjScyvzv2siIEHdC3AlxJ8T9tUfc8/MrIyLiNzRvnguAv8Xif3JzUxEYOALvvmuDL7/cBeAiwsNtsWLFp7h48RBsbGRQKHLw1Vdr0aFDO9jYZCA5OQfTp6+DSCTBhg0LEBdnQPPmdTBv3lq0adMOkyePQmTkMRw8uAAtW35Q9KybN/eiZ88RuH9fRoi7lvDLF4lfErJMyDIhy4QsE7JM8wzNM7RRBm2UQRtlvIxrQkLcCXEnxJ0Q99ceDXdzC0CbNk2xcOFSmM33IJMp+YslrVaN9u1DoNPJsHnzDFSs6AM7Ow8kJ6vw008bwb5mGBz8Hry9a4GZWUeObMCaNZG4ciUSw4ZNwNixI3HzZgy/R+PGHWBtnY8//ojFoEH9MW3aTIjFDJ70KILdv/pqJuzsCOYlmJdgXkJpCaV93VBaqi9tTkGbU9DmFLQ5Ba2BaQ385DUwIe6EuBPiTog7YbNSEby93bF5cwzq1fMv+lSUyQTs378SI0eOxvz5C9CnzxhYWzuAfQSe/UlOBry9jbh79y7+97/pWLPmW9jZyTBv3lQMGjSBnxMV9QtCQtrwfla/vgumT5+J+vU/fPB1ReE+BgPQtm0znDsng1R6FFKpPV4EekiYJmGalFcErBOwTsA6AesErBOwTsA6rQlpTfiyrgkJcSfEnRB3Qtxfe8SdwYCurhK8/34HjB//LdzcwD9dJZEAGg0wYsR7+OmncAwdGowOHSajYcNA2NsDly4Bx46txbx50+Hi4o5+/XqiU6cBaNSoMtjLL/ZiaubMmViyZDaWLQtDz55N4O7uBoAB8MIzZDIgMjIcoaH9OPAuFptga6sAoaWElhJaSmgpQfYE2RNkT5A9QfYE2dOakNaEtCYsXhMS4m6uCYPh6fFugs4pVixfCHF/dRHKLVvmo0mTrgBUAISvEqanH8OiRWuxYcNlaLVxCAysiYKCNAAaJCV5oUoVO3zxxSK0bFkFYnFNiEQqmM2+OHnyD7z/fm20bj0Ea9dOh6Ojkm+WIBLFAWBjjwp6vTvatBmEtLRjMJs1EIu9QIA5AeaEHRN2TNjxqzvPEAj87wKBqT2oPTw8KAYUA9pA6WX5/YMQd0LcCXEnxP21R9xLQqb/+Y8dduyYBImkS4mvEppgNB7HpUsO+P338wgLOwqN5ixsbXNx5YoStWo1w4oVC1Cpkgp2djlITvbHgQMxmD17I2rVysL27VPg6fk+v19hIWBlJdzabI7HypW/YtWq1TAabzI2Hrm5BMsSLEuwLMGyBMu+jLAslZk2SKANEmiDBNoggdaxtI59setYQtwJcSfEnRD31x5xLwkmFhQYMWBAC4wevRO+vpZ3WMKnsfLzMzjibjKpUFAA3nfWrRuFsLBIZGUVQCJx5F8dZJ+ysrYG3nzzLYwdOwANG7bg1zo4CGC78Cce27ZFYvz4URyNJ8CXAF8CfAnwJcCXAF8CfJ8M+NJ8SfMlzZc0X9J8+frOl4S4E+JOiDsh7oS4S0ujvl5eQQgObohp0+axz0lBIhFxsN3Pj720AnQ6wceyHLt27QDCw8/g1q1k6PWFqFDBDu+88x4aNQqCWi3ifYxda/mTkmJCRMQ2zJ49GA4OhEoTKk2oNKHShEoTKk2oNKHShEq/rKg05S7lLuXu3/f7DCHuhLgT4k6IOyHutmWxaKlUgqCgjom1HFQAACAASURBVPjvf5dALPYpgt0Zus7+ZGej1DH2iSy1OhtyuQH37ing5mZi+wsiO9uen1fyz4oVazBr1hjY2trDyopgSoIpCSsnrJywcsLKCSsnrJywcsLKaU1Ia0JaEz5pTUiIOyHuMFMMnjkGhLi/LrjuHQQE9MbMmd3RsmUI7O3vwMamGGLPy6sJsVhV5phEokJhYdnzYmON2LJlM3bsWA6RSAM7u5Jge9ojjr0ucSY482WBMwk7JuiXoF8ar2i8oo1GaKMR2miENhqhNfo/tSYkxJ0Qd0LcCXEnxF37OHBSDbn8LtzdC7F9+/9QuXJbFBbmwspKAZPpKKys2nHvyoKzs2MiUbsSYPtZmEyBGD9+OH799R7U6mSYTALYbmWlxJ07Anjq4cGcLULcCe8mvJsgbIKwCcImCJsgbIKwCcJ+sRA2zbU0176scy0h7oS4E+JOiDsh7g5PByFWrRqA6tV7oU4dP7RqVa0IZ9fpPODiwr5WqIKLixKpqRlQqx3xyy8HEBV1GElJF3H3rgrZ2YRuErr5dLlGkDNBzgDFgGJwDxQDigGh9YTWE1pP62daPxevnwlxJ8SdEHdC3AlxfwhxfxpM2Gw2wdU1CP/5jyP8/KTIz5dBKvXF7dsxuH49AYmJicjPL4BGI4Llfs7ONtDpzFCrTdDrBbSZHcvPN0OrLT5GqDmh5oSaE2r+NOMQwcEEBxMc/PfBwdTfqL9Rf6P+Rmv0f36NTog7Ie6EuBPiToj7IxD3JwGCjo7+yMiIBcPeJRIJNJrS+KqzMzuWDr3eHhacmB0zGAzIy8vj/ysWSyCcZ4DJVHyMAEsCLJ+Uf4QdE3ZM2DFhxzRX0FxBcwVtgEEbYNAGGK/bmpAQdwLMnxkwN5vB0WqGV7+uADwh7gQXPh9c+CiwnRD354sp5STFj4B1AtYJWCdgnYB1AtYJWCdgndaEr/KakBB3QtwJcSfEnRD3xyLuhDy+rMgjAaWUu5S7hIETBk4YOGHghIHTBjG0QQytCV+dNSEh7oS4E+JOiDsh7k+JuBOsTag0gcoEKhOoTKAygcoEKhOoTBuS0JqQ1oS0Jvxn1oSEuBPiTog7Ie6EuP8JxJ0wV8JcCXMlzJUw138ec6WxmMZiGotpLKaxmMZi2vzm9dn8hhB3QtwJcSfEnRD3P4G4v25gItWX0HBCwwkNJzSc0HBCwwkNJzSc0HBaE9Ka8J9cExLiToj7awuxPw9GT4g74YivMo5IdSMMnDBwwsAJAycMnDBwwsAJA6f1Lq0JaU34b1sTEuJOiDsh7oS4E+JOiDsIuSXklpBbQm4JuX11kFtqS2pL2sSCNrGgTSxoE4tXcX1PiDsh7oS4E+JOiDsh7iCMlDBSwkj/GYyUUHhC4QmFJxSeUHhC4WkdRuswWoc93TqMEHdC3AlxJ8SdEHdC3EH45euDXxJ6Teg1odeEXhN6Teg1zfs077O5gPKAYvCy5QEh7oS4E+JOiDsh7oS48xwgoJliQHlAQDMBzQQ0E9BMQPM/CTRT/lH+Uf7RpjGP+52EEHdC3AlxF6ueOQaEuBNqSagloZb/NtSScpJyknKS8H3C9wnfJ3yf8H3C9+n3lFd5TUiIOyHuhLgT4k6I+59A3D08VABykZtLQOTfDURS7AknJpyYcGLCiWnu+bvnHoLxae6huYfmHpp7/vm5hxB3QtwJcSfEnRD3chH3DMhkSliQZcAV7L/XBdwV6psBQAmgLKyYknIPMlkxugnEA5CBIZRPE6u3326LypW9IRa74siRSCQmxvFrHwWZWspSsj3YeXZ2rjCZyiLQrCxqNSBjxYEHr8fTXGu5H6ubyZQPFxdLDNh9hD/5+R5wcBDiolar+DNKHgPYy03AwcGD+hZtkEAbJJTTpwksJrCYwOKnA4tpowfa6OF1WXfSvEDzwtPMC4S4E+JOiDsh7oS4l0DctVoT9Hoz5HJHtGo1EJ07t4G/v3DM0VEEOzsbJCSYMXfualy9ehQODtZwcHg1QGCFQoaPP54PqVQOnc4MnU6ERYtCkZdnxv37JliQR2dnG+Tnm2Fl5YlJk+bC29uR59DSpfPw669nis57HBKcl2fC0aPXUamSHyQSPXr3DsJPP50r84yS4LjluW5uYjg7d8b48W+iXr0AXhZWPr0+CGZzFC5e3IN16/YjNfV+mbJIpZ4YP34uvLwcIZHY8Ha1tDmDTB0dhWPHj6/Brl1OkMnCkZ9v5FZg48ah6Ny5I1xcpJDJhPPUaiE3nJwEEJj9zOrGysSOsTInJv6MTz9d/FRxKVnfDh388N57S5CfL4JOV4CIiAhcvLib34cgdooB5cGrMe4Spk6YOiHahGi/bIg2rUFoDfJPrkEIcSfEnRB3QtwJ7y4BmJtMeejVaxjefbcbmjZ9Gw9DkmKxBAaDAffuZePEiVhs3jwB169nlTnvZQTRQ0Lex9y5ywHk8ToCEv4Ca9++08jIKIaNnZ0l0GgMcHd3xtath+Hnxz5FJcHQoX0RGbmXx+JJGLhC0QC7dq2Am5svbGyMaN++JeLjE4qutTyjJObKjtWoURW9e8/Df/7DXnxVhLOziZdFrRbKzM5hZbl9+yd8881efPvtNxCJbIpy3FJm9skvK6vykUx2v9xcA44d+wb//e9UWFsD48d/iy5dgiCTucDRUQKAxSiP/y+rr14vHMvLy4NEYoBOJ+HluX79J7Ro0eWp4mKpb+3a7RAevh5icTqABjAY0jFlyhT8+OPBVyLXXsb+QWWmTQ6eNK4RPk34NOHThE/TXEFzBc0VT/494HnmS0LcCXF/ZsDcbAZsbJQQ/wn8/FW5lhD3VxdH7N+/DsaNG4mcnIpgECpr66ysC7h7V4WCAikqVGjLj2k0FyAS6XD5sgnTpn2F5GQVcnPZsYfx0DRkZmqgVHrBxsYHZrMOKtUFfo+nhVb1eiX0egVEIi1sbcuPvXCeDy+Xre0tiEQa6PVe/Non4c6OjjWxYMECdOnSBSpVHJRKLXJzFUhLc0CfPt1x9+4vZepWWGiFkyeXQ6erAjs7L0yfPgr797MXRk+uW82aDti0aTGk0oo4fz4H/foNhEYjlJndqxgiTuPHHB29UKdOEObNWwSpNA3OzlpIJArcueOBzMxE6HRpUCo1sLVtwOvMrsnKuoWoqJNYtuxrpKVJefwCAqywZ89yuLlVQVaWEkZjNgoKbkEm00GtlqFKFTkyMxU8zpmZwjMOHjyCKVNWYcKE7hg4sD30ehn0eiceZ1Zmf38pAB9otV4wGjVF98vOlsHVVQ6VSozu3d2fKi4WdHPq1DV4992OEImkvC0zM3VYvHgXtm498cS2fNq8ovOenKevMoJKdSP0/0nzAo0RNEY8zXxOYwmNJTSWPHmdTePpXzeeEuJOiDsh7oS4E+KuVcLNzR+1awdg3bpeyMrSwc2tHXJzCxAZGYkNGz5Hfn4GxGIfuLk1wuzZo1CjRh7S0tT8vD/+uInRoz/G3bu/QizORXmwbG6uPzw91bC3v/nMADwrX1ra0wGqFSqoYTYLz7CyUuLOnSejmwpFR5w8uYG/KGFQrYNDDnJz2yErKx8ffDABKlVEmbrVqmXE/v0zAVTndR47diLOnt312BhY8MsuXTywfv14aLXtsGHDOnz++QZ4eNwsc60FbHd3b4vZs79B7dqAoyN7sXYUyck6TJ8eBr0+HWr1GTg4AKGhn6NXr1H8Pux+yclqTJ68Gvv2acDw1dq1jVi5cib8/KrDzU2JTz6ZicjIQxCJ1MjL84Vc7os2bepi6tR2SE7OgYuLP2xsPNC372e4dSsSd+8WQqn0hbW1LwoL7+Ott2SYNWso7t71h9GoxJw5c3HtGvsUmhpWVr5IT/eFQnEft2+ff6q4aLUqTJwYyL/KqdX6AtA9iIsan3yy7v/HLIfXgzBhigHlwZPHNUK+y5+PCCL+5yFiGsdpHKdxnMZxGouffSwmxJ0Qd0LcCXF/7aFpBoQ7OGiwfv1WNGzYiOPc2dkZWLRoEc6d249bt5KLcHGdzgN+fkqMGTMAXbr04Zi3VuuIr7+ejP/9bwM/Lzg4GG+/HQwXl3xER8fg4sWT6NRpFDp0aMXB7+xs4MSJA9i//zDOnEkBUFCEpLOyNG3aGjVqKNGjxyC4uFSDTncNanUBfvnlAA4c2ImrV+NhNgu4uLe3EpMmjYWLSwESE12xatVKBAW9heDgRpDJWvBz/vgjFb/8EonwcFY+C2ouYPQWiH306KkYPfpzXv5Ll2Jgbe2KWrWUyMm5i7Cw7Vi0aE4ZmNzKyh7Hjm3jODor96efDsG+fbufgLgLmHpoaBcMGjSOI+kjRgzGuXOxRVj+oxDP0aM/RL9+I3nsWZl37ZqDLVvikZqawuuenX2Px1unY/Ebh3nz2sLFxRtJSQXYvHkqtm0L4891d7dHePg2SKVly8yem5rqCj+/AgQFtcacOethY3MPRqMj5s/viy1bInnd3NxckZ0txK9WrUZYs2YGzGYbqNWV+Xk//CCcJ9SjLB6fn//ojQBYHvj6GvHtt/MQENAIarXQ9mazjD9r8uSp2L374muziQBhroS5Pg3mSsA1AdcEXL8+m8vQvEDzAs0LtPkDIe6EuBPiTog7Ie5SESpV8sAPP5yDTieHycQQ792YPXswx7gfhVXWrCnH4sXn4OPjAWdnEWJiYtCp01sc2P7kkxmYPHk6//nWrRTY2cng5sagc1EpgDsjIwGzZr2F337Lg0ajh8HQDv36eWPy5H6Qy4Og0aQgP18GqdQR7u5RyM8PwpUrF9C793+h1YbzdvP0bIS9e7fz85ydHXHgwBQEB8/juDirBzuHlY/VY9y4adixgyHthZBK7XlZBMA8CHv3jkDLlo4wGIKwYsUkJCQosGDBx5BKo3D7tgzduwfh5s0CXgcLps5A9PDws/DxkfPjQ4eGYP/+/U/Eylm5Dhw4CVfXOhzA79UrGPHxR0rF2fIMIfZBiI5egjp1avJ7X7hwBt27t4GNjaEody31YOVl17ZoMQKpqb/wsmdkRBWd5+Hhie++K13mAwf2c3y9ZN0qVqyDjRsj4erqCJksCqtXx2LWrEnlnufu7gg7u0MYMGAejh17OsjeklcODiKOwrO4zJlzHK1bN+KbBbCXg2++GQQWZ1bvadMGIDpaiC8BqhQDygNC3AmAJwCeAHgC4AmAL95kiMbE12NMJMSdEHdC3AlxJ8Tdthp69GiOJUuWIzMzj78YGTeuH86fv8SB8EdBg1ZWeVi7djmaN3+fQ93svMqVXTmwPXDgNMyePbUUtv3LL3sRE5OFJk2q4q232hSB3leuhGPYsDnIyLgBuTwQO3cuR+3ajfn9btyIxcyZE+DoWBmTJo1ApUr1OVaemnobvXv3gU6XhXr1quLbb/fx8y2AeXp6LM6fvw0HBwNatKgGZ+fq/N/j4q5g9OjPkJwcCVtbBS8DQ+tbtaqPFSuOQCoV8NXAwC7Qan/C6dMX4e5eHSZTLD77bCO2b1/Fc6Uk4r5792G4u3vz4x9+2Bc//vhkxL169arYvv0kTKZ0pKZewJgxK5GQcLpUnEsi7rVq1ceGDd/Ay4uVxYD//W8+5syZDSenYiiU1YMh7m5u1SAWZ6GgQIDdHwblfX2d8e23h+HjU1xmBs+zaxn+bnmuUtkZ27d/AanUHRKJBOvXr8LcuZ+WOe+NNyrhu+92QSZzh5WVDYYO7Y6ffvr5mcB2hsmz2Hfu3A0zZ86HtbUBly9fwKefjuNIPoPnWT0+/3wMfvzxBCHutoQEExJMSDAhwS8WCX4eYJiuJcyfMH+ap2mefnHzNCHuhLgT4v4nMPpnAbhfDNrnBQ8PDQjO/OvgzKFDV2Lo0C4PkHQt6tV7rwwk/jAuHhraGvPnL0FWloCGBwa+wRHv996bgs8+m8yPMeT70KGzWLNmDgoKFDCbtZg3rxdatmzPTa3sbGcMG9YX168fxIwZU9Cjx3CIxVZQq3V4770muH2boeBe8PcPwJ49a+Huno+0NC2+/PIrhIeHoW7dYdi0aQQ8PHQccE9JMWL27M8QHX2MP3/ixIXo3r03lEoF0tOPoUOHntBqZUV1KyzMwdy5G9C2bQ3odFa4ePE4PvpoNoxGFaZMWYiQkHEcHz9yZBm+/HIhsrNt+HPY8woL9Rxxt7WtwuH0p0PcVfjoo0mYOXMAr0d0dBLmzv2Kx0WjEcD2h+PctasQZ4bUs7JMnjwQhw9vf3CeCiJRTdjapsHRUQqz2QpZWUL5LCg8A+Bv3lRALreFUpnDEXexuAoKCqwwc+YKHDnyDcxmKY87w+Pd3GwxYEBdTJy4HHr9HVhbm/HRR9MRHX2wTPn8/R2wY8diaLUVYWPjhU8/HYXjx58Osrf0Xwbom831sX37LFStqufYfGjox/jtN1teVrlcz+szadJibN2aRIh7FmGpxZscvLobatD89tfNb5QvyhLzOfUZ6lvUtwhdp3XEyzwvEOJOiDsh7oS4E+KuVWLBgjno2LElx7EZlt6p0+gi/NwCiefmloYGa9TQ4fvvYzhgztDwrl2HIjMzEt27B2PcOOZN5UIqvYmuXUNx86a4KM7t2/ti+vSR8Pb2h5OTHzp2nICMjAisX78MlSo14F8Zmzt3Pr7//luYTALErlL5Y/Xq8ejZ04Mj3vPmReOrr84gMDAP69f/FwxuZxDk5s3R+PrrDdBoBBC9Tp2uWLx4Ld8xTyK5ic6dQ6BSyYrKUrHiHRw6tAR2dr2Qm5uDMWO+QGTkLnh7Z6BVq6748svN/D6pqTcwfHg/JCXZcvCeAfa1aun+FOI+a9Zw9O2rhE6XgxUrzmD16mhep0fFmR1r27Yl5syZUxTnGTPG48iRPaWw/AkT2qF9+7pwclKAYfmAmuPnrC01Gn+MHDkX9+7lcXxfQNy7QavNgUp1GCrVfRQW2sHaWodKldpCLM6HTJYFpVLH48TqzOqek3OjDL7fpIkZYWEzYDRWA8uP6dMnIirq6SB7C+Cbn18ZM2dOxvDh7aDVKrBs2SQsX74Qvr7deFlr19ZBLCbE/XEbJBCC+uwIKgHSBEgTIE2ANI2dNHbSZhe02cXLtr4ixJ0Qd0LcCXF/7RF3hoIuXboBwcFdkJ2t4qh6gwZvPTEub7/dFqtXr+GgusmUj3feqY3UVBVCQ2di+nQBRE9PVyE4OAj5+YVF97Ozs0dMzDbY2LAdAu/i008XIi8vBevXR8DNrYCfp1Zfw++/J8PbO58D6ew/b29mUHnz8h0+HInx45ehVatG+O9/53PYm50zefICREaGcdRcJMpHvXpvISzsKL9fXh4waFAQEhML+bnsmg4dWmPWrPWwtr4HrdYeY8aE4I8/YuDi0hZy+TUsXbqT4+dqtQobNy5GePj+IsD8zyDuOl0GFi9eiQ4duiAnpwAzZ07F4cMCsF4exhwc3Bbz5q15EId8jB49EcePbyiC7Bm6P2VKf/Trx75W6cnxdBZ7gEGXDHg3oFOnEP68ihWLEXcG1bMYGQzCeZY4l7z2xg0Dliz5DhcusHoXY/4WiF2p9MC2bevh4uIDtdoR48b1xbFjJRH3x+G6LNeAIUN6Ytiw2fDzC0B0dCQmTAhBYqI9PD0LcOzYObA4s/iMH9/ribEi3JRwU0LNCTUn1JxQ8/I2C6HcoNyg3GAb7FAevMwxIMSdEHdC3AlxJ8RdKsKMGYPwwQeri+D0bt1ao6DgWhnE3YKLMzT8889XY+DAQZDJBJy9QgW7Moi7VpuO+vU/hskUURRnOzs59u49B4nEA76+URgyZBUyM89h6dKz8PKS8/slJcWgsNAXgAyAI/z8opCcHASA7Voow7lztzB5clN4ezfDrl2bYDIJ2PvEicGIjDzCEXcGk9erVxdRUReQnGxGYWEKgoI+gU4nAPCszAcOHIeLSyM4OdlwxJxdk54uPMPa+i58fW/x50okKbxM773Xh1/LUPg/g7izFz5hYefg4OCD/PwCjBrVCFevJpaByUsi7oGBQfj++x+KEPxRozpg165j/O+WenzwwRD07z8dMpmUx0+nK4TJJOb31ekS0LFjY/48D48KRYi7k5OA27NY6XQW8F7A8jMyruPw4Z+xdetSZGUllpsHFuydIe729iIMGBCCyMgnQ/YWgNtsNmP37kt4660UjtWHhLRDejqLfRQcHOTcCrO3l/Pnr1gxHEeP7kNurg45OQz9J7yWYkB4LW1oQBsa0IYGtKEB4d2vB95N4z2N92y8J8SdEHdC3AlxJ8TdVoJ69Sph164YDokz8Pzrr8cgIuJEGcTdgnzLZA2wceMKVK3qywHujIxYNG7cvAzinpmZjbZta0OrNRbF2cXFHvv3H4Obmy+Hw4cO7cu/psbQcA8PAQ0PD9+BK1diORrO/i6RSGEw6JGXJ2DlKSlJiIw8jSZN3sSyZd9yeJ6BkWPHhuLkydNF59Wo0Rg//ngKBkMsMjJkGDiwGRISdEVlOX/+OnQ6AwfRWVnYvS3PcHZWQCxmvyALx3x9DRg0aCBOnbrA48Jw8WdF3Js2DcbXX8/j/pdGk45u3d7AvXtlsc+SiLtcbsCRIxZQ3oCDB/di7Ni+sLYuBiJtbEyQy2VQKCTcs1Iqq2LevK95e2g0EnTs+AZ/nq9vpSLEndV57doZOHToJ15HGxsJXFwkUKsNSEy8gtu30yGRVINEklVuHpRE3K2tbTB8eHdERj494j5o0DBMmTIH9vYS5ObG4uefNdzgcnNzRU6OIxo3doPRmIf794U29/T0xTffrMK6dUueCYon8JnA54c3NCBomqBpgqYJmiZo+sVB0zTG0hhLY+yLGWMJcSfEnRB3QtwJN7VTwmCogfDwDQgIyOGI9uXLeowY8TFUKi0HwhkuzqByvV7B/71mTV9EROyFSJTBkfWDB7dj+vSBHBkfNGgCRo36L//ZYLiADh06Ii3Njl/L4MyAAAds2fIzCgszoNfbYfr0xfjtt2+wd+8WSCS1OFa+YcN+LFgwEDqdBr6+XmVgcgt0Hhhoy3dDtCDuQ4aMxeXLqiLAvFatIGzatJfj8jk5txAa2hHXr9vB3v4OvvzyEPr3l3MfKyFBhrS0+/w8ozENnp4a3L7tBXd3H1Sp4gezOR0eHnWxZs1SzJq1C3l5OlSs+GyIO6vXxx9/hk8/fZ+Xb/fus/j00znQ61Xw8KhZDuIugLtTpkxASMhc3g75+RcwYMBoJCfnIStLQNwZSss2V2DPYPdr334Y1q4dz9sqLY3t8DcImZks9lZFiDtrz9GjR+HUqYgSOHtpAP5hUP5hZN6CuDs7V8Tdu8+GuBsMafjgg/cxbtxnPLcE9D+N5wjLFXZM2KzhFm8jhtOLxV7YuXM7zw0WlxezSQThpi8zbkpAMwHNBDTTGEZjGMH9tD6gNdKruk4kxJ0Qd0LcCXEnxF2rRF5eRcyZ8zF69XKHp2cOh8AvXjTh//7vU2RknOWQuQW6bNSI4eNzIZEUwtraHwaDJyZOHIULF47x87p3n4ClS6ciLY0h7nIMGuSHEydSodW241j5lCmdMW7cdNy5cx1msycGD56Ks2d34fjxZahW7X24uQGJiRoMGFAV6ekC4m42+6Nly+rc2VKpjuL48QKcPKlD06Z5WLu2GHHv338iTp3K4IA5Q+TfeKMjVq7cxjF44Cb69g3BhQsy1K5dDcuWzUCDBgYOhG/cqMHy5RtRUJCLwkIVbG1zcP++P4fmZ80agdatXfh5iYmeCA7+BEajGgrFsyPuCxZMQ8eO7eDoeBOdOoXijz9uFsWlPCyfxbReva5YvlwA5dm1168nY/78zThw4ADE4kCO77N/E4uVsLcPwOjRHyM0VMbjnZzsgw4dPkZycg4CA40PEPfqHF0fMWIiEhJ2FeHsFqDeEr+ScP+jyvc8iLsA1LfDe++9D2vrtigsjERhIfh/VlaAWNwWjRqx9mAgvxpXrvgjNzcee/cex65d20rlJGHMhDETxkwYM2HMhDG/bBgzbSZBm0nQ+oXWL8+6fiHEnRB3QtwJcSfM0KEYdNy6dRsCAjwegN4eHGUPD9+InJxrcHGphurV6+Kdd9rCbBbgb4YgrlixALt3C3A6Q7SHDJmKTz6ZwYFuhp9nZcVi8+bNuHHDyO/dq9cAeHp6wMUlgMPl/ft3xOnTMXj77QCsXs0g92qQyfKxbl0YzpyJRHz8RbRoEYohQ9rC19cbWVkFmDdvKn9mw4YtsGbNtiLEvU+fwbhxI7YIRK9TR0DcgWvIzga6dQtCZqacfzVt48YfeD0cHJSYOXMUtm2L5PexINAMNbe2zsCbb7bA8uXFz/j880WIitoPo9GIY8fYcSWP16efDsG+fbsfAOoCPP8wGLt790nUqROAuLgYfPjhOMTFJcLBIeOxiLsFJp86dQJCQ0dCp7PEPgXHjqUiKyseKSkqfg83Nw906tQKfn5ASoqMP59B7KGhIdDpCuDtXYy4P1xmhr8/K2r5fIj7Pbi45EMqDUBqKuDiAt5GLi7x0OlcERBQGcuXR8DT0wgG1U+ePIoj7wJMT1g5YeWElRNITRDxs47ZNG7QuEHjBo0bNG48+3r33zR2EuJOiDsh7oS4E+IuFcGChlev3hFffLEEAQF+RTh7MRrJoPMojm0zxD0nJw979szH118vK4WQDxvWG4sWbeXwNgPRVSoZGjRw5PcTidgxhqUXwNa2EKtWDcD338fw8/T6IMye/SaGD/8SgBkODibcvm2GwWADX18Bis/NTcHvv5sxYUIn6HSJqFOnEb7+ensJxL0PjhyJgVbL7mdB3L/C7dtBHHF/++36MBjuY8uWH1C3bhDM5hTk5tqiZcsKj82DiIjD8PBoBldXGxw7Fo7PP/8EhYWFCA8/Cx8fOQfVhw4Nwf795QPmDRrURXT0BQ6mJyQk4513GsJkUhfFviTOWRJxt0Dd3t6OmD79MzRv/jGMRgu6zsB2AWJn9WWQKyuLECs9zp3Lxbx5bZCenojko16tTgAAIABJREFU5ALUqVOMuLPzhgwJwYEDxWV+1HMfd+x5EHeWQ0KZi/Ov5DE/Pzl27jzLsXxWn2nTBuDUqf1lQHnCawmvLbmhASG3hNwSak6oOc0LNC/QvEAb3byqG90Q4k6IOyHuhLgT4m4rQUk03M7ODf37D8KHH3aBXM7sKv+HwOxYREbGYtGiObh1Kw1WVqWRwoEDp2HRoqkc/k5Kuo3o6Fj07FkNeXnV4esbi7y8BjAY0vH991uwatVXAAwA/JGeHgtfXwU+++z/0LVrH+j19mCAOUPOLcj3nj3s01xjoVIV8ufWq1cVa9bsK0Lce/cOxaVLp2EyCdg7Q9yPHDkFk0lA3Dt0aAY/v8bYv/8Ar5NanYdNm3Zj2bKPH5sH/foNxfDho6FQuECrLcT777dDVlbGMyHuPXuG8JdtDJQ/f16DkSNnICXlXKnYW6Dpku1R8hirU+/eQ9GjRwNUqVIHzs7VS8HzDKLPyrqAjAwDZs/ehDNndsDOzh4AA+rToVQWI+4WQD8ycm9R+5b3XNaWJUFWy3nPg7hb2oiVw3K/ksf8/LyxdethjuWzGHz++RicOFF2YwFCeAnhJaSfkH5C+vNoYws9xYDgdILTCU5/MXD6v6lvEeJOiDsh7oS4E+JuVxb7FDBwAYINDKyCgICa/Otdv/9+HKmpDAkWYPdHId+DBo0pQtwvXz6Ijz7qC3t7Z9Sr1we1atXA5cvrcPLkWVhbM5y9NDYrPFeAxAMDKyAg4G3+4uXnn8t/LsPAzWYNB76L71dcPhsbBcxmLUqe96hjj0NfH3VtyRhY7vc4QLpZsz4ICenBYfLIyFNYunTTA6D+z4O7lSv7oVatmnByckNm5hkkJupx86aeg+22tgIAb4FMGehuAflZu9nY+MBs1kGjufCnQfTScXnW+5WfQyXz6tHtW7puhDb/+Rwi7JiwY8KOCTt+VbFj2tSBNnWg9QGtD161dQ4h7oS4E+JOiDsh7tqnw38ZEH7nTvnYogX57ty5GHHXak+hR48hyMvzxK1b/gBywM6zgOPl308NR8dfIRbbc5j8cc99FIL6OBD9dYF+HxWDkscsYDtD4f86+Ja1219zP7aRQMl8eV3ajVBfQn0J9SXU91lRXxo3aNygcYPGDRo3nu73mZd9PUmIOyHuhLgT4v7McPW/CfL7N5ZFQNw/55h5UlIMevQIgdlsT3H+E0j6v7F9H4W9MxD+UWg9QaEvNxT6suTfn9mAgOpGmDVh1oRZ0xxFcxTNH/mgGLxcMSDEnRB3QtwJcSfEXfrXYp8McV+wYCuHt69cOYeuXYNgba2HTGZDALeUcF3Cdf/a/kZQLUG1rypUSyA/gfwE8tOagdYMtGagdU7pdQ4h7oS4E+JOiDsh7rZ/LQLNEPfZs6dyUDYhIQHdurVEYaEREomEw+7/JgiRykLtQeDpqw+eUj+nfk79nPo5bfjx1671aPMM2jyDNs/4ZzaOIMSdEHdC3AlxJ8T9EYj786C+FSu2gJ8feN+6fj0OcXFnH2DlAs6u0dwqF4B/FAr/5GMEehNUS1AtQbUE1b5qUC2NazSu0bhG4xqNa7TRyPP8TvIqXkuIOyHuhLgT4k6I+1Mi7n8GPSwsVMHTMxe5uRZYUQ0Pj5sASh4TYPc/e4zwWsJrCa8lvJbw2tcDr6XxnsZ7Gu9pvKfxnsb7P/M7yasyfxDiTog7Ie6EuBMu/grj4gRTvlwwJcHaBGsTrE2wNsHaBGvT3E1zN9sIiPKAYkB5cI9vilWyLxDiTog7Ie6EuBPi/hcj7oQtEipNqLSJb2JAfYFiQHlAfYEwesLoCaMnjJ4wesLo/6o1ISHuhLgT4k6IOyHufzHiTrAnwZ4Ee/4zsCdh5YSVE1ZOWDlh5YSV0zqM1mG0Dnt112GEuBPiTog7Ie6EuD9A3EUiLWSyNJjNGojFXs8UF3atrS1h6n81OqxSpcHDQwo7OyvY2PjAbGYI/gWIRED5MOUdeHjUfYrz/gocNg0ikVC+rCwfiEQ62No+qXx/xXMp1x6da0J76PVW0OsV+Gf7JSuLBnq9F/R6ITdY7np4PC53KTcILCaw+FVEh//quZHuR8A/Af80X76u8yUh7oS4E+JOiDsh7lol3Nz8kZZWjKlbWSlx5075UKgFXWfnWVsL174qOOK/qR4szsnJOjg5eT5oIzUcHW9CLM5FeYBlr16jUaHCfWi1NxEREQ6DwfOxbfk89R04sC48PXWwslJg06ZYpKU9uXyEr744fJXly/vvt4RU6g9rayWOHj2KP/44+9h8eVHt8fAYUViohtl8E8nJuXByenExeJ58pmtpHCcgnIDwFzUm0vhC4wuNLzS+/BXjCyHuhLgT4k6IOyHuDq4wGHwQEtIWvr4ymEzXEBWVikuXUlAeqDx06GDIZEB+PhAWdg5JSbEAykKDhHI/H8rdsGEA6tV7C3Z2QGTkOdy4EYvHxzQAvXo1RoMGXZCeHof//W8RzGb7F5bjwcHBqFy5BezsMrBmzSFkZT2pfK8fTqzT3YOfXwCys5OhVr9YkLWg4B7Gjh0JqVQJFxdXbNmyAefPx5QBQF9kv9TpXFGjhgeqV68Gb++2cHOLBxAAmSwft24l48KF/UhKysedO8Zyx5cXWT4Cwl+/PkhtTm1OGPiLnXtozH6+tR7Fj+L3LBvYEOJOiDsh7oS4E+IuFcHT0xEjRkyHg4MndDozvvtuPlJTEzlE/SiAdtSoDXBxMUMms8GsWYORn09I64tAWps1G4KgoGY8ztHRETh0aN8j26NkGw0YMAhNmgQhLS0FX34ZDeAHODvbvJA2CgkZgRo1GvHybdgwGPHxlAcP54GPjxyhoUtw9+45rF69+IXC7lqtCX37LkHz5l6QSguxcuVinDlz7m8F5StWrID33psHT08R8vMLeG7IZCLo9WZotcIxkykRq1cvRW5u3hPzmeBbgm//KviWMHUan1/EPE15RXlFeUVI/9+5ViHEnRB3QtwJcSfE3VYCT08XDB06GjY2zgAM2LZtNVSqLJQHAo8YMRdubgbIZBLMnj0FGg3hyS8CT27SpDPatn2Tx/nUqdPYv383ngR1DxgwDA0b1kdGxm0sXDgHBoM1nJ0lL6SNevfuj4CAqjCZJNixYzcSEk4/sXyvFzBcDZ06NcA777THlSsJ2LNnITIybF7YmGMy5aFfv6lo3Jh94suE8PBViI09y/vx34H6+vtXQ9++01ChggEmkz0SEg7g119/BeAKNzdb1K8/BhJJOgAJsrOtsW3bHJ6nf1f5/o4Y0DP+nlyjOFOcadx4dZHqJ61zXq91BG1KQON96fGeEHdC3AlxJ8T9mbDyVxWNvH+/IkaMCIG3dzqHwvfti0NMTBbKq++oUb0gFmthY6PA4sXfIzOzGIAvKPCC0egDhUIKLy89xGI9TCYfZGWZOeqs1V5AXp4GEokXzGYj5PIasLFJg0qVCJHIo6g90tMTUaeOG0wmP2RmeuDevcRSULxO5wOlUgqt9ip0OsBgsHliWzo6KuDoWAeAE8euxeLzYF/xystzQVqatFR99XplUT1cXBhIbQs7u4pF9UhJYVh5MVLt4aGDRKKHtbUWRqMEt287ISBACmtrPUQiPfR6GbKz43DvnuKpofOmTX3RtGl9HufDh3/G5cuqJ+LsPXp8gjp1FEhPv4AtW8JhMtnA1bU67OykEImSkJWVjMxMCe7dcwIrc0kUPjv7DgICWsPamtXXEY6OPkhPt4JMpoNK9QuMRg3s7IqB/5CQdggMbIGsLBW+/vp7aDRapKTE4Y03FNBoKgLwgpWVisfF0dERMhm7nxfkchWuXz8IoxFgcWbgeNlc8+Hls8TUzk6BP/4wl2kjBoS7uUkhl1+FWAykpLjg3j2hLfPz0yCXS+HkVA1qtRP/2WhMQm5uMvLyJCXaXADHK1RogOxsVj4Nbt48VgbLd3W1gtmsRUGBArdvn4NIVLdMW1rgdE9PBUymihg1qh9Y3sXHH8OJEz/yHL19m/UFtvGB8FyFogE0mjtQKt/m5TMY9NBqgfT0GEilNfEosDgnJwcBAQrIZBWLYpqcfA3vv98O1apVAeuHO3dux8WLB4vqkZ3tA39/KRwcSrevwcDygLWHAnZ2drh3zwfVq7NYXeX/J09+ftn+waBpnc4IpVLov2wMqFYtEF279oTZDFy//h3Cwn6ERiMg7qwtnZzUGDFiFkymVOTleSAsbPMj40xAMwHNr+pc+7qiw9SnqU9TnyZ0nca/v2aTEkLcCXEnxJ0Qd0LctUp4evojJKQxFAodGLa8bdspXLzoi/LAyS+/bA0rqxwOuC9eHI3k5BwolSoAuWCw+5Aho2FrWwCxOA0Aw5v9YWXlCb0+B1FRJ3DlSiTy85Xo23ciKlTIgZOTAkuWjMPdu55F7REYaETnzrVRWKhEXp4nvvpqSykovmXLanjrrZbQalUIC9uF1FSnx7ZljRo6dO1aFxJJJ9jYaFBYqOOotNGYgRs3NIiK0pSC7CtXbougoHd4PdgLHVYPK6vieuzevQjp6UJ9WRxY3IYPb4zCwlz89ht7UWdEq1YtIRJZrvXlL/LOnTuI6OhfnwrWfvddGzRuXJvfPzbWCTt2bHsi4j5gwERUqaKDXH4T8+dvQ4cOH8DDowrfBc7K6iZ0ugywFxnh4efLoOsVKlRDv36szKwtdRCJ2gHIgdGoRkpKFPbti0R2djHAPWJEc/j65vHyrVwZjTt3cqBQqPg9ZLKu0GpzceHCdTRvXghrax1sbPwBKFFYmIFr16Lw44+RPH7lbRhQoUJxTBlKvnLlGZ5rDAi3QPYFBf4YPVrA5Fn+HTnyG6KjfXle1axZF02b6mBnV5Xv4sja3BKDzEwf7N7NYlAMy3bt2hWVK7dDYWEOVq1axO+Xm1tc3+HDm6BRo1zcuaPEmjVnykXrWflat26JmjWrQSz257E3mW7CZMqA2Wy5VqhH8+aBqFu3HkQi4TxWPpNJjcJC1hecsHLlLlhbF9eXAaCNGuWga9cmEItLxzQ5+RTc3SXw8+uG3NwCrFu3B3fvniqKFWvf0NCWEIst7cvaw7NE+55Edjb7ezVMnNgSlSopkJISibCw33DpUtnxIDR0Ivz9c/hLyu++24XOnYfA27saj1tERBSSkn4o6h8M+FcobuKDD9rBxaU69Ho/hIdH4ObNp+sLBCATgEwAMgHIfwWATGMJjSU0ltBY8jKPJYS4E+JOiDsh7i8MuH6ZUEb2ianx4wfBwcHIXzBs27YKN278xH9Wq1UPwHYPODhk8GPDho2Ft3cBGIy6YMEymEwCwOji4oexY3vBxSUAJlM+srPvQa0ugJubK0el2TEL5Hz+vApVq7bFgAFt+bUbN85BfLxN0TN69w5GQAB7pivUakds2rQKd+7EcZDazS0AY8eG8uckJsZgzZpVsLZ2fGRb2tm5wtPTA61aNYa3dwsAGXByckVWVj4kknu87OycxMRE7NsXhvR0AaMfPXoqKle21CMZ7NMt7JdzX9+aYH+uXo3D5s3sJYeApLOy9u8fzMeUzMw4XkYGV7MYuLsrYTBk8POAeCxZsuipQO+GDRuhVatGPAZHjhzCuXNPRtJ79RqHBg3YV8hYrIQ/lvYQclLJY3DpUiIiI8N4++bkAO+80xqdOo2Eiwv4saws1qYpqFXrLd5u7FqG9YeFHUJ+fgZkMiUsiLvZnIHNmwXEXYDEl0IuL4BWK7S5QsGuLeBxd3Pz4GVi5YuKuoaff47kXzErD7Bs1SoYDRuya1xx5UoioqLCeExZG7Fjvr5KjBw5Emaz0Jbr1m1Damo8uncfjIoVWRsIeWopi1gsxIDlclJSCn74IRLJyUJeDRkyFbVqCW3+xResjeL5tRYEunPn4pxcs2bZgxg9avMCFYKDu6BOnY4APHj/YTEFCniZv/hiFI9fs2Zt8eabbSGV3nuQG/lITY2Ft7eQ9w4OHkhNVWHdulnIycnneeri4oPQUHaNN1xclMjJyUBiYgZq1GCfVGRgPPtklJBrBw4wxJ3FF6hTpzV69GjLcyE7m7V5Af8EpCVP1epkJCVdQ1hYJP9UYvfuM9GwoT3P56ioVYiOtmzqwOoBVK3aGqGhH/IcZ/FjfVAqrQRr62rw88vHhQunSuHxrO6sjebNWwpr6wLk5DjyccYSe0KWCVlmfZDygGJAeUAb4rxM62faJII2ifi75y1C3AlxJ8SdEHdC3Esg7oWFhQBkiIpag4SEBOh0hVCrjdDr20Ami4JMJoVO54QBA6YXIe4WvDsvz4QBA5agcWM5cnKicOuWHfbvP4fkZBl8fe+gfftGaNmyE0ebb9ww49tvB8PDQ46PP14Cs9mEqKgjOHp0GxwcbGAymTFixAi4uAhAOEOg9+79GRERqzlIXa9eXUyaNIXD0KdOncO6dbGQSqMe2Zbsq2udOrFfxuUcqL9y5Rri4lYiPl4Gf38TevacCbncEVlZUYiIiEVs7Dm0aNEJvXv34fUoKLDDunWr+de+WDn+7//6oFKlTkhPT8HPP8cgKiqCI+lubo0wfPgI/gxWZpUqAidOxCA93RcJCTKMH/8mGjWqi+RkM2JiziEi4smg9/Mg7hYwOzb2Cm9PuTwIlSqZ8OabnWFl5cgNsy+/nIG0tGQex8mTZ6BOnRr85wMHlmH3bhns7aPQsKEjGjWajipVBOB/+/ZF/GUea4dHIe4MEv/ssyXw85NzsFyjKcDatatx7pyQB23aNELNmp0glQp5sGfPfOTnl79hgFwux5AhM+Hu7oikpENYvfpnsJct7Pns/ha0Xq024euv9yEpKQIMTmd5ZTKZeJn37t2NpKQomExsl00Thg+fCT8/R379+vUrcOLEaX6/Tz6ZggYN6vIYTJ26DLdvx/A2ZznJ/p3lJGtnC1rPyn//vqkMks7qZmUVBDe3OwgNbQGFIgixscmIiPgZUmkCMjIS4e1tg65dv+b9iOGfP/0UgYSEGMTGpvDze/Z8E40bW/Jl9YNrhfpWrBgEicSE2Ng8HD68FCZTCnx8gtCqlQLe3s3g7Gz/EOIehOHDW6BVK6F9d+1ahgMHZLzPuLk5YswYYQMHVp99+xZBq72GWrUa8fZl8UtISMT58/NLIP2sfC4IDnZBcnIQ74P79gn5bNkwgOUBe5YlfqxPN2wYgrZtg+Di4ohbt37A5s3RvB9Z2vLvRFAJXiZ4meBlgpdpzKFNImiTCGEtRX3h5YkBIe6EuBPiToj7CwOVXyaE0oK4Ozo6w2AwQCKRQK2W8JcceXl5jz1mQdwVCnuMHj0eYrE7srJssGPHQiQlJfBrxWIJ5HJ3vPtue1Su3IAf27NnNVJS8vDhh+Ph4GDPjy1bNoXbRAyBDg2dy0F5tToLVatWQ3z8T1i8eBMHn5s0CcHQoSH8mo0bN+Hs2Z/KRapdXLzxySdTkZqax+uzceMW3L+fxFFzhl4zYLtdu27IyZHgxImf8PPPm/DGG+3h4+OOKlUkiI6OQnx8An+uVCqBl5c3JkyYyuMSH2/At99O4Ui6h0dVDB7cvyhWW7fuRnz8aajVArQaGNiY15WVmYHea9YshLX140Hv50HcGaJ9+vQB7Nu3m7cnq6+VVR7Gj58KhcIb2dk2CAtbiBs3ElCjRn0MHjyMn3f1aixWrFjCy+nmJoG1NWsPGf+6JzuWlJSErVu38Do9CnFnMWXx8fNjz5AgMnIVTp8+W5QHMpk7xo8vbnOWB1eulL9hgKXMFSp4c/x70aJVSEqywOTV8NVX0yAWG5CSchuLF8+B0WiNTp268XbNzs7DpUunceDAbmg0EkgkQj5XqdIew4ezPKyGgoJYzJvHXnYZMGbMeCgUjXmezJixBBkZ7MWoBFZWEv7v777bH7VqVS3avIDFw9K+j0JG2VcIQ0On8ftduXL2wScFJbC3d0G3bkGoX78Zj0tiYhbvD+xnS3+rW7cx70/sGHuZvHz5QgCVMHGigKRnZ9/G/PlzUFhozctnY2OAjU0zjBwZBC8vv1KIu1zO8u8D3kdcXQ3YseMMtNpY/ncHBwl6934Tfn6deX87fPgEfv/9BL9fcHB/VKki1HfDht24dYvlsz/kcjv06sVezAmxmjp1E7KzhT5o2TCA5YFlLLG1dUGbNvWhVHbmxxQKCbZsWYY7d27z+hLGTDF4meZLAqQJlSZUmjYRoHmL5q1/at4ixJ0Qd0LcCXF/IvwtEgEMLH6V8cFixD2HI9UMDWd1Zsi2wRAHD4+aHOpmx1g8GMhqOTZp0vcczJbLrTBu3FTk5t7BvXsFWL8+HBrNLY5UC/C3DwYODES1au78GQyJ37fvEgYOrI9mzdohM/Mstm49iLg4J/Tq1R4NGlhxFPz8+Uv4z38Gw9ERGDq0Fzw8gMDAnujevScv36pVH+Hu3dK4eEkw1senCj744H0YDGn8fgwbL25LAdEuCZOzazMzARsbJeztLaj5VYhECgDuYJ8Iatu2NbetSt6vbl1b9OnTjtctK0vK68JgawvUXatWEPr0Gczjd/nyQezYsR35+Qy4Lh/2fB7EPTf3AlauDIdeX1CqvkOHvo8KFarAxsaLl4GVpU6dLujRozVv36ioU4iPj+TIuLU1w+B9uY3Wp09gUd0WL2YwuBZDh5ZF3FmcR4x4Hy4uVZCXZ+aQd2kQneVBe1SrpucbBpw8GYdDh8rfMEClikOXLl34VxzFYi+cPfsj9uz5jsexfv2eCAnpDrNZgz/++AWHDh1HQYEV+vf/BFWqMEg+DgcO7MDx43lgCLwFWPf2VmDw4BGQSKryDQU2bJiCu3ez8eGHM1GhQk2OkM+e/RGMxuxSfZ+1r0Jhy/uHBa1/HE6sVHbA0KGDH6DmxW1uNvtg+PD2qFBByPFff72EY8csMRBy0tubvRCdyfNeaMtVKCz0xWefzeR1T0k5hvXrN8NkYhsfCEi6wXCrKPYsVgLi/kupHK9QQQuRiBkoClhZucPT8w1UquSHqlVZe7B+mYR9+yLg4VEXFSroMXLkVKSn30FiojO2bFkFieQW7O2lGD16HCQSJRISsnn8SvZzYXMAoe8rFFX5J8nYVxhFolvIyFDhyJEkXL5sKrOJwKs8xlLdXu05lNqX2vdVXydSjlOOU47/O34fJMSdEHdC3AlxJ8S9BOJet66Rw+0nT7Jd5wqQkpILheJWEWbt5uaPtLRc9OpVl0PXDO/+5JNoDmb7+xsxalRjaLXtkJychnnztsHD42YpCDs4uC6aNbPm1545o8GZM5nw88vDu+8258d++CETt25p8N57jeHpacTNmzn49ddT6N37M4hEuVi3bjbu3csFw7Zr1OjKyxcWNhsmU2lsuyTSWrFidQwaxF4sqfj9Nm9ex8tYHuLJYG2GUDPEnX0yy9HRDjrd2QeouS8AH/4zg6uNxhyOl7M4eHnloWdPoR6JiRrs25dZCrf38OjIjSx2b43mFNau3VMKCH8ULPs8iDtDw7/5ZhtSUpwgtJuAhrNYMESbYeI7d+5BYmIE3nmnCxo3HgArqwLo9cw5E9qNAfoAg77VHORndcvO9sWCBQwGz8GjEHf2DPZii0HiLA++/XYb1OqbRZA4K0unTo05NM/g+8OHMzmg/zhU1cFBh0GDJsLVle1YmIGvvlrI79eiRVe0atWT7z64ZUsEbt8+DLPZE2PHTuQgOmvzDRu28K+xlgY7dZgwYRVEIiPPnU2bFiIzMwODBn0GD4/KvO7z5i2ESJQBrbYYcR89ujlv55Jo/eNAYG/v4jZPTDyFPXuENvfwEDZN8PIy8hz6/vviTRMs+adWV8bUqULeC225Afb2b+ODD4Qcun//Jr77bgP0es+iTQTYpgQs9jJZN96WDHFXq5lFJWw28M47o6BU5sLG5u4DVN8XIpFQXxYroV/mIDw8B2KxGpUrq9C3bxvY2VWD0eiHsLAI3L37K1q2bImGDetDJFLi0KEfcPVq1EPgvbqo77dv3xHVqzMLTIfs7F8REXEQKSmeD3Ky+LySWD4hy4QsE7JMyPLLjCzTGEZjGI1hNIa9qDGMEHdC3AlxJ8SdEHcHV5RE3BkMvWPHKpw5Y0Gby4KiI0eOhYODEnZ2GZg8WQCp33ijEfr168MB6fj4ROzaxYDw4mt1Old0794Ideo04pj1pUsXsXv3RQ5WDxgQzO938WIYzpyJx8iRgzgwzZDxM2cSMWzYMg5Dnz4dg717N2DOnKmwswvA8eOROHAgrBQW/TAG/uabHTmozRBthqAzDP1hdJPB2gw2Z/Vg5zVo0AVduzYGIEDsKSnJMJkArZZ9Io2B2H4cK2fQOcO8H0bc2dcdGQ5uwe0ZSlu16lsYPXokB7AvXYrhKL3R6FjiuWXj/LyI+8aNi5CZKSDzlrgMGjQSAQFKiMWu2LRpAy+L5RhDw9Vq4MYNFfz8GLTtCmtrBocLGL2Li3BsxYpl/H6PQ9zZ9Xfu2PPd/LTa5KI2Yvnx0UeTIJczmF2J6OiSQPij8Vq2OUCnTq0RENAafn7AggUb+KfEGLpep05N3mYLF26ASBQPnS4AkybN5Bg9w8qXLGFfK7Th8LwA2Ks47t6zZyi8vQM4jr5uXRhSUyNLwf1ffDGL35fFpDTi3oID8CU3LygPHWZtHho6kiPuZ89GIiJiA4+7VOqBfv1C4eRkX2LThIf7WwCGDw/lZbXUQ6Goh5EjP+TIfFpaHFatWgWgePMCAdAfCblcWYS4R0dH8ucHB49ErVqecHDw40g7Q9wZCq/VZsDBAZBKWS4W8H5/+PAq3hcYCs/KX6uWA+8LDIVn8P2gQRM40p+dbc83MkhPL25fS6xSUu6hTp22GD68LX/O1avx2LFjZxkYn7BeYQMMgqspBpQH1BfK28yEcoNyg3Kj/M1+Xrf+QYg7Ie6EuBPiTnBhCcSdQc4Mbd66lf1Seg35+WZYMOaSQPOoURuKEPdp0wZzdL1mzS7o0qUD/4X6/v0IrFq176FrHdGuXQfG2LMZAAAgAElEQVQ0btyFP+OXX67hl18W8Z+HDh0CD49myMpKxO7dX2Ps2CXQaDIxa9ZRAD9g0qQ+sLPrhLt3z+HAgXgMHdofCkUhFi9ejCtXzj0WgW7eXI6+fZeAoebx8QVg6LwF5X4U5Ozl1QVvvdUBVas6ws9PhJMnf+aIOwN/GUjt5VUMhDP0mt2Pod4lEfdr167h4MFFPH6WZ5SE5+PiYrFw4fwnwpnPg7gzHPuLL6J5/ErC2iwWTZvK4eAgwrJlizla37v3EtSuLef1Xb16MX79tXRM2dcQBRTeDGdnEZyc2MsOO3Tq1Bs1ahSj5vHxQr4wxN3XVw5r69JQvCWH2rUbh8aN6/C2P3hwP65c2c/j+zhYu2XLGhgxYgaHwSMjGWp+FjNmrOdlPnXqZw7Fs3v4+oowduwgDqELMZgGQF+qn3t5BaFfvxYcrWeo/s6dy/DbbzGYNGkG6tUToPOZM5chKSmmVBuNGiVsLGAy2SAiYnAJ1PzRCGrJNmdxZvG2t2fQuSPefXc6atQo2d9uQaeT8Z0f9fog+PtH8Re5rB4MqP/88zGoVMmbl5GVLzExBQsWTIOtrZ7nH4slO4+1b82ach6HlSsX48yZc1AqO+HDD/vwWCUmFnBv69w5oW4sN4KCmqFJkyH8Hlev7sf+/ft5n2ZAPYvV6NHD4OdXyGO0c+dOjBgxHWKxC9LTd2L9+hhoNMUQe8lcY3nFci0zU9ggoWRftZxHmDph6k/q+wQME7JMGz2U3SyExk4aO2nsfD03oiDEnRB3QtwJcSfE3VaChxH3HTu2ICWlGDq3QOwWoPnjj+dCJhOw988/n8LBZ4XCGf37j4ZM5oK0NGusXj0HeXm3i/BuNzcXdOkShIoVm3Es+tixE7h69QT/2dPTGb16jQbggri446hZU/ja1qJFEwBYo2XLbujRoz1H4dPT49CkSU+kpeXzr37dvi0A6+WhqgwTZ6g4Q80TEtKxbt2UIpSbAYxyeX20aFEXYnEmMjMNuHXrMjp0GA0vLxc4Odlgw4aFuHSpGHGvV68b+vVrz/Hp27cN/H4sDiUR92vXknDw4BYOp1uQx5o1G+PjjwWUOykpG3PmTOYvVR4HAj8P4s6Q740b5yA52boUrN2v31TUq+eNe/fYS5iFHJT/z3/a4913u/F6xMb+xJFva2s72NvfR3Z2FoB05OU1gEQSC52uGsTiLBgM6ejbdxwCAqrCZJJgx47dSEg4zWF8Fm+G3WdnX0BYWBSH4i05xPKA5Ymzs/MDNHwLfv89ibfh40BMqbQaPv20A2Sy+rhzh+3kF4dGjTpwjH7nzoVF0D6L5/Tpw+DmVp8j7hs37kZy8ulScWZtPmZMBygU1ZCezjYPEMD2//s/Bq5X4zD5woVLcOtWLN+AwNJGX345twgmt2xe8LgyszYPDR3/AHEvhvsdHFzQu3cQ/PyEvnDq1AmcO3eiFOJeoUI1DB8uAPAMqN+yZQ5MJn9Mnz6Nn5ecfBtLl86BtbU1bzcBgPfHhAk9igD98PBViI09i54926N27W4cwT9/fhUOHChG9Vl7sJ0Bq1cXynLmTBKOH9/C+zQD6hkAP3DgAjg5+fKff/zxKAID3+Q+2qpVY3D3bul2K4m4Ozu7ge0CKpFIcft2OjSa7KK+ajnvn0JQ6bmP72+EVBNSTUg1IdU0TtI4+aS1Gc0Vf/9cQYg7Ie6EuBPi/krj7E+LbpZE3BnOvm7dBsTEMDOpGGMuCZ2PGtULYrGAvc+a9T2kUgZDp4EB4TJZFVhbe+HgwR8REyNg23q9EgpFcwwfXoyfb9nyPW7dEvBpV1c9QkPbw8HBB2KxEnl5wO+/f4fDh/fza319K/JdB62t0zn8XVjoA43GAsVf4M8oD5dUqytizJgQyOUCUB8ZmYWoKPZ1s5pwcIhDz55DUKVKDTg4eCE6+kdcv34evXu3h729D0wmZ6xfvwopKcIzFIqa6NVrJti7F6PxAvLydFi2bBcHsZ2dtRg0qBd/xvXrWTh06BL/WaMRUG6lMqgI9FapDmLLlu2wsmK4/eMQd3c0bRoIGxsfHD78My5fVkGjeXx9e/T4BHXqMHz9AtatC4fR+HjE/cSJgwgMZIh7Y7i61uQw/ooVHyEzUww7OztkZ/ugbl0punZ9E/fu6XD0aCzi43OfCnFnkPilSz9ixw4hD1gbFRY2x7hxrTluz+Kza9clXLhQPuJeEklnn45q1WoIbG3j+LWFhQoUFBRgy5ZwpKcLaLhe78WR+g8/fB+FhWlITdVi9+6DSE524rlWWJiOevVC8PbbFSGReOHKFRW2bWMIOfDee4NRt24QR+FjYn7BkSMCtG803kFQUAjatKlVtHnB4sXfP2jfuHLzT0Dc+/H75ecXYO3apWCf2hOLVQgKGob27eXQaHT8K7zLl++CTsd+vgVPTynatmVAfhBH5v/44yD27fuRI/bDh38CiYTlTBw2boxCUlIG0tKucXS9ShVHdOwYyHPXgrhHRR3EBx90QaNGrWEwWOHKld+LEHxHx5qoXr1u0aYELKbnz2chPJxt0lDc95s0CcLbb7NdChmEf4H3wbQ0J+zcadmooGwM8vPjIJczSL8iHB29cPcuM7Yen7tPO17ReYQJEyb878CEH7eJBbURtdHrsAkSzUc0H/3dYx0h7oS4E+JOiDsh7o9A3NesyeQQeVrao5HlL79sDSsrAXFniPmdOwLY2bVrO/5pqdxcAQM/cSIK9+5FQixui06dusHWVoC1Gaa+b5+An7NnVKqkQr9+beDgUI1j0wzWPnbsFH7/fQ9HtBn83b17YyiVAvzNYPGjR2MQHZ0BR8diIPxRYCK7NjCwMZo2NXJsPjHRF3FxDjh3bhdq1GCovBVcXd9BZmYBtm37AUbjCXz22TwYjQ7IzWXuVgRu3vwV/4+9OwGP6fweOP5NJvtkSCKLIIk1lpQSWxW1t7ZWtbTq97NV0eJnrVL7rlp71VItpa2q0o3aNap2al8qYksEkci+T2by/793hKgtNAg5eR7Pw5iZe+fcc973nZt7P8fOTqHhffHxqaqdsChQwMTFi7+zdu0f/Pmnn/beffrU1yDskJBEDSfPgtMVkm1r24z//c8CcJvNRj79dCjR0TeA8Nsj7tZaBzcVp8OHC7Bs2dJ7ft6OHd/XgPQsxD05uQDh4RZM83aI+6VL2zXw/Pnnm1GrVutrJ2OC+O67HwkOLkj58mUJCKhLlSo+2Nn9zi+/JLJjh+Wz3Q1xNxjKXTuWkZw9G8Thw5s0wPzNN9/HwSFNs6hCQ2NZvHgRCQkN7oq4K7Bd5YGPTzneeKOJlmsqzll5sHVrJO7uNxoGZGSUY+jQJjg6Wp536ZIbK1fu13KnatU0atSoho2Nwul9mTt3NOnpSdpxqV27NTVrKnA8DqMxhA0bFnPliic1avTG39+MThd+vXnBtGl/aEi/imnW/v0z/xwdS/K//w3R3i8j4yybN1tQ/fh4P2xsknnttZoUKpSATudHXJwdK1b8SErKWZ5/vi6tW7/GhQsWZH7z5iAOHlyjndytUqWyhqgXLuxFePhG1q5VzQISKVYsgaZNq1GyZJrWpEDVYBbiXrZsGu3bf050dCwmU8L1uixbthkBARZgXTUlULGKiirKN99sJywsAV9fS0yTkkoydGi/a887q8Vx375Efvgh6npeqedlh9i9vFRN18VgeFnLry+/VCe7dt0xVtmxfAGQBUAWAFkA5IcFIMv4IuOLjC8yvjzJ44sg7oK4C+IuiLsg7v9A3BXk/NNPmzhy5M6Ie7t2fShf3lcD2xVmrUBoUMi3BduuUaO+hpUrfFq9H2Tg4uKv4dPHjx/XgPP4+IvXY282W7DoatWqcukSGsA9efJoLl0KxtHRVQO4W7YcTGCggr/V+7myZMlarl49fE8AOS3NAx8fX8qWLUuNGh7o9a4aKq3wblvbGA1aV//etCmUrVtXYWcXRvPmPQkM9NUAb/Vz/nyohparz3HiRAoFChgoWjRD+7+UFPU5U9i16xDt2jXWxpRDh7YQFHQr4p4FcP/993ENcbe1vQFw3w6hfDDEvZmG0KtbLWfNmorZfG/E3YLM+9O8+Rv4+Phci2mqFvukJFccHVM0+PvcucOsXr2P6OiMbIi7B2az5Xio/1cx7dNnBnp9KgaDq3arp4tLjIaCq+NoOR5w/Phuli7dRGzsjTy4F8R55YoH/frVoWhRf1SzgUuXIlmw4Eb+ZUHYahs1avhqiHhWnqrHdLpQ7bbxrBzavt1yzI1GC0Lu5ubPf//7BuXL+2iAuTqWqlGByo+wsBROnVqNOiYqLtnz/k4Ad9b7ZY+pQs43bVpLSMhhPDy8efPNxtjaFsHFxZKTKgYq19Q2FPi+c+cmVq5cqOWam5uHdjVep05dcHRU+Wd5XlY+G40xJCSkUrSo5bFvvlnI/v27tbp8/fX6FC1aR2tKYImzyu/j2NiU4PvvV1O3bs3rOW42l+CXX+Zw5MhxLS6q3lq1akaDBpZmCKpmvvlmKSEhx681PrgV4M4C5VXtqfzI2hfBygUrv1ed/7PJhmUOEMBXYiB5ILWQcm1NKOOBjAf5dzwQxF0Qd0HcBXEXxF2vw8PDmaZNh+DhUYgLFzLZs2cGMTFn7oi4d+78GS4umURGnmbv3pkaZp2FvSscvFq1dtSs2QgvL2utxgyGDOzsdPz55262bj1AWNjNOLZ6bZUqDXnppUB8fBSsncmiRe9owLaC0x0dnSlXriH16jXDZMokPv40K1eq7n+W7eYUeFUgddeugfj5lSctLZOICGvOnUsjJESdUFDdCVWnGx1paQ159VVnWrXSExHRDDu7DIKD07hyZS27dq3FxaUiDRoUoUiRRhQsqHyftWzaZKZdu2ba+/7111r27VPvdwMZVWB469aBQCOOHdvPzz/P1kBv5WDdCeKsX78ZFSs2wmzWs3btMs6c+eOu0LmKfZs27fDxqcuFC5F8//0EzTJSYLYCuhXK/dprk/DyuorBEM5vv/3N8eMHNBRcQclubs4EBKjbxZqRmWlHRoYt6elrSE5uRFDQfK5cMRAdHXQdhVf75+LSiKJFw/n885ka/K0g8RuIezqff/4rxYqZqFy5EYUKFcTJKZNz59TxnX9LHtwNpVV54OLiTPXqTWnU6DWMxlT++GMV27ffGYDPzHSnefMh+PsXxM8vUzs28fHqWGZy8qTlmGfh5+oYeHvrNLy/YcMhODkV0mLg4JChHd9vv91NiRKBNG6sjkc4a9cq5N0S07vln6qtFi2G4OdXCKMxU8Pzv//+J4KDV5OYCIULN9HyokqVClqny/h4dVI0jYgI5b2d1jpvKow+6xipfHF3r0rZsu4UKtSCypXt0estMf399/n4+LxG6dJXtTpatGg2+/ZZjm/RouVp1CgQb29LXVpuXTzNb7/N1GB3X99WtGjRiNRUPba2a1m5cjehoTe2W7euu4b9q+N7/LiZJUs6otc73JK7WTh7ZqaJ5s0nUa1aIZycdMyZM5sTJw5cj5Ug7nevfQGaBWgWoDl/As1S+1L7UvtS+3f7biCIuyDugrgL4i6Iu53TdeQ7O9iZHWP+J+KuMGmj0QJc//N5CorW6520EydWVuoLrrKjXIiPv6qh5gr5znq/LBxbPRYfb6RQIadsILXleQqotrJyuo58q/dQ2yxQwEl7jXrt/WCzrq6WfVbvnZDgQEJChLYNZ2cnkpMjiIlR+2zZhtqfUqUMHD6cfP156vMpwByqYGt7WMsfnc6yL3Bjn9V7ZkfcVUyysG2FY+dkn2+OVQImk9tdoXMVJ8s21P5ZPkfWMbJ8Xj/c3e1JTDx2S5yzH0srq2RKlXLDaFRXiKlbw26A3jEx2Y/5jTxQcVDHXOH2WYi7OkG4ePEEIiMvYGtrxNVVGUom7f3U8/6ZB3dH3J1wcXHh7bd74+lZApMpgkWLvuH06TsD8Fnxc3FRRpk60WSJQULC4WvH3AWzWTlfF7TjoeJnNqsYqr8n4+ysYqBu8bv5+GbB7lnQ+d2OZVaumc2WY67yx5IbEdrJXXXSSq834OlpwMtLncBSJ1e3cPnyrbWQfbsqfra2btrVbEajidRUI5GRyRr6npDgpDVTUJ0i1WfLngc6naUuIyIirt2ye1WLZXq6g4a0Fy5closXb63VXr3GUaiQm5bj33+/g5Mnl2Bn53ULvv/P8UB91n/WgsoVQdxvNAcQKFmgZIGSb8zxOZkbpWakZqRmpGbu1gTpaR4jBHEXxF0Qd0HcBXG3vxfAaEHIsyPuWTD5vR+7M3CdhR7qdEkayn0r9nm77d77/Tw8FJz+uJ6X2/v8b94vp6+9+Xl3Ph45i6nReJn33nsTF5dSZGQUZMGCOdeBdUu+WOD+xEQLun5zDt28jez7kplZgerVb4DjkZFnWLx4S7b3exRAeE5jmrNY5TxP/812H+S1RTS3Sh0jX189ZcqU5Y03ums1eujQb6xc+Z3WqEHw2nuNnbmdB/J+Oa8ZiZXE6nGuBST/JP8k/x7vevzprUFB3AVxF8RdEHdB3JPuDokLeCrg6f2Apwo1f+edJijEPTnZky++WKiB8lnIt0L179Qc4Ha5Vr58Gs8844+7eymKFi11HRxfsuQbYmIM1xsB3Avzf5LBzsdRg1WrJlCvXgCOjmk4OZVGr6+ArS18/vmPXLpkaa4gMZUYSB5YGkxILUgMJA+kFu7U0EVyQ3IjN3NDEHdB3AVxF8RdcFgBcgUFJfdg1Cy8293dl+hoB5YsmUpEhAVJfxCA1tvbn6ZN38bbO+Y6qr9hw0I2bFDdLfMv4vmwIGwFtqs/9epVpXHjqtebHCjM/8QJBcr/cB12V89T4PzD2pcHyRfZFzkekpNSlwJcy9wo88eDrblkDs37c6gg7oK4C+IuiLsg7nrBhBVgfjcwUVDVnKOqCtVv3doCxdvZneb773dz+fLFB8a7HR3dadx4CC4uQRgMevbsMbBly+cP/H5yLO99LBWwbjBURSH96ekF0OuD2LvXSEjIhnui9VJHMpbIeGppiiG1IDGQPJBayGmTIXlezhsy5fdYCeIuiLsg7oK4C+JuJ5iwgiDzKwaZ29BlFpyehXdb4PQbaP394t3/fL/sML5g4EYtb3M7d+/UwOGfxzK3tyvvl/vHUmIqMX0YY4TkleSV5NXDmX+ltqS27lVbgrgL4i6IuyDuAhHfE3F/eiFEQUYfBjKaHQ2/Hdiec8T9zgDog8DkXggomvsx+Lfov9Tgw6hBGbMlrySvZLzP/fFeYioxleYtj795iyDugrgL4i6Iu+CrAtAKwmube8CmQtzvBrbfL+Ke/f2yoOTbPfY4oPP7we1l/6QZguSLHxIDiYGA9wLeC2qee2suWVvkv7WFIO6CuAviLoi7IO6CuD8QLi7QZd6HLuUYyTES0FtAbwG9BfQW0FtA7wdtJCPrCFlH5LV1hCDugrgL4i6Iu0Crgs0KuGt8ONCqwsBTUswo2D093bKNrMceBFO/3Wv/zfsJsizIsiDLD6f2pbaktqS2pLbyO7b9IOscGTtl7LzX2CmIuyDugrgL4p7rALIAjAIw3gtgzG04Pa++350w8H9C7DmtmdsB8PeLwufVWOU0BvI8GV9kfBE82WSSGEgMbjRHkXlB5gWZF/LPmCiIuyDugrgL4i6IuyDu2EsMHnIMBF0XVFpQaQGQBUAWAPnxA8gyFstYLGOxjMVP8lgsiLsg7oK4C+IuiLsg7oK45yLiLqBo/gNF5ZjLMRecXXB2wdkFZxecXXB2W1lP8rBjIIi7IO6CuAviLoi7IO6CuCPAqwCvMUgMJAYCFgtYnNfAYslJyUnJSWnGIc04bjTjEMRdEHdB3AVxF8RdEHdB3B8S4i4YqWCk98JIBbk1IzGQGCjsWvJAYiB5YIPEQGIga8e7rx0FcRfEXRB3QdwFcbcT/FLwy/yDXwribkRiIDFQALbkgcRA8sAJiYHEQBB8+R7wJH0PEMRdEHdB3AVxF8RdAPOHDJgfR6dDtiExkDxIlFoQQFoAaQGkBZB+kgFpGcNkDJMx7PGOYYK4C+IuiLsg7oK4C+IuiLugmw8d3RToXKBzgc4FOhfoXKBzgc4FOn/YyLesN57u9YYg7oK4C+IuiLsg7oK4C+IuiLsA5gkCmAsWLVi0YNGCRQsWfQOLljFRxkQZE/PemCiIuyDugrgL4i6IuyDugrgL4q7BsQKOSwwkD0xSC4kSAwHlBZQXTF0wdcHU82YjHkHcBXEXxF0Qd0HcBXHXckAQT4mB5IFg/gp0ljyQGEgeJGu4udSCxEDyQGpBGn7krYYfgrgL4i6IuyDugrjfEXEPRaergJ3d0w8vOztXID6+AHp9GomJBwTbFmwbgWoFqhWo9vFCtVKDUoNSg1KDAt77yvcUaTZ1UyMoQdwFcRfEXRB3QdzvgLi7uflx+fLtIUQPj1AgDldXX9zc/MnMhKSkvURExGFl5Ut4+OPFerP2L6f7Ym/fjFKlanHgwI9YW58V0Ns5VGIgMUAg2KcbgpXjK8dXGgs83rWK1KDUoNSg1OD9NvcQxF0Qd0HcBXEXxP02iHuNGq25ciWFq1cPczvEMzU1hooVG+PpaUNUVAYmUwouLjE4OvqyZs0WwIIequep/7O3d9X+xMamAhYsWj0n63k3byMSg8H3ptf+E1W93WuzP1a5cgV27txERkb2baiTbuDo6KEdc0jF1tayf97edXj+eVe2bj1JRESYgN4Cet827wW0FdBWQNu8B9pKXUpdSl1KXQq+L/i+Yz5pSiWIuyDugrgL4i6IezbEPTnZRM2aDbGycubUqbWkpJhJSjKRnn4z7pyZaaJateZcvXqaiIgzpKWZycgw4erakKtXg6hWzRkrqyZs2/aj9tpGjdqQkrKKkyfNlClTDBeXahiNmZjNG68/z2RqTv36zhQtmsFff+3F27s6W7asRq83UqOGM+7uTUhMhDNnIDT0J1xdnalSpQlmM5plFxV1Rtuf559vQXx8OikpsHPnT3h7O1O9+o3XXrjwk3bM3dyqUqJEEe156gqyokXt+f33P4iIuCiIsSDGCGIsiLEgxoIYC2KcNxFjGZ9lfJbxWcbn/Do+C+IuiLsg7oK4C96dDTAPCKjCqVM7KFq0HpGRB0hMNGIyJWM0GrG1vYF8m0x+1Knji719GpmZTkREGDl8+AIm02H0eicCA5tiba1OIK3SXlu//mukpKQQHx9D6dIlCQ/fTlKSB88844vJBJs3b6dx49rExBgIC/udMmWqa6/fvHk1JUuWoEqVAPbuPa6dcPb3r8DZs8dITU2mWrXqnDwZjU53An//ppw6tY6iRWtrdX3+/F6io51o0CCA4ODj2rbr1KnO/v2niItL4NlnKxMfn8zBgyeoXt0Hb+9ANmzYSEyM+hwCt0oMBG4VuDVvwa1yPOR4qHFZ8kBiIHngpK3TpBYkBvkxDwRxF8RdEHdB3PM9jpie7ovRWITnntMTFXWe+Pg0ihSxIjOzOLa2XiQlHeDCBWUiFdZipdMlXYfdn3mmNoUK6XBza6Ch11FRezl+3Ez16jXJyIDt2zej0yXSsGErIiLSMZsT8fZ24o8/1mNjU5hnnqmJszMcPLid556rzYkTxzh+XE+lSnaUKlWErVv3Ur58Oezt7bl0KREbm8uUKlWByEjYty+Ctm0bcOrUCqKikrh61YmYmAK89FJ17O3PadsoV64hZcrU4fjxIEJDL1O2bAUKFYINGyyv3b79W65cCSUgoCGlS9uzfXsoERGCuAueLHiy4MmCJwueLHiyveDJN+HJMjfK3Chzo8yNj3tuFMRdEHdB3AVxF8Q9SXlTftSrl0ZGxlkggcxMT8LCyuLn58DRo7vQ6SJJyoa9ZyHpcXG+WvxKlUrDzS2UihWrs3v3IXx8ntU6+R04sFXD3mvVepkrV1IxGuMoXNidPXvWoF5bq9azODrC339vp1at2hw6dIxDh4ri65tM48ZVCApaQfHitdDpGgArsLIKJSMjlthYP6KiPPHxScPBIZRixdQVWyXZvHk/RYumXd9GmTLNKFmyAWFhKzCbQ8nMjMXa2o9t23zp0KEuBw9+ysWLkWQ976eflmJlJYi7wLICywosK7Ds/cKyMm7IuCHjhowbMm5Y1sVSCxKDh5UHgrgL4i6IuyDugrjfhB6GUrx4SwyGRJKSFLp+kujoW1FznS4Gf//GhIdvIzzcgoc6OmYQGFibI0eO4eMTgIuLL+vWfa6B6E2btiYiIgUrqxhcXdWVVauxsXGmdev6JCTA779bTmBFRERy5MgW6tV7S3u/oKDVPPtsTXx8nAkKsoDyFSv6cO4cuLlpJjvnz4dhMPhQo0bA9W3o9UXYuXM1xYur2w9bs3XrJkJCjuPj44O1dSQ2Nh7UqlWHPXu2celSMBUr1qFcOUHcBUEVBDW/IKgCfwv8LfC3wN8y58mcJ3NeChKDJysGgrgL4i6IuyDugrjrdRQsaKOB7QpGrV27ufbvvXstiPvtsFQFu1er1hBvbxcKFnQgLS2VuDhISkplz561PPusM76+DYmKstMMLTc3dQtgJjExZvz8TICddoLK1dVGOwn1zTc/Xn8/vT5T225amh3r1yfj6RnCCy8EcOWKHQ4OCmdP5cSJ0/j5XdS2cfWqHWDGycnI5ctrcXKqqp3QUnj8sWM/8sILrbVtxMejvTYi4jSxsRepWLEhNjZ2nD5tply5TPR6QdzzK4gpILCAwAICCwgs45+A7fpsTW1kXpB5QeYFmRfy4rwgiLsg7oK4C+IuiLudEwULOmlguwIxX3jhJQ4e/B0bmxuP/RP0zoLdixb1ws3NC4jg8mWIjIzQsHd7eycKFDBiNtciIWEDLi4eWFubiIkx4ulZBWfn01y6dJUKFZpSuDD8+GOIdpLLxSWU1FQTtrZGypdvwcaNP2JtbY3BYKBAAVftCqyEhAjS08tib39V24aVVUENik9Pj5/o6jMAACAASURBVNP2Wf3d2bkgbm5GTp+Oo2BBA2XKqH0rT2joFjIzy2IwXAWM2NjUwmg8hK2tmQIF3AkNvUBKiuDdAqMKjJofYVTJe8l7yXvBse3sJAYSgxtNi2RekHkhr80LgrgL4i6IuyDu+R5xfzCk9bKGs9vbW2D3nKGWoXh4VKBOnQANe09N9aJQIV9CQ6O5ePEA9erVx8ZGR0hIOv7+vkRHn2Pv3vXX8ficbSOn+yLPy/lxk1hJrASzfrBx8rhmAcprJQaSB1ILAsALAC/rWFlP5sZ6UhB3QdwFcRfEXbDFbDj7w0R43dz8uHw5Fh+fSIoVi8XWtgnnz6eSnh6p4fF2dmm4uzfBxUXd5hdHQsJZ7f+yoHgBMQXEfFgg5sPMe9lnAW2zN8CQXBPoXOYymctkXpB5QeaFuJuaQ8ncmPO5URB3QdwFcRfEXRD3mxD3GA1dz23QEVxRf7Kjubd77HbbtTwvEoPBV7uFUO3f7R7L7X2W98v9PJCYSkwfxvgieSV5JXn1cOZuqS2pLaktqS1pepK3mp4I4i6IuyDugrgL4i5oKQK3miUGRomBAmulFiQGkgcmJAYSA0HcBXEXxF0Qd0HcnUw4PQCYrUBiJ3mtxCAP5YGNjVGDzwV5lBhIHkgt/BP4F/BUwNO8Bp5KTkpOSk4KTC5rVlmzyppV1qxPw5pVEHdB3AVxF8T9PhBywQdzAx8UyFQgU4FMZSyRsURgfMHtBbcX3F5we1kTyppQ1oT3tyYUxF0Qd0HcBXEXxP0RIe6ClgpaKmipoKW2thIDiUEoEgOJgaDNOUebJVYSK2n+IM0fsr5HCeIuiLsg7oK4C+L+CBB3gWAFghUIViBYgWDzFgQrx0OOR/bGKjJPyzwt87TM0zIv5P15QRB3QdwFcRfEXRD3JwBxL1jQhpSUm0HR2z2WF7FFgWAFghUIViBYGZt0Mtc+AXOt5KnkqTTykEYe0sQibzexsCpXrkrmqVOHBQjPQ0C4oPUO5PUYCOKezNOAAD5JsHHBgk4kJt4MEd/uMUFaBWkVpFWQVhmfZY56kuY3mbdk3pJ5S+Ytmbdk3srpvCWIuyDugrgL4i6Iu/39YMJF0OnSsLM7j06nx9nZCigCpAHnAT0gj0kM8m4epKaex9ZWj9lsxdWrRfDwSCMx8QCPFhOWOpJx48keJ1UdZWTosbd/nHXkhU6XhJ3dZZyd9eh0T3ZMZQ7Nf+uIvDIfqXnQaLTMjVJHeXf98m/GiLg4tW5PxN6+sHzvua/vPfcHrD+KpgSCuAviLoi7IO6CuN8H4u7m5kdmZgJm81ntpJVO5wn4AQmA5TGQxyQGeT8PzGZPrK2z53MccXGPBtqXOpIx4mkYI0ymNKysHm0deXiEApZatdRRLGZzqPaLlachpjKH5s91xKOej26towSsrPJn7PPLuGEyqeP76NY50rjp4a0nBXEXxF0Qd0HcBXG/I+IeicHgS3bQUSGvoIBDZwyGYMAf9WMwQII6h8WNx9S/1GPZnyePaeGSuOS5GIRhMqVgb+9KSsqteZ+S4sqDY8d3riNwvqlmpI6kPiwReHLGiJQUfxwdM67NCzEPsY7+WYNqu09WrLLmyyfp+Mo+P7w1Tfbx/s519G/mnju/NjU1q1az1+/N6zrJ06drfImODkOQ/qcD6RfEXRB3QdwFcRdY9g6wrELS09LMJCSYSE9viI9PEJYv3AbgItAQkMckBk9PHsTGBmEw3Now4N/AxlJHMkbkpzEiLKwhBsPDrSMvr6dnzMlPuSFrhpyvmx52HTk5mWQNl8/WsZcvX0Rw9ryNs+e06ZMg7kZITs77aHheR83z2/4J4p4/oEGFpKvcdnBQtwgeJiGhLAbDVcB47bZBexIS4uUxicFTkwcQj8l09ZaGAf8GWZY6kjEiv42TD6OO3NyctLknOtoPNzd71DZA5iOZk5/u8cXJKXfno5vr6DBQ9hoBoWpK/XLSHoMhnoQEqa2nrbYiI/PHd5d/s157Ul4riLsg7oK4C+IumOEdMUMLcK3TCc7+b+BMee2TCfNakOp/D57a2kqTAwHb8y8uHhf37xskODv7SrMQaY6SrxvESB09meuIvLT+E8Q9iUcBrD+KbQjiLoi7IO6CuAving1xz4I9rax8rwPXAnsKUJ9fkX6T6d+Bp7a2ljrKr/ETkFpQ5NyAg+3t1QksqSOJQf5t/vBv6ihrXafTSR3lF7D9dk2V/k0OOTuHYmsbR9J9NH0SxF0Qd+ztPbB/AGzbZEJeKzEgt/NAwZPgATwcXDI7Gv7v8GTZvwePnwC5gtc+PLz2ScBhLXxrsNbk4UFhdzc3S5ODJ+HzSsOFJwdOf5LGJpX7sbHB1xok5HxOVs1CbG1jMBhSrjcLkTqSsSS/jqcPWkeq+YgC26WOpKFQFuKuvrvJ9ze1rsv5fPTgTXwezjYEcRfEXRB3QdwFcc+GuCclCdguQL0g/dkbFTwI7K7qSKDpnIPFgjs//bGSOhJ4Xur839e5qiNHRxsN484J+GwymRGwXdY0ak0jiHvOaiantfU4nyeIuyDuGCUG9x0DQdyfXgjRZLIAufkNHZbPK8dc4bW3y4MHAamljqTRgzS7uBWBvl+QumBBddugjE0SA8kDy+2jllqwsrqKyWQkPf3ea1G1Xrc04snC2RWJcANsl7VP/hlfBHHPWc3ktLYe5/MEcRfEXRB3QdwFcdcQdwHbBZrOv9D0vaDVzMwimM1pJCbeC6SWOpI6kjriDuD4jTo6j053twYJUkdSR1JH964jmY/uNXdLHd2oo9xoBKA8wqtXvfDweHpA9EeBruf2NgRxF8RdEHdB3AVxv4YyFiuWgIDtArYLOH57LDozM4GkpLN3hUzd3PxQz5M6kjqSOrp9HV2+nICHh8Lt79wgQeoo/2Llt8On5bFbx1NVR87OMh9JbuR8rk1MvHu+CLr+8ND13EbwrQICKmSeOGHBJQVJFyhesPycof+CuMcAKTg6PtkIYHYsPy3NFR+fVC5edMZgyN94t2DWgllnx6JTUlRDgwwUKh0dfefaVyiqm5vCUVNJSJA6kjqSOroVXb93Hal5Vf2ROhKwPb+C7fceO3NaR6rZkoxDEgNLJQnirtZmT8f3N0HcBXEXxF0Qd0Hc9Trc3JzJDldDECCPSQwkD7LXwr0QVKkjyRcZO++NlWevo4IFbUhJuRnXlTqSOpI6ur860utvht19fHSyhpN1LPezfvlnDumzNXjKScOAx4ma57f9E8RdAPP7BsyNRqPW0cPJiXz7WkHc7w1nPk7cLyew5z/3z83NCUGHb0WHDQZ5TGIQT1YM7o6glsXNTYBcyZcb+ZIdXpa43L6OChZ0IjExO66r6kjGXckXqaN7Aet3m4/0+rLX5y0Zh6SpiFrfC+IuiLvA3w8Af5vNYGPji6289omPgYeHutXwcUJ+hfHwSCS3Ubz8/H62tkWANATElBhIHty5FlJTz5ORcXt82tnZFwFjBV6+E7wsuZEzTFjqSI/kkMQA7h2DuLjbNUO4rDVIcHYuLPPRHZpJ5NexWBD3pweeF8RdEHdB3AVxF8Q9yReF5go6LDGw/KY25yhofgRUTabb49MpKb64uEj8JIcE4Ia7x+BumLD65ZjkkOTQvXIoP849ll8u3cgNk+nWZggeHqFagwSdTupIcujmfBHEPZbcxtQf1/sJ4m7yJTU1FJMpZ3i3PE9ipfJFEPenAwHMjhk6Ogr2KWCsf1YIuDcim3+BYZPJ0vglJcUVgyE7Cqqw9/wbF2n+gDTASMhZDLIw4ds3QpE6AhmLJQb3bqZzN5TbzU1ySHLo5hwSxF0Qd4G/HwD+TkszYzBkaic/0gWPf6JjYDKZeZy4n7OzDenpN6Ovgg/qHhijL1pUh7W1gO0CtgscnBM4OCzs9uOf1NG90WG4CMjz8nsMMjMvcuGCpY7+ibgLPi31kd/rI6fj5J2bijTEx0fm85zM5/kp1+7VhEa+Rz3496hH/Z1YEHdB3PMtxP5vMHpB3J82xP3hoLlubkaio9UtVfZAPPBgMK/BEE9CwoO99l4IquCmgpveb/OCiIjD2No6YWfnxM3NEB5OHd1p/1RtubnZk9dz/N/Ufl7/bLJ/D5Z/kZF+mEyHtRr6J+Iu+PSDxTQ/zGWWtcD9Ncp4UsbJBxlL7oZyFy5c9oHXXA+yL09u/h0mISE3wfvbv9+D5G5ux1QQd0HcBXEXiP2Jh9j/DaoviPtxdLrHDdl74eGROyBhbqO5er0BT88yXLkSSlLSeSwYqYHChcthMOg5deq3a4/dHnx2di5Fr15vEhT0G3v3HiQzM2/C0Pb26RiNSeh0ThiNBe4Lwdfr3Xnvvcps3HiOQ4fC7uu1Au0/Xmg/OTkRW9vCXL16cw3mdh0pyFmvr4K9fSJOTtYazGtlVZiEBDNXryrn5DwGQyKNG7+HnV0gv/yyhNTUA3etrceB1xoMBvz8KtOixYusXDme06fTsLGxwmi0YPne3um0b9+OP/44zL59UguP4xg9ajRc5WlGxu3n0IdTR0UoWFCv1ZHZnEhamp7oaD2JiaHodFlzVN6cZ/LreO/jU4Tmzf/H5s3rCQm5+5rhbjWjjq/ZrCc93QqDoRTt27/JqVM7OXTod1JSboxDT2Kcb49y5y7ibm8fQcGCPri4FMHGpjBq/oNzgFr/FCElxUh8fAwZGSdumXs6dmyFt3cSY8f+Ro8eI7C1TWPBggF5bo4qWrQsLVt2JTz8AKtXf/Gv989otEI1RvL19aFRowDM5iQWL/7+vlF91TTGwUGvvZd6z3/bYEcQ99z5zvR4m5hZ1p2CuAviLoi7IO75HnHPbXy6ceMeNGjQgxkz+hMZuevapFuE3r2H4OdXl0GDnrv22O2h2oIFKzNmzGQ2bBjImjW/34SW5iW41dn5Mr17D2X58rWcOaMWdTnHz0uWtOKjj/qzcOEPrFsXe1+vzUsxyI/7cifEPbfxaRcXT2rXHkbdujXw979CZmYcsbGqk28Bhg3rT1jYLtS+jBu3hAsXYvnii4XkzeNRhGefrU6XLq/w9dff8tdfv2Nt7YnZbAHva9bMZMCAoSxevIc1a/ZILeSDRgrJyWfR6eJISvK9Zf7N/TqqQ7t2r1CypD1FihQnIiIOs7kICQn7mT37N6Kjs+YogdMfN3rduHE5bQzbtGkbNWo0oUOHtixYsJ3Dh5fddc1wN/S/XLlk2rcfwPDhEzEYyjFixFC2b5/Bzz+vw9b2xjiUN8fO+2+GkNuIu6dnmrZ2q1ixLBcu+KHTxeLlpfD4BM6c8ePw4T/45pvlZGaG3HKMpk6drNX5gAFDmDlzDPb2NenevfoDH8uHdYx69pxDxYrNiIr6nREjev7r/TObPYmKKsu0aY2oXLkKe/euYOrU9ffdnEIh/XXr1sXbuywzZuzBxyfna8zbxUoQd0HcMQl+LjGwj8y3MRDE/elC3HMb+2zatDVduw5mxIgh/P23Mm8sP+PGjad0aUdathyoWXhubmBr60jhws9y6JD6EmEBJwsWNDBmzEyWL1/I0aPbMBgCCA8/hre3L+rqrnPnVpORUeIWcNzNrQ5ubh5cuhSKra0vnp7BBAcbsba2pXx5fy5dSiA2dhNm8w3c1MUlAH//YI4cMXLpEvj4wMWLt0LEXl4B+PgEExvrSkjIFW3/vb2bMGRIbTZtimTdus8wGHy115pModjbg15vi4uLPwcOHNNwZ0dHf3x8ArSr90ymDIYMeYtVq47z558/3fQ8FQN3d1t0OgdCQhIEhs4hDP2o4PmHjbifP6/yMJgGDbrTpUt9TpwIZdu245hMKXh7u9KgQX2tw9SIEVOJjQ0mIMCfhIQU0tJiuHTJAKirsyw/gYG+nDoFOt0mYmP9sbW15YUX/NmzJ+H6Y+p5Kp+1O3OAokU9SUm5ov1d5b36vKqObGxsqVXLnxMnErhyZRNpaf7o9ZaacXIK0PJU1VFKSvb3s9S0m5u6RSOF6OhQbTuq9t3dLbWQkhLDiBFvs3p1ML/8slx7LC0NatSA2NgAQkKOafuiXqfiYm1dh9KlPbR/nzhxDBcXVZf+WFur//fFycmg7cuePer2WEH182IMoqPVXqkx8eE3Q2jffjht27ZkzZrVHD+uGvGkEBBQllatXmXPnmDGjx9N8eJgNHoSHm7Je5VbFStCfLwn0dGWx9TY7e19I8fVY2qe8fEJJS3NE29vD61W1Zhdvrzl+QkJGZw7d/J6Uww1BxgMthQv7q89L2s+UrWlHlP5XLq0pe727Tum1YJef2OOSknJAFJJS3PG21vVUQBRUceIjbXs8z8bKaj6VM8LD1efJ0CbG8PCLIXu5uaJi4srsbEpuLkZiI1dTVRUCa3OK1b05/z5m+dLNUZERUGtWmBjU589e7Zo40ZqqmUMUDHQ6z1ISbFsw8UF/P3V1SeqTkO5fNkyl6kYGI2WbaifsLDVhIWVoHhxW/r1G4XRGMM332wiKuoSpUvX5tKlTdprfXzKamOc+n8VK7UNtS01Vqg/ah9U3FRehYS4asfN39+XypWr0rJlVT755DuOHQumfPnGREcf02KhfrI+b3R0AmFhm7C397/2fr6oPFVjp49Pa21ODwuzHN/scVYxuN2a4VHMR3drhpBb6zq15ipfXq29PLSrsF55pTGnTx9j//5NWv2eO3eJy5dPotZSaq4IC7uxlho+fCqOjikMHjycyZNHa/NWx45va/FLSbE0a1DxU/PH1aurKVCgJiVLWuooKSlBq0sbG09tzaV+oqMTKV5cNZKqr9Vb9uOR9X5Z9WvJtTr4+XlTqJAjW7bsQqdT84cl77LmPLWNfv1Gk5SUwooVqzl69JiWS2fOWEZO9TyzOYC0NMu6s3RpSx2p4/vii76cOBHJsWNXtHy3/FjmvKJFDQwePJMzZzaxevVfhISc1NaiNWpY8issLJioKMsclZVDaszx9AzgypVjXL2qaiuMPn164uNTlVmzJhAb66DV5YM2TBHEXRD3JxrgFkxdh8Tg38VAEHcTRuPjhexzE1vMbXy6aVN3OnZsR//+E0lIsCItzcDVq0F89dWPeHs3p0uXOoAHPXrUpHbtMtotUXp9bVasGM+mTQsxmTyYN28u8+b9iYODH2+9VYyEBGcKFLAnOfkiZ8/a8NVX47lyRd36ob6wW2Do5s3d6dr1LQ34V4tyaEpExHwKFQrE1dWe2Ngovv12PTt3LqRcOQNt235E0aKuJCbWpXDhnXzzzY/89VcskZFrr0PTDg4eDBo0l6JF00lJqUuhQn9y7lwmP/20gldffQ1Pz6b//1vFtWzZsoYSJZ7j0qVMFi/eSFpaCL1716Zu3RYMHz6N8PCCDBnShYAAPQkJtly4EEOhQg05dGgmJUpUoHhxO7p3n0Zioj3W1ldYsWIc27al8sknbwl6ncfg74eNuNvbqxxvyBdfdKNUKTsmTlzPsWOfa3ng4uJMlSp6PD0b8f3389HpDEyd2o2kJDNWVhextXWgR4/1ZGT8hpeXgT59PsLWNoVZszbTtm1tXn65PHFxsZhMzmzdambduvFERd1cR+3b1+b11wMJDk7F3V1HRkZDgoPnU6dOIOnpBqKiLjJ27K9cvfotzZt3oUqVJlSpUp3z5x1ISNjJt9++x8mTdtfr0to6nObNq9Ghw2tMnjyNQ4fsGTGiERUrlic5OZlz5+yoUqUhS5f25Ouv1xIY2JR27dri6Fgbg+GydrvksmWb+eOP2bRr9xrNmr1FUpIRHx8zoaFRfPzxn0RHH6Vfv0ZUqlSXlJR0zOYWZGYGMWjQe6Sl3dgXQX3zBhD+qBB3e/vmTJ7chfj4eObMGYFCjC1oczgTJ46mYkUf5sz5k3r1vEhNvcTo0R9pc0rp0tXp3ftVgoNP8vvvC+nTZy7W1ukkJqqacOa779awZs16xo//GDe3ppw+HYSHRwKTJo2iceM3qV+/GhkZRkqUcOavv8x89tm32onkefOqEhBQnoQEAyZTDJs3m1m+fDxlylxhyJC5hIen4+SUqjVVcXXN4ODBCEqVcsVkasGpU58xa9YUbG0N9Ow5g9KlG+LgsJaCBZ35+efdfP/9R5hMNx/fBQtmkJFhJi1NR5EiGVy5YsfPP+9j27Y9tGnzPFWqqLkxVbNgP/xwBbVrO9C5cxsKFKhISMguwsJs2LJlOTt2bKRkyaZ069YWg6Ehzs4bcXJyYOrUqSQnV6B794nExGykUiUHbay5dCmCHj2aYzA4aF/OIyLs+Oab2axYsZkXXwxk/PhRWiyjokxERNiwbdsxbczx9/fgzJkwzpxJZefOVQwe3IFZs9ZqJ5K6dm1AfLwNAQFq/ZpMdHRtxo4dwZUre2nVqjavvNKC1NREzGY7YmJsWLLkPerUGczzzytvrSFJSWtZv36dNoZs3LibadP20batOwMGdEGvr6OtLSIiDjB79iri43+lRYvxlChhjb39axQosJVnnnFh50572rVriJdX3qijR424lyvnzqBBn3H06D5mzdqHyRRO1aoptGkznbJlnyU8fC+ZmTZ89pllDhg/fgYuLmb69BnFtGkzsLKyp29fFbuGWFsHYTY7a+N9r15t2bLFTIMGmRQs6EJYmEE7Hk5OyVhbq7VbJqNHD0adwB04cCKlSzuQlpaJnZ0NBw5cZPLkjXh7ryGrEY+T00VKlXqNbt3ewsvLqH3nu3QphilT/iAycuX15xUqZGLAgG34+OzT1pfBwcns3LmHF198nmHDRqHXX9TWeJ07t2XUqOXExv7NtGnjiIoyU6yYuoWyCQULBrF06Y+sX/8HalyzzNPhfPjhR/j6enD5chgmk1rLzWTEiEnaWjQmJgxrazt27w5m8eIpeHur9WsZKlYcgsGwFoPBmblz/8TWNp2XXx6NwRCOtfVfDBw4ishIdZv9g+WfIO5PT/MvQdwFcRfE3Un95hGSkx3IKewuiLsg7nfDJZs2rUDHjv9l167DhIfH4OaWzqVLejp0eAYHB19aterKm2++rl0J8scfm9iyZTsvvNCBunXLMG3aAmJjz/Hpp7OZN+8Xypb1ok6dV4mPv8SiRau1xUznzjXZt28HGzcuJyJCAfHqJJY9L7/clPbtG3DixCFWrjzM8883IiDAhcOHD3DkSBBt2vwPBwcjw4cvoHv3Fvj4lGfp0sWcO5dE797dsLO7zOzZAzl8WOHYh4GyODubmTZtNj/+uJgTJ5Jo3NiH8uVbMXv2KEqWrEWfPr1ZtmwhQUGrGTCgB0WK1OK99waSmLiDVq3epX37lxg1aj6BgdVp2rQiq1btYP/+H2nUqAOvvNKexYsX8tdfQUyaNIKvv/6FtWvn0LLla7z9dm8WLpzDL7+o3+YJ6puXYvCwEfdLl5Lx9q7MkiUzOHcumk8/7UNCgp82PptMUbi7X+XCBaN2C56npz3jxw8gPt6Zo0e/p3Xr4Sxe3IdVq85ToUI1evXqyJ9//smFC9F0796c9ev3sW7dMu3/3n5b3dK3gz//XH6t0YKljtq3b8qbbzZg5co57N/vR8+eVUhIcGH9+gMYjYdo3fo/bNt2gVWrVI2qk9TOfPHFKpKTIxg4sBMZGZf56KMJ164Gs8fNLR4fn2oMHdqRyZN/oVgxaNWqORs27OPUqQsULlyCV18tw5YtR1ix4kvGjeuNTufFr79uICYmhXfe6UdU1AlmzfqBwYM7kpGRyqxZ86hcuTQvvtiWnTsj2LRpLgsWzCU4OIivv96Lug2tQ4dX2L//V77/fuP1MSJ/4cR5d9x4VIi7mmdefPFVDhz4TMuDyEhLjitQOTPTzPjxs9mx408KFy5JyZKeTJq0AKPxMIGBtXjjjZf5/PMfaNCgMXXqVOf996cTF5dEly7d8Pe3ZfjwobRp0xN/fwMXLkSxe/c8jEY3evToy7ZtRjZsmEvFiupkbGU+++wXPD29aNKkKidP/sYPPxyidu0WtGnTniVLZhISEsnEiapWQ/jtt4+pV28wFSuWIzo6iOXLT9Os2Uv4+9tpc8sbb7SnYcPaLFy4nfDwn2jWrDsNGlTm/fcHcenSzcd88uSvcHc3snr1fo4e/Z3+/fuTklKBxYsHUqVKLQIDG3D2bBDr1p0mPv6MdlVnXFyCtg8mkx8dOjQiJCSC5cun0rt3b4oVe43p07/AxiaVbt3aaScsli7dS58+L2tXpKxY8RV//32C/v0H4+Dgps3t58/vYeDA/toYMmzYeDp16sRzz/kyZ87HhIcn06VLb86ePUlw8Hq6d+9PSIgds2f3platWrzzTm+mTRvA+fMV+OCDlzGZDKxbt4O0tB95991J7Np1ga+//pUPP3wbJyc3pk6dTqlSvrRt24uTJ/eyatVcXn99OOXKGZk58zfOnt2hzed//PEny5atZ/r0cSQnw8qVH2vj6dtvN8Jk0vHRR8vo27eZdswOHjTy55/fEBhYmwYNfPnPfyYBhzEYyt43KJ/7KPeNZgj/bCqS280QLDWTwbRp0wgO3sv06etxcopn6NDRGI2XtTz19ISXXuqGg8NeBg+ewJgx09DrjYwcOYJRo+bi7h5xLX72pKXFY2+fQGBgQ/r1G054+GEWLdqKv78Pb7xRmbNnLzB16gT69OmBv3+gdkLpmWeK89prL7NmTSg7dvzAiy82pGbN/zB06EDi49WJHUuzHwX3q1sBK1QoxscfD8XFJZ1+/X7mypWNDB48+ybcXl21O2TIf0hLc+DLLz+kfPkWdOrUm969uxMaeoDq1Wvw3nvTtHlYzcefffYxcXFGZs9erJ0I++CDV0hPv0zfvhNISlLji0LcnahYMZChQ0dw9Ogefv11H+XKufDqq51YuzaILVtW0atXfzw97ejXb6C2FmzY8B02bfqC8+f/4tVXx+HpmcTEidOZMuUjIiMvMGXKUM6diyA+3uuBm7cI4i6IuyDugrgL4m7vewti/Ohgu8J4eCSSmPh0YeqPLn4PF59u2vQNevbsZ5plAgAAIABJREFUTVRUEufO7cfdXYG5VhQrVg0PjzReeqkZkyYNo1y56nz33ZeYzba4uTnRvHkD7cTVuXOJjB8/i08/HUCZMsV44YVO2omu775bibe3M5MnjyEqKopRo6aRnHwD9G7fviv163di5syRHDu2kyFDhlGhQnnefbef9rx3321Fw4bqhFI/Bg78gIwMW37++VNtPC9d2ofGjV/mgw8GEBKy8zri6excnrlzp3L+/HFOndrLkSMhWvv3+PhQypZ158MPh2v7fOhQhPZ3N7fLvP/+eJKSUnnttSF06vQmI0Z0pk0b9VtcPUOHWvY5IMBauzJr8eIg9uz5nYkTh3P58nHGjZtBnz4j8PN7nkmTemu/EbYg+AIM55UYPGzEXcGtfn56Jk78QTup89VXc7CzO0+zZm/SsGFlnJ3dMZsrcfDgj8yfP5vp038gLu4IkyYtY/z4VkRHR/Dppz/Rrt04qlatxCefDOCFF4pRrVonfvrpOxwcyqPXB/Hccz35/ffZrFp1A0738tLz6qtdCQh4k/Hje5OaeoLp0xdy8WI8I0ZM02yQKVO6EB4ewapVwQwZMpX4+IPs3btZu93J3d2HkiVf5pNPxhMWdgNerlVLfUkZxoIF4/HxcdL2ZfDgfmRkpFGsmDWjR0/jl19+Zf36o8ybN5UTJ7axe/c6bGz8qFXrBTw8KvHOOzU1iLtWrWra7bpqe/XqvczRo0HMn/81kyevxNOzJPv2jdWuMFEnzRMTE28aI/JKDuX3mn5UiLvKzwoVqrNs2c+sWbNSA9sV6G1jY8De3ovx48fw11872bBhtlZv+/cf4csv5zB0aBeKFfPl/feH8vHH68jIOHh9rqhQQf0S43WmTx9JrVqleOmllxg8eBrnz4fRsuVLvPVWAGPGjNSu5tDpFOSsJzT0PKNGDbtpDihd2pL3GzcGsX79TkaPnsrq1Z+wfPnvvPzyG/zvf72ZPXuG1sykU6cm2tzWsWM/unXrR0CAOxs2KFMnBGfn0jRs2El77erVyoy8MVeoWlW3OaqTbQkJBWjZsjpvvdWKTz5ZRp065WjU6HVmzbJs4803m9CunZo/N7F580ptzJkzR90CVp4BAz5k0iRLrNSYk5lpwNm5ADpdGh4els/x/fdBbN68Tqs3J6d0atZsgIuLTrtFqmbNbsTHb2Lq1Bm88kpnmjTpxO7dezl9Wv3CKpFjx+IwGNy1efDMmQOMHj2bl19+jrfemsrcuWO5enUn48Z9yq+/qpN/27Vx6NNPu2Bl5Uv//kNxdy9HuXJ6ChS4jItLBRo16qZd3TVmzABGjGilHct27Ybi5eXD9OlTtc97+PBuhgz5gM8/V7d4WT7vBx9MpXz58owdO5XXX1dXwMYyYMBI7Yqvl18eRKdODRg69EOOHTuYJ+bkuLjzWnMPe/vsTUVyF3G/gdsbtPipk5xHj/6m5YGnp4EJE9Zpc8CGDZa1lKqPMmVeZvHi8XTo0Akrq0TNCv3003HY2lbi3Xdr3rSmUb/cGzu2i1afc+Z8jatreb76aioLFqha+I7XXvsfrVv3zlZv6pc7i7GxKa6tHV96qRpffrmaY8e2XG8Mova5eHE9bm7VcHMrjoODLZ07v8jly4lavmRvupOcrNeuJFSe5IgRc2jRohWdO79E3779OHTIipdeqs4HH1hq5vTpHUyfvk5rAKDWp2ocHzlyNK6uzzN8eG+Skm6s1zw8Smlr1Z07d7JgwWz0+iKUKhWIp2ciNjaXadCgE/b2penQoR9ffNEPV1drLdcSE62v1ZYeha7Pm/cNkZGJTJz47b9uOnH7fJHvUU/id0lB3AVxF8RdEHdB3FN8cXGxgMq5gWS2a9eLtm17M2zYYM6d26qZHa6uXowcORxb25q8805txoxRX66rsXXrCXx8amI27yI09E+2b7/M6dPWTJr0CStX9sPDw4nGjd9nzJgRbN8eSenSl5kzZzJRUVYMGrQAk+nGPrdv349atfoyb95Qjh1bTZcu9WjQ4H26dBmkPe/dd1+hWbNq2uv69/8cnU51ITKRmWmRC8LCUvnpp585c8ayQFagrZVVcWrXrkHbtpW0K0fi4pS9UYBZs/pTubIVPXv25JNPFnDgQCxjxvTE3T2Vvn37k5RUgNdfH0Hnzk0YObInrVu/gq9vZbp2texLQICRsWNHsWDBd2zaFMUrr1SjTZsmTJjwNl27TiQ4OJEFC9TtlApLtezL3aDa3Dhuso2cxflhI+7qmKsvhl999TlWVtXo2LE91tZnadSoCc8++ww6XSmtZo4cWcHatWMZN24L588XYOzYznTs+AotW/ozfvwQhg/fzr59vzNpUj9GjhyHu3tlzOZg7cSPcmkyMx3YsGH3LXB6z579KFmyOx9//B7JyXuZM2c60dFl6ddvkDZGTJ8+mfPnV7Bt22WGD/9cs2jM5rMaMm9tnUp6eioffLAGsznoeu7WqFGLESPGMWfOBxQubHNTXZYsaeSjj0axcOFuduw4xeefTyYiIpTMzDSsrWOx0uao3xk1agy9ew+gZMnKJCSoKxPBw8OL7dtX8Omn6/HwqML77zfBz68MtrZxhIQUYe7cDzl3LnfGNamPnNVHTsarR4W4N27chD59hvDrr7+zdOlSUlJUnqbh5lYEH59n+N//JvPzzx+yevU6Ro/+HFvbaixc2J4JEybzww8rCAq6wIQJC9HplLe0S5srlLV2/nwqK1f+TKdO6pcy1ejTZxAKbm7Zshr//W9TevToTFycrTZmq1r29T3LO++Mw2h0Ytw4y7yVlfe//prImjU/a41L1q//kF9+WUezZr3o2fN97cvxkSM/0rmzZS7r2HEQ3br1pHFjKy5dStf2xVIfG1m//kftc2TP03nzJpOREcfw4UOIjS1K9eqVGDjwFSZN6kzdul0pXborn37an9Ont9OgQT3693+fadO2EhS0FGfnswwdOhkfn8r07j2SDz8cql3B9PnnY7VuajpdUW088POz1O9XX+1n/frt2mfr06cF9epVIiwsTRtvPD1rc/nyVj74oL9S9ujbdzA+PtXx9VWGVRzz5y9i584M7URZZuYuxo4dq8Wgdev3WbhwOJGROzRDadGiPaxbZ2n0kPXZRo4cwtChQyhVqi6hoeoWNihZsgJHjjgxcmRnpkwZh69vHK+/PgQ3t2e09cPmzT/x99876NZtOEuWbGXjxqXaGKvm6ypV3te8oVde6U9AwAX69OlLSoqBl18eTuPGdfnyy4EcPJg3mstY1gdxxMXdaIaQ24j7jbVFES1+o0ZNJjLyJ8aPH0vp0g2YMWOhZpQlJVnqQxmORmMsS5Z8x8cfj9byTyHwn366Xbvi6p+Ie2BgJYYMaaPV588/r0c18Rk/PqsWfuY//xlIu3bvM3ToUFq08KFo0We0ecbKSp2oVV1FTWzcuJo1a3Zdbwyi9nnIkLH4+9ckPv4UUVHWVK/uTlhYnDYemM2W3FXPM5nUydDPiYurxsiR7enR4xVatKimrdWiojypUqUSgwdbaub8eUcmTdrOkSPrmDOnnza/jRw5Byen+owb954Wg6zxr0CBcto+JyTsYMKEsdpVgbVrv6/Vqtp1y7rTn/ffH0GfPh9ez7WkJNdrtZWGyXSShQtnEhpqzVdffc3Zs5FYWT34mvB2+eLsrMzY2zfUuF2TDXksb8TKKiCgQuaJE8HY27tin49RbpNJtTP2kBhIDHKUB4K4C+J+N6BU3cb03/+2ZPToIezYcfE63PrhhwrL9eWtt95mwoSB2NuXZP78WVy9qgBQg4a0K7BZIe7Tps1k3LiF+Pm50rp1B4KCvmbRolUUL15EA58PHLBAr2qCzwJUFdarbheZN28Mu3adpH9/dZtESfr0mUVs7Enefbcvdep4MHjwd7z7blsKF/ald++3NXTa39+TAgVqc+TIJhTmmoVkenpasNmtWxUcmkr79t2pVq0233wzRrtFatCgV1m0aBNHjlyiW7dXKVAgg4kT52A2p/Duux1p3rwlvXq9z3/+05YSJdS+9EKNt6qrjELcly8/zoYNyzUktWfPKezbt5rnnqvJxIlTCQk5TGqq8wODnY8Ckc2P23iYiHt2TH3kyF4UL16TH3+cw3ff/YDB4ANEUrFiSXr2nMm5c7v45JNFfPXVt5w9u50pUybg7OzBhAmDiYhQGLs/y5YtYs2ajXTp8jLPPdeUSZMs9aZOYJUvX1ZzQbLD1Wr7Xbv2okaNqowY0ZekJPj4457Exzui6lf9TJ48lcuXU1i+fBaTJs0gOHgTc+Ys1CBpdRuW2XxF+7sF6kaDep97Tt1C2JPx4xdSsqSC6JsyenQv7XmqFgYNeotly1RDg1V8+ulHbN++m8WLl2pdwooWjSEhwQFHxyJMnTpKO3GwZs1SPD096Nt3OPv2HWLZsnVUrKgaOEBSUihVqvjSqVNPzp4NZtSoCdptjg8K3+bHHH/YsXo0iHuYZlz16PGZykLmzOl7HTBXjQp69GhM8eKNGTx4tIYyt2//Bq+/3pK//1a3vcdoV+NkZCRoVw0qILpbtze0fC5d+sZc0avX2wQGetCx43Dt/1q2bM8bb7yqXR189uwu7O1ttVsQFTbdrl1LPD19r9dgmTJl+e9/3+LYseNs2nRGqzNVR3/8sRDVCKVdu2HMm7eIXbss9dugQQc6dnzj2u15jixZsprw8H1aMwQ1fxw8uPbaid0bTUomT+6Lo6MHo0d/p8Hl3bq1p27dxkyf3pfAwI48/3xNZswYwpEjF6lSpSxDh/Zh3brVLFnyA2lp3syd2xODwZFhw6YydOhMbX6cN2+pNi40ahRAoUK+7Nt3hgkTLA1JfvppuWZeTZqkTgjsYvz41bi4JDBw4EdaA4epU/vh799Uw+3T0lJwdMxg8OC3AW/69Omn1bc6IT5sWFfeeKM1//3vKBYt+pjTpxMYMeItVq++sY0xY6ZiZ5fCDz98R48eozh6dDszZy7U1hGDBo3C0TGGwYN70LXr21rc1XFWV97NnTuTDRsWsm3bNiZPXs66dV/z00+riIoyMGmS+iWUL8OGzdLm9gIFyvLBB321PGjatD0dO1ryRY156uRD1s/jGiPuhnLnFuKe9dkUvq/i9/HHWXkwWmuIs2TJUi0eKvaWq3A9NXQ8KOgHJk+efxPi7uLiS+vWNyPugYF16NevD4sWTSMoaJe2Fly0aCZffrmQb75ZSLt23Xn33e4MGzaGgABfWraszezZP7Bnj2rsY2mWcOBAsHaLfdaPWodNnaqOUwwLFnymHf9Bg6aQlhbMoEHDb2k0MmPGUuLilJE1gbp1q/Luu6MYNmwCR44col69qnTtOozp06fx99+7mD9/qQbYqxN36kedZPby8mXs2L43Af96vaM2lx05spvp00czaNBSChRQvwD6gaiow0yaNElrOtK5cy/GjBlMkSJVGTu2IX//7U6VKqqpQ2PWrVvLrFnzSUq6xOTJSwgLU7TFg89lgrgL4i6IuwGJQT6OgSDugrhnwem3Q5GzI+4REfsIC2uIn184n3yi0HQP3nmnDtWrT6JLl+Jad6TvvltN+fLe1K2rLgVfitF4kOHDlzJ16mAKFmxDx47FsLbOYMqU1RQv7k3jxkP4448p7Nr1mYZ9Zu2LwqdffTWQIUMmceZMJl26tKdevWLaCS/1vB492vDMMyOZOfNtGjRw1y7hXr9+I6tW/U2nTlXw8irO1KlTiIw8oO2zj0+4dsXWSy+9pkGhq1btplWr8rRoUZ7ZszeSnGyiQ4eJHDw4n23bjlKrViDVqvlptoatbSq9e7fRQPpZswZTsmQbWrd+AfULk0WLNtClSzMNw/3tt57aIkWB2++++zGFCzclLGwtX33Vk5AQAwojfVCw827HSDDrB0NQVUwfNuKujnlaWkMqVXLmww+7kJnpQVDQAfbv360B0C1bBpKSYs/WrSsYPfpvVqzohqOjmQEDBmFnF8igQa9RoUJVEhJC6NNnPFev2lC8uIF+/bppRsnkyRsoVKgQ1apV46+/lrJ5s7pS6uY6atq0PD17DiYzM50RI/ZhZ7eNAQO6a89TMG9MTDLTp09iwgQFzPrw3XfzCQ7OZOrUQYSE7GPKlBHalRaqgYOCftWXDtV9atasFdjaemm1r64e+frrDdSr14wKFRoyb15PTp5cq13toa4I/frr9cTFpTJ8eBtOnYpn8eLtjBs3kZ07gzh9ei2VKlWiSBF3QkMVNH2Qfv2e5eDBQyxcuJ8iRQrQr9+bHD8eyUcfjb8+RkjeP3je5+Y49KgQd7XPjRsrw6YmRqMHs2fPx8urEc8+q6dSJR1Ll25k+fK52hhbvHi49qXXaLTj4MFzTJ++GUfH09SqpXL3vyxefIw9e3bTr195ihcvzkcfTaF+/YGac9WrV23M5otUrNiQnj0/JiPjAAsXrqJJEy8qVWrJlCmDcXJ6je7dixMRsZGlSzNp0KCZ1mVv4cL3SE/fxbBhc5k27U/27j2MmkMVQP3ZZ5vZtWs37du355VXGtKrVx3q1x9C2bJlOH7czM6da2nbthDPPdeSsWNXcPDg32TP8SxEe+/e0xw5sph33pmEwVBRuwrlP/8JoG7dKgwePJFz5/Zx8WJDvv66CzY2NqxcuRqTyZsOHdTJrSmsX/8ZnTuPpFq1NkyZMl67da9v3+ps3ZrJunXDeO+9TWzf3pNlyyxz2ejRH2sA/Pbta6lZsxBVqrTk3LljzJr1B/36tcLX14bJk1eTkGBNz54f4eKylZ49+/Dxx59hZ+fLqFGzCQwswXvvPc+ECXNITAyje/fB7Np1nO3bZ2jNJFSc3dxsmD59OdOnd+DIkWDWrDnK6683olAhe+zsYMyYH3nzzVZ4ezdl2bK+HDiwgWnTPuPw4X189tk+PvqoC35+zsyYsRuzOYN27aoREXGQZcs+o1u3iej17owYsYL4+KO8+moj2rVrz/vvD+bCBWVvqnHT+aax81E/FhFxUWtao9fr+GdjHx8fdftm7u7f7RD3yZMtWPnixfP56y81B7Ti3Ll4Fi0aQdeuFsS9d+9RzJjxEVZWBa8j7lmxUoh7z55tmTPnV/bv/5aCBS1NfL799k/mzp1Gjx7t6N79LYYNm6Rh6D16bCYhYQsrVw6kUqUhvPCCK4MHryA6+sebcPZBg/ZpdaWe16SJukKvgOo5ycSJU4CT19eOaq23cmU3ChQw8/bbg6hQoSXvvTeR06fns2PHYnr0GENmpo45c5Zz7twRVGME5bt+8skK7diPHFmP0qVL8957g0hKurFec3BwZ+pUS67Nn7+Pnj1rU79+IDNm/ImbmzUNGjyDra2e+fPXUqxYLG3atNMaqxw9OpNOnT7QruZXjX2GDVuKn18yy5bNZO3ajZhMgrgnJj5d38FuV7/3ekwQ9/vEu3OKfMvzcg6iP4mxEsRdEPd7Ie4NG/6X6dNHcexYogai29qWZezY0fj6ummXZiuMvXv3NpQoUR2jMQJX1yrMnfsFJ0+uQqdTXZtma/Cti4sX7dpVZevWYzz7rC8ODg4cObKdL7/ccm2xcCviPn78eI4di6JLl9d59tmq9Ounvnjbaw5VvXo1mTlzAcnJf9Oo0VsaZFu0aGX+j703AW4rve58/yQAggQIEgQJghtAUqJISWyJi0RKstTultxy2+4k9dJ+dpKKHU9mXE4qiyuTxK9ephxXZsYvySyZTJVTTr2qNzNJTeykJm17nLG73ZbV1NKtXaJEipJIghu4byBILASI7c35ri4BkpAIkiAIAkdVXa2+fZfvO9/5n3Puxb2/093dgytX3sGVKz/A0pIEcXc6G0SHpi984c/x2mu5cLn8yM7W4OrVe/jhD/8Bubk1+PKXfwUnTxbjvfds+B//4z8IaKnBQBDRoGBmfepTb+LrX/9/MTZGv86fwhtvUGc1NT788KeoqTmES5e68ZOf/BcB5Txx4m388i+fwuXL3fjud//6+Xno087UhTEnGkq7H8632xD3aBu0tBTiq1/9l8jJyUV2th8LCxrRtevu3R/h5s1rGBvrwve+9xHm5qbEg1mrtRpf+cpvoa2tCjbbbfz93/8drNYxVFU14803T+FLX3obS0t+0f2PINBW6/8SbxySj9ntOuGHBHF/5ZXT+PM//wMEg2X45jcJnJ6Hr33tdwUgl8DQMzNj+NM/JdD0W/ilX3oblZW58Hr9GB6ew09/egdTUz8QIF06L7CE5uaT+PrXfw1f+9qfYXrajV/5lf8Tx4+3CcA0gZg1GtJELzo6/guIl/VzP/dZtLU1Y2TkFvr6ivDd7/7fmJy0CpB2Y2M5NBoN/umfvi2u8fnPn0JHxw1MTmbjC194EyMjHlRV+UWHwv/0n74JjycSIxjinhqxJFkQd/I/kymMyspsvP32v4TJlPsc8jyHp09n8Pd//w/Pu1RKYPff/d230Nj4Jv7u7x7jpz/9IwSDSiiVRnzhCz+P+vpPwOn0Q6HQ4Cc/+ScMDl7Cr/7q19HUpMMXv/jHUKslgPTHPva2eIhiNCrgdpvw4x9/G9evz4nGHr/wC1/Bpz/9NjweOk81/vZv/x8MDt4RDyEILv43f/ND3LhBeeOogJ1/+9vfFMdSLjt//gR+7df+GcrL/Xjllf9LdC0jcLfXq8GjRwR7/yG83o0Qd4JoP3kyh/r6w6KJyX//7/+Irq6nePvtL+GNN2pFnn7wwPW/H7B1oazsPP7oj/4YGs00PJ4WdHT8f7h+ffB//6BzTbwZTTDrgwf9UKuDePq0QOh1cDAX//bf/jx+9rMn+Md/lHKZyfQ6vvrVT8DnO4ZweBJXrvxINFVxucbwT//0fXzuc3+M2tpp2O25Aoj97rvXcOvWP+KXf5neNHtL2Oe997rxz//5m/iv/5WaWeTgN37j53HjRuQav/M7X0copMO/+3f/Hl/72sdRXt6GhYVc9PTQp2penDv3Nn72s+9jYECNX/iFU6iqCuI//scf4nOfo7fe7uJ733sfhw/n4wtf+GMUFvqhUnlw964fHR3/HkNDxLT8N6KD8Te+8Qeik9wXv/gWPvc5yud/hqEht4hrMjR8r/IWxT9qOqBSaYQvBIMRSPVuQty7uu7ir/7qfaEZna5QfG7Z3CzlKJtNg/fffwcPHvwAf/qnfyMg7uRT3/zmn4gfLX73dyUIPtVXOp0Ecf/KVz6Lv/7r7wt2YVVVSHBFyZ+JR/flL38J/+JffEk0AHjw4Lp4c/C3fusXEQhoxPXeffdvcfnyIFZW6MsIKZd5PDr8+q+34eMf/0UUF2tw69Yj3LnTJZoS9PUp8Jd/+QdRjUu68J//899jcTFH5FCq3f7Vv/pLlJaWIxjU4NmzDnzsY7/6HOJOXLi/xvvvd+C//bcfinN84xu/D4slH3/yJ1/F2FikSYTfHxBvbZGv/dVffVNwH3/jN74ktGW1evDd7/4UX/3qF8WPUdQUqKTkLXz5y4fENZ1OpWik8P771/Hrv/4tfPGLZ+DxzOBf/2uppt5uTcgQd4a4M8SdIe4McWeIu+h0NT+/Foi+H7fl51sE00L6dn8kpaDhv/RLv4S33voSvvGNP8PwsG0VwhsOJw5qTuDq6enNz5fo/SSQMxU8BaBzE1z3+HEL/uIvvoOenghYO9OBz6nmk7sNcX/RfOP1v5f5C0GlVSofCBSfaL9KxPii49B2z2cwjMBu58YHiV7fRJ4vWRD3WGPerl+RLrd6rEZTsadNBGSI+x/+4Z9Bpcra9ljC4QqEQsSz2qoNpPyWirVFIv15r3JUciHuiauREmH7+HJZavlffGPe3M7btR9B4ekzz/14n8JjXrtuDHFniDtD3BnizhD3BEPcEwk7/rVfuygg7tSGeXhYAlgShDeR14gHOrx7kPQKHD3aiC996d+gunpGgIN/8INrAgicKKh++tgqNUD2uw1x3z1fSw377a3e2AapEA+SBXHfa1+jt6yiG40k2/bUcCEraxG///t/jKys0h2NJRx2bgMgTT+MRYDZe70e6dYIJbkQ9/0YO9n/omOOyzXEwPY0gdYzxD1ogddrE1BhhrizDeL1A4a4M8Q9EdBSAuMS4Jn+xDofba+paUBLSzk6OiYFsJ32A6gD2dYBqtKVIseSH8sAePl8sbatkkFjHhv5v9HHvmxuEVB3n4ADt7Q04tgxC0ZGbAJGSp/oElj+RXZJhO23Yz++ruSnuwlxf/maR3xtJ74R7X+J8gNZWwT6Jd+NdY2tbJN1KZ9vJ/ONdeyLdM4+HjsWJ9ouyYG4kx/GyhVSY4HdiLHRTRikawRE84+Jic3By9vR5Wb6OH/+tIBov/vuoxcCx+PVZbSOtqrzF2tw9HlzikhsS6SvxTu3/RoPZCh3Xl4RlpeLhK85nVJ9mmiIe6JyRSLWN7q+Wl/XbfS1gOiEvb6RR7y+8SLfXV+Lxnu+F+23vhZNdN6i646M0Jv91Dxho7/wtv1ll6xDh06HBwdvQ6cLi4JrZYWStwI+X4i3sQ3YD16gBYa4pxdAsLJSgezsxMI+Ew0P5fPtPTCWofAS6Hy3Ie5s5whQPtlQZLZ9cmyfTIg7+1BqgPtZW4nXViyIu9sdFEy13YC4cx22v+uwqakJ+P2xof+bQcMZnB5CKtmAIe4McQd1XvV40hu6nmhQPEPcGeK+V9BSvi61imaw+17aIJkQd51OAkPv5Xy3C4zlMfO6vch3g8FqzM52CfB0YaFGNMhYWZHyaqLh08kG9xNYW24CIus31jbWR3L1QcBxp3htJtLUIda2ZPvLTvwgFsQ9GPRAqvkJks75I9NtIDUbkPx+dnZMxFiKu+uh/7xtf9kl6/jxunB3tw1KZVlGQ7lDIUCptLAN2AZx+YHRuNcQwDIYjS64XE8YSJgAG6QyxH27sMq9gqrydVOvEUCifWivIO6JngefL/Ege7ZpfDbdS4g7r1F8a8S5LPVzWapB3Flbqa0thri70+a+kSHuDHFniDtD3Bn7HIGqAAAgAElEQVTinsIQd4a+Dj3v4LQfAarpOWaGuLNPMmifftHfvh9kCsQ93aDhO1lzPnZnmollP4a4J96m6eynDHF3IJ8h7gw/DzIAHplqA4a4M8Q9ESDOVIKC8li2B8bPRD/YO4g7r1FsKDfbZb/ZZW8h7uwv+81fMjHPxLNGayHus9DpLBkBced6besxjCHua5sc7HdoPUPcGVrP4P5tNC9giDtD3PcKyKrVtqKqKgfT0z1wOCYAbA5GvXjxF3Hz5l24XNSBJTFA2/JyHcrKzqKvLwS3+/tIBbhpXd1nEAoNgADJSuVF9PfTuBIz33jsnAo2SMZ8kwVxVypncP78cQwOXsfAQOJ8l9ZSo5mA2fwZzM4OwG6PT0dmcz7GxnTCv9bbWaGYQDC4PV/TaoOoqjqL3t4fJERHRmMrDIYccb5gMB8rKzoEAhM4eXJr892JP58//4uw2e6uWTelMh81NRdhtW7UZUPDaQwMeBEIvLfBBtnZ46iunsDwcGzbxxOLs7K2f+xuaH+vIe5k03PnjuL69dsx/TkemybaLgqFDmr1BHy+CzhxQo/JyUsYHd08v+3ET/nY/Q3l3muIe0nJDI4dO4aOjquiwclu5N/s7A5UVuYLLUTH9q36rkZTCcCI/PxcFBRcx8rKq1hamsbysho+3977gV5fi5WVQuh0udDpIuNzudQIBLY/vuhYNznJEPdUArHvZCwMcWeAOUPcNdiyDRjizhD3nYBH5WOj4ZLSzYAamwFUDYYWWCwGPHzYAyA+QOnbbzfi9u0nWFrKiesaL5ubPObGxmYolSEMDamxtPRsw1ik/eIbX2zI6FrY7GZ2oTEfPWqB2+1DIPAMFksbbt607ni+8Vw3nnUrLGyBx+OH3z+3Q7vsxKaJOXa3Ie4S8FmNujozcnOL0N//I/h8pg1rKe8Xa40287/c3GocOmTB+LgPdnvnpqB4Op9S6URZWTPGxsY2jKW2tgU2mx8Ox9yWwcFZWS1oatqapl8G5lUoqpGbOw23W4+KisNYXOwCQcMPHTJgacmJkRGKHTLIuQtOZ+Jhx5/+dCPGxp5geFiKOWS/rCwHNBrA7d64lidOfALd3dOYn99oP5VqCe3th/HwYRfc7vjiZHQMa2g4jOzsLvHwMR6tJiK2bxY39hri7vMtwWBwwutVIxjce7vo9U40NTXjwQNJW2ZzGKOj9EAgAhzfzKbJWDe+RnLB85ut+V5D3E2mMI4efQUdHfTjw2bNZdbWNNE5Ss5lOp0eTufafGQwLKGy8jC6u7tgMFTDaDTg3r2eLeeZ3NwWkQPy8oDCQhP8/mnQm30u1zR6ezUANs+Dm63H5jZ4cQ1COSAYBLRaQKORxjc3Bzx7No1A4OV108tqAcofOTnz8Hr9mJpKt3uXzIXRM8Q9dBR+/xMwxJ1tsBU/YIh7esHjEw1x1+sr4HBkCXaTWj0NlSpH3IDn5JRBrXbBaJzC+Lgb4bAJbncWcnO1yMmZgtHoxvy8CSsrWfB4fCgoWInaVgaPx4aCgmkcP34Wjx/bkJtLzTdcmJgYQSjkQ2FhBRYWssTfNRr5uiE0Np6CzWYHASwtFi0CgQp4vXQ+F9xugm76QGNWq8ugUFBzgCm4XG74fCGoVBUoLNSCYKkSj0sHrbYA5eVt0Omm0N9Pb3ZpYDQeQmGhC4HAFGw2N0IhDbTaQwBcUCik8ykUIfj9FeI8CsWImLfBED0WKqC0AMh2FTHsItlArV6BSuVGUZFpdR4ERW5rex1zcx7xz8GD5/Hw4bcQCmmFXeS5TU9LtgqHdTCZDon5Li5OAXBjZcUElSoLKpUW4bC0HlNTJoTD0npEoL466HSHUF3tgt8vrSXZACgQtpKPpbVUKMrgdrvQ0DAFn+8oRkdt0Ggk28t2ycvTID9fGots+1AoBJOpBX6/ZFN5LLH9Za1dlEqaRxnsdhuCwcRDVZMBca+p0aKy8jQcjhUMD5MNngodlZaa4HRG5kb7ORzS+pKtpIdRWqhUOhQUHML8PPnLtHhr0WbTwO+X1kinG0FV1XGMj49jZUXye/LxuTnSnQ4GwyHRKMNmk3yX/LmiohHl5VRQd4r98vIkP6XzHT1qQE/PXSwvSzovL5fWbW6OdCRdV9KPtB5arW51zWm/+vqjuH37NnJyaC5aFBRMQaGQ/I/WPPpYs7kCNpuk86KiFYRC5H8h6HQV0Om0mJ+fEvoIhzU4dKgRS0vAyAjpY+187fYR2O0UK6R5SPFK0pbsQ7KfyrHJ788S46Nj5XhAOnK5bM9jiaTf5uZTmJkBJiYuQ6PRIiuLzi8f2wmTSQufr0L4KV3j+HG6KbsLQLPB9lqtBjU1h9Dfb4PXK/uzFIdoLBRPJyfdCAYlW0VrkDRdXGwRNpiY6ITXS2sQme9egbqTCXHXaiuQnx+J7bSWpAW9/tCaOEQ+npVVgKIiaX01Gt9zf5SOpTwjrXnEfpSjyP+iYzHFNdlffL4s+P3kY1Iuo/WYn5filWx78qnq6lNobDyK/v53RP4oKDCJHBornpKmFYppWCw5yM01YW5OzmVr80e0ZlJhzffK19L5usmEuEfriK5LNYHF0oiDB8/h4cMOEbPleK9SFYja40V1nZRT1sbs1tajcDiAmZkVkbfkdTty5DSys6U8SNo6fvyoqP8odgaDlPMkXa4d3xQ8HsoBodXYTjWXXCNZrY7VnHLq1OuYn1fAah19aS1KOo+VF+QcFV3HRutczr9UD22swyKx5MyZOvHW7vi4VEvRnCje03kpX2o0h8R8KV+S/fLyTKtxbXq6U+xHeSw61sm5u7hYqgUY4s4QdwZ/bxn8DYTDQHY2kMXH7nMbmFBVtQi3m972qIZKlXwonstVjZyc5F93r+a729ddTjDEvb39Iu7coQLBKYCJbW1ncfVqHw4cqBe/KC0v38WpU23wePrQ2VmKU6eOw+u1oavrElpbL2JmxoHlZScOHTLj7t1LKCy8iMbGi7h9+8fIzr4rzjc+3ofxcQvM5kXk5JSgq+sDyNcNh53Q6eTrPsInP/mHuH//x/B4bqG9/VX09PTD661He3sburu/helpJz75yYsYGfFienoR1dV0I3gJfX2lUKkacObMq+jvl/ajAkGprER5uQ9Go0mMuarqPOrqzuPevXdQXW2DwdCGzs4emEyNUKuB+Xm6ebyErKxShEL0K6UTtbVDUChexchIP+rr60U3za6ua2uA7XSNgwdNmJq6BIPhIuz2VzEx8V0cOHASgcA7GBgwrR7b3X0Nr75K//8JJiYOor4+F48eXRNjn5vLEnMrLV1EZWUJ7t37QIxZrT6P6el3YLH4UFpajwcPuuD1WnDuHNno20JjxcUX0dnpQDAYgaXSwz6aG/16OT8vrWVXVw+czkocOOCDyWQS69bURGP2YmhoEa+84oPPNwKr1YSGBmm+dOzEhAMnTpyHwxGAzUa2tyEQaMPQ0CN86lN/KOxG+9FYFAr6/MohbE92oWtUV19EKOTFxMQsmprMmJ29hJGRamEXYAU9PbcSDsFPBsRdofChre0i5ua8GB4muxQhK+sqRkerUVcXmRutOd0kk51pv0CgV8z3wIHzyM4OwGqdFbYvL38F9+/fx+KitEZu9xDq6k5hairiGxZLCT766ANxrEol+Ybszx0dPSgoaMSBA8Djx7fg8zmhUEiQfpXKh1OnpPXQaqvR1PTb6Oy8BLf7Ls6cacPjxz2w2+nzjYgPnTwZWfPXXqM3koDLlx/h0KEG5OXliodhVVXkf7+Ne/furDk2Wuef/ORJAIu4dOk2GhqkYycmbGhqqkdHx3288cbvCY1OTt7Cq6+egtebhUePJC0UF5fg/v0PVudB4zt4cEq8vdjT0wejUfJTpRJYWLiEQ4d+Gx98cEf4n15fgu7uD8SD75Mnfw83b/4YbnfE1xobm0Ssczqv4dSpV9Hd3Q+PxyJ0+fDhNXzsY68iEGjA48ddqKhYRG3tcVy79g4qK89ApQqIOGQ02sSD8mvXeqBWH4TPNxsFTq9AQ8PBdba6iHv3HKiq8qGmRoobshYWFoDp6VvPdbz3zRWSBXE3mykeXYTD4YXPJ8V2sovdXgGj8fdEfDl9GhgaugSrlR6eHsSRI7RGkr/4fP14/NiCEyfq4XAMiTUHIvajmFNaCjx6JPkLrdfTpxSvyF8u4vJlB0IhJ86e3ZjLKB+RVkOhUuTnN8FsprdBpJhI2qccKq+lHOsslldx48Z3kZVlQ3v7WXz4YR9UqnpUVABW69r8Ea236DGnM6Q60+aWLIg76UitvojRUSl2Uq64ffsDWCznUV//aRFjZ2eleO9y9aCnpxInThzHyMj3MD3tWK3rhoeduHjRjGvXLsHnK4VG0yBiYlfXXZw714apKfqxgbQaiXX19VKOp/xmMFBsbxN6c7nqceJEG/r6pNrs5ElJ51RHtLWZhLaHhiJazcoaEjXSkydPMDcXyUe07enTfiwslKKmhn4Ileq6AwcuYmXFAXnMlKOuXOlbrbmoriOdU41EcTe6LqGataCA6r4VUQM3Nb2CkRF6C7Ze6HxxMYipqbWx5OLFkxgaegdWqwGAND5aX6oFqL5UKOSc7IPBUC/eSFtZqRc2f/ToL5CXR3XRRQwPSzagvEpxbW6O6rWDGB2dxczMEFSqvb1/2+37mb28N03m3LIaG4+Gnz7tg1pdBLV6NmOh3PTaolptZBuwDeLyA4a4M8T9xVBVoK6uETod3Tz3Qq/XwefzoqCgCDU1Reju7hW/dB07ZoZO14jp6T4cO/YGLl8m9kufSMyhUAOCwV7xgESvb0B2di/q6xsxM2MDwX/r6y3ixtxun0F5uQVlZTp0d/ehtbUefX3ExqLjdGK/q1d78NprjZictIniSKfzis+lsrNVOHLkDVit72F5GWhqeh2PHk2K6xKLhI69c6cHpaUq1NTU4/JlemW9D8vL9eIV9NbWc+Kti74+G44da8ToaEAcOzenw5kzFkxPz0KrNUKvhzjP+j/0hgwBV5eXe2A2q2A2R2yQl1cvxkTX8PkWIOUoP/LyGgD0Cvt2dvbB7/dDpVLh4x9/A3fuvIe6ugY4nUosLfWhpuYN9PR8iCNHLHA4JFuRbunB0/BwH0ymejidAczPR+bb3T0Ls1ka89OnPeLm3WwuhdNZhOFhaT3IBgbDObS0GNHZaYPfTw8yaL9GccyZM+dgtX6Iyck+1NWdE+tOx9IviHl5FoyO9qCpqVHM79EjyS5kT/qH/tB+tKZks09+ks5pw+goPfgAXnvtdVy/fgXt7ecwMmLD06c/g15fj5qaBvh8vWIMNLdAwI+SEsmm//N/vifGnEjo6+5D3Eeh05lX/crh6EV7e2TNySdlzbS0SGs+N9cjPj+gNaI/BgNQU0P2sIlPEvLyvFCr6/HsWZ/wl2vXPsSxY5Kfjo9LvkF+RTpSqfwoL5c0SP5MPjQ4OAul0oiamog/05rROkZrMFrnpNVjx8hn6LykHyroyVc26q293YLr13vEnEmr0pr3ob39K+jrmwTZQPpDfvWLCAQCYs3LyhqF/w0O9qCkRPo7HS/rl+xGGnW7aSyx5vsjBAK1q/IsLa2AwWDEs2ePVrUlxSY6nh7aBpCTsyz8lGxF821pKcK1a70iNsm+Rtd1Om1C4+STTqcfOp20bu++++FqjJBtf+SItL6lpWT7RjgcNoyMAMEgrZsfy8sBEbsmJvJX45DZ3ACFolcgAIAG1NUphW6i40Yo5Be+E21TOb7QUXsFx7bbXQBsyMszYnl5PVxXirE7HR8dT7GhtFSJvr5HwpZVVeViTazWHhw4QHHbhpwcwOcj+DXF4kYR/x48sKG1VcozAOnDAoNBWnPSB/k9+TPlGTmukZ9H64PsLq8H5YqZmZ9Bq61HZaX08J/+n5xTqqsbhX/KvhYd65xOKQdEryUdL+VBejgsjUXSfmJjXaJjJ58vEiPkoLMTDSYP4k45pRR6/QKCwVyYTJbn8aoI5eVFePq0F1NTVNe9AZ1OuaGuq6ysx+HDDejsjNQvS0t+VFevzWUzM0qMjz8CQHVavjBRXV0pdLp8WK1dUCjKV+s6ymtyLbC8TDG/EVardKxWWy50SfWg/MfnA86caYDfX756r0sxiHJGT88sAoEFkRuja1E5h9bVSXF8ZsaP0tK1OietXr16RcSIUIhiWgNCoV6cPCnVL7JWKQfKdZ1UO/5stZ6kMR45ohPPIPR6IwCKO5Sv3sPoaB/Ky8+htLRI2I9ijpQvZ5GXN4P6eqqHPoRaLcW6W7ceiXxfWFiOAwckG8ix7unTJwCWsd8B5hQTM30eDHFniDtD3BniDq1WCb8/hJ0A9fbzsZWVCmRnU7GQGGCswTCOpqZWPH16FWVlp/H0qRdmsw1mcwT2qVAQqLYEs7PvobLyIj78kCDVdH0JVllVdQElJQq4XF5REJWUKAWIPS9vBaWl9AZWAA5HB8rLL6CgQCEAyK2tuavg29LSNhiNSvT0fB8XL/4Kbt68Lt5IKS39GHQ6uplUIBxWYmKC4MhqtLWVwGZ7D1YrFRFBnDx5FvPzPWhpOYHBQS8GBiTwMl1Tr89Hc/MFzM3NYWxMjfb2CHBXq51AVdVn4PcPgG5KCBcUC6ZeWXkWOp0HeXkKMT/6c+3aWrgzXcPtnsPgIHFaJLuYTBdQXq4QNvX53gOBoT/2sbfw0UcDqK01rkLcyaadnR8JOLZWG4BWq8DKSghOZxADAyE0NeViZiaM4eHbkCHas7PSwyW6IbbbV8T+NDYa440bt1chrQRubW4+BpfLg6Wl4Op+nZ0daGm5gKmpCUxO6hANeC0raxM3/273u5AA13gOuKaHhXpUVobh8RAQn97WXbtuLleZ8A3ZzqWlFzAxMYc7d9TQ6aT1ID8wmSL+kp8vzff27R8mHCybLIg72WVl5ZKAdzc3n8XTpx74fO+itjYfZvNbuHbtH0DgfmAAVutGEDvZ+f79uzhwgN4K8Yo1pzfUKirIN0bFw0ry08HBiTV+RW9dVVbS51VSTARyMDnZg8JCqTnA+Pj3BWha9klZg1eueHHsGD3QPYYrV64KOLasc3rAGh1fTp8uwa1b0jYC85aW0jUCOHEi/zm0PrLmMzOSDWRIsMEwg1deOYa5OXqINSwerM3PD6C5uRUDA1fhckUg7rL2QyGaL+lSicHBjg06koHA5Kd6vRLPnn3/ubYurupS8r8wHI6QeBPNag2gsnIEy8uHMDoa0QfFMLI96cjppE9TPMLvad1Ilw8efP/5WCTbkw0+9amz6OigeGDFsWNHQY1SlpdzhFaXlmI3iaAHeWVlEa3q9bm4d++SiE35+XO4eVOKGxG9pU5Th2RB3GtqLqC0VI87dy4JO9P6Fhcr8fTpY1y40IqbN69CowmKnDI9HUBzsxYDAx64XLfEtpycAORYMj0dBGk/GIyA9ultEJ8vgGfP1q5vNIjdaJRyGeURiqd0PjrP8HAkNpFvVFVdxI0bo4LJJce64uK1OYAakkxO3sXgYBlKS+lT33wUFiqf55m1OTRR+VzOyXy+xNVIibJpsiDuCsVn0NIi1QKUV30+qQahN90p3lOtR3m/puYzyMnJhd9/6XmsG4XPRw0kxlf1Vl9/Fk+eRHKZVP99/3kus8FqpU8CI/G+rk6P0tIwfvaz26iubhMPaaiuo5gt12FKpRqlpflQqyN1Do1zbm5gtdmP3LiEcoDfL+1XUZGDvj4PVKp34XJRLSXF+9HRC2hqGkdrqxQjosdcV5cvvqLp75f0Rlql+BJdgxQUKFFcLOUyp7N1tRaVx7y+rqPzyDk+L+9d8cBOauBAb2LpUFdHP9YeEk0njMYgTpw4i1u3pEZGJ058SvybatGmJj3GxuhtUh1qaqQaODrWDQwwxH0/36tRHS/frzLEnSHuWwaY01sPVPAQjJUKVI+HgnVmbWOIe7qBEBtgMCQGcE3QWYJGvvbaa3j2bAx0U0UQyuJiH44ebUVHB32+oUNVlRrV1UdhtX6AkycjwPHy8iWUlBwWv3IvLXkwMEAcgyVcvCiB2JXKMgFxHxhwil/My8ubUVwsXaO11YSRkVuYnqZipgGVlTpcu9aFt9++gP7+DgSDNeLNibt3u1BU5MSZMxdgtY4JfszZszSWS+JYKhgIiK5W+1BSUofbtzuiAPD0q7keBHH3eDwYGnKjvd2MwcFleDw3QEDqgwcNGBtzorhYJz6b7u3dCFNvb38L/f1jWFggVpcHZ8+24coV2q8LOh29VeMU1wgGPejvd0OjWcLBg4dBAPGKihYBfF5ZmXt+7Ju4deuO+LVtaorYRBLE/coVO9raDFhclMDVBAb3eHTw+9U4ccKMmZllDA/fgFbbgjNnDLh61YmaGnrwhFUAvE63JMZCx9K60frW1YVRU9OKZ88urYKhaT/67LO1tRmjo2TTLtTVnYTZLK05vS2i1XrEOn384/Tm3RPcvJkjzkv2o8/SPJ7IutGvradPS+smg7BpP5vtFiwWuoYHk5NXxJsnx44dxtxcF155pQVXr0p22RlA/+Va2G2IuwyCPXLEjOVlaY1OnHgL3d1jWFmR/eVNXLlyB+fP01ttPvEmxnrgc2tro1hL+gVY1gc9UNVonmBsLEdA3JeWfKu+QSD27u4fobn554RvLC3dACA1TbDZnMjLI25VxJ/lhgYRDf4IxcXH0djYiqtXL4kbcY1GjVdeOYo7d34Mg8EPgs3SOElvH330Y/E2JDVmID+9e7cHJ05sXPOZmSCWlrpW/U+lCuO111rh83nEr/JFRRasrBCPpVZct7BQAv329vbg4sULQr/E+YqGuJPfSfNd6y9m8xkRI54961qnSzXk9SC7aLW0nwcFBSW4c+fWGn2QFuhB8OzsE3g8raitHUNn5zQKCjxCl52ddjGW8XGnYJaRXerq3sKjR2PIySGw8Dxyc/1QKt/CwYN+DA46RKyLXl+y/blz9HbZEzx7loMjR9SoqDCjs/NWVNy4AoejAeuB8rsJIo4XYjw7W41gsAs5ORoUFmrgcvmxsiLlVa02cVD9mho18vLMePr0mrAzrW92tk58ztPa+hpu3qQHW9UiZisUThQV1aK7mz67qcYnP2nAjRtOaDQ9ImbK8U+KiVKMaGo6I/xwfDyyvnLzDIpXlI8qK5sBePDggRt0rMMxL2pGaqQgA/6VSo/4FOjuXasAy9Ox5FfROSAYXFqNnSMjOWJMhYVLKC72oKQktZp2xOsHvN/OoPDJgrjX1FigVEp5Jjp2En7AYmkVmunt1Ym3FvPycrC0dHdNI5nqaqpfXhPx+cSJM6uxTo6JpBmquebnqcM0fVobaV5A9UZxsRH9/ZSPzsBi0eH6daqTpBqJ6rBw2P38QbU0Plmr0aB4GeIux13SL9VhS0tjQr9e79o6jPARVMdSjGhslMbs800LrmJ0jRStVYoFVLMWFS2t5jKPp0bUopSr5LpOrh2jY7Gc44mZJddc9CBKauhCNqjE7dsSyJ7y5fvv9yAry4m2tgui5lKriYslxTqaW2npGXFd+kxdnsfw8JiIsRR36R/6uxx3edv+sgtD3BnijhDbYMs2YIg7Q9w3A6M2NNQIPsL9+w9gtz+ETkdg49/B+DhBz5/g4MGjmJ21YWBAjePHz2Nx8R0BbS4ubsP8/ChCIXoTYkoUQrRtZQUCRDw390RAPOm/6RMbgj/39EjXqKs7LSDMk5MSKN5olMDQMsSdtplMRzE0ZBNgY/r/Nht1J7wrfpnv7R1dhZUTZPmVVz6PgQGr+Axr/XxrawniPozbtx/i8OFGFBaqMTcnATarqmhMt3HkyCkEAsQMurwGzk7cEwJ2EsiXPv+Qx3LjxnfWwLHLy7WoqTFgbu4ulMo2weLp77ejutqArCxgasoGKizla0gw0gjE/f79b+HYsdfFr6ZDQysCMm8waPDgwUM0NNDnVtKYCUZPtqBP+rKzS1BbS3yitetB3eoiAOksNDScEg8zRkeltfR6nejv94i1fPbsOxgb86GqqhEtLefw0UffQ1nZirALfXZID04Iqi8Dx1999fN49swqxkcPHui8N25s3K+9/TSePBmF0ahFWVnELisrKxgft6G6ui6mXaLB+IkAGycD4k5jbmk5jYUFgtfSOhNcXNKMtOYEsv0W5DWPhtLK89Xra9DWRtyMB5iZeQi1uhENDfRA5324XBL0v6/vGez2AgGAbWmhB1V3UVnZBq93RfgG3djTHxqD06kWzQFofQngS3B/qdmADy0tdcJP5+c1aGxsxPi4pFUCU/f2kp9HQOwejxZnz55GMChdQ/a/J096YDSWID/fhP7+J8IniSMSrUtpbjq8+WajyFsffPAdAXO/cCGiVQJrU4z48MPbAqZOcYMgt8eOHcfQ0Dimp6XGEQROf/DgLgKBCOiXjtXpjmJ8nIDyNXjttfO4dOlbQr+0HvTJzuAgge5H0Nz8OjweRczxNTfTJ8/EOrmM+vrX4fUqMDk5vdpcobHxdfEWqNW6Ij6JobhBEPf6+sOrupTh9k+e3BbMpmjfJfD3K69ENEhxcGWFPnOxwmCwICdHik0E2pe12tPTuQFav1kcl+H2id4vWRB3iuMVFZ/HyooVPp8UX4gHNj7eg1On/hlu3nwfbjf5xusoLa1dE+/l2DkyQgB2F7KzNRgefoilpQh4ualpBQsLlEdug/RG+qC4S/7yiU98HsPDHwmt1NRI+vB6TWJ9hoelpiKyVmVfkyHu589/FjdvfoTDh9ugVhMcm46lnCjngClkZUlNDjQai4jB169L12Vge+bYIFkQ97VasIiYTT4ZDrfh4ME28XeK2RTvJyacGBvzoKnpPOz2dwTY/ejRNszMjGJ42IeGBmp8EMllFOcpxlIuC4fpbfq1EHeDoVH84Dk2JtVXcmxXKCoEf9NmG8b4+EM0N58G1QJy/UcA8/HxjRD3oaFnmJoiyHwkjlut44IVSm9U2u0EgL8LtboNOetip7AAACAASURBVDlSbUH5jXLjzEwIWm0NqqpMuHfvssgjpPMbNz4Sb4fl5Uk1a05OG1QqyoFAIPAEhw8fxbVr9JZuBWprqYmKBt3dD1dzKMX2hoY6hEJU65lgt0uNIwiCT00dzObDyMpSizwsNzKi2jYUkmwwNDQMtVolar25uRUBe6f8Njh4FwsL1ASkUdSO09OXxSeTajU9LDSJxhJUj/O2/WeDrLNnzeHbt2cFII7h4gxYZ8h8PKB9hrgTlDGdQIiJhrgTMFatrhZAzN7eoecAZtrWgJqaRQGgDQQIjlmNQKAUWVkEqbQhHHYI6DBBbSUQdWSbSiUB26mYKCtzYGmpWrx5QbBjgusS8LKkpFo8DCKo8+CgTUCgR0ZKBRh6bGwWy8tTqK52QKWia9BDlEVxDbr5r6mpFsDPaFg5gd0vX/YiGIyGJ0tQUILrhkJDgtVDnQpzcw+K8RHbgCC8wSCBeYlRswinUwJrR4N0VSoaixfZ2fTWmAXh8CJKSqTzyXBsgndqtTaUlkrzXVy0CLhpdvbaecjwbrK3y1UhYOqS7aXrlpZKtiK7OJ1DosDMzo6Mmfg4BEMl8Dwdm51NN1yS7em68/Nr7ULzUCobUF6+CK3WhECAPvGqQDgswe39fukaRiPxhA4Kjow8ZoWiGhMTFmRlzQqQOI1v/brRGjkc0lrSusn70TxoLFLHIcku2dnVGBiwiDWK2CUCfZWh5omEGCcD4i7bZWHh5XOT1zwaSiv7mqxBec2p46W8HgS0pWMXFysEYJ18jbQwNOQQv/DK/jIwQJ/+SpohLdExTmcJJiYiAFp6c+XAgSnhL4OD1FnvoNB5KGSCzXYJfr+saQniHgwSEJjeepF8kjRDkP6RkQpkZ0v+R58x0vkoRoTD6/2vAhqNpLe+viFQ04bS0ouYn5e0mp8/JWKE1SpBgmk/soFa7RQQfIo5NF+TSdJqtG8QxD0UcqzCfwlePDoq6Yj8lEC/gQA1pxgSDSEIzk7bouMG3aQQYH1igubWi3DYBwIRj4xQnPGhr0/advgwzU2KYQRsJ9vTDYkcS4inYrM54PdHmj/IkGqKkcRakews7Ufg4KIiL0IhgvRGYokcd5eWhsSboXJ82UvId7Ig7tHxhexMcTsQqMfU1H0BNo6OL7RG9Cl6dLyPjp0DA0NrmheQ/Q4dmhK5jHJHJOdF4q4cO6lD2/o4vh44Tr6Wmyv5wYEDFNdKRTylzqPUREDS4MYckJVlEb4WK89kGtQ80+abLIh7dB1BOnK7pfrK6ayGXk8+uSh8V84BoVAkp9A2KU9LcZJqHzqW/HlsTKrrqFah2JiTI9VmEntOqg+oVjl0SIqn4bBU/1Fsj67DqN6IriPkOoxyh/SWnxNyznM6KwTEnfJGdraUB6kuoXPKeVChoFgcqS0qK6dErqBGPDTunByf4DLS/vX10tzogZhcx1Ld5HKtrVnlMVPTE6NRqpGic48cI8hWpGnKjRTbKR4UFNCPvMRZpfxGNvBgcFDKCxTTyA8ov1G8ojpRzqs0ZupCXVIi1WEuF0Pc0+X+jSHuQYvo/sUQd7bBVvyAIe7pBRAkcHoigKJrYaQSdNjplECcMvA5AuZdvWTUX/ogA4YjUNrYx0rnCwhgJ12D9pevIcOi5W10A0dAagJIR+8XCxJM/59+OSN4PH1rHg2floG75eVUSBBQeQE63fIqiDMapCvNYy14eSNIfO2Y10N4X2QDGWYtA+Wj5yFviz5WNrBsF4KQHzhwDgcOGAUsmgpGatr3k5+sh81HoPWRRYpAgiN2lrdFr7m0Ta8nVhmtEdnKvHqaWNDhF41Ztos0t7V+Fe1Fsv8RFJrg0BvHt3MwNF1jNyHusdZ8o1+t1c5Gba1do2i/ojc4omHvsTRDoNn1EO1oX1uv3I1jlnQpQ3il/ddqda1PStD6eOchr+/GWBLrurEB19G+ESvmSDaIHnPEpuXlFHt0KC2VmhLIQO9Y+l0fc6KvK/tztK1i2eBl0PX1mlm/vhIMWNKCDPiPtb6JbHIQD6g7WRB3Gfpvt/dBp5Pg0zJUf+26ybE4dsyOFUtom9crxQO3eyN4fu26kY8vv7CZRCgk5RSNJv95PS41SCAg/+QkNcWIqG6zvJDstdwJhJyP3VkjheRB3Nc3B5D8eWMMk2uG6Fgs1XXUkZka7Kxf8/X12sviqRzDovOHHHdjxfFYVeba2C7VcLJmpLFIc9t4vti1T7TO5dosWoNUT1LOJb6nnFdfXMO9uCZcH9vlech1NjWsUCqVAmQfafix1gJr/WV984yiGA01eFuqAu8Z4s4Qd4a4M8SdIe4JhrgnClAqQ5uTfT5ida0HgO7VWHbvuuOoqTkKkymEWHDi3buuBKPfz0DgZEHck+33vObxNbE4dowA9lIzBGqksN/9mZpTJNvXkgVxJxjzq69S0wMJ2kzQa4Ijyw0IkhmHaCxmc/zxz2zOh15/ATMzE5iejjQ4SeaY98I3OA7FF4fID5IFcWc/oGYbyY+T8WqB/ODkyQtQKOgBeMdzAPzGMRNonxpWRcPA0wVqnmnzYIh7hkLIMw26nuj5MsSdIe4vg6/KcOdoEKcMA98/27oEIHw3YeBki70FKq+Fs0fDiTdf38RB//fWBlufR7Ig7jvRzH6z6d5rYXM/kIHABAO3WqsFXHcnsS56jQjGTOfbuI3Av4mDmqeKnZMBcZdtCvQgGNQIcLrHs7V1S5SOpLGsXctYay7H3Wj49Mu2xYoRsY5N1DwYur4z6Hqi7ZcMiPuLfTeWP29vm2yXjf4cK/7J2+gTvAjsPT6/33x8iV6jeM+3tRgROy9slo9mZxnini7Qeoa4M8B8ywDzUAhQKi1QqejTm6Pw+58g07YxxH3/Af9eBmrMz6dv5tdCghkEmzkg2EQDmtP9fMmCuLMGWYPpCuVOFsQ9Xe2X7jGW120kLiB/siDuvB7xrUeq6zK2v6TX/UymAOoZ4o5L4uFLOBwPvJv3Y1uRvzDEPV0ggPI8dgPiLoMzMw2qyvOVQN3rofXptC1ZEPdEgufTeT14bvtPb8mEuLOO1jYQSadYnOnaTybEnXW0/3UUy1/S7X7G7bbA7a6GSuUQwPt0argVPTeGuDPEHUG2wZZtwBB3hrjHA199Oaj7xaBpwk5u5VgJlLweMsrb4lmjWCB73vZy2PtuQtzZ9okB7XM8SO34Z7fTOhPcORYkeCMQncHknN9Y0xs1vXcQ99SOL1z7xG4OwBB3qaEQQJD+/Q2oZ4g7Q9wZ4s4Qd4a4M8Q96RDjeOGcvF/8QNtk2Yoh7qkNtE2WH6Qy1DfVbZAsiDuvEWs11bWwk/ExxD316oNUjjkMcQ8hXWDvDHFniDv8bIMt24Ah7gxx3xzyvRawuRMg9WZgSqkr014D0TeHQDNINz3WKFkQd/aX9PAXjk3VG+JzMiDu8cKTeb/UApPzesS/HsmAuPN6xL8eqW6r2dl0u3fRICdHg2DQj3SBs8c7D4a4ZyiEPNOg64meL0Pc0wt6uFsQ99xcLQjW+2IAqA4aTQE8Hh8UCidCIR+USh38/oLnDCUZnEkPqKRtCsUIQiEtlMos+P0Mnmf4flbSGxAwxD09gLapDtxN5/ExxJ14OqwjtsHO/IAh7juzX6b5H0Pc3XhZQ6v9BIBniDtD3AG2wRZtwBD3dAMDJhrirteXQq9vgEKRi5KSZdy79yGCwVLU1DRgZiYbHs8tmM0+lJScR1eXC8GgE6dPVyAnJxtjY08wOFgJwImamhIAH6Ko6Dzy88/j/v3LMJmCMJtzMTbWhcFB+mU//aHhmQ6qTTXoMEPc9x80PNV8KNM1zRB3zlucu3devzDEnXW0FR0xxD19wO4McWeA+ZYB5sEgoFYboVbPZuyxDHFPDwigDDM0GOolcjI9DnLuFM4J1NWVoqCgCPPzy/B6F2A2W9DT0wOdrhHFxYDV2oNjxxowPb2AyckFtLe/gbm5D+FweFFeXg+nM4Dh4V4cOaITGnO7Z6HVGsV5Hj+mh2FeNDaexaNHkwgGe8WYCQjMoF+2QTJAvwxx32mMYD9Nhp+m8jUY4p6IXMs6SmUf33kttfn6MsSddbSVuv1l/rLfoebpAmePdx4McWeIO0PcGeLOEPeEQdzpzSkd6uv1CIWuY3Q0FxrNaZhMIczMPIbdPoHm5gsAFFhe9qK3dwAEMC0vvyAedK2s6FBZqRb/dHRcRVPTWVitHrjd76K2Nh+VlRfx4Yej4hrt7XpMTl7C6ChDPCUGGMN6k2UDhrizryXL11IZCLwTGzDEnWM25618UcvsREcMcd+Z/XZi+/14bCx/SReoeabNgyHuDDDfMsDc7/dDowlCo0HGHssQ93QDITbAYNg5hJyAogaDGu3tZvh8JhQVTWNgIBcGgx+jow7Y7T1obGxGbm4uXK5p9PbOobzcifLyZgSDegAEYgyirKwAHR0/QFPTW7DZxhAITMPr9eDkyTbcvGkVQGC6xsjINUxPpw9gM9UBoDw+ydcY4r4Rys2+wXGI4ne8fsAQ9/htFa9Neb/MsylD3DNvzXeic7vdA7qHVakyF34eLyQ91fdjiDtD3BFiG2zZBgxxZ4j7y+CXLS2N8PnUGBy0we+fRm5uDlZWNMjNLUBzcxuGhoZRXa3Cw4fjUKnUaGs7jw8++I6AuB8+fBpK5Qr6+21oaFjBwoIbNpsGen0JDh40CQ4WQeE/8YnP4+bNjwQAPtNAnDzfvV1zhrgzfJo1uDMNMsR9Z/Zj/2P7EUePIe7sBxJPMb6czBB3hrhvEXoNhMNAdjaQlXWRj2Ub7HM/YIg7Q9xfDs4kOHtz86cxNPRj5ObaUF7+Ch48uA+j8TeRl3cdjx7dQk3NKRQXN6C7uwvt7a/C778lIO5TU1mwWC7ixo0f49AhM9zud2C1GqDRHER9fS4ePrwmuhG2t1/E/fsOAYBnQDPbYCsg0536C0PcGeK+Ux9iiPsQFIpFuN3EOKyGShWB61InKOktA45rbAP2g5dpgSHuHCO2EiMY4s4Q94yFdzPA3Aa2gQ0McWeI+3pAKfmEBFMH8vKA8vIGBIMSxH1+3otAwI8DBxrgcPRiZGQUOp0ZlZWlGB8nBpYRoVBAwNndbr84lvZTqXSrxxoMBI62YGTEJoDtlZXn4HYXif2SAUvlazAsVYalMsSdIe4cD3YWDxjivjP7sf+x/SgfMcSd/WD7EPci6HRexAsN5/1Sy1YMcWeIO0PcGeLOEPeEQdwZ7rwfwZ485q2BYLcOcdcCKNgRrJfXaGtrlK7w83TxA4a4sz/vFGCeLlrYyTwY4s462oqOGOIeQrrA3hnizhD3jAWx7wRGzxB3hri/DCSp0y3BKV7HUj/vsqNGMrY5nUvQ6XYOo98JJJOPTX+oKkPcGeLOOt+ZzhnivjP7sf+x/ahpAkPc2Q+20jyDIe7UKCo97t8Y4s4A8y0DzEMhQKm0QKWyZeyxDHFniHu80EjeL37AJttqf9iKIe7xAWPZn/eHP1NTDCALQIXgCyZj3Rjinhw7J2Mt+Rp7t5YMcd872+9Hv2eIO0PcGcTOIPZ9DmLfSWMBhrgzxJ3BmVsBZzLwOb38ZesQ9xoAS9xsgKHcDCZ/Dmf3eBjiznkhvfLCXjRmYIg7+9BWalGGuDPEnSHu6lm2QQbbgCHuDHGPBZGVEO59AOrF3yJg993dNjHBUGmG+iYP5soQd9Yb621nemOI+87sx/7H9mOIu1Rxshbit8Fa6D9D3JeX968NGOLOEHeGuDPEnSHuDHEH0AEg/zmzi2H0OwHLpvuxDHFnfaS7j+82BJ8h7gyf3gp8mvUW218Y4s462oqOGOLOEHcGf2vANshgGzDEPT0ggBGYYQMMhsTBz5MBbI91DYa4q8E22H0bMMSdIe4M0d4ZPJkh7juzH/sf248h7omrWTOlbmKIO0PcMxbezQDzJ2AbPAFD3Bnivh8BljxmBp4mAlLNEHeGuHMs2VksYYj7zuzH/sf2o1zGEHf2g63UNAxxZ4g7Q9wZ4s4Qd7cFbnc1VKrkQ/Fcrmrk5CT/uns1392+7vKyBXo9vVXBQEy2AfuB9HbDi7XAEPeh593qSrGZrfYCbMxw7NSP4wxxT/01Yh2l/hoxxD311yiVdMQQ9/S5b8xqbDwafvq0D2p1EdQZDOUOBgG12sg2YBvE5QcMcWeIO4Mz4wdnsq3Sy1YMcWeIO2t6Z5pmiPvO7Mf+x/ZjiDtD3CULxK8Fhrh74XSmx/0bQ9wZ4s4Qd4a4M8SdIe4McccFtkGcNmCIO0PcGSq9M3gyQ9x3Zj/2P7YfwbsZ4s5+wBB3Jfz+9IGzu1xBMR+tVvHSe9Osw4dbwv39XdBogtBkMJTb7/ezDdgGiNcPGOLOEHeGyDJEliCymegHDHFniHsm+j2QuAYJwWA1Zme7kJOjQWGhBi5XBK6r1TZAp2NAM9tgif3A+XIb2O3V8Pu7oFJphJaCQT+CQc/zWp51lClw9njzEUPcGeLOEHeVjW2QwTZgiDtD3Bkiy/DQrcBD08lfGOLOEPd08mdACyALQMVzttnury9D3Dl/ZGr+SKTeGOLOOtqKjhjizhB3hrgzxJ0h7gxxh3sPbZBIsDtD3KkIYiA12yA+P2CIO0PcUwnMux/HwhB3hk9zw5SdN0xhiDvraCs6Yog7Q9wRDFrg9drA8HO2QSb6AUPc0wMCKMMMDYZ6mQUJhsPGD8RkW2WmrRjizhB31v7OtM8Q953Zj/2P7ccQ960BzFkzAEPcGeLO4O9tgL99vhB0ujDo4ccKw+P3tQ2Cwc0Bc/GC6LazX36+EisrmQft246ttNrNAYeVDHFngHmcAHPwfmCIO0PcGaK9M3gyQ9x3Zj/2P7YfQ9zzsRWAOWsmNvR/t+4rNoOQ83V3dg/LEHc/4PHkxg3vjhfyzfult00Z4s4Q93ihkbxfZoLOEwl8TjUfYog7Q9xTzSf3m94Y4s55IVObgCRSqwxxZx1tRUcMcWeIOwPMMxhgHgoBSqUFqgy2AUPcGeLOEGOGh24FHppO/sIQ992HfKeTvyQS2pwudmGIO+ePTM0fiYwHDHFnHW1FRwxxZ4g7Q9wZ4s4Q9z0EmLtc1cjJSR8YX36+DSrV4p5B4RniHh+8WyoUGPae6TZgiDtD3PcjOD2VxswQd4ZPbwU+nUq+m0pjYYg762grOmKIe/rcN2Y1Nh4NP33aB7W6CGr1LMPZ2QbsB2rjpjZgiDtD3BmIyRBZQqhmoh8wxJ0h7pno9zpdH4DENPyw210AbMjLM2J5uQg6XTRctx55eQxoljursK9lZp6JR29rodyz0Oks4OY87C8vqs0Y4s4Q930N4GaYugJsg53ZgCHuQfj9ewuyjwfOHi9EkSHuFxjivk/h7A5HB/T65MJcGeLOEHcGAu8Mos0Q953Zj/2P7ccQ9+Tm/XRoYDM9PSEaYMV7b8D7pa6tGOLOEHf42QZbtgFD3Bni/jKIMbAEYB5bgUvK54t17E7O53QuQafb3lj4WDVS1QYErzUY1NDp9NBoOkUjEtqWSEDui3x87yHu9NmE+nkHJvp3fHqT9lt7rLS+sbaxZjIhbuTmVsPvV0Oj0cPp7NxWzN5OjJidrUYw2IWcHA0KCzVwuSJwXa22YQ9idhecTrru5lpgHaVuXtir5gp7paN0g7jHm8u2E3P2yjdS6boMcWeIO0PcMxhgzhD3J2CIO0PcXwYTNpno19FDMBpdsNmmEAq54fNp4PcXYC1wkvZbvy0LQIXYT6EYQSikRTisg0ZTAI8nAuz0+7OgVFYgFPJBo5mG35+DEInz+bHpAjvmecSGtKrVK6iqOoqsLBuCwTLMzLjgdtMNuBZAxId2w37JgribzRVYWSmDQuGCyzUFl8v9Qh8PhyUt5OSMwOXSIi8vC/I20lE8dlEoVoRWw2HW0W77UDzrsRu+G33d3FyKnSswGI6Kz/kmJsrg8diw29el2J5MiPuLdBTRBz20ojgTO/e8LEfFspVW6xS5Khze3TiUCj60FYB0MvxqL66Rm6tFdTXVOUcRDidXR8mAuFP+sFi0yM2tgN1etlrXvSgfUW2mUkk1XPR6bMxHseo/HfLyCuBy+UA68nrX6nIv1jedfJwh7gxxZ4g7Q9wZ4s4Q9z2DrrsTbPtEQ9zr6s4DCMBmW0R1tQ1VVW149KgHdnvl8zdAZAg0FTnrt0Ug6VlZQwiHqYCpgEJRiWAwAuwMhUqRnV2NcNgJnc4Go9GDoSEGrGcKYP3gwSlkZTkg/bopcXms1mvPi+bd9YNkQdzb2y/Cbveu6qi8vA1dXY/gcNCcN8JrSQvZ2UMIBOjhr2QD2kY6iqcBQW3tFEZHHQgEdtd+8YwllUDJ6TqW8nIntFqzqGclHVkwMTELAqzv9holE+JeX1+NsTELcnIoH/ngdtfDar0dpY/x53qKnXtelqNi+cbZsxW4ffsD1lGGND0pL/chP9+EcJiyEHHikqejZEDcKX/U1PigUlVjZMSCcHgRR44ch9v9DqxW+gFybT4qKCjF0tKLc1QkH8Wq/6RaLxBwoqWlAg8ffsCNcxKoI4a4M8SdYe8Me98UdB4MAuo4gOj7cT+GuDPE/cVgWaCurhSBQBHm53sF5LulpQEzM0potYBCYQHwIebnvTCZ6qFWA6QBu92J0VEbTp5sBL1IRdvoj0IB+HwE5QyI89XVNYpt2dlAIHAAw8P/C2bzafh8y3A6JzE+PiOOY/Bt+tlgebkeWq0KZnM9nM4esc4GQyns9hmUl1swN2fD/HwfAoHEgKZf5EPJgbgDx441YnS0R2jB66X/bsD09AIqK41i7tPTNjidFlRWAsvLEDZ4+LAHCoUN9fWvIxSaRV6eBZOT9FYNBBh7dPSRAGeXlVUIjRgMpKOA0I9er8P8PDAy0iPOxzpKXxvU1anEg1+rtQd6PVBSUgqHowhm8zJGRmxwOPoQCu2ejpIDcR+F2WyG2dyI7u4eUN0SCulw5IgFg4M9aG1tFP4+NSX5O9lArzeK+n5k5D3o9Q0oKSlfp6M+5OWdRU/PFbS3n0MotACHA8KGfX09KC21CB2R/UZH/ayjBEH/UzGf5+XVo7JSBZ2uHo8f98BsboDDsYDsbElHnZ0UdxPX+CCWDZIFcafco1QqRbwgHSkUOtTXWzA+3oPGxkahgTt3elBTQ5/hLogcQw/yOjvfE3lraUkpcg1to3xEuYhqv56eHqGjxcUFkefonmly8grM5nNQqRYwPNyHmRm/CMR0XbJBtE1p28QENxWJVx8McWeIO0PcdWAbZLANGOLOEPeXQWTr6mYQDNaLB0/LywoUF4cwN/cYJSUTKCu7iAcPvo+Kis8gOzsXy8uXsLJyAXq9AgMDXrS25mJykrbp0Nx8GleueFFZaUNl5SH09YVW9wsEBnD+fCPu3r2Lgwdb8ewZ3YS/C4DBnulsg5qa/wNACDMzE/D5dCgqysf0NIHcdSgubgUB1oPB93bVD5IFcW9v12N2lrRwkR7lQqfzYGrKipaWRthswOTkKCoqjAiFlBgc7IDJdAEFBXMYHFSjpSUf9+51oLn5AtxuBQYHvaitzUV5eRhWawh1dQrcvOlFQcEAmppa8fTpVZSVncbTp174fLtrv3SA4e53iLako9sYHp6AQnEBtbX5sFolH8rLC+66jpIJcT99Wo979y7BZNIjHG4THQ9nZ5Vobc3HwMB1TE+XwWw2wu9Xwu/vQHHxBczNzUGpVEOp1MPnuwSj8QIWF+cwPKxGbW1km9Mp6a22dgZm8zE8eeJBebmCdYRMaPQwDrP5KFZWbsPpnEBFxQXY7fmw22UdTWB0VIdgsGPX8lEsKLfbHRSgbrNZkbDr1tRcQG5uicgNPh/lI0Cj8YrcU12tFX5PPzwaDEpMTz+GXj+BqqoLePhwQvzgQtoKhzvENqt1Anfu6PDZz+pFrVdaegEOxwSGh3VCW4FAWDTays+fw9WralRU7J799nsc32qtxxD3EFyu9Lh/Y4g7A8y3DDAnWLBGE4RGg4w9liHuDHFfC6ZcC76tqwvDZLJgeprensrF4qIf4XAXysoaxZtTvb1W1NRYkJeXg6dPbwkYd0VFC549m0Zrqwl37qzdVlnpQ1lZJfr7u1b3CwTmcO5cI8bGniAYrMHMjAc+3/S24fEMBU19MG8seHJdnV78KhyBmssw5t2DkCcL4t7ebhZviNAv08GgB4uLDoTD9AZWI8LhJ+jtzRE6WlrywW7vEToqLW1Bf/80ams1sFo70dhYh2AwF/39btTWhlFcXAmbzY/iYg+ePXOjoGAJra2v4dkzusFvQXf3NNTqOTidu2e/ZID2+RqbNTRwCn+x24kvSPF3vY52Nx7sLsR9bT46e9aMmRnprV2n0w6n0w2Vivz+Ap4960BfXxl+/ucN6Ox0wm6PaMbvdyMrywyr9RZaW5vFTbrX60ZdnRlOZxCVlX4sLNCn67QtDLO5FY8eXXqeo36EhYXaPYDR7+66pRKQOtXGUlOjxvi4Hn5/8vJRsiDuNLfCwqNYWnKK+55QyI6ZmSsoKGhAU9Nrwu+BBhiNOvT2dolPckkzAwNjsFgsePaMmHA9OHOmGXfvjsHrVYPy2927t9DW1oyuLmkb6UjOUbm5krZigd11uiU4xetYkWYmXMNtrn2GuDPEnSHuDHGHKoNtwBB3hri/DKZ55EgjRkbUa4DABPY0GmtQVWXC48eXYTK9jpyccYyOZoEgqMePG/DgwV20tn4Wd+58JBgs7e11YltBgQZlZYcwOOjC6dMGfPTRXfj9Grz5Jr2BZYfRuILl5WnYbF6GuO8ywDyVwMEmkxY6XQWsVoIlx4a97wb0NVkQ9/b203j8eHRN8wICTTc3n4LNZhc326dOvY7h4XFMT2ehsFCLqioN5uYeoqLiNDo7R1FbSzbSoLv7IQ4ebEROjhoLCy6UlRnw6NFd6PUa8UbXRx/Z0dJiwL17pC2GuGcCxF3WDOmIOIPkQ8nSCOhFHgAAIABJREFUUbIg7jQ3WQvrG4i88UYjbt60C6B8W9vrGBoah9OZBTpGo9EgP1+F+XkFrNZRtLa2YWbmPYyP+9DWRrpcweHDltVtpaWNKC5WixxFuezDD+8iJ4d1lCk6kkDnr2Nx8Rns9hc3pkl0PkoGxJ3GXFOjhVJ5GhMTa/ORwaDD8eOHcPmyDQUF02huPos7d2yigcGZM2149uw9HDx4HD09z7C8XIIzZ87j+vXviDhz5MhpjI6O4vjxNthskrYOHjyNQGAFPp8LRqOUt7gZQuIa0zDEnSHuDHFniDtD3BMMEt8KmNzlqkZOTvrA+PLzbVCpFvcMCp9oiHt9/XkMDAQQDM5ChtwSdD0/n/gIuZielmDbMqS6uvpV2O130dl5SWy7c4fg3E7QL+e3b19CQcF5GAznMTT0Ds6eNT1n8wTg8ZzH2Nh3odWG0dhYj87O2y8EXMeCXvO22KDV/WSXurpqWK0EX94INd+tbcmEuN+/71jTvIAg/Y2NTZiZWcHs7C0B1y0puQiHw4sDB15Fd/ctTE5+ANkuVVU+GI0l6OykbVJzBbd7Ea+8YsLQEFBQEMDSUgBW6yyamqZgMLSho+PRBjBvpjQHSFdg+8u0YDb7oFYnV0fJhLifPFmNe/fWxgi9vgInT/4mbt78roDWk46Kiy/C6XwV1dVeXL78LZjNTiiVkl1IR6HQECYmnCJHzcx4EQgs4vDhRgwPO6HXu+FwBDA0tIjz549jZWUR165JoPjdikO7DdrPRC1s16Yy6HxxkTr1vbgxTaJtmgyIO41ZzjOdnWvzkcFQgePHfxMdHd9FdrYNNTVnUVRUj8JCExYWruPRo1t49dVT6Op6AperEgcP+uBwDGF6WtLRo0cOtLUdR27uEILBbCgUWejooB8iSUekre/Dai1kHSExjVUY4p4+941ZjY1Hw0+f9kGtLspoKPd+BInzmKl9/N6A4hnizhD3WNBICXksgaHt9oBgjTidxKSS/tAnHAS7HRkZhU63DIKg5uU1AFiG3S6BpmUot/R3guF2IRSqFUDdYFCCuHd396GgoAihUBEcjl7BQiov92J5uQjLywxxl+0dL9hzv+0nw1xl+LTVOhMT8LpbEPJkQdzz8kpj+rPB0ACnsxd2uwS2leC4sXWk01HTBIK9SzBhvf4A8vIWhLYkuHspQiFi1hEoXic0u7zM8Gm5s+Vu+ZBOt7tw53g0Ha0jrbZUNMBIFhQ5Hoj7TscSyUdSo4f1a0nA6eHh3tX8RLkHKAIgaYv+yBqkBgmSXvpgMBDcvgH19QScfgSnU8o9ajXrKN1zT7QPUVMRgpHLf8iflpYWhK/t1Hfj0S9d92VQbslPpT/xnu9lzXnk2mw9TJ3mTQ12JJg6UFlJeSuiI8rTPp+Uy9bq6BwcjhkBcb9//9Hz3CPVcHQeykfBoBdut3/VzuvHlyw779x+ex/vN/OXvDyyfdHzuj297nHScW5Zhw6dDg8O3oZOFxaCWVkhoSsEQI63sQ3YD2JrgSHu6QEBlGGGlZUKZGenPvzcZNJBrz8tYO+BAIOmAYab6vX5cDjIDjokC8iaLIj7bq0vgboJkEtA6t0EDCdrPRgKv31gNkF9yR/0+nEBUk6WjpIJcd8NHZnN+QL2TvBugk+zji5gN+y8VUj1XsecZOvoxVDuCzCb90d9QI1GHj78ITiObz+Ox+v3DHFniHvGwrsZYJ4LtkEuGOLOEPdkAlRleDdBh+m6CwtXEA7TGycSaJpApgbD7sO7GQy9GRh6d8HfsSDuErg1AqROxholC+KeaChttP1yc6vh9V6B00mf9TIMV6fbXd9N9Fom+nzJhiLvLsR9t9eyR3DlyssJ4k466oJOR29FRuuI81EyYnGqXSPZOooFcV9ZkepTrZZi+25rgfLv9q4h56PycjUmJ+kHKDUk+23vfImOiel4Poa4M8SdIe4ZDDCnVrFKpYUh7moL5udNMBr3AopXBqPRBZcrvWDq6j2yaX4+fWZUkTSAb6JBpny+5AHMUwnivldjSRbEPVMAyKzfzNNvsiDuexUj+LojYBvsvg2SBXHntdz9tUxGHmSI+17cr+7OfXLW2bPm8O3bswiFvBkM5QbCYYlPk8VwdrbBpn5gQlXV3gHHCfbOEHcL3O5qqFSJARImGuLOwGe6IU0MdDPR0Fc+385h78mCuLMPsY62C5VOdZ0nE+LOOmIdpauOkgVxT1f7pXqcTPT4GOKemHumrTQdS+S9WvR1GeIetMDr3TsY+F5ByPm6O1tzhrinF+AwsbDP1IBVpgt0k+exEUC7l+BWCe5MPk6Q2vXA0wjUl9ctEeBgjiW7CXtfD2NOHPB583WTdRQbrivpaC91zvpl/W4Ffi5pJ+L3yfLd5EHcN9c0ayb1NfMyf0lH0LnTmV73atFrxBB3htYzuH8bzQsY4s4Q93ihkbxf8uDiDEHdfQgq+fN+h7gnC9TN2mftv8jX9jvEfb/BxRmwnp6Q+ampCfj9IWi1ChQWKrG8HIFUm80KsJ/uD5B9snIyQ9wZ4s4Qdw3YBhlsA4a4pyPEnUHO24WRpiPsM5mQ/njtFwvinmxoLtllv0Lc47Uz76dGOtsgFXS0OcSd8xHno+0DwvdKv8nOR7OzkVq0sFADlysCqU51iPterVEmX5ch7gxxZ4g7Q9wZ4r5HwHEJdM4Q90QD9FUqhrgzyD6LYf54uQ02g6CyjtiHGL6vxWY2eBl8Wq0uA+uIdbSZDyUDep3q11hc7IRCAbyoARDriHUUraPN6pdE31fw+Xav2RlD3HEJ1FWPIe5sg/j9gCHu+fk2qFR7C7JPNBjQYKgGsHPANcM+h553c2SIezrCk12uoZdqP7aOaiC99cK+wTbgGEt55mXw6cVFCzgfcf5Ix/yRyPg3Pe2EVrudfMS1nvSGeebFYoa4M8QdQYafsw3UsxlrA4a4px8Y0OcrgtnshdOZvycwUgaApj4AlNcI2AyCSjrS6yUd7SaAeyuAYV431lYq+MvyMsHZAwC8sNtfnkN9PiP0el63VFg3oF7m+4NjSar4ZHw6ysszirXjdWMbkB9sVr8sL69vTFME3paaNmCIO0PcGeLOEHdotUoBwnS50gvOTmDPrcyN4PwaTRAMA08ODJztvH/sHAzmY3lZB5frxdBcSW/5CAZ10Gii50afVBWAoeYMNU8WrDdVfS0YXAuajgWffrGO6McV9iG2AftBLB3FqvUKC/Ph863PR2y/TIXbM8Q9fe7zsg4fbgn393eJmzZNBkO5/X4/24BtgHj9gCHu6QZx1yAnRwNa19xcerVajWTDSFMRGp7JsE9eDz9kG9Dnf8Hg/BpALullPTSXtsk68niqYTB0welsAMOY9x+MmbWfaJC9pAWNhnXE8YDjwc7iSw80mrXAdjn3BINrIdWUo6iul+u6nV2X122/248h7gxxZ4g7Q9wZ4s4Q9xeCM/czuNDvn0Ju7uYQ3lSHm/L4fGAbJMYGfn8WXq7pKSgULhB8Wt6PdZQY2zPIOX1iMesofdaSdbk3a+nxaKFSSflIoXAjJ+fJSyHucj5SKKYA7M2Y+bojKWN7hri74XLFp5lU348h7gxxB9gGW7QBQ9zTEeIuQ+GNRhsUCrr5ZIgs2+BlfpA5YPJQqBTj49VQqWIDQEkzwCIIPh1bR5ljK9YMx84XNfLYuY4yE7ycSPB3JoKr08l+waAPi4ulq3km3lq0rIxyFMemTLcBQ9wZ4p6x8O5gkNq1GqHOYIA528AGhrinH8R9PaixsrIey8sQaz0xQf/uA8Nc2QaZ6Aekje2CTA0GCYDMOpI40AwTzkwbBIN9UKu3pyO9fhnZ2QwS5/yb2fnXbqcI2oe8PNYRa2F7WmCIOzXYSY/7N4a4M8SdIe4Mcd8S6DxdYe+FhRvhugYDwz4zFfa5OQQ6/cHkU1MRYHtsQG58QGqDIf1ttbm/cCzJ5FgyOhrCVpqKrM9HlZUKZGezD2WyD2V605PofBSrXounYQ/r6AKADmSqjhjizhB3+P2Ax5MbN/Q6Xjg278c23Q9+xRD39IO4xwJSMwCUoaX7HVq6Exj97OzLdf4izbhca0GhBoMGQAQKn8k23cl68LH704e2Aw6OpS3WEeejTIud1EAEmBf5IzofvaiByHqIO8Hd129jHWWujrYTi2P5EG+TGvbEo7fd2i/r+PG6cHe3DUplWUZDuUMhQKm0sA3YBnH5gdFIn5JaNgEb7yYorwxGoyttYHypDgtkIDUDqSV2ROrASHdrLASaViorEAr54HJ1xgXIja3faLC7FK9YR5nhQwy41mKtjkY2NDnYSc5jHbGOMiEfycB2pdKEubn4ge3xaovB7pmnI4a4M8R9i9BrIBwGsrOBrKyLfCzbYJ/7AUPc4wVnpst+DHZ3Ip1AsIkBmaYnmJxA09nZ1ZiaciI/fwgq1SLc7gicfTuadrmqkZPjAOuIdZQpEO0IsN0Jo3FoQ5OD7eiIG41wY5VMahKxXWB7vNpisHvm5SOGuDPEnSHuDHHPaJA9Q9zTAwK4dZhhPXw+QK/PTBBxJgLM0xGWKuHE+7C8XI+8POm/kgs3jVyXoeYcS9IDbh8A4IXdnszcyDpKx/icmTERIhctLydfR3KjkfSIQ9wsRLJA7Lwq1zlAEegfnS59oOZbv5/ZXjMEYHnbjRQSeSxD3BnizhB3hrgzxF2r2KYNLsBs3hyIOTq6cT/eNoH9bYMImHy/zkOr7dim328NSJ2fr8TKSmx4aH5+EJkOJ2YAvA771Qak/RfpaLug6a3A3mVwNeto//oQxz+pFiAdJVMzLlcQ1JRI0ls+gkEdNJoJzkf4/9m7F/im6vv/4+82TdMmDS2VUCi0RcWCIIi3oSJT8TIv/NxPNtnGpk43RZ3zMufwPnRuis7LptOf13m/ok5FtwnKvIu4ITAqKtcWCqX0RpK2aZrk/z8nlJsFTkrT5vLi8fDhzJImeefz/Xw/p7TPb+pmsLuDaawcBNCV/rx9rWWZdcdte5ZBxvDhB0W+/nqRnM6QnE6Bs5MBdWBhLYC4px7i3lVo0OVyyul0mgdaNDc3bz7YgtuMTFI5F+Nzb2tL7s/cbu99iDMUYs3QN1JzHe0JNB3rfsQ6Su4aSvX90sosYOxHPblm2tq2n2ONuZ5enNoZeL1cu+xY970Jse/JawFxD49QMFghEHcyiKUOQNzjCdQXyeNJHWjQKijK/ZLtM+cghbo6q2uVrKxnZTVT7pe+mW57QEJHHXR2G/s0+2qy7av0tfTta/Qr+pX1fpUxblxJZN68WoXDrUkOawPFG9+EA8vviQxA3K0imdwvdcBEPsvtP8sOmJxcdl/jZLVnCH4H3k2t7b7W0iEr4zAEqUlNTVvrqrPbqBfqxW4nAzIoExmQQartjRkjR46IfPHFV3I4+qY1yh0KSQ6HhwzIwFIdgLj3JFSb3NBgusGKvF9QUGBUcNiWFjIgA/bu3FwyIIPEQK+ZzZjNUmk2A3EHcQdxB3HvEcgZHLGrUHxsYDY590zOu4LJwTm3xznJqmdqkrWffjl3hl73HoQNTswaTL81yGfOZw7s3vPXKSDuQam5OWczvAxkD+YftHSgAYg7EOKe4IM8NigyIINkxUOpXWo3UWq3M/S6NyHsRMklVgSfNc2apnadIgMySJbeCeIO4q4wGcScAYg72CLYonVsMTWzAia3js2SlfWsQIzJqlRkQAYOBxmQgcHbUAdkQB3YbNtnAOKu2eYJhODnZGC9DkDcwWGBUdMdBQUmtw6Tk5X1rFINWmWvYK9I972CNU3/8/vJgAyaRAbdlwGIe6hUra2VAnEng1jqAMQdxB0QExAzlUBM6pl6pp6B54HnQddB10HXJTIgg8S+zgNxB3EHcQdxB3F3gVCCUMaGUAKTW18zZGU9K0BgsqIXx9aLWTOsGdYMayYYJIN0ygDEHcRdQTKIOQMQdxB30FfQV8BTwNNkAU/pV/Qr+hX9in7lFBmQgVED1EFyZwDiDmAeM2BuWFFZWaWy2yvT9rEg7iDuqQmTA0hbx5OByckKXBdcF1x3R1yXvTHdDzhhjrC+N5IVWTFHdGWOAHEHcZfIIMYMQNyBeYF50x3mBSa3jtKSlfWsAJ/JCui3+6BfZhVmlXSfVdhT2FNScU8BcQdxV4gMYs4AxD2xcT9AakBqQGpAakBqQGpAajBmMGbmNWZCZkJmwtSaCUHcQdxB3EHcQdxB3AWCGhsACkxuHQ4mK+tZAVKTFb04tl7MmmHNsGZYM+kEmPt8IaX7+wVxBzCPGTAPBoNyOkNyOpW2jwVxB3EHRQZFBkUGRQaCTW4Ilj5OH6eP08fp4/RxYPegCdsny1oAcQdxT1uIfU8wehB3EHeg2nSHakHcreOrZGU9K1BfsgL17Qrqy56c7nsyvZPeSe9Ml94J4g5gHiNgLkUiUmamlJFxQpo+FsQdGBUYNd1hVGBy6zAqWVnPCnCXrFIR3GVmYGZI95mB3k5vp7d33wEdIO4A5jED5qGQcWy0Rw5Hbdo+FsQdFBQUFBQUFDS1UFDWNGuaNc2a5vAHDn/g8AcOf+Dwh8S+zgNxB3EHcQdxB3EHcQdxD8aGoAKTW4eDycp6VoDUZAVIHVsvZs2wZlgzrJl0R83TDXYHcQdxT1uIfU8wehB3EHfwX/Bf8F/w32QBT+lX9Cv6Ff2KfpU8SDU9m55Nz955zwZxB3EHcbdXxpwBiDuIO2BsuoOxwOTWwViysp4VEDFZARGnC0TMHJHucwT9nn5Pv+9KvwdxB3FPU4h9TzB6EHdAVkDWdAdZgcmtg6xkZT0roF+yAvrtPuiXWYVZJd1nFfYU9pRU3FNA3EHc0xZi3xOMHsQ9sXE/MGYwZjBmMGYwZjBmMGYwZjBm5jVmQmZCZsLUmglB3EHcQdxB3EHcQdxB3EHcFS8EFcQdZBlkGWQ5Xv0FxJ3+Qn+hv9BfQnGb4RKxx4K4g7iDuDsVcwYg7iDuAJsAmwCboMigyKDIRg1QB2RAHQTNdcBaIAPqgLVgzMfxrAMQdxD3mAHzcFjKyiqVvQv4eao8FsQdxB18Nd3xVWBy6/gqWVnPCtSXrEB9u4L6sien+55M76R30jvTpXeCuIO4g7hnnBBjBiDuwKjAqOkOowKTW4dRycp6VoC7ZJWK4C4zAzNDus8M9HZ6O729+w7oAHEHcQdxd9TGnAGIOygoKCgoKChoaqGgrGnWNGuaNc3hDxz+wOEPHP7A4Q+JfZ0H4g7iDuIO4g7iDuIO4g7iHjcAFMQdZBlkGWQZZDm9kGWfj/dLBmGRARkYvb+76wDEHcQ9ZsA8GAzK6QzJ2QX8PFUeC+IO4g7iDuIO4g7iDlgMWBxPqJZ9hn2GfYZ9hn2GfYZ9ZnsUHsQdxB3EvQsYPYg7iDtgbLqDscDk1sFYsrKeFRAxWQERpwtEzByR7nME/Z5+T7/vSr8HcQdxjxEwlyIRKTNTyogZP0+Vx4K4A7KmJsgKtm0dGSUrsgJk7T6QlT0lNfcU4GrrfZKsyIo9hT3FbicDKxmAuIO4xwyYh0KSw+GRowv4eao8FsQ9sXE/MGYwZjBmMGYwZjBmMGYwZjBm5jVmQmZCZsLUmglB3EHcQdxB3EHcQdxNxB1s2zq2TVZkBUwOTA5MDtTd3TgxX6/7wWcyJdN4QOLUVe/VFYg7iDuIexcwehB3EHdwXXBdcF1wXXBdcF1w3e1xXfZG9kb2RvZG9kb2xnjujSDuIO4g7iDuAlEEUYwiimDb1tcCWZEVfaMr+CpwNXC1x0MGZABgbn0PJSuyYt7Ydt4AcQdxB3GPGaMHcQfcTU1wF5jcOiJLVmQFuAs2awWbZb9Mzf0SdN36HkBWZMV+yX7ZnfsliDuIO4h7FzB6EHdQUFBQUFBQ0NRCQVnTrGnWNGuawx84/IHDHzj8gcMfEvs6D8QdxB3EHcQdxB3EHcQ9GBtIDeIO4g7iHtuacbmyBKRLBtSB9d5JVmTFPsM+w2Eh3zwsBMQdxB3EHcRdYItgi/HEFkF9QX1BfUF92WfYZ9hnAO+NvYA6IAPqgMOw9uTaAMQdxB3EHcQdxN0EzEEyQdxjqQMQd+trhqysZ0UfIqtY+hD1Qr1QLxwmIZEBGdhs6ZMBiDuIO4g7iLsANgE2DWATmNx6HZAVWYHSgtJ2J0oL9g72breTARmUiQzIgOuyXc+YIO4g7iDuIO4CLQUtBS0FLQUtTWy0FGQeZB5kHmSeeY15jXmNeS3d5zUQdxB3EHcQdxB3EHcQdxB3E9iOBxgLeA9EHI+6Arimrqir+PRs1hZri7XF2orXTNgd/QXEHcQdxB3EHcQ9G1wXVBVUFVQVVHVPUFUey2ENHNbAYQ0c1sA8yTzJPBnveRLEHcQdxB3EHcAcxH0zAAq2bR0EJiuyAk8GDk4fNNfnq1A6IcG8X7/IgAw8HjIgg8Q7LATEHcQdxB3EHcTdbx2kTmVYEZjceh2QFVmBuIO4g7hXigzIgAMIwPeB54Hne/L6CMQdxB3EHcQdxD0XFBQUFBQ03VFQkHSQdJB0kHSQdOYh5iHmIeahxD7UBsQdxB3EHcQdxB3EHcQ9RsAcmNw6cktW1rPqDtzU5wvFDeTn9fFZgjuDOycy7kz/C4sMyMBYo6lcByDuIO4g7iDuIO4g7mYNgK+SAXUAvhpvfBXsHewd7B3snXmDeYN5g3mjq/MGiDuIO4g7iDuIO4g7iLstVowZxB3EHcQdxD3WvpF4GC5QN0g1SDXr0vp+TlZk1fuzD4g7iDuIO4g7iDuIuwyQGpgcmDweMDl1Zb2uehJBBV4GXgZeBl6m59Cf47HvU1fUVTzrCsQdxB3EHcQdxB3EXaCloKWgpYmNloLMg8yDzIPMg8yDzDOvMa+l+7wG4g7iDuIO4g7iDuIO4g7iHjf4G8Qd+Bv4G/gb+JvDFVIZlea9pTYazuebWJ8viDuIO4g7iDt4N4A5iHsITLOrmCYoNyg3KDcoNyg3KDcoN3MEc0SzyCD+GYC4g7iDuIO4g7iDuIO4g7jLFnMGVjFXwHvQ195HX8HKwcrByq32bO5Hz6Znc0hJ4h5SAuIO4g7iDuIO4g7iDuJubzIzsAqPApOTVSz1YrWuuJ/1uiIrsmINxrZvsWZYM6wZ1ow9xnk3EfsGiDuIO4g7iDuIO4g7iLtAQdMdBQVJB0kHSQdJB0kHSQdJZx5iHkrsQ21A3EHcQdxB3EHcQdxB3EHcQdx9IMtAtYkF1fJ58HkY+D11QAbUQZY5o7AWyMCoAxB3EHcQdxB3EHcQdxB3EHfg0bb4w6OA94D3gPeA94D3gPeA94D3YO9dn7lA3EHcQdxB3EHcQdxB3GMGzIHJrSO3ZGU9K/BksgJPBk9OXDyZwxA4DIHDENine3ufBnEHcQdxB3G3DFcnIuSXl1epVAAJE+F9AJNbB17JiqzAcMFw2XvYfxNh72Y2s74fkRVZsXcn/94N4g7iDuIO4g7iDuIO4g7iLtDSxEZLQeZB5kHmQeZB5kHmQeZB5tN9XgNxB3EHcQdxB3EHcQdxB3EHcQdxB8gFCQZKdoFFu8iAuZi52JyLWQuJmQGIO4g7iDuIO4g7iDuIO4g7iDuIu0DmQeZB5kHmQeZB5kHmQeYTGZkHcQdxB3EHcQdxB3EHcQdxly3mDKxCpiDuvQ2eAi8DLwMvW+1X3I9+xUEKHKTAQQrxmwn3vMeCuIO4g7iDuIO4+0EtDdQSmNx6HZAVWQHBJj8EC8DdKDIgA7udDMigTGRABslyyAGIO4g7iDuIO4g7iDuIO4g7iLsXxB0oHigeKB4oHigeKB4oHig+kaF4EHcQdxB3EHeQQqBGEHcQdxB3EHcQdxB3EHcAc2ZCZkIA8xhnQrD3nsXeQdxB3EHcQdxB3EHcQdxB3EHcQdxB3EMg7iDuIO4g7iDuIO4g7iDuwQqFw1JWVqnsXQCzeSz5BROshjye3sb9QJFBRuOBjFJX1uuKrMgqHmtwz3FTwHbAdsB21pH1/kxWZMVeBlrf29e1sfUhEHcQdxB3EHcQdxB3gbjHBlKDuIO4g7jHtmaSBYcFNQf0BrMGs6ZfWd/jyYqsenoeAnEHcQdxB3EHcQdxB3EHcQdxB3EXiDuIO4g7iDuIO4g7iDuIO4i716ZAICy3OyJ3F8BsHkt+3gSroVAo3KvAYV5eltrawoC7gLvdCu5SV9YRSrIiKxfQb6/ug6C51tcgWZEV/ap353bWIGuQNdh9axDEHcQdxB3EHcQdxB3EHcQdxB3EHcQdxN3sA22sBTKgDlgL2RxowIEGiXmgQcbo0UMjixdXKitrAMA6yDzQvsXDBkDcK2SzJQv4B7ZtHSglK7KKB+ZKXVmvq9ggU8B2wHbAdtYM/SUe+xZ1RV1RV4mK24O4g7iDuIO4pzTiDrZtHZckK7KKB8RJXVmvKzBcsorHGqSuqCvqikMn7HYyIINKpUIGIO4g7iDuIO4g7iDuIO4g7iDuIO4g7m4QdxB3EHcQdxB3EHcQdxD3BAO4QeFB4fcUhQdxD5l4eDKAhGDb1uFMsiKreKxp6sp6XQH9klU81iB1RV1RV8kxs7JWWaus1d2vVRB3EHcQdxB3EHcQdxB3EHcQd+Bq4GrgauBq4GpmQmZCZkJmwoSeCUHcwyMUDFYobBHv5n5kZdQLiDuIe2riyWDb1tFSsiIrgNdEBV5Tsz+DSlvvOWRFVvRn+nOyHDZFv4q1X4G4g7iDuIO4g7j7AV4N4BVs23odkBVZgSIDAqcChpuXlxqoL++jUWRABnY7GZBBmVI9AxB3EHcQdxB3EHcQdxB3EHcQdxB3EHcQd4G4g7iDuIO4g7iDuIO4g7hrT9Fw4PnEgudB3EHcfb7kycAqCgq2bR0PJSuyAlrdPbSain3Saj/lftZ7BFmRFf2Ufposh0PRr3q/X4G4g7iDuIO4A3YCdgJ2AnYmNNjZBrAOsA6wDrAOsM68xrzGvMa8lvbzGog7iLvCZBBzBiBtyPM9AAAgAElEQVTuIO6piQQDk1uHJMmKrECCQYJBgm02MiCDZJoJAbOt791kRVaJOeeAuIO4g7iDuIO4g7gLxD02kBrEHcQdxD22NeP3pz4sC6INIJ3qeDI1To1T4+xlvb2fg7iDuIO4g7iDuIO4g7iDuIO4g7iDuIO4g7i3gLiDuIO4g7iDuIO4g7iDuLcppTIAcU8ewBxs2zq2SFZkFQ9Il7qyXlfgsGQVjzVIXVFX1BVIOkh68ly70LN33bNB3EHcQdxB3EFBQUFBQUFB0x4FBYoPAsUDxQPFA8UzEzITMhMyEyb0TAjiDmAeM2AeDktZWaWy2yvT9rEg7skEdoJtW0coyYqs4gF2UlfW6wo0l6zisQapK+qKuuLQCQ5c4MCFZLp+2/m+BeIO4g7iDuIO4g7iDuJujw2kBnEHcQdxj23N9Db6Cj4NPg0+DT5NH7K+d5MVWSXqnAPiDuIO4g7iDuIO4g7iDuIO4g7iDuIO4g7iDuLOTMhMyEzITJjQM2HGfvsdHlmxYp7c7ojcbqktxbDtQCDMeyMDdXcdgLgnD4QIIG0dryUrsooH9EtdWa8r4FayiscapK6oK+oKxB3EPXmuXejZIO5yOkNydgHqDgaDPJYM1FkdZGUFAQ4BDhMaOASkBqQOAVIDUgNSA1IDUjOvMa8xr7U1kwEZpMxBLSDuIO5pC7HvCUYP4p5MCCCAtHW8lqzIKh7QL3Vlva7AtskqHmuQuqKuqCsQdxB3EPdkun4DcVdGzFC3FIlImZnisWSwQx0UafDg3sVrAaStw4pkRVbxQCipK+oqHnUFmmu9rsiKrFiDvTuLsgZZg6xB1qA9xkOQuqNvgLiDuIO4g7gDdgJ2AnYCdiY02OkFWAdYB1gHWAdYZ15jXmNeY15L+3kNxB20Hri/C4cXgLgnD4QIIG0dryUrsooH9EtdWa8r4FayiscapK6oK+oKxB3EPXmuXejZIO5A7EDsnULse4L0g7iDQYKkg6SDpDtB0kHSQdJB0kHSQdIBwgHCUwYIZ75P/PkexB3EHcTdXhlzBiDuyYQAAkhbx2vJiqziAf1SV9brCmybrOKxBqkr6oq6AnEHcQdxT6brNxB3IHYg9m4E+UHc8/Iq1RtoX1eeF2zbOjJKVmQVD5CVurJeV92Bm3alT/K8fEbxWPvUFXVFXYF8J8v1Av0qefoViDuIO4g7iDsoKCgoKCgoaNqjoEDxrUDxQPFA8UDxzITMhMyEzIQJPROCuIO4g7iDuCuVsUAAaet4LVmRVTygX+rKel2lci/mvVEH8egv1BV1RV0B1APUpxdQnzF8+EGRr79eBHQOdN7t0PmeIOmJ/lgQdxB3kMfERx75jPiMgPaB9rOB9oH2gfaB9oH2gfaB9lMG2gdxB3GPGTAPh6WsrFLZu4Cfp8pjQdyTCQEEkLaO15IVWcUD+qWurNcV2DZZxWMNUlfUFXUF4g7iDuKeTNdvIO4g7iDuIO729IQkAaSto4xkRVbxAHepK+t1BSJLVvFYg9QVdUVdpecMzNpn7afi2gdxB3EHcQdxB+wE7ATsBOxMaLATYB1g3Q2wDrAOsM68xrzGvMa8lvbzGog7iDuIO4g7iLsLBNVAUMG2rdcBWZEVcDBwMHBwesHBPh/vlwzCIgMyMHo/ddB7GYC4B6Xm5hwAczKIqQ5A3EHcAcIBwgHCAcIBwp0A4QDhAOEA4QDhAOEpA4Qz3yf+fA/iDuIO4t4FjB7EPZkQQABp63gtWZFVPKBf6sp6XYFtk1U81iB1RV1RVyDuIO4g7sl0/QbiDuIO4g7iDuIue5pmYBXxBNu2jn2SFVmlIoyal1dJnyQDUQeNZGAnAzsZiAzKyMCfeBmAuIO4g7iDuIOCgoKCgoKCpj0KChQPFA8U3xcoHiiemZCZkJmQmTChZ0IQdxB3EHcQdxB3EHeBuMcGUoO4g7iDuMe2ZlyuLAHfkgF1YL13khVZsc+wz3BYyDcPzwBxB3FXkAxizgDEHcQd5DHxkUc+Iz4joH2gfaB9oH2jBqgDMqAOghy4wIELKXHgAog7iDuIO4i7Uhs3BZC2/vmSFVnFA/qlrqzXFdg2WcVjDVJX1BV1BeIO4g7iDuKucFiKRNSNODZfj0xnJ0FdFWnw4Cb1JuALIA0gHY/6o66oK+qqd3u71QMXuJ/1tUpWZBWPvkZdUVfUFfslh0P1zsEvIO4g7iDuIO6AnYCdgJ2AnQkNdgKsA6wDrAOstwCsM68xrzGvMa+l/bwG4g7iDuIO4g7iDuIO4h6MDQoFcbeO65KV9axAm8kKtDm2XsyaYc2wZlgzQOffhM59vtS9DcQdwDxmwDwYDMrpDMnpVNo+FsQdxB0gHCAcIBwgHBgaGBoYGhja2AuoAzKgDrg24NqgZ64NQNxB3EHcQdxB3B3gplHcFGzbOvRLVmRF3wBFBkUGRU4NFNnn432QgV9kQAYeT+JnkDFuXElk3rxahcOtysg4QVIyINpg72DvvVmnIO55eb2D9nXleYHJrUOrZEVW8UBpqSvrdQUMTVbxWIPUFXVFXQGOA44nz7ULPXvXPRvEHcQdxB3EHRQUFBQUFBQ07VFQoHigeKB4oHig+L7MhMyEzITMhAk9E4K4g7iDuIO4g7iDuIO4g7grXggqiDvIMsgyyHK8+guIO/2F/kJ/ob+kLtjeGUYP4g7inrYQ+55g9CDuQI1AjT0DNZIzOYPlg+WD5YPlg6SDpIOkM3szEzITGn0AxB3EHcQdxB3EHcRdIO6xYswg7iDuIO4g7rH2jSIlA5AL5Jz4iDGfEZ8RvYR+an0OS62sQNxB64H7Yz68AMS9K5h6b4GEANLW8VqyIqt4QL/UlfW66q0+yfPyGcVj7VNX1BV1BR4PHg8e393XjSDuIO4g7iDugJ2AnYCdgJ0JDXYCrAOsA6wDrAOsA6znMq8xrzGvpf28BuIO4g7iDuIO4g7iDuIO4g7i7ksvBLUzGJXbwiIDMjBAaOqADKiDLHMuYC2QQaLVAYg7iDuIu1MxZwDiDiQJJAkkCS4OLg4uDi4OLg4uDi7OTMhMyEzITNhzMyGIO4g7iDuIO4g7iDuIuy1WjBnE3ToeSlbWs0otaBVoGmgaaJo1Tf/jwA8O/Ih1xqRv7KpvgLiDuIO4g7grlaFVAGnriCxZkVU8wF3qynpdpXIv5r1RB/HoL9QVdUVdAcUDxacXFA/iDuIO4g7iDuIOCgoKCgqa9igoUDxQPFA8UDxQPFA8UHwLMyEzYULPhCDuIO4g7iDuIO4g7iDuIO4g7iDuYL2AxaDNLuBqFxmk9FzM52vj803y6x4QdxD3mAHzYDAopzMkZxfw81R5LIg7YCdgJ2AnYGfPgZ2sN9Yb6431xqEJHJrAoQkcmsChCVyDgbiDuIO4g7iDuIO4g7iDuMsWcwZWkVEQdxBjEGMQYxDj+PVYq72Y+9GL6cX04uTvxSDuIO4g7iDuIO5+EFQDQQXbtl4HZEVWwMHAwcDB6QUH5+XxfsmgUWRABnY7GfRmBiDuIO4g7iDuIO4g7oCdgJ0JDXYCrAOsA6wDrAOsA6wDrAOsi3kt7ec1EHcQdxB3EPeUxgzz8rLU1hYGJ7aAE5OVddiTrMjKleQIqg+0nn3Bwr4A+Gy915EVWbEvhM1DgVgLZBDPOgBxB3EHce8CRg/iDiAIKg0qDSoNKg0qDSoNKg0qDSrNTMhMyEzITNhzMyGIO4g7iDuIO4g7iDuIe8yAOTC5dQyXrKxnBbJMViDLIMvJjyz7fBVxPBiEPkmfpE+mc58EcQdxB3EHcQdxB3EXiHtsIDWIO4g7iHtsa8bvL1Nvoq/Ay6DD1B9rkD5kfe8mK7JK1DkHxB3EHcQdxB3EHcQdxB0UNO1RUKB4oHigeKB4oHigeKB4oHig+IaEnglB3EHcQdxB3FMaWwTbtg5JkhVZxQPdpK6s1xXwLVnFYw1SV9QVdQUuHgySARmElAoZgLiDuIO4g7gLiBiIGIgYiBiIGIgYiBiIGIi45yBi1hvrjfXGeuMaLPZrMBB3EHcQdxB3EHcQdxB3EPc4grsg7oC7gLvpDO4CevtFBmTg8ZABGXAAQXfMQyDuIO4g7iDuIO4g7iDu9thAahB367gpWVnPCjSXrBIVzQXBB8EHwQfBZ49ij0qEPQrEHcQdxB3EHcQdxB3EHcQ9ocFOgHWAdYB1gHWAdYB1gHWAdYD1xAbWe2JeA3EHcQdxB3EHcXcBvBrAK9i29TogK7ICRQYETgUM1+dLDdSX9xEWGZCB0ZOoAzJI9ToAcQdxB3EHcQdxz44dEARfBV8FXwVfBV+ld3IABgdgcAAGB2AwEzITMhP23EwI4g7iDuIO4g7iDuIO4g7iDuLuq4hjBsCt3QG3AmGDQINA00voJRyKwaEY2jy3p2c/AHEHcQdxB3EHcQdxB3EHcZc9xgysYq4g7qCviYC+gpCDkIOQg5Bb3be4H/sW+1Zshxv15JoBcQdxB3EHcQdxB3EHcQdxB3H3AqP2BL7KcwDyA/ID8gPyA/ID8gPydxXkB3EHcQdxB3EHcQdxF4h7bCA1iDuIO4h7bGvG5cpSqsOy4MngydQ465xeZ30+ICuy6sosBeIO4g7iDuIO4g7ibtYAIDUZUAeA1IDUgNSA1IDUgNQ9B1Kz3lhvrLfY1huIO4g7iDuIO4g7iDuIO4h7HAHzAfJ4fALgBuAG4E5PcJe1z9pn7bP2wffB97sL3wdxB3EHcQdxB3EHcQdxjxEwBya3DrySlfWsehJBBTUHNQc1BzWn59CfwcoTFytnn+58nwZxB3EHcQdxB3EHcQdxB3EHcQdxF8A6wDrAOsA6wDrAOsA6wHpXgfWemCNA3EHcQdxB3EHcQdxB3IOxgdQg7tbhUbKynhWgLVl1BbQFjwePB48Hj2f/YP9Il/0DxB3EHcQdxB28G8AcxD0E3g3eDd4NJgwmDCYcGybMmmHNsGZYMxyC1LOHIIG4g7iDuIO4g7iDuIO4g7iDuPsq4pgBgC+AL4BvdwG+oPCg8KDw7CnsKem7p4C4g7iDuIO4g7iDuIO4g7jLHmMGVvFfEHeQYJBgkOB49RerfYj70YfoQ/Qh+lBl3Ga9nuyxIO4g7iDuIO4g7iDuIO4g7iDuIO4g7m4QdxB3EHcQdxB3EHcQdxB3r02BQFhud0TuLoDZPJb8vAlWQ6FQbOBzd8OKoMjWoUayIqt4oJbUFXUVj7rq7r2Cr2e9TsmKrFjTvTvbsgZZg6xB1qBxIMXu6gDEHcQdxB3EHcQdxB3EHcRdIO4g7oDUgNSA1IDUgNQ9C1LTd+m79N3Y+i6IO4g7iDuIO4g7iDuIO4h7HAHzAfJ4fAJeBl4GXgZeBl5OX3iZPYA9gD2APaA79gAQdxB3EHcQdxB3EHcQ9xgBc2By6yAwWVnPqicR1Ly81MBceR+NIgMysNvJgAzKRAZkkA5zBIg7iDuIO4g7iDuIO4g7iDuIO4g7iDuIu0DcQdxB3EHcQdxB3EHcEwzgBoUHhd9TFB7EPSQryJ7P1/v3A9u2joKSFVntDs7sypqmrqzXFYgxWcVjDVJX1BV1tXsYuiv7G2uLtcXa6vm1BeIO4g7iDuIO4g7iDuIO4g7i3gbiDiYMJgwmHBsmzJphzbBmWDMcfNCzBx+AuIO4g7iDuIO4g7iDuIO4g7j7KuKYAXBrd8CtINAg0CDQ9BJ6CQcBOJjbN8/t6dkPQNxB3EHcQdxB3EHcQdxB3GWPMQOrUCiIO4i7nx5r9lira4b7kRX10sSaidOeTH+hvyR7fwFxB3EHcQdxB3EHcQdxB3EHcQdxB3EHcQdxbwFxB3EHcQdxB3EHcQdx156i4cDziQXPg7j3Ps5uFc4EkLYObJIVWcUDI6WurNeV1b7G/cg0HmuVuqKuqKueB6nB48MiAzIwDgezWgcg7iDuIO4g7iDuIO4g7iDuIO4g7gKkBqQGpAakBqTuWZCavkvfpe/G1ndB3EHcQdxB3EHcwSBB3EHc4wiYD5DH4xMANwA3AHd6grusfdY+a5+1D74Pvt9d+D6IO4g7iDuIe0rDsgDS1rFKsiKreMCe1JX1ugLXJat4rEHqirqirkDh43VQC/2F/tLT/QXEHcQdxB3EHcQdxB3EHcQdxB3EHcQdxB3EHcSdmZCZkJmQmTChZ8KM/fY7PLJixTy53RG53VJbmwDHyYA62M1aAHEHcbcKDSbT/cC2rQO+ZEVWYMdgxwY6Sx2QAXWQPDMhBxVY37vJiqwSdX8DcQdxB3EHcQdxB3EHcQdxB3EHcQdxD4EJgwnHhgkDcLNmWDOsGQ4+6NmDD0DcQdxB3EHcQdxB3EHcQdxB3H0VccwAwBfAF8C3uwBfUHhQeFB49hT2lPTdU0DcQdxB3EHcQdz9AIwGwAi2bb0OyIqsehotzcurFAgvGVAHjSIDMrDbyYAMykQG6ZkBiDuIO4g7iDtgJ2AnYCdgZ0KDnV6AdYB1gHWAdYB15jXmNeY15rW0n9dA3AHbAdu7cHgBiHvygJ1g29YRSrIiq3iAndSV9boCzSWreKxB6oq6oq44bIDDBpLn2oWeveueDeIO4g7iDuIO4g7iDuIO4g7iDuIO4g7ibvYBYHIyoA6AyYHJexYmp+9a77sg7iDuIO4g7iDuIO4g7iDucQTMB8jj8Ql4GXgZeBl4GXg5feFl9gD2APYA9oDu2ANA3EHcQdxB3EHcQdwF4t5kZuD3WwMxQdzJKpZ6sVpX3M96XZEVWbEGY9u3WDOsGdYMayYVDoMBcQdxB3EHce9WFFTqK6lWbnfpFnS4s9tygTiBOIE40x7iBGdvBWcHZwdnB2fv1jmM+aqF+Yr5KqXmq+h1VF/2is17BYg7iDuIO4i7uhMLdLttcruzFAiE5XSGVFU1QSUlcxUK5SkQcMvprN5ym5QnyS0pnre5JPWJ83P0xPvoiecgK+s1SVZkNVfWM+iJ9ctz8HlQk8a8QR2QAXUQnb1ZCz2fgTRB0vbPa/U245rJ7Z675TrK6w2prY0DCHY8gADEHcQdxB3EvdsQ9379gvL5hsntrpMUlFQmySGvdxO3kQF1wFqgH9AT2RfYG5kPmJGYCZkJU3omdLs3yev1mjNP9C/qHersNmmTpOg1U319mQoLF8nr3XodVV/frGAwKLsdUN44VKDjYAEQdxB3EHcQ9z1E3Ivl8QRks62WZPxUSoakYkkBSdxGBtQBa4F+QE9kX2BvZD5gRmImZCZkJuzKTBgMZqiuLnq95fMtiOOhO8mBzIO4g7iDuIO4W4arOwNACwvLFIl4lZGxcvM3rfpv/ht2428eEuG2IYr+DUcivBbjJ9ISJZfOXgtZRX9q0MpnRFZklWi9zmrtcj/rtUtWZMU6l8iADIxvPFEHvZVBONxfmZnR661w2LieaVJTU/oeSgDiDuIO4g7ivgd4aLlyc2X+MX5S1u3+SlJ59AZuIwPqgLVAP6Ansi+wNzIfMCMxEzITMhPGPBNGH7DjtVWVQqEWORx99+D6LbkfC+IO4g7iDuIeM+Lu9xuo4DeBSKtIYc/ebyu23bPPuxVUTp7nJattwdNdf25kRVZdQ1qTpx8kYw/jNVtfl2RFVvSwrmLb9PFqkUHvZbAt9t7SEpbPF9KO0Hkq3wbiDuIO4g7iHjPiHgp9ExoEbAetB+7n8AIOcODACg7t4OASDm/hABtmQmbCdJ4Jo2D79jNhB+JeWOiQw2H0CKNGnAqHnSbUXl+/RtL2iPuu19ESOZ1O+XxBtbU1KxQKmtdzHdB5Kt8G4g7iDuIO4h4D4g7YDsYMxgzGDMYMxgzGDMYMxtwVjJn9g/2D/SO99g+bzaucnIAGDiyW01mq5mbJZqswr78jkUpJpZt/tbBCkl+rVxfJbs9Qc/Pue2wkUqxwOP1gdxB3EHcQdxB3y4h74oPtwOR7Bu4Ck1vPj6zICtC2t0BbnhdQOfrNI9YgGVAHrIXEPqRp773XyvgmlnSCbLZWhUJNysgoUiQy27xNajVRdqlo8zX5CcrMbFR1tVfNzbt/bwbs7vevlN3eJL8/PWB3EHcQdxB3EHfLCGBurgeEEoQyZoQS4J9DDjjUgYMtONyDA0445IWDbjjshwOPUnkm7EDXW1rKNWiQXW53uez2jp+yqpXkkdttzITR23Jza9XSsv1tUvR+xp9ly5Z0grh/s4bq66sktSg3N7lxdq+3wdL7AHEHcQdxB3G3hLiXlNiUnOAp2Lb1z42syCoeqC91Zb2ugLXJKh5rkLqirqgrwPYJIoOeyWDo0AKVlERUVRWWZFw/GT9llbPL25xOmwIB4ye0tr9fVVWrAoG/7/IarKamWm1tYblcNkvXdMl+PxB3EHcQdxB3S+CfyzVMbrfxI7AOSW7z37FhvXvy2OTCsaVNkpLrNcf2WfLewMrBylkzse4B9A36Bn2DvkHfiH1+pncmS++sr29WYeEYDR1aIimkwkIDZ8+RVCO3u0heb9duW7Zs426vK2pqFsluB3FXVlap+WNvBjIWDBrYmLiNDKiDYIU8HsnhKI0BPy+Sx+OXz1chm607HjtAHo+vG7/e7l5fkfLyjG9cFWtP0VKbbbXCYZcikdTEwJubXXI6U/O9AY+mFzwKUr17QLU7eiI5k/Oe7qvUEDVEDe35fMo6Sq91lJPj0ujR/XT00aVasqRNc+fOk88XkHGd0tV513hsaekxstnWbsHZOwPbO27LyqqU3b5z2L3jfnV1laqvN64tdv4ZGdcfra0Zamvb3TVdd1yH9u5zgLiDuIO4g7jvEnH3eIzf0zYaevdgqRkZKxWJ9CS62bPYdijUfVlJu8cbJeMn27rrfj2bVXLDo2QF4t49PbH71m9nh1hwm/U6JSuyYk2DwvfkfErP6c2ec+KJo3XhhacpM7NJq1eXau3at3TrrS/LuE7p6ny6994rZbMZNbQVZ+8MbDduq6ycrfz8MvXtW65QSMrI0Ddg947HhsMnaMWKRu1q5jeuP5qa+ls+mMvvL5Pd3qi8POObaMkFwIO4g7iDuIO47xJxb21tkNvdou7CVy+77FxlZLTqrrue6REMvLx8pAoKpMJC45jaHLW0fKV33zVQRGuwdhRbNO69c3zVbrfrZz87R59++g/95z9zlJtbrhYjMovPYdwvEJBOOWWY2tuzvvH6CgvLVV5+oAoKcvWPf3yy3WvZ2evbEu7m/7H1ftEbMjNl5lJfv/17M+5XXb09ENnZc8Ry245fL5ZcUhn75L1ZW4PUS2y9hLqirlgzrBkOTeDQhO6a21NxT8nMtOvGG3+rsjKjTr4y5/b6ep+uv/5SLV/uVVcPGygqcsvt7hxn7wDbjbX5xRdL5PV+JWO+79dvmEpKWhQFzHf+WK+3r1at+tK8JtnZ62tpAXGX2x0xpfy2uEPnOWpra5XXa+Bl4R583p54bzxHz9RQz+YcCvUulJeXl2VifT5fSMFgfF+L3x9SUVH3oYdz5y7TsmVhnXee4WjFF5Y98sh6TZr0GzU2tqqhoU2hUESFhXnKybFp+vRpCoeNUzusvLdBqqpyq6TkmwhqQcFa9etXrcmTp2vRoirdf/+iTu+3OzjT5QrpzDNv0fDhuZo16zUtXvyuDJSxqmqCjjtug6ZOvVarVkn33POjLa85FMpTIOCW01m9y/dh9X7RH5nuIyn6vJ293929D+Ox1jJN9vsBk1tfv2RlPav49kTWr5V+n+y9iRpivQG20+vodbuaRbOy8nTTTTerqGig2tomyOWaK4fDpl/+8g/asOGzmOdYY84uLJwgj2fXYHv//hG9//48bdwYRdfz86PoekHBISoq6icprIKCHPN7IQYAvy3sXlwcfWwksvM9qrFxrnJzs8xrw564Ruyt54gv4u6VgoVSc3OOgsGgnM6QnJ3eVqRgYY2F+3Xy9boAcG95LTxWTjLoUgZZWUETPjf+CYWCamtrNv+direFQmUqLHTI7d4kr7drkGQUNY8i7sbvmFdWfqSzz562W5Cwq9BlfX30NU+depJKSvbRbbfN0KZN2XI6F2nEiLP17W9P1htvXKEvv8w2X9PRR4+W2z1c0kLNmrVI0iK53cN0xBHDtXZtUPn5B6uwsE1ffbXA/EcybjtI++47RsXFfVVTs1AnnDBOixYt16xZ98nrNcD7aFZG/zvyyKHKzx8up3O4gsGFmjMn+hzb3s/lOkg/+9lZ2mefXK1f79eDD/5ey5atMTHI7353nI49dqzWravQjBmvmq954MBNGjNmtIJBh+rr+2jx4oWqr99oQvuHHTZGdnv0NVdXL9D8+QvMHlxUFH3Nxn2czo1aunSRVq6Mgvzl5aNVXh7N4N//XqMNG4JqbNyoggKvjjhijMLhgxUMGt8ErFO/fhu1ePEirVvnVlGRQ8OHj97hvXXUS/rA/cC8wLxd7VfRX6EgPzKgDlgLQZEBGRizI3UQvwyM65mWFq+uv/4G7b33MQoGDfx8mByONfrlL6/Q0qXZ5jVEbHOdVyNHjlEgsHOwXSrSl1++J58vOo+vWfORBg7cW/n5dVqzJqji4oNM9H1X2Htr6yKtWbOzg7SM6wqnMjJS/9o0Y/TooZHFiyuVlTWg28B2T1iq2wkA77BXyhYeIZ8BYX/jfuvlCftUt8Nr2dXXA5kH2u+NwwbSCXEPBtfLgA6l2GHy1tbVsttdyskpVjAYxQfnzn1KgYBf//M/31cwGF9084wzJuuQQ0bqscfmqqrqYzU3BxSJGI3f+CmjgDyeGl100S3y+dpVXb1M5eXfU0PDQ/rjH/+psWMP049/fLNWrXpJ7e025eTYtddeg/WHPzytYNCna64Zr0hkhOrqvtKgQfnKyTlWc+ferhdeeGc7xH3w4H4677zz5PO1qL39aw0Y8EN99NHteu21d5SVlbElA5erRpdddotaW1dq4MChevjhf2rp0o/N1zlt2h0KBGrkcBRpxowL5HS69Otf36E1a6rNXz0sL1+phoZsPfTQexoyZJimTPo1/hwAACAASURBVPmNamvfUHOzXfvtl69PPw1rwYLndOqp45WRsZf5/j2eTWpuLtLdd1+jESMKdPLJxk+qVZuHdgwe3KhXX/2LPvusVQMHDtPUqb/Rpk1vKBCwy+MZrI0bW/T440/I6WzUeeddLp9vo4LBGvXv/z199tlD+tvf/qmwcepHN6D/oKrphaoCEce3J3alj7MGWYOsS9Yl+3nsMzC9M/F6Z/SgJbfy8vrp6quv05AhmbLZXHI4MlRV1Vc33/wrbdhgzN6xXffYbMUqLXUpO3u9OUdHIpVyOrfi7D7fCG3caPwFfrHGjHHJ5VqviooVGjBgbw0atJ8qK32qqVmgsjKX3O7i7R7b8fWMXy9ct65efr/xF+mdvz7jWquurneB9e47sGzn76PbEXfjm03rI1FfxZ4h2Y1fEgpL9ojkz5SajPUvyRMu0vpIkzIzW5VhItqN8oTnb3msAZlF77f160XvN1vhcJEi2z3WuM2Az6LPu/V+3EYu8aiNIg0e3LvYnc9XpuzsnoH3DMQ9ChLGjps6nSt1ySU36aijzlCfPq2GvKS99ioy1/HKlSPVp4+x0DP1z38+qFtvvVOhUOzPsSsA2eEo0y9+ca2Kiw1jyq9Vq97+/99gGaQFC/5j/kTYhAkFOvXUC3XddTcpGCyU3R7Rddf9TI89drny88frJz85Q0888aEWLHhZQ4Z4dfbZD+qxx55Ufn65zjlnrH7/+2mqq8tV//6Hatq0G/X221fr1Vf/sR14P3p0hsaNO0AvvfSh6usHa+LEb6mkpFD333+TwuH+CoejiKfLValp027RJ5/8QyeeeLpef/1Dvf32yzryyLE68cQxWry4VEOH5mjGjF9q/PjxOvbYMZoxY57a25tUXBzUhRderpdfflHjxp0ghyOgp566TdXVXpWUnKympnbl59do6tSLdfvtl8rv7yun8wANGZKjioq5OuaYo5WbO1xvvvmp2Yu/852xOvroRs2Y8ammTLnC/Cmyp566QuGwVxdc8KAikRa98MLLOv74ISoqatZf/vKpIpH+OuywQ3XyyaM1Y8bl8vuNbxKmMlAK4m798yUr61ml8prhvVEH3bvHd2Uu4dCE7jz4hTXNmk6uNW1A5/vuW6x16wbpoosu0jHHFJp/UZyR0V8tLUX65S9/IafzQ1VVBWK6JrHZyjRkSECZmcb3KGabiLtx6nwHzt7ePlvLl/fXPvuUmddUGRmVWrasRoWFJ8njyVJ7u9TU9J42bgxo6NDtH9vx9aRWrVtXK79/58i8cV2xdm3y4uxWQfluQ9xzHbVSqFReb6WMn29oyfVox9uUa/wfBjwmtXqlkPFD87lSi0Nyh6RqAyUzHyvlOrTLrxd9rEeOLgDcRjE5HDyWDLpeB0YNSx5JfeV2G36bAe+1KDc39fC8KOJeolxjrcYIk7tcbl1zzUUqLz/EfLzxp7DQrYKCVi1ZYvz0kMeExN99d57uvvs+ZWW1xPwcnWGG0Wf6Si0t5Ro1yvh1vhYVFBRr//1LVVIyQps2tej55+/TgQcergMPHKeqqtrNvaREBsA4d+4sNTa26OyzT9fjjz+qxYuN3zeXbrllul544QkNG+bW8OGna8aMO8wfQ3a5cnXNNbfq449f1KxZj24H3ofDbp144vEaPrxYjY0N2n//41VV9YkeeeRqBYN7b7HWO7Iyfr/d4SjWoYfm6N57H9VZZ12hZcv+beKSxx8/UddfP13nnHOF+auRGze+q8ZGyW6XRo0q15w5H6iqqkFTphyvykqpqqpKVVVLVFVl1GaDjj76dJWXl6q+vlYbNlTrrbfmqKqqQqNGHa8jjxxofpNy4MAStbQ0qH//Uv35z/fpuusu0quvfqhXXnlFBQWVOuWUi3TggWP1wAP3acqUM8z7GV/D4ZByc0tkvI+//vUOVVWZ8r3Z70HcQaVBpUGlQaVBpUGld34YDOuD9cH6iN/62PYgoyee+IvOPfcXuuqqaeb1SQfi3tjo0/Tpl+qCC6br4Yd/rw0b6i1fkxg/QGNcYwQCO4fYW1pqlZvrMedi4/slCxYsUlnZ3iosHLl5Vq7cLQBvPG7Zsp0j8yDuXcbUo6dp5bsl12YAvtn4ZlVI6lsg9e2bIwPAbvGGFGgzwHabcjdmqblfq2rrohfIxgdr/BNokxq3g907w94B4FMRSU90zB/E3Rpya+Diy5ZNUHHxVlC0A3G/8spD5HYbWLiBkA8yMfJQqHvhUbt9g8Lh9fJ6s9WvX/Q5jj3W+HW5M/Tii3dp1KjD1bfvkZo9+xnl5dlMUNHrDWn58rAOPDBH3/ve93XnnXeqpsb4STG37rzzPL3++gvae+8jte++dl144WwVFr6pnJx+uuKKu7Rw4WffQNwnTvyhhg4dpYULl2jVquWaOPFI5eVl6s4731Yg8PctkL3LdbDOPHOSVqyYpffee1+XX36X5sx5VWPHTtAnnyzXgAHrdOyxE3XFFXfqnHOmyO0eoAULXjBfc3NzSP36HaeVK+dq1aq5Jro/fnw/9et3qIYOLdCSJa/p739/V01N1eb/d9xxB+uYYw5RVZX029/eq7PP/on228+hN9543TxIo6CgRAccME6PP/6srr76R7r//ru0bJnx01kTdOSR/XTqqSfpllt+q1/84mbz/u+++8qW/GpqQvroo7CKi7e+t9SE3YHJrUPJZGU9KwBusurefRDMGsw6PQ5WoXfSO3fdOzuuSV544TzzsKSSkoN15JFlam+foNzcuQqHN+mWW17Tb37zQ02bNlP19S/HdNjUmDETFA4bB9K1KhTKUUnJNyH2jtskm95/f5ZGjizXgQfuZ4Ltxm3GT1kZJ6bv7LGffjpPfj+IexwQdykYlPKdkn0z2J4TkqYcf5hGHJqtffsXyW5fJDWXqdC4o9MpX8SlZu96vfx2g/75zwrV50hu4y/vC6U12wHwnWDvziLTXtkOigcm7xJMDm6/zWEDu6mh9ELcm01IPAqxW0Xct8W7O7Dy7RH3iy+eJq/x41MyftwyChJui7133BbF47uGgf/kJ+PU3n6A3nrr96qvN55jkYYOPVQXXniFnnvuIYXDB+nEE8fqscce0rp1S0y00fi1ww0bPtIhh0zU978/SY8/fp+WLPGZr+/223+lN998Qi5Xhg488Ezdc89Ubdo0UPvs064rr7xOb7wx30TcDQC+A7y/4Yb/09dfz9Kzz36m4mKvTjvtYoVCDj3++NWqq9t7C/ZuIO7XXHOWXn11kaqrX9KkSZcpOztHRq3dc8/9GjfuUE2YMFFXXXWLTjmlVMce+2NdeeUV5uuy28s0alRQX3/t1NFHF6i+3mFi9IMHO3TyyWNNWPKZZ16WyzVES5YsVJ8+G9Wnj0cXXPALvfbai+Z7/frrRfrHP14wMzjzzF/L6SzUo49O19VXT9fSpR/qD394z4QuL7/8eh1wwN669dbbzJ8sGzx4qB555H7zMzKA+JycIVq69GGFQsZPl3Xtc4sNzrRak9yv42ABcNj44bDUbqzwLeuSdblpyz5Ib6I3AZjTE+PdE6dN+5UGDPDrL3+5X0ceOUnjx++nBQs26vXXH9IRRxynsWPP1A03jNf69QNj6E27R9x3xNnnzZul/fYbrcLCQSbeXm98A0Q1IO4WDkWLC+JuuEt9s0pVlLtWp044RpMPflvl5UVqq3OozVFs/u5ntm+BbB7JUVeqOscAeWw++bLbtGRjQP96OaSZ86vV3CyttMn0rXoD6uZ5K8g+2HkGIO6rYwYOOwBQA3FvaPBr0qTvxx35PuWUyTrggLHauFFqb69Q//5+OZ2Haf36VXr++X/KZmvTxRdfpHXr1pq/bjd+/Pe0adOX+vOfb9WoUQfr6KO/a4LkK1a8oXDYpeuvv0Pvv/+05s6t1I03flutrdlaurRN5eXjVFg4QrNn3645c97ZDrz/6U+/rTFjxmnOnEodcECpsrPrZbMVau7cv+jDD2sVDEZB+T59anTJJbfos8/e1QcfVOjwww/TxInj9eabs/TGG//S+PHH6KijJuqPf7xGo0aN1nnnnarKSoeWLp2vwsK+Gjx4hP7610c1cuShGjt2tFas+ND8/ft99inRsmVhLV3q13e/O1IrV87XypXLtO++P9K++w7Q889freOP/7n69q3T8uVVKi3dX8HgFyoqGqdXXvlQa9Ys1fnn36EvvnhIOTlSScm4LYh7cfFqff/7N2rt2nUKBqtUVLS/AoEvdd99r6mtzRjEgW/JAPgWOD02DJc1w5phzbBmYkW06Rv0Dat9o7x8pC666EGtWfO5Zs68XXV1VcrNHWr+ZsKRR/5cM2f+Sh988HnMh1cNHOhSnz6dI+47wu5SxRbE3fgVQuOPzWZcc34TgO+4LRIp1dq19Wpt7RxxN4B6ux3Evcsg+uCIZC+ULpp8gk4sD6i0+EvZ1wfkz+wvf0aZ7PIqL7xS9kiT/Jml8mWUKVuNyvOsl93u1crVZfrP5/01c+ZsfdoC4g7EHg+IfU+AfxD3PUFQH330z2pubtTFF18cd+Q7K6tMo0cfqMGDD9OAAZWqqWlUff0i/fvf/dXcXKsBA9Zr06ZWHXfcicrMPN48HGLhwru1enWdystP0H77naD3339WXm+FIpGAxo8/TevWNWjZslrttdcGHXHEUbLZyrVy5SLzsQ0NfbVmzT+2A++zsjbohBOOUlZWuVasWKTly2t1wgmHKhJp1JtvfqhweJD5k0qZmZU67rjjtGhRhTZujKKSxx03RO+997qamw0rbIy+/e3xmjXrNvP+gwbtq8MPv1TZ2U3y+ebrvfdmq6mpr3JyBqu8PEP77DPaBNnr6spk/Mixgb3vv/8GDRnyLWVklJvo+rx5z2rjxgplZ0snnfQdE53cuHG2Kio+0LhxR5n3mzXrPR1xxLe0117GCY6N5md2xBH99Yc/PKrm5pUqLzdOQfylMjNLtWHDHFVXf2jml/q4LjC5dbyWrKxnBYpMVsmFIkdPKOQ1kwF1wFrYOS6eWOujWB7PYbrooos1dKjxmwK1am7eVz7fYM2ceZU+/fRthULG7bH1NeMHdPbZp3PEfUfYXZq/BXEvLGyX1KSMjF0/tr29VatW1Wpn12AGUG9g9CDuXYDO7a2VKnBLl0wZoVOGDlOBu0Xe1n+YSHuLw2Mi1+bvdxrodahFcvSVHLVyGwB8a+Vm2X2E6u3DtG7xl/rhXRUm9h7OlepN7H3r/XK78PpaWytNjwvAnAz2pA7SCXE3gPqCghYFAuXKzW030frq6jy53V3DFg3k2/j98PZ24yd0ot6d+RuC2vr1dnZbVzBwA4k3PuvW1ui//X4DGzc2CwPfj76P3NzyLf5e9LVE/xQUDFMo9OXm12c8bqvTt+39doWVd3wt47EOx7Zfr7P3+83naGz8Sg7H1uyN12z8iX69doVCrWptzTPfm/HN7j592k0cf+NGA9/f/r0ZP4kWfdy2IH+VidxH8dCOXKJwv/Fn3LgD9e1vH6/HHntRLS2V+slPJsvhKDGh9vp6yXh9Awca+UUfGzUYtn9vXfncAG0BbQFtu9ZjOzvYgts4SIGDFDhIgX2VfZV9NXrAkzELG9caQ4YM02WX/UizZv1LL700Z/NMbczAHXPx7vtGx9cz7jl0qMGVlCo3t1YtLVvB9s5u2xFxN4D2XT22qqqvGhuj1yQ7uwYDce8i4h7w23TdT0/RaYcu1yD3CgXbWuXz2tQSCCvfbZPLnaVgW1g+b0jBQFgut0157iwTIt56W0Qud4GCbW79edYAPfP8fG1sl3JLpLY2YwgxgDQDgI/I7QZx7xxxJ5d44vbphri3tU1QSUmywrIA0tZhz29mNXToXpo48VbZbHb17x/Whg1Bffzx3/XRR/OUmji7VQiWutqTurL+WKufB/cj02Tdo6hdapfa5bABDhvo6cMGvvvdk9Sv3xky8PWGhrmqrv67nnpqtny+KvPQoq7UpNMZUnGxcbLhrhF3p9OmZctaVVxsuFcR40d1ZNy2MwC+tjZLLtdc8+Crnc3eVVUTzPu4XFkKBsPy+ULmv10uW8rd1n2I+2aw/aShxbrq3HEaYF+ibGedQsEatTXnyBcMKt/pVLbTqVAwqLbmZvPfxn9/87aQsp1F5v+/uHaAbr+/Ql/WRP/2LFioHcB2EHcjl0JyMQ8P6CnMP90Q9yjwPywGzHD3CKVVsL0riHt9fZkKCzvw+N2/FuDlncPLQ4fWKTPT+Gm5IxQOLzTNrvr6us3gpPHrTp0/trPPl5wBrndWL9QGtUFt7Lyfsj5YH6wP1geHHHTfIQd9+nh1xhkTlJ//PdntQRUWOuXzfaZHH31Oq1ZlmwcadaXvGtcfxgFKw4aVmKeaW8XZd3a/6HVtjWprN5qz964OOaipWSS73ansbKdCoaDa2prNfxv/nWq3dRvi7rBXypMvPX7OSI0e7VdbXVht9krZwiPkMyBsT5EidQ7JXiw1B+TxrJZto0ttEbfanH3kCQdUGVwtj8envLoBitjXKhwercrgAq1YUaRbH6xRZUTa2PH1YoTdHY4iFRZmq6ysUStWLNWGDYNkt1eaWFpwJ1D3rhD30tIirV3rl9tdYULJxcXHKxCo0Lp1RWpqWtBF/Dx6gmPH84bDlbLbY3t9Bi5eV1e63XuzcttBB7Vow4ZCVVbW7vax4PYVSifE3eeL1nheXikot0AyrSKZ3A+EF4S364ddSDyWDAxTiDogA+ogakuxFsggeeqgrMwtu90azm782uDOEHdpgZqbA6qu3vX1R2vraoXDPtntA1RXVySPx6+O6zeHozTlbssYN64kMm9ercLhVmVknPD/xZOugdn2DOmQUYfpkbNrVZrRaILthRllWq9G+UtHK2I0n4wiKbNMat+kloxPlF2SI7t3X2U0D5KyNyns+0QRzVG/plI1NEUhU49npdauDej39zfq05XSekn+8M4B7u99b6ImTfqTCSp7PJXKzm6U31+mPn1KtW5di4YP36Djj5+iurr1e/R+MzKkESMOU0ZGpRoamvTEEx9Icuq0086Vz3gfEcWM4E+ZUq4TTzzBhJIXLlysO+5YZCLMGRnzv/H1Hnvsb+b9CgvL1NRUqkhkjl588XW98cacLn2Wb745Wx5Pi44//tdqMrPvWh3sSQ0lz2PTC3HPyzO+kdqklpZSFRQkIzAMIG0dRSYrsooNLTX26d0f6kBdWa+rZOyxvGY+33j0DeqKuqKuYoXEre3JrK14r63MzGLts8++lnD2DpvO+N7Cjth7c/Mnqq7ePSgfChmAfpP5PQHj+x52e6M6rt/8/tS7LWPkyBGRL74wkOC+cjhqFQqVanfQea6jVtqMqRtwcIHDo6zcWl183o80uXSFCtyLlNmSp4LcWoVUKvu4c6M4e8EIKdxu4u3++io59ipXVrBBjS19Texd3io1LvhS/k1zTPzM/I6kt1KN7nI99UqDnnqlViF3qap3AbH/8IcX6ZRTzldJyVcqKhprosLLli1Ue/s+euut+9TYKL3yyovKzc1RQUFfE2tzOo1TxVqUldVXLleDSkrK9d//VmzB3o3XMnCg8Q2wSvPxBoA8dOghuvvuW/XWW/P00EPT9cADz2jgQI9+/OOzza9XV9cir7evBg6MPsfq1QbMZvyqn3GamIGwGYB0FJQvKPCosbFWP/nJj/TjH5+lkpISvf/+TF199XQzg477bQvPv/POmyY+t2xZhRobR2j//WWeJHbOORO0ZMkGE6czXrPLladVq76S19u+GawzPt8o0Fxfb2QczfmZZ27VPvscogMPPMrM3u2OPq/xx0DoOj6Pzl7L7urFal0l0/3SDXGXWswDGAwcvKREAuUGBAYE3j3sCZYKQt7Vwy5A1+mx9Fh6LOg66DpzRHLPEdFr8QbLsHsH4m58X6aqqkU1NdFr8W3/dDYf1Ncbblf0Ws2A3I0Dt4xDuFL1toz99js8smLFvM0gemdI+q5ukwIBKd8t9e8r/e78YzXK0yJbyzzluyPKd+eopa1Vfu939VUgrPEnHKJm/xAt++o1ef02jR03UZUNKxVcv0SBNqlo3++qpfEtta/9TCUmAB+F3VsCE/Rl7Vzd8US7vmiRNm2HuHf++vbaa5weeuhXWrw4rF//+kcmXnbWWZfqzDN/oWOPvVJnnJGp66//kT7/PKyCgpBaWk7R00//SZdffrBsNrf+/OfXdM89t2rUqDzdfvtLKilxKzt7kJ55Zp7uu+8svfPOq8rKciscHqQnn3xXBxzg0tCh7aqublDfvv0UCk3QpZcer6eeukEOR3+NHXu0fL42TZ9+s/7nf0bp8suna968Rdtg9NH3UVQ0WE8+OV8LFryv66+f3AlaH73f/PmVWrZsnr7/feO9tevUU4/V5Zc/rjPPvFKrVr2mU0/9uS655Dj17Xuy2tvDOuOMY9TYuFDFxUforrsuVF3deOXnf6yLL75c69a16oEH7lNe3gSdeKJH119/uSZPnqRnnnlGf/jDvWD5nRxokE6I+/YIoHHanVtOZ3WXgcOeh7/Btq0DuWRFVvHAhKkr63UF6E1W8ViD1BV1RV11BeXu+ZmVtZpqa9XpHKRAwK2ysjyVldlUVRWWZNt8cncUezcOs6upCcm4vmxoyJLbvWuwvQOZD4Xy1NLils9XnbJge2cY/R4h7vXNUUus0CkNbMvW73//Iw3fa5GcvkXKcYaU7yySL1ijUH2ONmmMhpx0krwNNQp+vUb1oRwNOWOiNq1sl6P+HSk/T66cgzRv3kfaq32DBjgXbMHeDQC+unWYbvxLhRZvkrwmaGag0iE5nVE3alu82/jO5MiRhXryya9VUfGRLrlkiurrnfrNb36qc8/9uU466QidfvrF+vnPf6OPP35Y8+f/W1dd9aBWrXpHjz32gC66aIpaWgp06qnf1dNPv6Z+/aT77ntY/frlaOrU3+mBB/4k4zudM2bcpWeffV5vvfUnXXHFGzr44H308MNXaNWqZp177u/03nuPatkyny688CT9+tfPa86ch/Tuu59o0KAhOvroIaqrM1579H10QOzDhx+iBx6YqU8/na+f/WxyJzh79P3OmfOB3O6heu65f8rjWabhww+Ux3OgvvOdI+R276u//e1urVy5XPfe+7wuvniKNmyw6bbbrtbvf3+V7PZhuu66n+qMM6bprLN+qNNPP0TTpt2pkSPH6Pbbz9dtt72sBx64Qjfd9Fe1tgbldhs5g+VvW2vphLjviAAa7z0nB0wTTLP7ME23G2ifDDZ16yERXcFXWdOs6V0BuSDa7Pv0CHoEPYJ5rWvzmvFDK8NUWOhV375jzO9bFBbWSCpSKGScFrhIDQ1uNTc7tGnTN+ehnR1o5XTWyedLbbC9M4x+jxF3T1hqyypVdv5aPXDlRRrh/LtpT7XVDVCbo1Ie2whV+qKI+75jLtT6yizZVsyVL7hapWdcq9aW1Yo0FiicKWUPLlZO5Xwt++gN5Tlc8tiiANlGT5Hq1h+kqdf8Q77wCFVaQNeLisbp9ddv1Ndf+3T66f+rvDzp6qsf0+TJo/W9752s//3fC3X22Wfr0ktvUFVVhZ588k7NnPma7rrrbj388N9VUpKpn/70DL322vuqqGjTOef8RIMHZ+iZZ+7RwoUBXX31FL355n/1t789pfvvv14PP/yqysrG6tRTz1Bm5np98ME9mjlzpf74x1/rrbf+q/nzX9TvfnebZs16S4899rLuvvu5LXh8JFIqpzMKyg8blmu+lvffr9GVV07eKTL/2Wd/VmGhS1984VMw6Fb//nnKzKzQnXf+RXPn/kdjx/5cI0cWKTt7nU49daJWrmzQzTc/ogcffFR1dR/q88+Nb3odpJEjh2vy5Bv0xz+erYEDXQoEirVqVaPOP/+n2rixqxh9bPB8MqLw6Yi4b4sABoPrFQ675HSCmoOVg5WDlYPrgusmD65Lz6Zn07Pp2fRsenYyHw7Q3OyS3Z6Rcji7VXi+WxD3wkxJeRl68OpfadTeL2jw+lr5M0u3Iu6eSkXWBzT0pMu0clmhtHKmwuGVGnLm79SwdJUWff4flWQ3Km/MWA3cv1GfvfShipoGabBmy+8p0vr1Aa1oLNblv6vQ2t0g7pmZMnH2gQObNXv2H7RiRZNOPfU08xS1a6+dph//+H81ZcoknXrqVE2ePFWXXfYLrV+/Wk8//Vu99NI8zZjxqR555DJ961tBHXbYOZo37319/nmufv7zfdW//0H65JPp+uSTkKZPf06PPHKX3nrref3f/12jJ5/8TBkZhfr+9yfJ4ajUSy/dpcWLQ7rggsd1662XadKkZn3wgc90ps4++yotWzbLPG3QwN4LCqLWg/Fn//0PMV/Lu++26vLLJ0s6TB7PfK1fvz0K/9//vqvVqwM677yr1afPIOXkBPT009eoublJt976V91ww6NauvQDPffclbr33pv06afSjTfO1IMP3qXW1vlatOhtNTYOUkNDsZ544ho9++zTGjgwoMzMMvn9bk2ZcqGWLn21Sxh96gPw6Ym4b4sAGt+kNhq/zZYMwCaAtHWskqzIKh5rmrqyXlfgumQVjzVIXVFX1BUguvFNK+ogFTIIhQJqauqfFmB7Zxh9lxD3Dmzb21pp4uy5Do8Kwg26Y/q5OrjPBypwf6VMA2bfjLivNhCxUImGjj9G9d510qovtdrr1qizLtKmZT7Jb6Dwkn1wntyhVq39ZI5cqlaBWlXvbVBjqEQLq6RbHqrQqm3w+G1R8w5I3ADRDZi8vLxUDzzwvpYuXaSf/vRctbTU6rbb/qLTTpuo0047Quecc75OOWWipk41fqWuQffd94hefPFB3Xffv/Tgg39RWVmuzj//ZPPX6QYNytLpp0/V3nvn6oEHHtFLL32o6dOv0wcf/FdvvPFXE3G/++5nTIx96tSzFQq168knX9aqVZX6wQ8m64ILpumSS840v0H17rsVmjZtsonldyDpV155kfl6nnrqpjUduQAAIABJREFUr/r664W68cZ79dxz72rGjEs1deq5qqpaonff/dDE1Duy/+CDZxQINGjKlHO1aZNHkyaV6gc/uFS5uSV6882ZuuCCa3XppT9TQ8MS3XHHI6qqatBvf3uVnn32T/rss2r97nc/VlnZRB133EQ98sh9uvvuS81vrp133ul6/vmFeuedOZoy5WTzNefmgrjvWGvpirh/EwYsNx28jm/CAhZLZEAGANwA3ADcANwA3ADcANzJDXDTx+njidjH0w1s7wyj7xbE3biY79sonXf1OE3aOyRbwEDcbcp3Z6mlLSy/N6S2wASVHHiwArXLFWx7Xyu9GzVi7C3KKNhLYXeWFAhrw8a1CnwwT5Hc5Spzr1CgLaxNfgNYn6BX31+r1z6u0FdV0iZnFI83ntf4x0DNvdvA7sZJgWPGjNMrr7yjOXNe03nnnaGSkhwTcT///Jt0+OF765xzztEvf3mNjjjiKLndtSacPnPmA7r55ls1c+YLGjJklE4+2TCiSnTttb/TunULlZk5SF5vWBdccKJWrtygf//7cwUCEb399vsqLc3RiBHNOuqonyocLtY993ymQGCDrr12jHlxf9ddz6qs7CRde+35+vjj19XWZpwOYDMR92OO2U+33/5HlZScoubmajU2ZuuyyyboP/+pNy2sp5++VzfdNEMFBQbq1m6+X+O9eTxHKBRaLgMY7NfvKK1atVrnnXeDiclPn36hiosnqL5+tRYvzlV5eYE+++wSff55qS6+eJpWrQprwIDlstk+1KRJN+jee+9T//4TNH68R1dddY5OOeV+/fWv1+tPf7pVeXkRud05271mt9u4LVb0P/p+U+Gx6Yu4Z5lIYGegXl6ecdToBCUekgkgbR3EJCuyigf0S11ZrysAX7KKxxqkrqgr6irx5lPWJevS2rpsbJyr3NxvXoPl52eppaXz67LOrtVS5bZuQdzdTsnllL69b6FuOqtMzqCBuDuV73TKANhDzc0qDAblzR+mDPs+CgVnKdSco01ZY9Qno0B25xIFgw7Vh9ySb5EKNz/WAM69oTL5fA796ckleuNTr3yFBuIehcwNVLszxN24LTOzUMOH76+GhjVavny1iZAPHOjWsGHH6NVXn9KQIYXKyxutdev+pXDYoWHDhqquzqva2iYdemiZ6utDqq1dpLq6oAYPPkTHHHOUvvjCry++eErNza1yOKSxY8+W3/9frVpVowEDiuT3F6qqarYCgRwNG7a/cnIy9f77/zYh9qef/lr9+i3VpElT1dZmYG01W+D5/PyQhg07xHxN4XCZ/vOf2Vq/vl59+rh10EH7avXqdaqoWCan0zj9zWu+d+Pru1zGfzvNf7zeGn399TotX16jfv2cOuqo4zRkiENffRXW/Pkfavz4sfJ6ffr3v2dr//3HadCgMWpvX6KKii+0YUONDjhgnAKBoJYu/UJOZ74OOGB/rVlTrYqKpXK5QNx3PDAgnRH3UKhzLDAUat58KMEwMGYvIDWItkNkQAbA38DfwN/A38DfwN9dg7/ZQ9N9D62vLzOBd+NaPyPDqR2vwfLznSDudnsUEg9aQNJ3vJ/hPnk8I3TLzxo1dGi2BtY5FbF/KVt4tLKDC2TzSI66UtVtht1NpGsnt7XVlarNXixPOKDK4GrV+lyadnuVFrRKtvAI+brw+rZ9bwbAXVdXqj15v1Yfe/TRR+naa29U//5e3XzzbzVz5sIeed7OXp/xGdlsI0wYPxnh9ER6zemOuO8O2cvKKlY4HFAwuNrE3g1osOM2mw08FDwUPDSZ8VAAZHoYPYweRg8rNi1Q1gIZUAesBal7MujA2bOyihQORw+zMxzvbQ/S4ja/ugVx74DTDbz77HHFuvjicXKuXyJHxiDZ5VVeeKXskSYTdvdnlMmuRnnClVKkSRmZpcrMKNN6NSrPUyn7euN+rfJnnGA+1u9ZqSfuDOj5zxq10jjwTNqCn2/7vB0geqLddvrpP9B3vnOCPvnkEz355DMyfkrFQOZTHzqPAvWJ9nl0T/Yg7p2Bet+8zSuPZ6U54G2FBr0aMCB6W2Njf3m9ZcrO9qqoKJ63DVF29qY4P0dPvI+eeA6ysl6TZJVqWbndK+VwBOT1bu1N3OaV1Qzi28d7ov/F9hxWc+mt+3X359Fb74Pntb4GyYqsjJmaOkjeDGy2gPz+9MXZrV1fNmqPEPcOON0ArnNzayWVqiRQqYsuKte3Rh2ogVqokLtV9upKyS2pxSPl1sqtzYD5ZgC+ZYfb5PAo7OirUKhVcxdKMx6oVH2m1NIiyV0qA48PhYzvRm5Fzbd9LR3QeSLd1gG2GyB6Ir6+RMoqGV4LiHuDsaCVm9tX34TduY1cqA3WBz2iM3iU2wz/k9ogA+rA7SYDMugrMiCDdLuOcmz+Hk9ra4Pc7hbzOrLjto69UeprHsrnNr7v08nMsIeI+7YodxT59nulAQHp6t+crsMP/UjFbdnye6sVDITlctvkcmcp2BaWzxvacpuBvRtgu9fE3jffz5mnr5c4dNaNNeYP6BrfHnOVdAaJJyMunoyvOX3B9s7geRB3w3ELy+WyyeXaOeyeCFhgXl6W2oye40ue19xbmZKV9XomK7JKhv7XW72E57W+PsiKrOglyTFPslZZq6zVrq1Vvz9kXovl59vUp0+eBgyYIJ+vWsGgWy5XnlyuuQoGJ6i29lXzoDm329YpWt+xBvcIcW9uztmMNm9FvkP1knEW2eh93Jr6g2E6ef+BCjXPVigYVLbTaf5j/O+25uYttxU4nWoLBtXcbCDQY2R3blJ1bZ2eeaZGLy+K/tpgvSS7ihQs3IqfR2Htou1A9B2xbQOCT7zbkvE1R+H87T/z9L0NxL3ZhASzs53mPzuD3dvauB8ZdI7+kwu50Dfonewf7KHMEcxSzJPMysyEqT0TGoRSYeEYFRZuUnb2cIVCi9TWVrb5WnLj5tuiGfh8QYVCC+Tz7XxGyhg9emhk8eJKZWUN2CNc3GGv3AKse8JSW5bUPy9bE398uX4y+CGVlblUU5+hvM04uy+4WrawT21ZA9TmKJbHFpAv26vKwGh9+uFnevHtSq1aJa20ScbXq8vqGXTdKs7O/dL78wBxTyZUcIA8Hh8QoscKBklWdXVF8pCVxQzIynq9WM2K+5FpqciADECbgavBu5PpWoO9u/N96/+1d95hVV1p374ph3IO9UgRFER0aCo2RJSggr0mKiaGMSYmk4xxjONcKX7jO0mczDiZJF+KV6IpjgUncRLHGoPdYBdsKIoaitKLSvPQDuXwfWsfEVSS4BtIhKy/zPVkl7V+67f2s/Zin/txx9lZj4VFBs7OGiwt3SksNMHMTENZmYjpb8fE/xcxwQGrrjYeJwqClZUl3AOyb3WIu9hsyq8HrSmUmoDK1IJH+zsyPViPa/AzdCoVn1TpMBiuUl9fiqmpJyYmosyyjhMn3Fn+9bcUl5dQUw/pdVBn0hwM3PXWuVW3gOglGAyZd8X2tivYe+vAxTsyOP1B6puEuLcUsvcgHFdWJsC8JTwIbSkv74ZK9eC2RWrlSUvHSGoltSovb7kGLfWVPE5qKn1VitRAaqBSSQ2kBplIDTqCBjrc3K7StasA1HdTIPUqlf5WoS8dpaXNx4qKXMjP12Fjc/UeH7QexN3yOtQZ4ewKr926AewOKh3Y1kEfb9BowcMWqtSe2NZZUWlIpvwGlNTBiQTjzwWxhiJL7r1ewz3aIcS9OeC90Kq9wejbA2D959BUQtwlhFdCeCWAVsJXOyZ89fvhoc0BRe+M/RB4FIxzRkBLH/RCD8Z+tMb4ZhqXddbOVFb+uH536mI8F5xbqS3GvHVn3+7vHq2ny0/PoT8GuW2tHHU3XLdtvGssBAU/XZe2aV9rzAXZt9by5K8Nei37K4tDtd/nmjHvu7q6IdZAUAP4KusgX19fxowJ5eZNZ/Ly9hEbm0xRkcjJVVhb11BZ6YtO9x0FBVn3FA5rA4i7GZV6A/a29WhsG8HulXqwtwWNbQMMHPR648aWrcedsabHleuM17O1rcf21vV0unvh8XfGHnTguIS4iw2g6mpoX+PW2GYJcW8/QHQJ2245dFNqJbVqC0BpR/GVg4MKMzML8vLK7ihioVKZU1hYSVVVI9xUxEThiNLSKqXYhb29OQaDOZWVjbEHEQis0bjQt+9QDh3a/IMA1R8riiH6W1lpQIBbQ0MnYGqayaVL3ymxpucKb4h8WlrafE4R54o/9uXl3Xvu/eon2mJuboGFBVhY1Ctj2Fysub4JXSZNGsoXX2ymSxcngoJGcuBAGtnZ8c0WM/Hw8GfOnAGsXXuQvDwBqv3fgW+ba0tTGK7Q4G5Nf0iXioo6KioM2Nk1Puv8/KZRXFxBTs6OZsfcy8uJ/v1HcvDgl2RltV4/Gvom1vZija/VDqR/f3f+859vsLSseeALxNyv/35szsjrtTz/Sq2kVm2xVpG+ahtfOTkNFF8lUV3dAGw3w8nJwDPPPMyePXqys3fy0ktzeOed/aSkxN8Gu9vbx5KebttsDm19iHuFFWU1Ndir61DdAqzXVUBZDdirQaVuAH8b/1WrQacGrQIIN8aaHld363rfD2xvj0D09tjmXy+wvblCABLiLoGTEjjZsYGTcnzl+N4NmXd3d2PWrL/w5pvP3S5iYWXlwKOPRrBrVyLZ2Ym3C1s88shTdO9uxbvvvk1trTlarQOjRkXg7u7Fl1++TX6++QNZAKNLF3uefHI+y5cv+UGA6o/ND3t79S0QawX29losLcUfLeuUWNNzHR1d6NOnE7Gxic0WBpkxYywFBRZcuHDonnPvFwAvILJi/JKTt3P2bLpyP7F5MnfuQrZt20RamjHWXN/MzesICLDlwoVSXnjhM+LivuTw4d3fW8xEo1Hj79+d9PRsZXOoNSHVRhhuDSEhozl6VIBuWz5X/f1HcubMHiwsDLf95+Jij4VFNrm5VpiY3AnN7dTJlwULIoiNPcexYyeVwk0qVeuC54cNm8alS4cwM6vByqo/mZkHMDdv3XtIULwExbfmHPyx59/9Ppvk9Vr+DJNatS+txBqpa1fxs7pud+QPc3OxXurP9esFeHr68corM/joo3UkJ+fezpfGdUQiFy9m35NDWw3i3hRqLqHrFxX+lrkEz3dYDSTEvT2BFSWYvOVAYKmV1Kot4Mkdw1dVVT145ZXH+Oc/594GipaWuvP7348lNvZDMjOLMIKX3Zk7dyydO5dw5MhuEhIqqKjowcKFo9HrM4iOXoev7+OEhkZQV1dGUtIXxMefwszMWYF3m5mVExb2G8LDe5CWVseOHV/i4NCTCROGodHoycmp46uvjmFnZ8HYsb2VGs329l7Exx8gIeEKFhb5mJmV0aNHBGPG+FJR4U9tbQKHDu2mX78I7OwiOH78P+TkJDBmzDS0Wi8sLdOIjc2kqiqdmTPH8q9/bcTaeigDBgSyc+cbTJ8+GzMzH+AYW7YIjkWMokF1tSceHj0YNiwQU1M1VlZ68vKu4ub2EEVFGmJjF+PpORTxBVNCwlUeeeQxzMwSMBhUXLhwktBQX9TqScTH/5u6ujx69ZoJmJCWdpa4uH/zxBPPkJp6k717c4mMnEhWVgxFRTpCQ8MVrbOzMzl4MAZ7ez1Dh07D0dGTGzcy2bPn39TWlmFp2bkJED2foUNH4O3twMqVFxV4rK+vE8OH9+PLL2Po1y8QZ+cRCjA2NnY33bsPonNnM1xdR3D58od07RpOWloBU6c+TGZmGbW1GcTEbEKnq8LFpQeDB4/mq68WK7rY2AQwZUoU+/dv4qGHhlFWBp07e1BYmAZ4YG9fQE7OCfbsyWHOnD+Sl3cWD4+ugJ6vv95FQYEjUVETsbOrxmAoZ+fOGCwtXenbtytqdVeF++rn15/U1MPs2lXGQw/ZYGXVg7o6d7766gB2dsUMH94brVaFSuVFRsZhCgvLmDIlmCtX9Bw4sIuUFI1SrGHQoE4UFhagVvfF0dEMR8dANJoM9u/fjaPjoFv9zeS///2C8ePDMTX1wtS0huPHj1BTk0BExDTla3rxItKt2whKS3fi59eDkydLsLSsUDQ9d+7/cv58KiNGPI2nZwQGQxmpqV9QXp7FqFHzuXHDQHz8SQIDtWzfvo4+fULp3Xu8AvpNSlrNyZNnCQmZRXl5Bb17B1JTk8G2beuUn55UVxvnjIVFe1qXSOBzy3Ot1Epq1RbrEumrn8NXRUXu9OunUfKlgLM3QNwbgO1eXqN59NFw4uLSSUo6SWGhALbfedzZs/vbHuIuNm7q68HUlFuAdQlTB6lBx9JAQtzbExBdwrZbDkWWWkmt2gKe3FF85eHhx1NPjeatt/5+B1D0+eeDOHz4O65d26HAp7XabkyeHIT4UsbNrZiVK+MICPDDxUVNjx7u/Pvfq4mMXMiOHReBUsaPd2LDhs0UFnoogNPx430ICChh16799OkzBm/vgXz77QYGDfJSYgMHzsfUVEVKytdMmDCYjRs34+ExjODggaxe/bmyuSGu6+s7ntGjp7Jx4z569bqKj48X27dfJDj4j1y7tpWUlKsEBYm2JxIQ4EuXLn05cuRzZswIYvfuPMaMmcLWrd+iUn3HgAFB7NmTiL9/Nzw8BvPFF2/f1kDoMmHCaLZv/5CoqMFcu+bLoUMnmDgxkNOnL+LkZEptrYry8nL8/UfzzTcfMnToYLKzq7CxMaGiwoq0tFgef3w4p0+bkpdXxSOPDOajj97md78bTXKyHkfHYej1JzlzJpYZM4Zz6pQpGRklTJ4cSGLiRfr0MSU9Xc2FCyUMHBhIbOxK6upKKS29c05bW+t54YUVrFixhvp6nXKf9PSvcXbuR3Z2BJmZ3zBxYi/On19PbW0Yo0ePJiZGbNR8x6RJgaxZc4K5c19k5cp9hIRcxcLCi6++iicq6gV0uqPs3h2r6GJp6c2zz87l/ffXs2hRGMePb6SgIIzIyFHs2rWPiooMZZw/+eQgCxa8RGLit5w+fYbHHhvM2bNldOoUcau/JxgyJJjiYh3JyXXMnj2c7ds/paDgGo8++hIbN8aj1ZYSFubB11/vJzx8DKWlAzlyZANPPjmYr7/ejJvbMIYMCeKjjzYye3YQ+/Zt5soVNTpdF6WoyNy5g7l8eSMGgyvDh/+OrVs34+RUS1iYF5s3JzJzpujvDvr1u0rnzoF3+CAh4XP+8Icg1q1LJDe3G1FRYZw+HUdJyX4iIuYSHX1G2SiMiBjLypWLeeKJ/8O2bWLzsJTgYCe2bYtRfLZ/fzEODqWMHRukzI/nnluonFtfr+epp/xYtSqa/v3HExAwlGXLNjNpUn9yc7P47rtz5OQ82MVRZGGGludVqZXUqi3WINJXv5yvxHpIbEh5el5VCvbdDWyfM+dvpKZ+y7FjxeTnlzYLds/P/67tIO6Wltepq/NEQr6lBh3VB9bWRsioUqjAtgFKK8GeEi4p4ZLtFy4p56+cvy2fv6Jq8uLF81iw4BklBwi4uLl5MfPnL2HHjvUkJyffAoRf59lnF3HtWi1+flbs2HGU4cNHcObMEYYM6cuKFSsYN24Obm6OlJQkc/SojqysfQhYtgCdz5z5OGVltnzzzepbsPfr+PiEKsBTIwDeF4NBx9GjcYSFhRAdvQJX1+5ERb3IunXv3gaeBgdPJSxsHGvWvIuTkzUhIb1Yt24nkyePQqOxZteuXQQHh+Lk5IyLizuWllasWvUZc+cuQa9P5tSpU5w6lcjw4VPx9i7mxg0bVCp3+ve3YuHCv96Gqjo5eTJuXF9Wrvwvc+bMIy/vCnv2bGHWrKcpKgKVSuRONy5dKla+CNPrM8nKqiQ2dh9BQaMwNbXm2LH/MmzYqFugV0d8fJxZsuRV5Xqi7aam3Vm/fgV5eVm8+OKb3LgRj/Cuj08V587pyMi4zsiRfcnKqiErS2i66x7oawNAeurU53BwsFb0Cw8PYd26FTzzzCIMhhrq6qowM6vFwqKYhIRKgoKM+tnZ1TJpUhTr1y9n8eJlREevRqe7yKxZb7JmzVs8+eSjREcfIScnXrlvly4+zJq1SGlzZOQMNm5cSnm5G/Pm/YVt21Zz5cpFoqLeZMeOt3jxxb/wySerOX9ebISNorzcnKCgqXz++Wrlera2HkydOoITJ4oJCfHlvfeWKP57+eUlvPPOekWrpt4Q99+3bzujRo1XvKFSdWf+fKM3oqJGs3HjOrKyzAEjXFeMb2lpMRqNaLc3W7Zsx9Kylhkzoti0aQMLFizi3XdXEBERomiWlXUFjcaTBQsms2nTembOjOKdd5ZjalrF4sUf8D//sxAHBw+effZR3nlnCW5unkyYMENpS2joJEUbUQBD/Kz0009XMH36HHbtOoCPjyfBwb2UmNBu1ar1Csx35sypJCUV07NnJSUllYon3dxEn3uxffvOVgX8y1z24BeYkGMkx0g846QP2ocGen0x/v6jEP82hbOLtYzIyeHho8jKKiY1NQ9b2+/Q6cTiqhHiLsY6NfXovRB3X9+Q+rS0eGxsBCS9fYO19bdh77Ifcizbws+N8H0JcZcQ944IZO0osO2fA8QptWo57LOjaOXu7kRU1Pv84x+zqKmJQKOJRau14ZlnXiMmZisnTx6+BWy34be/fY3k5K1cv25J376h9O3rxdKlYkNmIW+99SrW1vU4OFgycWIEnTqFKjFz82oFXD1+/B/R6WrZvPk9vL2tMBgsmTHj92Rn17Jhw3s8/XQkWm09MTHiK6kQli1LxN09h9dee4W//e3V28DT8PBAoqL+xOuvv4qrqwuhob1Ys2Y9s2fPoajIEhsbM6ytB7JmzdPMnv04lpbO7NixQenP5csZeHpmEh19mGHDxlNaWs6pU+KrJBvq6mwpLW0Ekw8d6oSfXySffPIxM2e+T0XFYY4f38vDD79GQUEONjbdqKwsID7+PSoroUuXMUyZMlE5xszMChubZOLicpg06TWOHv2AsrJc/vCHJXzwwYuEh7+Pi0sB/v4+rFr1LzIz05g3bwn79i0nNTUDNzcj4PXaNQtcXLoTHj4AT8/x7Nv3KXFxxvG4+3nw0EP+jBw5UPnZWnV1Z1aufI+lSxcTE7OcS5dssbXNJTMzgpEjHQgJqWfFCvGFlgtjxrxGdPQ8li//gmXL3iMl5RQLF77P9evH0WrNWLfuIPn5Rl0ExP2NN17hH/94lcmTF/LppwfRalOZOzdU+arpypUs/vSnJaxa9QF///vryvUSE0/x29++z82bh3nkkcjbMU/PCUydGsjZs6vo1SuS5cs/Vvz31luhLFv2AaNHv0Z1dQ4bNiQybZoD3t71bN+ex7hxwhvv4e7ur3jjr399lcjIUFau/Bowek20ddq05ykoyEOlqsfHx5LPPjuIi0u9ct3t2z9gyZJFvPnm6wwdOp6EhHJSU9cj5oIY6w0bXlaOW7NmHi4uTsyebZwfnTtHMGvWHFatelqB9Y4f/3e2bTvM1KkDOXToA6qqxvHww4MU38+e/SdiYt5VIO7Tpk3jrbcO8sYbA1i27J8KoD4y8nmOHcsjJOQ3lJWdY8+ePbi4uPCb3wwlNnazUiDhfkD2HTF3/xw5T96j5TlPaiW1kpB5Y8EP8Xx2cBhIfb14bzRC3AWcvbIyQimiMnXqSHJzc0hL+1SJifzfcJydXSxpabZcv35vIRST3r3711++nIi1dZ0CVBcQdfE5d3PgahmTuvy6vdEI35cQ99aF0kooY/uCMkpAqQQM/xqhyALivmDBX9i9O1phANXWip+sJSnQ80uXKqiujqW4WK1sDPTq1YvU1FPs3HmAV155latXs5Svkp5//iU++GCp8vOykpKrVFTU0KfPEN5+eyk1NaYKWLtPn2BlI2bfvliGDRtETk4JGo0T5eVWlJbG0qPHNFQqe44f38yAAV7KFytOTr48/fTLREcvJT/fCDx96KFphIVN4OOPl+Lqak9YmPgCawuzZz9LUVG5stbr2rUnGRnnGTQoAFPTAnbvTmTKlAjWrn2XCRNmUlxczuHDe3j88fmcPr2X+noHHB0t2bz5q9tQVQ8PN0aMCGft2mgEdL2iwoIDB+IUuH1RkR2WlplYWvZEr8/H0dGGhIRUunQZi053ktzcc8q5iYnZhIdHcOnSXmxtOxEQMJa1a9+nd+/pyqZFaupJJk5cyK5d0QwePB21WvzFNodevfoTE/MlfftOR6OB3Nwz+PvbcuhQNvb25eTn3yQ9vfAeOPtzzz2r/Gxw2bJoVKoD9Os3jZ49B3L58lG02gFkZh5FrXZk0KBRfPjhn2kKt3/99Y/4+OO3OXcujd69x/L441PYt+8YZ89uQacz5sbOnX159tmXWb16KY899hKfffZnbGzcmDt3EZs3v638xXn+/IWsXbuW3//+VS5fPkBaWiqjR49l585NeHuH4uIiNg1TCQ0dy/nzBeh02+nfP5xPPonGyamGxYs/45tvYujWzVZhoCUnx+LlZfSG2NgZOrTRG3/+88v87W9LmTx5Iikpl7l0KQu93qjLzJlPkJNzGTMzO3r2tONf/9qCp2d3xox5iq1bP2bRokW8887b2NtXMHLkfC5c2Eu3bp0oKhL8tmyeeOIp3nhjMY6Obixa9Bdefvk5nJz68dRT45TNNheXGiZNeoGdO2MZN+5J0tJi6N59MC4udezcuRc/Pyfy80V1zhpGjBjC+vVifrxMcnIixcU19O07hM8/X6pUsywtrWT//mNK+3x8eimbfmFhfnzzTSI63b2gX7m2kGuL7yvMIL0hvSG9cWfRjrZY1wkQu9g/cnXtfxecXXzxXHFrv0mNWm0s/NJ0XtrZqRF7VM0929sE4i4B5hLiXlPTsTWQEPf2BEvtGADpnwO2WFgotWq5zlKrX5tWN2/mExn5JGZm+QqE2ty8M3v3phIS4olGI2DbxlhBgRNqdRFZWekkJ59k8OBBJCbWYTDoCQlRc+TISezsBhEYGIKnpw3x8ftITs5EpTKxezFLAAAIiklEQVRRAPCCGdS1q45+/YLIzjZR7uHjU05wcA/lHomJ1Xh5BVNaegIrKxT4taNjZ/z8HiYp6QiFhQKWWoaXl4CQD+DcuSPo9ToGDgwiMfEY3t5eWFkJhlYCYWEjsLa2JCkpEx+fAGpqjAD4uLg0cnM9iIwMID5+k/IVj5+fJzk57qSknCUnpxGqamPjgacnnD9/iYiIEeTmFhAXV63oUlubr7SxthaysyEsLACNJp+KCg1Hjx67fY8bNy4qvwKwsfEkN9eJsrIiunZN59o14xf1cXFxhITMxNY2nfj4TEaNeggHh86kpJRx/vwmnJ396dPHU4kJWPnBg5uIiPAnN1ecW63AysvKGvOWt7cH7u4B7NmzSemvgL0PGTIDJ6dqUlLOcPHiSbp0Efr149y5WGV8Bw/2YN++NIKDZ9zSIAEbGw3z5j3DJ5/EKLD1hnuIn815e0/nyJEThIRoOXs2Fp1Oy8iR00lJOUFKyiWmT/fn9Oksfve7P5KUlEdt7XdKW7ZsSaOuzospU/rSqVM6FRVl7N6dRlOdhQ8CAgZhbx+iAOADA9W3vJGGl9f0O7yhUnUmKMjoDXNzndKPpKRqLlww6tK1a7WyuWhn1xcbm8b+du/uQXZ2Gj17Tic+/gQGgxhff1xde3HlioqkpFjlq8EGXW7e9CIysi9bt36oAHeHDHmcvXuvKn7u10+t+FTMBQ+PYEWDsrIC5aeG1683+tnBAWV+CO1DQkKUL8XOnj2jzCNPz0GYmtaRlKTHw0OHWi2YcdX4+fXjyJFYDIb2tC6RAOmW5w+pldRKQtyNBWLa71wQa4tu3TRYWblTWGhCA8S9ObB7Qyw93cCNG80X6DAJDfWoj4+/jsFQJaHrEjwv4fstKkAgIe4S4l5Ce9KgpQDLjgLbbml/f8pxUquWQ0E7ilYCRlpfX3Ibki4A4SKWn1+Cs7MRnG5i4ompqYjpbsFIjTEjaLoxJs61t+9Gba1eAYSrVHpUKpfb59rYXEUAx0tLXRSwe9euJZSXi02uUlQq4/VErAHY/n33MHpch7hefr4eb2+Xu9rSeA8B9G7oR3N90+kEA7LxeqItDdD6Rg30mJg03OPO69nZdSMrq4Tu3TOpqzMeZzB0Q68vob7e2LdGgK8OO7ur5OaWotU2eK1Bv+9v891a/RAQuKl+jbD3pmNURXn5aAV0Lp73AjDbtC0jRlQQHBxIaqqoCnnj9nGiH5WVYjPtTm80Bco39cu8eS/x8ce7/v+9jt66RxVa7WjFQ507X1Vg9I3je+8YCRh9efnV2/rd7cmmfRM+uFPnH85loh/GMd+Ls7Or4nGVypuMDCMAvmkeNN5XeC0OlUqwz3xue63hvsK7xvnR3Ln3tsXCQodGY2xzg+/vnkcN/e2IOfmn5Ch5bstzlNRKaiXh8U3zb+u/44icJzamxPO6vNxFWfM4O98LdjfmCp2SOzIyxHHNt8WkZ8+A+vT0ZFQqRySI3VlqYCk1EByQH54LxbdAui2H/0pQstRKAifbB3BSzlU5V1s6V8GxWYB0Xp4jHh5VCqD0x2Czbm5V5OWJza9fujCIEejdkjYLAPf9Hvd9WjU/35pry70xvd4RB4cqiooadb47ZrxvS/vW0uOMxR+6dhUwcmdSU89RVFSrxO5HFweHSvR6H/r0mUxe3naysrIwxn7JOXh/GjT094fGVwB54Yfmgg+VlXfqd39+kcU4ZN76JeeM9J/0n/RfS9dNWq0PWq2xII0xfzQC20UsN1f8gSuZ8vIf1tSkZ8+Q+qyseAUoKsHfUgNbW6nB92sgGGgGHgQAaEeBIv8coEupVcthmlIrqVVbgEelr1ruq9Z+JjYHuG7tWGu3+ee4XoMGAiJbXW2Ezf4c95X3kDpLr8n5Jt4lpA+kBr8GHzRfZMNYDKZTpy5UVxvB7jY2sWRlNQ9sb+6928Td3apeQETr6iTEXa2WGkgNavg+DTQa13tAsBJmLWHWbQE9lL6SvpK+qlGA5nIu/DQNBED1bjBqa8fa4xg1aNAAkVWpfprO7VED2WY55vIZK/OMAJlLH0gN2soHza03hN9EMbSGoif/G/+ZaDTaejc3DRkZJqhUmRgMAuLZAOAWv2HnrphnM8fJmLm51KCjaiCA7YWFnkolJTOzACwsHgRQqARItxxmKLWSWrUF/FL6SvqqLXzVfiGtTSHpLffGL91fI7ReQNzbT5sfhDXILz1uUoP2Od/kuMlxu7OghnzuynXEnYD6O3OymdndEHd3AgM1mJiYUO/lZaUAIjMyugF7EVUE62/DrBU0w12x0c0cJ2MmJlKDjqqBVssdMNf7gaC2BRiwo0CRfw5wptSq5XBOqZXUSj6v2hZkKkHTrQ+HlZpKTb8P9Cu9Ib0hvSGKMEgfSA3ahw+aFpJp7h1RQOBNTPSYAPVig6pPnwDKy2spKRFAzEagaAPMWqdrChltgDzKmNRFQF/btw+a87i19XXA2DfBhgPn+wDBSqCjBDpKoGNLgY7yOAm3/zHQ+f3CseX1fhweLzWVeVrmaZmnZf6V+VfmS5kv76f4yM/rl4Z3cWPxNK3WES8vZ86fBxO1mnq9HuUlPTDQiro6Z5KScqmsNGBra4atrTl6vQGdzgi6lDGpQUf3gQArCuic9L3UQD7/ZA6QOU/mvI6e86THpcelx+U7jnzPk++68r1Hvvc8iO89lZV1uLpGoFbbcP36FmpqwMTKinrxH2o1lJVBly5aDIYK1Op+2NreRK32o6YmkYqKbtTUCMD1DdRqf2pqzt0Va+44GZNaCb+01AcPhq/MzdVotWqghuLiChwdaygrU2Nj8yDFNED1A9w+qdWD5ZeWjof0VcvHTWoltXrQ8kJL57k8ruXelVpJreQ8f/DWwHJeynkp52VHn5dqtVrZg9LrbSkoSKS6Wk1xsQ4nJ/h/qOX/LZm3WLcAAAAASUVORK5CYII=;" parent="1" vertex="1">
          <mxGeometry x="352" y="132.5" width="136.66" height="77" as="geometry" />
        </mxCell>
        <mxCell id="QwIwqJ6ydblgDalMbVSR-4" value="Text" style="text;html=1;align=center;verticalAlign=middle;whiteSpace=wrap;rounded=0;" parent="1" vertex="1">
          <mxGeometry x="679" y="130" width="60" height="30" as="geometry" />
        </mxCell>
        <mxCell id="QwIwqJ6ydblgDalMbVSR-5" value="User" style="text;html=1;align=center;verticalAlign=middle;whiteSpace=wrap;rounded=0;" parent="1" vertex="1">
          <mxGeometry x="-3" y="191" width="60" height="30" as="geometry" />
        </mxCell>
        <mxCell id="fo2ytR6l5RoMsaps6pNZ-5" style="edgeStyle=orthogonalEdgeStyle;rounded=0;orthogonalLoop=1;jettySize=auto;html=1;exitX=0.5;exitY=1;exitDx=0;exitDy=0;" parent="1" source="QwIwqJ6ydblgDalMbVSR-6" edge="1">
          <mxGeometry relative="1" as="geometry">
            <mxPoint x="412" y="261" as="targetPoint" />
          </mxGeometry>
        </mxCell>
        <mxCell id="QwIwqJ6ydblgDalMbVSR-6" value="Chat UI" style="text;html=1;align=center;verticalAlign=middle;whiteSpace=wrap;rounded=0;" parent="1" vertex="1">
          <mxGeometry x="382" y="207" width="60" height="30" as="geometry" />
        </mxCell>
        <mxCell id="ihe8SAv-YGBBR6N-Nd_S-3" value="" style="sketch=0;points=[[0,0,0],[0.25,0,0],[0.5,0,0],[0.75,0,0],[1,0,0],[0,1,0],[0.25,1,0],[0.5,1,0],[0.75,1,0],[1,1,0],[0,0.25,0],[0,0.5,0],[0,0.75,0],[1,0.25,0],[1,0.5,0],[1,0.75,0]];outlineConnect=0;fontColor=#232F3E;fillColor=#ED7100;strokeColor=#ffffff;dashed=0;verticalLabelPosition=bottom;verticalAlign=top;align=center;html=1;fontSize=12;fontStyle=0;aspect=fixed;shape=mxgraph.aws4.resourceIcon;resIcon=mxgraph.aws4.fargate;" parent="1" vertex="1">
          <mxGeometry x="379.33000000000004" y="270" width="78" height="78" as="geometry" />
        </mxCell>
        <mxCell id="GpLrsReoWp_d38bWohTq-1" value="" style="endArrow=classic;html=1;rounded=0;exitX=1.033;exitY=0.65;exitDx=0;exitDy=0;exitPerimeter=0;entryX=0;entryY=0.5;entryDx=0;entryDy=0;edgeStyle=orthogonalEdgeStyle;" parent="1" target="QwIwqJ6ydblgDalMbVSR-2" edge="1">
          <mxGeometry width="50" height="50" relative="1" as="geometry">
            <mxPoint x="277.32000000000016" y="172" as="sourcePoint" />
            <mxPoint x="356" y="167.13203514604606" as="targetPoint" />
          </mxGeometry>
        </mxCell>
        <mxCell id="GpLrsReoWp_d38bWohTq-4" value="Stack 4 - AR Ingestion Pipeline" style="text;html=1;align=left;verticalAlign=middle;whiteSpace=wrap;rounded=0;fontStyle=1" parent="1" vertex="1">
          <mxGeometry x="584" y="293" width="184" height="30" as="geometry" />
        </mxCell>
        <mxCell id="GpLrsReoWp_d38bWohTq-5" value="" style="sketch=0;points=[[0,0,0],[0.25,0,0],[0.5,0,0],[0.75,0,0],[1,0,0],[0,1,0],[0.25,1,0],[0.5,1,0],[0.75,1,0],[1,1,0],[0,0.25,0],[0,0.5,0],[0,0.75,0],[1,0.25,0],[1,0.5,0],[1,0.75,0]];outlineConnect=0;fontColor=#232F3E;fillColor=#E7157B;strokeColor=#ffffff;dashed=0;verticalLabelPosition=bottom;verticalAlign=top;align=center;html=1;fontSize=12;fontStyle=0;aspect=fixed;shape=mxgraph.aws4.resourceIcon;resIcon=mxgraph.aws4.eventbridge;" parent="1" vertex="1">
          <mxGeometry x="595.62" y="338" width="40" height="40" as="geometry" />
        </mxCell>
        <mxCell id="GpLrsReoWp_d38bWohTq-6" value="Daily Event" style="text;html=1;align=center;verticalAlign=middle;whiteSpace=wrap;rounded=0;" parent="1" vertex="1">
          <mxGeometry x="585.62" y="381" width="60" height="30" as="geometry" />
        </mxCell>
        <mxCell id="GpLrsReoWp_d38bWohTq-7" value="" style="endArrow=classic;html=1;rounded=0;exitX=1;exitY=0.5;exitDx=0;exitDy=0;exitPerimeter=0;entryX=0;entryY=0.5;entryDx=0;entryDy=0;entryPerimeter=0;" parent="1" source="GpLrsReoWp_d38bWohTq-5" target="0gMe88-RUzZ61mWNXkSE-30" edge="1">
          <mxGeometry width="50" height="50" relative="1" as="geometry">
            <mxPoint x="657.5" y="338.5" as="sourcePoint" />
            <mxPoint x="678" y="350" as="targetPoint" />
          </mxGeometry>
        </mxCell>
        <mxCell id="GpLrsReoWp_d38bWohTq-8" value="" style="sketch=0;points=[[0,0,0],[0.25,0,0],[0.5,0,0],[0.75,0,0],[1,0,0],[0,1,0],[0.25,1,0],[0.5,1,0],[0.75,1,0],[1,1,0],[0,0.25,0],[0,0.5,0],[0,0.75,0],[1,0.25,0],[1,0.5,0],[1,0.75,0]];outlineConnect=0;fontColor=#232F3E;fillColor=#C925D1;strokeColor=#ffffff;dashed=0;verticalLabelPosition=bottom;verticalAlign=top;align=center;html=1;fontSize=12;fontStyle=0;aspect=fixed;shape=mxgraph.aws4.resourceIcon;resIcon=mxgraph.aws4.rds;" parent="1" vertex="1">
          <mxGeometry x="1053" y="137" width="36" height="36" as="geometry" />
        </mxCell>
        <mxCell id="GpLrsReoWp_d38bWohTq-9" value="Client&lt;div&gt;Insights DB&lt;/div&gt;" style="text;html=1;align=center;verticalAlign=middle;whiteSpace=wrap;rounded=0;" parent="1" vertex="1">
          <mxGeometry x="950.25" y="210" width="72.5" height="30" as="geometry" />
        </mxCell>
        <mxCell id="fo2ytR6l5RoMsaps6pNZ-1" value="OpenWebUI" style="text;html=1;align=center;verticalAlign=middle;whiteSpace=wrap;rounded=0;fillColor=#FFFFCC;" parent="1" vertex="1">
          <mxGeometry x="358" y="100" width="130" height="30" as="geometry" />
        </mxCell>
        <mxCell id="fo2ytR6l5RoMsaps6pNZ-3" value="Fargate" style="text;html=1;align=center;verticalAlign=middle;whiteSpace=wrap;rounded=0;" parent="1" vertex="1">
          <mxGeometry x="389" y="347" width="60" height="30" as="geometry" />
        </mxCell>
        <mxCell id="fo2ytR6l5RoMsaps6pNZ-6" value="Hosted on" style="text;html=1;align=center;verticalAlign=middle;whiteSpace=wrap;rounded=0;" parent="1" vertex="1">
          <mxGeometry x="417" y="234" width="60" height="30" as="geometry" />
        </mxCell>
        <mxCell id="fo2ytR6l5RoMsaps6pNZ-7" style="edgeStyle=orthogonalEdgeStyle;rounded=0;orthogonalLoop=1;jettySize=auto;html=1;exitX=1;exitY=0.5;exitDx=0;exitDy=0;entryX=0.021;entryY=0.517;entryDx=0;entryDy=0;entryPerimeter=0;" parent="1" source="QwIwqJ6ydblgDalMbVSR-2" target="0gMe88-RUzZ61mWNXkSE-3" edge="1">
          <mxGeometry relative="1" as="geometry" />
        </mxCell>
        <mxCell id="fo2ytR6l5RoMsaps6pNZ-8" value="POST /kb/upload" style="text;html=1;align=center;verticalAlign=middle;whiteSpace=wrap;rounded=0;" parent="1" vertex="1">
          <mxGeometry x="513.62" y="119" width="60" height="30" as="geometry" />
        </mxCell>
        <mxCell id="fo2ytR6l5RoMsaps6pNZ-14" value="Stack 3 - Database" style="text;html=1;align=left;verticalAlign=middle;whiteSpace=wrap;rounded=0;fontStyle=1" parent="1" vertex="1">
          <mxGeometry x="942" y="30" width="188" height="30" as="geometry" />
        </mxCell>
        <mxCell id="fo2ytR6l5RoMsaps6pNZ-16" value="Stack 1- UI&amp;nbsp;" style="text;html=1;align=left;verticalAlign=middle;whiteSpace=wrap;rounded=0;fontStyle=1" parent="1" vertex="1">
          <mxGeometry x="296.62" y="70" width="224" height="30" as="geometry" />
        </mxCell>
        <mxCell id="fo2ytR6l5RoMsaps6pNZ-19" value="" style="outlineConnect=0;dashed=0;verticalLabelPosition=bottom;verticalAlign=top;align=center;html=1;shape=mxgraph.aws3.lambda_function;fillColor=#F58534;gradientColor=none;" parent="1" vertex="1">
          <mxGeometry x="766" y="102" width="40" height="40" as="geometry" />
        </mxCell>
        <mxCell id="fo2ytR6l5RoMsaps6pNZ-20" value="Identify Document Type" style="text;html=1;align=center;verticalAlign=middle;whiteSpace=wrap;rounded=0;" parent="1" vertex="1">
          <mxGeometry x="756" y="151" width="60" height="30" as="geometry" />
        </mxCell>
        <mxCell id="fo2ytR6l5RoMsaps6pNZ-22" value="AWS Step Functions workflow" style="points=[[0,0],[0.25,0],[0.5,0],[0.75,0],[1,0],[1,0.25],[1,0.5],[1,0.75],[1,1],[0.75,1],[0.5,1],[0.25,1],[0,1],[0,0.75],[0,0.5],[0,0.25]];outlineConnect=0;gradientColor=none;html=1;whiteSpace=wrap;fontSize=12;fontStyle=0;container=1;pointerEvents=0;collapsible=0;recursiveResize=0;shape=mxgraph.aws4.group;grIcon=mxgraph.aws4.group_aws_step_functions_workflow;strokeColor=#CD2264;fillColor=none;verticalAlign=top;align=left;spacingLeft=30;fontColor=#CD2264;dashed=0;" parent="1" vertex="1">
          <mxGeometry x="756" y="70" width="163" height="190" as="geometry" />
        </mxCell>
        <mxCell id="M63x77ZbkiXIvn8amfzj-1" value="" style="sketch=0;points=[[0,0,0],[0.25,0,0],[0.5,0,0],[0.75,0,0],[1,0,0],[0,1,0],[0.25,1,0],[0.5,1,0],[0.75,1,0],[1,1,0],[0,0.25,0],[0,0.5,0],[0,0.75,0],[1,0.25,0],[1,0.5,0],[1,0.75,0]];outlineConnect=0;fontColor=#232F3E;fillColor=#DD344C;strokeColor=#ffffff;dashed=0;verticalLabelPosition=bottom;verticalAlign=top;align=center;html=1;fontSize=12;fontStyle=0;aspect=fixed;shape=mxgraph.aws4.resourceIcon;resIcon=mxgraph.aws4.cognito;" vertex="1" parent="1">
          <mxGeometry x="153" y="270" width="78" height="78" as="geometry" />
        </mxCell>
        <mxCell id="M63x77ZbkiXIvn8amfzj-2" value="Cognito" style="text;html=1;align=center;verticalAlign=middle;whiteSpace=wrap;rounded=0;" vertex="1" parent="1">
          <mxGeometry x="162" y="351" width="60" height="30" as="geometry" />
        </mxCell>
        <mxCell id="M63x77ZbkiXIvn8amfzj-9" value="" style="outlineConnect=0;dashed=0;verticalLabelPosition=bottom;verticalAlign=top;align=center;html=1;shape=mxgraph.aws3.iam;fillColor=#759C3E;gradientColor=none;" vertex="1" parent="1">
          <mxGeometry x="170" y="102" width="42" height="61" as="geometry" />
        </mxCell>
        <mxCell id="M63x77ZbkiXIvn8amfzj-10" value="IAM" style="text;html=1;align=center;verticalAlign=middle;whiteSpace=wrap;rounded=0;" vertex="1" parent="1">
          <mxGeometry x="161" y="163" width="60" height="30" as="geometry" />
        </mxCell>
        <mxCell id="M63x77ZbkiXIvn8amfzj-12" value="Region" style="points=[[0,0],[0.25,0],[0.5,0],[0.75,0],[1,0],[1,0.25],[1,0.5],[1,0.75],[1,1],[0.75,1],[0.5,1],[0.25,1],[0,1],[0,0.75],[0,0.5],[0,0.25]];outlineConnect=0;gradientColor=none;html=1;whiteSpace=wrap;fontSize=12;fontStyle=0;container=1;pointerEvents=0;collapsible=0;recursiveResize=0;shape=mxgraph.aws4.group;grIcon=mxgraph.aws4.group_region;strokeColor=#00A4A6;fillColor=none;verticalAlign=top;align=left;spacingLeft=30;fontColor=#147EBA;dashed=1;" vertex="1" parent="1">
          <mxGeometry x="-3" y="-30" width="1353" height="620" as="geometry" />
        </mxCell>
        <mxCell id="M63x77ZbkiXIvn8amfzj-13" value="VPC" style="points=[[0,0],[0.25,0],[0.5,0],[0.75,0],[1,0],[1,0.25],[1,0.5],[1,0.75],[1,1],[0.75,1],[0.5,1],[0.25,1],[0,1],[0,0.75],[0,0.5],[0,0.25]];outlineConnect=0;gradientColor=none;html=1;whiteSpace=wrap;fontSize=12;fontStyle=0;container=1;pointerEvents=0;collapsible=0;recursiveResize=0;shape=mxgraph.aws4.group;grIcon=mxgraph.aws4.group_vpc2;strokeColor=#8C4FFF;fillColor=none;verticalAlign=top;align=left;spacingLeft=30;fontColor=#AAB7B8;dashed=0;" vertex="1" parent="M63x77ZbkiXIvn8amfzj-12">
          <mxGeometry x="80" y="32.5" width="1260" height="557.5" as="geometry" />
        </mxCell>
        <mxCell id="M63x77ZbkiXIvn8amfzj-18" value="Internet Gateway" style="text;html=1;align=center;verticalAlign=middle;whiteSpace=wrap;rounded=0;" vertex="1" parent="M63x77ZbkiXIvn8amfzj-13">
          <mxGeometry x="-28" y="297.5" width="60" height="30" as="geometry" />
        </mxCell>
        <mxCell id="M63x77ZbkiXIvn8amfzj-15" value="" style="sketch=0;outlineConnect=0;fontColor=#232F3E;gradientColor=none;fillColor=#8C4FFF;strokeColor=none;dashed=0;verticalLabelPosition=bottom;verticalAlign=top;align=center;html=1;fontSize=12;fontStyle=0;aspect=fixed;pointerEvents=1;shape=mxgraph.aws4.internet_gateway;" vertex="1" parent="1">
          <mxGeometry x="49" y="238" width="56" height="56" as="geometry" />
        </mxCell>
      </root>
    </mxGraphModel>
  </diagram>
</mxfile>
